<?xml version="1.0" encoding="utf-8"?>
<!-- Generator: Adobe Illustrator 19.1.0, SVG Export Plug-In . SVG Version: 6.00 Build 0)  -->
<svg version="1.1" id="Livello_1" xmlns="http://www.w3.org/2000/svg" xmlns:xlink="http://www.w3.org/1999/xlink" x="0px" y="0px"
	 viewBox="0 0 79.9 50.1" enable-background="new 0 0 79.9 50.1" xml:space="preserve">
<g>
	<path fill-rule="evenodd" clip-rule="evenodd" d="M2.5,29.8C2.3,29.5,2,29.3,1.7,29c1.6-1.7,3.5-2.9,5.7-3.5
		c0.6-0.2,0.9-0.5,0.8-1.2c-0.1-1-0.1-2-0.2-3c-0.2-3.2,2.1-5.8,5.2-6c1.5-0.1,3,0,4.5-0.1c0.4,0,0.8,0,1.2,0
		c0.1-0.7,0.3-1.2-0.5-1.6c-0.3-0.1-0.5-0.7-0.5-1.1c-0.1-1.4,0-2.7,0-4.1c0-0.4,0.1-0.9,0.4-1c0.8-0.4,0.7-1,0.7-1.7
		c0-0.7,0-1.3,0-2c0.1-1.7,1.1-2.7,2.9-2.9c0.3,0.9,0.8,1.7-0.5,2.3c-0.2,0.1-0.3,0.5-0.3,0.7c0,0.8,0,1.7,0,2.5
		c0,0.2,0.1,0.6,0.2,0.7c0.8,0.5,0.7,1.3,0.7,2c0,1,0,2,0,3c0,0.6,0,1.2-0.7,1.6c-0.2,0.1-0.3,0.7-0.2,1c0.1,0.2,0.5,0.4,0.8,0.4
		c3.4,0,6.8,0,10.2,0c0.8,0,1.6,0,2.1,1.1c1.5-1.1,2.8-2,4.3-3.1c-0.5-0.8-1.1-1.4-1.5-2.1c-0.1-0.2,0-0.6,0-0.9
		c0.3,0.1,0.7,0.1,0.9,0.3c0.3,0.3,0.5,0.8,0.9,1.2c0.5,0.4,1.3,0.6,1.4,1c0.1,0.6,0,1.2,0.5,1.7c0.4,0.4,0.7,0.9,1,1.4
		c0.1,0.3,0.1,0.7,0.1,1.1c-0.3-0.1-0.7-0.2-0.9-0.4c-0.6-0.7-1.1-1.5-1.8-2.4c-1.4,1-2.8,2-4.2,3c0.1,0.2,0.2,0.4,0.3,0.5
		c1.3,1.2,1.2,2.5,0.5,4c-1,2.3-1.8,4.7-2.7,7.1c-0.1,0.4-0.2,0.7-0.4,1.3c1.8,0,3.5,0,5.2,0c1.7,0,3.4,0,5.1,0
		c0.6,0,0.9-0.1,1.1-0.8c0.6-1.8,1.3-3.6,2-5.4c0.1-0.2,0.2-0.5,0.4-1c-1,0-1.9,0-2.8,0c-0.7,0-1-0.3-0.9-1c0-0.5,0-1,0-1.5
		c0.1-0.9,0.9-1.6,1.9-1.6c1.6,0,3.1,0,4.7,0c1.4,0,3.6-1.8,3.8-3.2c0.3-1.7,0.7-3.3,0.9-5c0.3-2.4,1.4-3.2,4.2-2.7
		c-0.4,2.3-0.8,4.7-1.3,7.1c9.6-1.9,16.9,1.1,22.1,9.5c-0.5,0.3-0.9,0.5-1.4,0.7c-2.7-4.8-6.7-7.9-12.1-9c-3.8-0.8-7.6-0.3-11.1,1.5
		c-4.3,2.2-7.3,5.6-8.8,10.2c-1.5,4.5-0.9,9,1.1,13.3c-1.1,0.4-1.8,0.1-2-1c-0.2-0.9-0.7-1.1-1.6-1.1c-5.7,0-11.4,0-17.2,0
		c-0.9,0-1.4,0.2-1.3,1.1c0.1,0.8-0.4,0.9-1.2,0.7c0.5-5.7-1.3-10.4-6.6-13.2C11.9,24.8,7.1,25.9,2.5,29.8z"/>
	<g>
		<path fill-rule="evenodd" clip-rule="evenodd" fill="#FFFFFF" d="M12.1,18c-1,0-1.1,0-1.1,1c0,1,0,2.1,0,3.1
			c0,0.2,0.3,0.6,0.5,0.7c1.5,0.3,2.9-0.8,3.1-2.2C14.8,19.2,13.6,18.1,12.1,18z"/>
		<path fill-rule="evenodd" clip-rule="evenodd" fill="#FFFFFF" d="M25.4,20.5c-1.5,0-2.9,0-4.4,0c-0.3,0-0.6,0.3-0.8,0.4
			c0.3,0.2,0.5,0.4,0.8,0.4c3,0,5.9,0,8.9,0c0.3,0,0.5-0.3,0.8-0.5c-0.3-0.1-0.5-0.3-0.8-0.3C28.4,20.5,26.9,20.5,25.4,20.5z"/>
		<path fill-rule="evenodd" clip-rule="evenodd" fill="#FFFFFF" d="M25.4,22.9c1.5,0,3,0,4.5,0c0.3,0,0.5-0.3,0.8-0.5
			c-0.2-0.1-0.5-0.4-0.7-0.4c-3,0-5.9,0-8.9,0c-0.3,0-0.5,0.3-0.8,0.4c0.3,0.1,0.5,0.4,0.8,0.4C22.5,22.9,23.9,22.9,25.4,22.9z"/>
		<path fill-rule="evenodd" clip-rule="evenodd" fill="#FFFFFF" d="M25.4,17.6c-1.5,0-3,0-4.5,0c-0.3,0-0.5,0.2-0.8,0.4
			c0.2,0.2,0.5,0.5,0.7,0.5c3,0,6,0,9.1,0c0.2,0,0.5-0.3,0.7-0.4c-0.2-0.1-0.5-0.4-0.7-0.4C28.4,17.6,26.9,17.6,25.4,17.6z"/>
		<path fill-rule="evenodd" clip-rule="evenodd" fill="#FFFFFF" d="M25.5,19c-1.5,0-3,0-4.5,0c-0.3,0-0.5,0.2-0.8,0.4
			c0.2,0.1,0.5,0.4,0.7,0.4c3,0,6.1,0,9.1,0c0.2,0,0.4-0.2,0.6-0.4C30.4,19.3,30.2,19,30,19C28.5,19,27,19,25.5,19z"/>
		<path fill-rule="evenodd" clip-rule="evenodd" fill="#FFFFFF" d="M10.7,20.5C10.7,20.5,10.7,20.5,10.7,20.5c0-0.7,0-1.3,0-2
			c0-0.2-0.3-0.3-0.4-0.5c-0.1,0.1-0.4,0.3-0.4,0.4c0,1.3,0,2.6,0,3.9c0,0.2,0.3,0.3,0.4,0.5c0.1-0.2,0.4-0.3,0.4-0.5
			C10.7,21.7,10.7,21.1,10.7,20.5z"/>
	</g>
	<path fill-rule="evenodd" clip-rule="evenodd" d="M69.7,47.3c-1.1-0.2-2.1-0.2-2.7,0.9c-0.2,0.3-1,0.4-1.4,0.3
		c-1-0.3-1.8-0.4-2.7,0.4c-0.3,0.2-1.1,0.2-1.4,0c-0.9-0.6-1.7-0.9-2.8-0.3c-0.3,0.1-1,0-1.2-0.3c-0.7-0.9-1.5-1.4-2.7-1.1
		c-0.3,0.1-0.9-0.4-1.1-0.7c-0.5-1-1-1.6-2.2-1.6c-0.4,0-0.9-0.7-1-1.1c-0.2-1-0.6-1.7-1.6-2.1c-0.3-0.1-0.7-0.8-0.7-1.2
		c0.1-1.1-0.1-1.9-1.1-2.5c-0.3-0.2-0.4-1-0.2-1.5c0.2-0.9,0.3-1.7-0.4-2.6c-0.2-0.3-0.2-1.1,0.1-1.5c0.5-0.9,0.8-1.7,0.2-2.7
		c-0.2-0.3,0.2-1.1,0.5-1.4c0.8-0.7,1.2-1.3,0.9-2.5c-0.1-0.3,0.4-1,0.8-1.2c0.9-0.5,1.6-1,1.7-2.2c0-0.3,0.7-0.8,1.2-0.9
		c0.9-0.3,1.6-0.6,2-1.6c0.1-0.4,0.9-0.6,1.4-0.7c0.9-0.1,1.8-0.1,2.4-1.1c0.2-0.3,0.9-0.5,1.3-0.4c1.1,0.3,2,0.5,2.9-0.4
		c0.2-0.2,1-0.1,1.3,0.1c0.9,0.6,1.7,0.8,2.7,0.3c0.3-0.2,1.1,0.1,1.3,0.5c0.7,0.7,1.4,1.2,2.5,1c0.4-0.1,1,0.4,1.2,0.7
		c0.5,0.9,1,1.6,2.2,1.6c0.3,0,0.9,0.7,1,1.2c0.2,1,0.5,1.7,1.7,2.1c0.3,0.1,0.7,0.8,0.6,1.3c-0.1,1.1,0.1,1.9,1.1,2.5
		c0.3,0.2,0.4,1,0.2,1.5c-0.3,1-0.2,1.7,0.4,2.6c0.2,0.3,0.2,1.1-0.1,1.5c-0.5,0.9-0.8,1.6-0.3,2.7c0.2,0.3-0.1,1.1-0.5,1.4
		c-0.8,0.7-1.3,1.4-1,2.5c0.1,0.3-0.5,1-0.9,1.2c-0.8,0.5-1.4,1-1.6,2.1c0,0.4-0.6,0.9-1.1,1c-1,0.3-1.7,0.6-2.1,1.7
		C70.8,46.8,70.1,47,69.7,47.3z M62.5,42.8c5.5,0,9.8-4.4,9.8-10c0-5.4-4.5-9.8-9.9-9.8c-5.5,0-9.9,4.5-9.9,10
		C52.5,38.4,57.1,42.9,62.5,42.8z"/>
	<path fill-rule="evenodd" clip-rule="evenodd" d="M11.7,27.5c6,0,10.7,5.2,10.5,10.9c-0.2,5.9-4.8,10.5-11,10.3
		C4.8,48.5,0.6,43.1,0.9,37.5C1.2,31.9,6,27.3,11.7,27.5z M18.3,38.1c0-3.6-3.1-6.9-6.5-6.9c-3.9,0-7.1,3.1-7.1,6.9
		c0,3.8,3.1,6.8,6.9,6.8C15.3,44.9,18.3,41.8,18.3,38.1z"/>
	<path fill-rule="evenodd" clip-rule="evenodd" d="M68.3,32.9c0,3.2-2.6,5.9-5.8,5.9c-3.3,0-5.9-2.7-5.9-6.2c0-2.8,2.8-5.6,5.7-5.6
		C65.7,27,68.3,29.6,68.3,32.9z M62.4,36.7c2.1,0,3.8-1.7,3.8-3.8c0-2.1-1.8-4-3.9-3.8c-1.9,0.1-3.8,1.7-3.8,3.7
		C58.7,35,60.3,36.7,62.4,36.7z"/>
	<path fill-rule="evenodd" clip-rule="evenodd" d="M8,38.6c0-2,1.5-3.5,3.5-3.5c2,0,3.6,1.6,3.6,3.5c0,1.9-1.7,3.5-3.6,3.5
		C9.6,42.1,8,40.6,8,38.6z M9.2,38.6c0,1.3,1,2.3,2.3,2.3c1.2,0,2.3-1.1,2.3-2.3c0-1.3-1.1-2.3-2.4-2.3C10.2,36.3,9.2,37.3,9.2,38.6
		z"/>
</g>
</svg>
