<?xml version="1.0" encoding="utf-8"?>
<!-- Generator: Adobe Illustrator 19.1.0, SVG Export Plug-In . SVG Version: 6.00 Build 0)  -->
<svg version="1.1" id="Livello_1" xmlns="http://www.w3.org/2000/svg" xmlns:xlink="http://www.w3.org/1999/xlink" x="0px" y="0px"
	 viewBox="0 0 130 204.8" style="enable-background:new 0 0 130 204.8;" xml:space="preserve">
<g>
	<path d="M119.4,192.9c-42.6-10-97.7-1.6-97.7-1.6V76.6c0,0,55.1-8.5,97.7,1.6V192.9z"/>
	<path d="M9.9,180.2c0.5,9.5,8.1,11.1,8.1,11.1V76.6c0,0-7.6-1.6-8.1-11.1V180.2z"/>
	<path d="M22.8,73.7c0,0,31.3-18.3,90.6-15.8v12.7C113.4,70.5,75.8,60.7,22.8,73.7z"/>
	<path d="M19.9,69.3c0,0,32.7-18.4,74.3-18.2v-16C94.2,35.1,42.5,46.1,19.9,69.3z"/>
	<path d="M15.8,66.6c0,0,16.7-21.2,58.9-33.1V20.3C74.7,20.3,24.4,44.6,15.8,66.6z"/>
	<path d="M11.3,62.6c0,0,12.9-25.3,41.2-39.1V8.7C52.5,8.7,22.5,30.1,11.3,62.6z"/>
</g>
</svg>
