<svg id="Livello_1" data-name="Livello 1" xmlns="http://www.w3.org/2000/svg" viewBox="0 0 27.62 36.74"><defs><style>.cls-1{fill:#1d1d1b;}.cls-2{font-size:23.74px;fill:#fff;font-family:Myriad Pro;font-weight:700;}</style></defs><title>economia</title><g id="economia"><rect class="cls-1" x="8.17" y="11.91" width="10.75" height="19.23"/><path id="_Tracciato_" data-name="&lt;Tracciato&gt;" class="cls-1" d="M25.29,24.94v4.5A2.49,2.49,0,0,0,26,29.21a2.2,2.2,0,0,0,.68-0.53A1.75,1.75,0,0,0,27,28.11a1.64,1.64,0,0,0,.09-0.46h0a2.82,2.82,0,0,0-.53-1.95A2.75,2.75,0,0,0,25.29,24.94Z" transform="translate(-10.34 -2.3)"/><path id="_Tracciato_composto_" data-name="&lt;Tracciato composto&gt;" class="cls-1" d="M37.12,33.76C36.45,33.1,35.64,26.62,35,21.4l0-.28C33.79,11.71,24.68,12,24.14,12s-9.65-.27-10.82,9.13l0,0.28c-0.24,1.92-.5,4-0.76,5.91L11.37,33.4a1.13,1.13,0,0,1-.2.36,0.87,0.87,0,0,0-.83.88,1.26,1.26,0,0,0,.62,1,3.13,3.13,0,0,0,1.75.43,21.21,21.21,0,0,1,4,.68,32.61,32.61,0,0,0,7,1,1.19,1.19,0,0,0,.49-0.11,1.19,1.19,0,0,0,.49.11,32.59,32.59,0,0,0,7-1,21.21,21.21,0,0,1,4-.68,3.13,3.13,0,0,0,1.75-.43,1.26,1.26,0,0,0,.62-1A0.87,0.87,0,0,0,37.12,33.76ZM28.76,27.7a3.71,3.71,0,0,1-1,2.24,3.94,3.94,0,0,1-2.46,1.14V31.7a0.92,0.92,0,0,1-.33.73,1,1,0,0,1-.64.23,1,1,0,0,1-.63-0.24,0.93,0.93,0,0,1-.3-0.72V31.11a6.48,6.48,0,0,1-2.92-.93,3.94,3.94,0,0,1-1.81-2.72,0.74,0.74,0,0,1,.14-0.66,0.77,0.77,0,0,1,.66-0.25,0.84,0.84,0,0,1,.86.69,2.67,2.67,0,0,0,1.06,1.55,4,4,0,0,0,2,.68V24.63a5.34,5.34,0,0,1-2.84-1.15,4,4,0,0,1-1.39-2.7A3.72,3.72,0,0,1,19.4,19a4,4,0,0,1,1-1.41,4.5,4.5,0,0,1,1.55-.95,5.94,5.94,0,0,1,1.49-.34V15.7a0.94,0.94,0,0,1,.29-0.7A1,1,0,0,1,25,15a0.92,0.92,0,0,1,.34.73v0.75a4.32,4.32,0,0,1,2.22,1.15,3.93,3.93,0,0,1,1.11,2.8v0.11a0.91,0.91,0,0,1-.79.81,0.78,0.78,0,0,1-.89-0.75,3.55,3.55,0,0,0-.18-0.84A2.31,2.31,0,0,0,26.35,19a3.21,3.21,0,0,0-.7-0.64,1.89,1.89,0,0,0-.36-0.19v5.05a5.16,5.16,0,0,1,1.66.65A3.87,3.87,0,0,1,28.15,25a3.79,3.79,0,0,1,.54,1.36A4.73,4.73,0,0,1,28.76,27.7Z" transform="translate(-10.34 -2.3)"/><path id="_Tracciato_2" data-name="&lt;Tracciato&gt;" class="cls-1" d="M20.91,20.69a2.84,2.84,0,0,0,.16.71,1.65,1.65,0,0,0,.42.61,3.79,3.79,0,0,0,.91.61,3.92,3.92,0,0,0,1,.32V18a2.91,2.91,0,0,0-1.77.82A2.39,2.39,0,0,0,20.91,20.69Z" transform="translate(-10.34 -2.3)"/><path id="_Tracciato_3" data-name="&lt;Tracciato&gt;" class="cls-1" d="M19.43,9.62c0.44,0.66.83,1.23,1,1.51a0.73,0.73,0,0,0,.8.35,11.06,11.06,0,0,1,2.89-.32h0.08a11.38,11.38,0,0,1,3.2.4l0.19,0a0.72,0.72,0,0,0,.63-0.36c0.21-.37.67-1.05,1.14-1.78a38.19,38.19,0,0,0,2.4-3.93,0.72,0.72,0,0,0-.94-1,16,16,0,0,1-2.8.28,1.55,1.55,0,0,1-1.37-1A2.65,2.65,0,0,0,24.35,2.3a3.51,3.51,0,0,0-2.66,1.5,1.79,1.79,0,0,1-1.05.79,13.14,13.14,0,0,1-3-.45,0.72,0.72,0,0,0-1,.93A33.78,33.78,0,0,0,19.43,9.62Z" transform="translate(-10.34 -2.3)"/><text class="cls-2" transform="translate(6.59 30.8)">€</text></g></svg>