<svg id="Livello_1" data-name="Livello 1" xmlns="http://www.w3.org/2000/svg" viewBox="0 0 23.07 36.63"><defs><style>.cls-1{fill:#1d1d1b;}</style></defs><title>lavoro</title><path id="lavoro_e_formazione" data-name="lavoro e formazione" class="cls-1" d="M17.72,6a4.1,4.1,0,1,1,4.1,4.1A4.1,4.1,0,0,1,17.72,6Zm13.1,19.4V25.15H28.61v0.18a1.63,1.63,0,0,0,.83.45h0.65a1.67,1.67,0,0,0,.46-0.16A1.53,1.53,0,0,0,30.82,25.43Zm-5.67,9.42h1v1.73a2,2,0,0,1-1.71,2,1.9,1.9,0,0,1-2.08-1.89V25.78a0.51,0.51,0,1,0-1,0v10.8a2,2,0,0,1-1.71,2,1.9,1.9,0,0,1-2.08-1.89V16.46a45.21,45.21,0,0,0-2,8,1.63,1.63,0,0,1-1.61,1.35,1.66,1.66,0,0,1-.39,0,1.69,1.69,0,0,1-1.21-2,34.85,34.85,0,0,1,2.88-9.45,6.25,6.25,0,0,1,5.6-3.46h2.09a6.26,6.26,0,0,1,5.59,3.44,33,33,0,0,1,2.71,8.37H28.27a2,2,0,0,0-.43,0,44.68,44.68,0,0,0-1.73-6.54v9.55h-1a1.76,1.76,0,0,0-1.76,1.76v5.55A1.76,1.76,0,0,0,25.14,34.85ZM20.43,13.13l1,1.35a0.43,0.43,0,0,0,.34.18,0.43,0.43,0,0,0,.34-0.18l1-1.35c0.19-.24.13-0.44-0.14-0.44H20.57C20.3,12.69,20.24,12.89,20.43,13.13Zm2.78,8a1.26,1.26,0,0,0,.17-1L22,15.58a0.18,0.18,0,1,0-.35,0l-1.38,4.57a1.27,1.27,0,0,0,.16,1l1,1.35a0.43,0.43,0,0,0,.34.18,0.43,0.43,0,0,0,.34-0.18Zm12.12,8.75a1.55,1.55,0,0,1-1,.4H32.94v0.33a0.52,0.52,0,0,1-.52.52H32a0.52,0.52,0,0,1-.52-0.52V30.32H27.94v0.33a0.52,0.52,0,0,1-.52.52H27a0.52,0.52,0,0,1-.52-0.52V30.32H25.14a1.55,1.55,0,0,1-1-.4v3.17a1,1,0,0,0,1,1h9.14a1,1,0,0,0,1-1V29.92Zm-8.43-5v1h1v-1a0.46,0.46,0,0,1,.38-0.5h2.89a0.46,0.46,0,0,1,.38.5v1h1v-1a1.44,1.44,0,0,0-1.37-1.49H28.27A1.44,1.44,0,0,0,26.89,24.93ZM24.1,28.76a1,1,0,0,0,1,1h1.34V29.36A0.52,0.52,0,0,1,27,28.84h0.42a0.52,0.52,0,0,1,.52.52V29.8h3.53V29.36A0.52,0.52,0,0,1,32,28.84h0.42a0.52,0.52,0,0,1,.52.52V29.8h1.34a1,1,0,0,0,1-1V27.54a1,1,0,0,0-1-1H25.14a1,1,0,0,0-1,1v1.21Z" transform="translate(-12.25 -1.93)"/></svg>