<?xml version="1.0" encoding="utf-8"?>
<!-- Generator: Adobe Illustrator 19.1.0, SVG Export Plug-In . SVG Version: 6.00 Build 0)  -->
<svg version="1.1" id="Layer_1" xmlns="http://www.w3.org/2000/svg" xmlns:xlink="http://www.w3.org/1999/xlink" x="0px" y="0px"
	 viewBox="0 0 205 270" enable-background="new 0 0 205 270" xml:space="preserve">
<g>
	<g>
		<g>
			<path d="M63,7.2c-1.6,0-3,1.3-3,3v15c0,1.6-1.3,3-3,3H11c-1.6,0-3,1.3-3,3v228.6c0,1.7,1.3,3,3,3H191c1.6,0,3-1.3,3-3V31.2
				c0-1.7-1.4-3-3-3H145c-1.7,0-3-1.4-3-3v-15c0-1.6-1.4-3-3-3H63z M167,52.3c1.6,0,3,1.4,3,3l0,180.4c0,1.7-1.3,3-3,3l-131.9,0
				c-1.7,0-3-1.3-3-3V55.3c0-1.6,1.3-3,3-3H167z"/>
		</g>
		<g>
			<path d="M148,187.5c1.6,0,3,1.3,3,3v22.2c0,1.6-1.4,3-3,3l-92.2,0c-1.6,0-3-1.3-3-3v-22.2c0-1.7,1.4-3,3-3L148,187.5z"/>
		</g>
		<g>
			<path d="M148,132.5c1.6,0,3,1.4,3,3v22.2c0,1.6-1.4,3-3,3l-92.2,0c-1.6,0-3-1.3-3-3v-22.2c0-1.6,1.4-3,3-3H148z"/>
		</g>
		<g>
			<path d="M148,77.6c1.6,0,3,1.3,3,3v22.2c0,1.7-1.4,3-3,3H55.8c-1.6,0-3-1.3-3-3V80.6c0-1.7,1.4-3,3-3H148z"/>
		</g>
	</g>
</g>
</svg>
