<?xml version="1.0" encoding="utf-8"?>
<!-- Generator: Adobe Illustrator 19.1.0, SVG Export Plug-In . SVG Version: 6.00 Build 0)  -->
<svg version="1.1" id="Layer_1" xmlns="http://www.w3.org/2000/svg" xmlns:xlink="http://www.w3.org/1999/xlink" x="0px" y="0px"
	 viewBox="0 0 160 147" enable-background="new 0 0 160 147" xml:space="preserve">
<g>
	<path d="M66,77.1c0,0-11.7-42,26.3-60.4c0,0,25.4-13.3,60.6-5.4c0,0-1,56.1-40,69.4c0,0-21.1,9.7-41,2.4c0,0,8.9-28.3,53.5-49.2
		C125.4,33.8,86.3,39.3,66,77.1z"/>
	<path d="M61.2,76.1c0,0,7.5-26.8-16.8-38.5c0,0-16.2-8.5-38.6-3.4c0,0,0.6,35.8,25.5,44.2c0,0,13.4,6.2,26.1,1.5
		c0,0-5.7-18-34.1-31.4C23.4,48.6,48.3,52.1,61.2,76.1z"/>
	<path d="M61.2,83.7c0,0-21.1,8.7-16.4,30.2c0,0,2.7,14.7,17.2,26.7c0,0,22.8-18.4,15.8-38.7c0,0-2.8-11.8-12.2-17.7
		c0,0-8.8,12.7-3.1,37.8C62.5,122,52.2,104.2,61.2,83.7z"/>
</g>
</svg>
