<?xml version="1.0" encoding="UTF-8" standalone="no"?>
<!-- Created with Inkscape (http://www.inkscape.org/) -->

<svg
   xmlns:dc="http://purl.org/dc/elements/1.1/"
   xmlns:cc="http://creativecommons.org/ns#"
   xmlns:rdf="http://www.w3.org/1999/02/22-rdf-syntax-ns#"
   xmlns:svg="http://www.w3.org/2000/svg"
   xmlns="http://www.w3.org/2000/svg"
   version="1.1"
   width="100%"
   height="100%"
   viewBox="0 0 43.76 36.43"
   id="Livello_1">
  <title
     id="title7">pa</title>
  <metadata
     id="metadata44">
    <rdf:RDF>
      <cc:Work
         rdf:about="">
        <dc:format>image/svg+xml</dc:format>
        <dc:type
           rdf:resource="http://purl.org/dc/dcmitype/StillImage" />
        <dc:title>pa</dc:title>
      </cc:Work>
    </rdf:RDF>
  </metadata>
  <defs
     id="defs3">
    <style
       id="style5" />
  </defs>
  <g
     id="pa">
    <path
       d="M 21.90625,0.03125 21.75,0.09375 21.53125,0.21875 21.3125,0.3125 2.03125,10.4375 l 39.65625,0 L 22.46875,0.3125 22.25,0.1875 22.03125,0.09375 21.90625,0.03125 z M 21.875,1.75 35.3125,8.8125 8.46875,8.8125 21.875,1.75 z m -19.15625,9.375 0,0.6875 0.4375,0 5.5,0 5.21875,0 5.46875,0 5.21875,0 5.46875,0 5.21875,0 5.46875,0 0.3125,0 0,-0.6875 -38.3125,0 z M 3.875,12.5 l 0,1.03125 4.09375,0 0,-1.03125 -4.09375,0 z m 10.6875,0 0,1.03125 4.09375,0 0,-1.03125 -4.09375,0 z m 10.6875,0 0,1.03125 4.125,0 0,-1.03125 -4.125,0 z m 10.6875,0 0,1.03125 4.125,0 0,-1.03125 -4.125,0 z m -31.5625,1.71875 0,15.90625 3.09375,0 0,-15.90625 -3.09375,0 z m 10.6875,0 0,15.90625 3.09375,0 0,-15.90625 -3.09375,0 z m 10.6875,0 0,15.90625 3.09375,0 0,-15.90625 -3.09375,0 z m 10.6875,0 0,15.90625 3.09375,0 0,-15.90625 -3.09375,0 z m -32.5625,16.625 0,1.03125 4.09375,0 0,-1.03125 -4.09375,0 z m 10.6875,0 0,1.03125 4.09375,0 0,-1.03125 -4.09375,0 z m 10.6875,0 0,1.03125 4.125,0 0,-1.03125 -4.125,0 z m 10.6875,0 0,1.03125 4.125,0 0,-1.03125 -4.125,0 z m -33.21875,1.71875 0,1.59375 38.3125,0 0,-1.59375 -38.3125,0 z M 0,34.84375 l 0,1.59375 43.75,0 0,-1.59375 -2.03125,0 -39.6875,0 -2.03125,0 z"
       id="path10" />
  </g>
</svg>
