<?xml version="1.0" encoding="utf-8"?>
<!-- Generator: Adobe Illustrator 19.1.0, SVG Export Plug-In . SVG Version: 6.00 Build 0)  -->
<svg version="1.1" id="Livello_1" xmlns="http://www.w3.org/2000/svg" xmlns:xlink="http://www.w3.org/1999/xlink" x="0px" y="0px"
	 viewBox="0 0 200 173.2" style="enable-background:new 0 0 200 173.2;" xml:space="preserve">
<g>
	<path d="M8.4,81.8l58,0.1L76,56.3c0.5-1.3,1.8-2.1,3.2-2c1.4,0.1,2.5,1.2,2.8,2.5l6.4,36.1l7.1-18.4c0.4-1.1,1.4-1.8,2.5-1.9
		c1.1-0.2,2.2,0.3,2.9,1.2l3,4.1l9.6-37.4c0.4-1.4,1.7-2.4,3.2-2.3c1.5,0.1,2.7,1.3,2.8,2.7l7.8,72.2l4.6-28.6
		c0.2-1.5,1.5-2.6,3-2.6h0l57.7,0.1c2-5.1,3.3-9.7,3.9-13.8c10.3-70.2-74-79.4-95.9-46.6C78.6-11.1-5.6-1.8,4.6,68.4
		C5.2,72.4,6.5,76.9,8.4,81.8z"/>
	<path d="M137.5,88.2l-7.8,48.6c-0.2,1.5-1.5,2.6-3,2.6c0,0-0.1,0-0.1,0c-1.5,0-2.8-1.2-3-2.7l-8.5-78l-7,27.2
		c-0.3,1.1-1.2,2-2.4,2.3c-1.2,0.2-2.4-0.2-3.1-1.2l-3.5-4.8l-9.1,23.4c-0.5,1.3-1.8,2.1-3.2,2c-1.4-0.1-2.5-1.2-2.7-2.5l-6.3-36
		l-6.4,17.1c-0.5,1.2-1.6,2-2.9,2h0L11,88c11.9,25.3,40.2,58.3,89.5,83.2c49-24.8,77.3-57.6,89.3-82.8L137.5,88.2z"/>
</g>
</svg>
