<svg id="Livello_1" data-name="Livello 1" xmlns="http://www.w3.org/2000/svg" viewBox="0 0 34.24 36.09"><defs><style>.cls-1{fill:#000100;}</style></defs><title>popolazione</title><g id="popolazione"><path d="M21,36.09a4.31,4.31,0,0,1-.81-1.44,20.08,20.08,0,0,1-.09-3.33,13.85,13.85,0,0,0-.28-2.37,1.92,1.92,0,0,1,0-.65c0.1-.31-0.32-1.23-0.23-1.71s0-1.66,0-2.39a7,7,0,0,0-.54-2.1c-0.11-.5-0.26-2.57-0.26-2.57l0.14-.13a2.18,2.18,0,0,1,.36-0.53,1.22,1.22,0,0,0,.5-0.3,2.67,2.67,0,0,0,.65-0.93,16.62,16.62,0,0,0,1.22-2,9.54,9.54,0,0,0,.45-2.47,6.06,6.06,0,0,0-1.19-1.83c-0.36-.45-1.54-1.81-2-2.26a3.28,3.28,0,0,0-1.42-.75C17.16,8.29,16.59,8,16.28,7.93a4.89,4.89,0,0,1-.61-0.23,1,1,0,0,0,.12-0.21C15.84,7.37,16,7,16,7a1.25,1.25,0,0,0,.16-0.13,0.43,0.43,0,0,0,0-.35,4,4,0,0,1,.13-0.68,5.29,5.29,0,0,0,.24-0.47c0-.14,0-1.06,0-1.06a0.93,0.93,0,0,1,.12.23,1.42,1.42,0,0,0,0-.21s0.08,0.14.08,0.05a3.29,3.29,0,0,0,0-.33l0.3,0.05-0.22-.21h0.24a0.38,0.38,0,0,1-.22-0.2,0.66,0.66,0,0,0-.27-0.26H17a1.85,1.85,0,0,1-.54-0.35,2.4,2.4,0,0,0-1.1-.82,1.48,1.48,0,0,0-1.15,0V2.08l-0.31.22-0.1-.12-0.11.22-0.15-.19-0.05.19-0.25-.09a1.16,1.16,0,0,0,.14.23H12.95l0.11,0.17-0.29,0,0.14,0.08H12.69s0.12,0.12.08,0.13a0.54,0.54,0,0,0-.13.14s0.08,0-.08.32a1.64,1.64,0,0,0-.14.69l-0.12.28a0.68,0.68,0,0,1,.1-0.12s-0.08.34-.08,0.34l0.06-.08-0.08.23s0.11-.07.09,0l-0.09.22,0.08-.06s0,0.2,0,.25S12.42,5,12.42,5s0,0.16,0,.25,0.06,0,.06,0,0,0.12,0,.16,0.07-.21.07-0.21V5.51c0,0.12,0,.31,0,0.31s0-.18,0-0.06,0,0.35,0,.35,0-.36.05-0.22a2.89,2.89,0,0,1,0,.51,1.4,1.4,0,0,1,0,.26l0.07-.17s-0.05.26-.07,0.31l0.08-.18V6.9l0.06-.19a2.86,2.86,0,0,0,0,.31,1.45,1.45,0,0,1-.46.76c-0.19.14-.68,0.14-1.85,0.57A2.59,2.59,0,0,0,8.82,9.62c-0.13.23-1.65,2.14-1.68,2.13a1.8,1.8,0,0,1-.31.65,4.24,4.24,0,0,0-.69,2.11C6.21,15,8.54,17.8,8.87,18.2a5.71,5.71,0,0,0,1.33,1,3,3,0,0,1,.44.41,4,4,0,0,1,.42.37s-0.07.61-.1,0.85-0.12.76-.22,1.88a22.48,22.48,0,0,0,.16,3.76c0.11,1.1.35,2.14,0.35,2.28s0,0.67,0,.92a3.16,3.16,0,0,0,.2.56c0,0.14.41,2.19,0.6,2.86a10.17,10.17,0,0,1,.25,2.44,3.16,3.16,0,0,1-.45.49,1,1,0,0,0-.39.19c-0.21.16-1.19,1.22-1.08,1.59a1.27,1.27,0,0,0,1.2.33,3.56,3.56,0,0,0,1.08-.78c0.22-.19,1.1-0.45,1.4-0.7s-0.17-.54-0.17-0.57a0.75,0.75,0,0,0-.17-0.33,5.8,5.8,0,0,1-.05-1.71,12.39,12.39,0,0,1,.08-1.51A12.66,12.66,0,0,0,14,30.9c0-.47-0.06-1.27-0.07-1.33a0.39,0.39,0,0,1,.15-0.22,0.61,0.61,0,0,0,0-.45c0-.27.34-2.59,0.53-3.59s0.53-1.05.53-1.05a2.18,2.18,0,0,0,.19.24,10.28,10.28,0,0,1,.88,2.23c0.15,0.71.63,2.42,0.63,2.42a0.26,0.26,0,0,0,0,.29,2.68,2.68,0,0,0,.81.41v0.34c0,0.34.62,2.28,0.8,3.05a19.43,19.43,0,0,1,.48,2.2,2.3,2.3,0,0,1-.06.61,0.51,0.51,0,0,0-.24.42,1.42,1.42,0,0,0,.94.6,0.94,0.94,0,0,1,.46.48,2.29,2.29,0,0,0,1.21.41,0.92,0.92,0,0,0,.92-0.65A4.07,4.07,0,0,0,21,36.09ZM10,17.35a14.65,14.65,0,0,1-1.49-2.08C8.27,14.77,8,14.18,8,14.18s0.84-.77.94-0.89l0.18-.21a0.4,0.4,0,0,0,.4.05,2.13,2.13,0,0,0,.3-0.71,0.72,0.72,0,0,1,.24.23c0,0.08.7,2.09,0.83,2.47a24.72,24.72,0,0,1,.25,2.64A2.27,2.27,0,0,1,10,17.35Zm8.25-.05s-0.33-1.44-.33-1.62,0.15-1.36.18-2.15a3.25,3.25,0,0,1,.15-1.35A0.37,0.37,0,0,1,18.61,12s0.2,0.28.28,0.35a0.42,0.42,0,0,0,.28,0s1.09,1,1.23,1.15l0.14,0.12s-1.06,3.15-1.28,3.43-0.22.3-.38,0.31A3.86,3.86,0,0,1,18.27,17.3Z" transform="translate(-6.13 -2.08)"/><path d="M28.59,25.3a1.65,1.65,0,0,0-.1-1.08c-0.07-.21-0.36-0.75-0.36-0.75l-0.08-.38c0-.13-0.13-0.08-0.17-0.14a1.62,1.62,0,0,1-.08-0.42A2.07,2.07,0,0,0,27.35,22a1.73,1.73,0,0,0,.33-0.16l-0.3,0a0.61,0.61,0,0,1-.32-0.12,2,2,0,0,0,.28-0.05,0.47,0.47,0,0,1-.29-0.1c0-.08-0.5-0.1-0.36-0.12a0.38,0.38,0,0,0,.23-0.16l-0.24.06a0.66,0.66,0,0,1-.32-0.14,0.65,0.65,0,0,0-.11-0.13,0.81,0.81,0,0,0,.22,0A0.35,0.35,0,0,1,26.22,21a2.39,2.39,0,0,1-.2-0.9,6.9,6.9,0,0,0-1.2-2,1.9,1.9,0,0,0-1.11-.33l-0.43.11a2.42,2.42,0,0,0-1.11,1.37,12,12,0,0,0,.17,3.1,0.57,0.57,0,0,1-.15.55,0.77,0.77,0,0,1-.29.37,0.68,0.68,0,0,0,.2-0.1c0.11-.08.3-0.4,0.23-0.21a0.78,0.78,0,0,0,.06.47V23.26a1.74,1.74,0,0,1,.19-0.5s0,0.26-.06.55a0.47,0.47,0,0,1-.25.39,0.91,0.91,0,0,0,.26,0,0.57,0.57,0,0,0,.17-0.2,1,1,0,0,1-.1.3,0.36,0.36,0,0,1-.16.13h0.13a0.24,0.24,0,0,0,.19-0.13l-0.07.16a2.38,2.38,0,0,1-.22.77,5.26,5.26,0,0,0-.21,1.76,2.35,2.35,0,0,0,.18.81,2.5,2.5,0,0,1,.1.63,0.67,0.67,0,0,0,.3.36s-0.23,1.46-.25,1.92a17.17,17.17,0,0,1-.34,2c-0.07.29-.05,1-0.1,1s-0.1.07-.07,0.17a1.4,1.4,0,0,0,.2.3s0,0.82,0,1.06-0.12,1.4-.13,1.53a1.77,1.77,0,0,1-.4.67,1.16,1.16,0,0,0-.28,1,1.33,1.33,0,0,0,.83.21,1.9,1.9,0,0,0,.53-0.35l0.11-.27a0.47,0.47,0,0,0,.23-0.14,1.09,1.09,0,0,0,.06-0.7c0-.21-0.18-0.68-0.13-0.87s0.49-1.73.49-1.73A1.52,1.52,0,0,0,24,33.85c0.11-.13,0-0.2-0.08-0.51A3.51,3.51,0,0,1,24.24,32c0.07-.16.43-1.38,0.43-1.38s0.61,1.08.72,1.33,0.3,1,.37,1.16a0.5,0.5,0,0,1,.22.45c0,0.33.08,0,.18,0.3s0.2,0.15.2,0.15a3.62,3.62,0,0,0,.1.53c0.09,0.39.36,1.22,0.39,1.32s-0.07.34,0,.61a1.32,1.32,0,0,1,0,.54,2.26,2.26,0,0,0,.2.59,0.71,0.71,0,0,0,.48.51,1.35,1.35,0,0,0,.9-0.16,0.61,0.61,0,0,0,.05-0.73c-0.09-.2-0.46-0.8-0.51-1s-0.26-.29-0.26-0.39-0.05-2.09-.05-2.09l0.07-.07a1.52,1.52,0,0,0,0-.36c0-.07-0.07-0.16,0-0.24s0-.11-0.06-0.16a3.07,3.07,0,0,1-.34-0.88,1.15,1.15,0,0,0-.19-0.39,9.29,9.29,0,0,1,.08-1.6,4.94,4.94,0,0,0,0-.57A3.88,3.88,0,0,0,27,28.64l0.27,0a1,1,0,0,0,.39-0.33,1,1,0,0,0,.19-0.74,4,4,0,0,1,.43-1.08C28.43,26.08,28.44,25.67,28.59,25.3Zm-1.08.24a8.38,8.38,0,0,1-.13,1.25,1.12,1.12,0,0,1-.27.36s0-.25,0-0.47,0.15-1.2.15-1.44-0.05-1.09-.05-1.09a2.07,2.07,0,0,1,.37.56A4.53,4.53,0,0,1,27.51,25.53Z" transform="translate(-6.13 -2.08)"/><path class="cls-1" d="M39.11,14.35c-0.28-.46-1.06-1.82-1.26-2.2a6.16,6.16,0,0,0-.92-1,1.34,1.34,0,0,0,.47,0,1.91,1.91,0,0,1-.65-0.37A1.42,1.42,0,0,1,36.67,10l0.11,0.43s0-.07,0-0.35a1.52,1.52,0,0,0-.35-0.69l0.43,0.08a1,1,0,0,1-.42-0.31,1.64,1.64,0,0,1-.29-1,4.36,4.36,0,0,0-.46-2.16,1.62,1.62,0,0,0-1.45-1.11,2.5,2.5,0,0,0-1.06.05,1.53,1.53,0,0,0-1,.51,2.57,2.57,0,0,0-.45,1.36,3.24,3.24,0,0,0-.11.34,3,3,0,0,1,.21-0.25l0,0.16a0.69,0.69,0,0,1-.2.31,0.49,0.49,0,0,0,.28-0.16,7.09,7.09,0,0,1,.26,1.66,1.65,1.65,0,0,1,0,.74,1.18,1.18,0,0,0,0,.41c0-.09.17-0.46,0.17-0.18a2.2,2.2,0,0,1-.18.8,3.39,3.39,0,0,1-.32.47,0.7,0.7,0,0,1,.33-0.23,1.21,1.21,0,0,0-.15.43,1,1,0,0,1-.14.23l0.09,0a0.17,0.17,0,0,0,.13-0.13c0-.1.08,0.07,0.06,0.13a2.25,2.25,0,0,1-.59,1.37,2.74,2.74,0,0,0-.73,1.57c0,0.42.19,1,.21,1.47s0.17,2.48.17,2.69-0.14.77-.24,1.54a17.72,17.72,0,0,1-.47,2.24c-0.13.32-.65,1.53-0.65,1.53L30.25,24s-0.84,1.63-1.14,2.4a7.81,7.81,0,0,0-.38,1.88,18,18,0,0,0,1.36,2.35c0.3,0.65,1.59,2.46,2,3.32a2.24,2.24,0,0,1,.3,1.1,1.89,1.89,0,0,1-.31.3,6.89,6.89,0,0,1-1.15.5c-0.4.09-.68,0.1-0.72,0.39s0.64,0.35,1.14.28a9.37,9.37,0,0,1,1.36,0c0.27,0,.56,0,1,0s0.38,0,.47-0.39a2.56,2.56,0,0,0-.5-1.3,9.15,9.15,0,0,1-.47-1.31c-0.13-.42-0.52-1.66-0.66-2.15a9.69,9.69,0,0,0-.84-1.85c-0.28-.46-0.61-0.75-0.7-1a1.4,1.4,0,0,1,.25-0.88c0.15-.34,1.09-1.71,1.3-2s0.71-1.27.71-1.27l0.15,0.41c0.1,0.26,1,2.69,1.07,3.15s0.74,1.42.84,1.92,0.35,1.83.46,2.46a30.4,30.4,0,0,1,0,3.21,7.78,7.78,0,0,1-.47.92,6.67,6.67,0,0,1-1.32.77,0.52,0.52,0,0,0-.43.61,1.57,1.57,0,0,0,1.11.36,10.28,10.28,0,0,0,2.07-.73c0.79-.27.69-0.51,0.69-0.69a4,4,0,0,0-.25-0.85,6.68,6.68,0,0,1,0-1.48c0-.43.35-2.74,0.43-3.52a3.61,3.61,0,0,0-.42-1.83,10.63,10.63,0,0,1-.35-1.33,12.05,12.05,0,0,1-.28-2.07c0-.41-0.13-2.38-0.13-2.38a3.67,3.67,0,0,1,.47-0.13A5.3,5.3,0,0,0,37.61,23c0.24-.08,0-0.8-0.61-1.63a13.32,13.32,0,0,1-1.18-2.57l0.12-.17s1.36-.56,1.81-0.68a7.64,7.64,0,0,0,2.59-1.41C40.52,16.14,39.4,14.81,39.11,14.35Zm-2,2.64a7.35,7.35,0,0,1-1.77.41v0a3.78,3.78,0,0,0-.14-0.4,1.27,1.27,0,0,1,0-.39,2.42,2.42,0,0,1,0-.56,0.64,0.64,0,0,1,.09-0.32,3.57,3.57,0,0,1,.3-0.31c0.09-.17.13-0.21,0.27-0.49a2.2,2.2,0,0,1,.27-0.51,1.32,1.32,0,0,0,.16-0.57A14.19,14.19,0,0,1,37.6,15c0.23,0.26.79,1.14,0.79,1.14A12.23,12.23,0,0,1,37.16,17Z" transform="translate(-6.13 -2.08)"/></g></svg>