<svg id="Livello_1" data-name="Livello 1" xmlns="http://www.w3.org/2000/svg" viewBox="0 0 42.5 37.03"><defs><style>.cls-1{fill:#000100;fill-rule:evenodd;}</style></defs><title>attivita_prod</title><g id="attivita_produttive" data-name="attivita produttive"><path class="cls-1" d="M21.52,21.54a9.86,9.86,0,0,1-6.07,1.18,9.85,9.85,0,0,1,2.05,4.17,11.37,11.37,0,0,1,4-5.27V21.54h0Z" transform="translate(-1.6 -1.61)"/><path class="cls-1" d="M32.32,1.61a5,5,0,0,1,2.28.54L21.23,5.76a8,8,0,0,0-3.73-.91,8.14,8.14,0,0,0-1,.07L30.74,1.87a7.57,7.57,0,0,1,1.58-.26h0ZM35.87,3a5.55,5.55,0,0,1,1.69,4A5.76,5.76,0,0,1,35,11.77L23,20.19A9,9,0,0,0,23.9,7.95l12-4.9h0Z" transform="translate(-1.6 -1.61)"/><path class="cls-1" d="M33.95,34.6c3.12-4.36,5.82-8.85,9-13.17A7.41,7.41,0,0,0,44.11,17a6,6,0,0,0-2.36-4.4L31.15,23.26a9.13,9.13,0,0,1,3.51,7.26,9.3,9.3,0,0,1-.93,4.08h0.22ZM40,11.7a4.18,4.18,0,0,0-1.14-.16,3.57,3.57,0,0,0-2.11.46L22.6,22.24a8.32,8.32,0,0,1,4.84-.62L40,11.7h0Z" transform="translate(-1.6 -1.61)"/><path class="cls-1" d="M25.52,23.39A7.47,7.47,0,0,1,32.83,31a7.47,7.47,0,0,1-7.3,7.62A7.47,7.47,0,0,1,18.22,31a7.47,7.47,0,0,1,7.3-7.62h0Z" transform="translate(-1.6 -1.61)"/><path class="cls-1" d="M17.23,6.29a7.29,7.29,0,0,1,6.88,7.64,7.24,7.24,0,0,1-7.31,7.19,7.29,7.29,0,0,1-6.88-7.64,7.24,7.24,0,0,1,7.31-7.19h0Z" transform="translate(-1.6 -1.61)"/><path class="cls-1" d="M9,21.38a7.52,7.52,0,0,1,7.35,7.67A7.52,7.52,0,0,1,9,36.73,7.52,7.52,0,0,1,1.6,29.05,7.52,7.52,0,0,1,9,21.38H9Z" transform="translate(-1.6 -1.61)"/></g></svg>