<?xml version="1.0" encoding="utf-8"?>
<!-- Generator: Adobe Illustrator 19.1.0, SVG Export Plug-In . SVG Version: 6.00 Build 0)  -->
<svg version="1.1" id="Layer_2" xmlns="http://www.w3.org/2000/svg" xmlns:xlink="http://www.w3.org/1999/xlink" x="0px" y="0px"
	 viewBox="0 0 275 316" enable-background="new 0 0 275 316" xml:space="preserve">
<path fill-rule="evenodd" clip-rule="evenodd" d="M9.3,302.7c0.7-47.1,46.9-62.1,79.9-84.9l30.8,85.7l9.3-40
	c-5.8-1.4-10.1-6.7-10.1-12.9v-10.8c0-2.1,1.7-3.8,3.8-3.8h30.5c2.1,0,3.8,1.7,3.8,3.8v10.8c0,6.2-4.3,11.5-10.1,12.9l9.9,40.4
	l31.3-85.3c33,22.4,78.4,37.7,78.8,84.7c0,3.2-2.6,5.8-5.8,5.8l-103,0l-39.7,0v0l-103.6,0C11.6,309.1,8.9,306.1,9.3,302.7L9.3,302.7
	z M69.9,174.5c-1.4,17.4,3.2,27.4,20.8,26c26.4,30.8,69.8,31.1,95.9,0.1c16.1,0.7,20.4-9,19.2-25.6c17-10.9,27.4-45.1,6.1-53.6
	c2.7-13.1,0.6-26.9,0.6-43.4l-73.9,22L64.9,78c0,18.3-2.2,28.7-1,43.6C43.6,130.4,53.4,163.1,69.9,174.5L69.9,174.5z M94.8,112.5
	c-4.1,8.5-10.1,19-21.7,18.7l-0.1,0v0c0.1,0,0.1,0,0,0c-17.7,0-6.3,33.6,8.9,35.9l3.3,0.5l1.2,3.2c21.1,54.9,83.5,55.7,104,0
	l1.1-3.1l3.3-0.6c14.5-2.5,26.2-35.8,8.4-35.8v0h0l-0.1,0C169.9,132,128.1,119.4,94.8,112.5L94.8,112.5z M22.9,45.1l115.9-34.6
	l115.9,34.6l0,9.3L138.8,88.9L37,58.6v24.6c4.4,1.8,7.5,6,7.5,11.1c0,4.7-2.8,8.8-6.8,10.7c5.1,12.3,13.8,34,0,35.9
	c-3.5,0.5-6.9,0.5-10.2,0c-13.8-2.1-5.2-23.6,0-35.9c-4-1.9-6.8-6-6.8-10.7c0-5,3.1-9.3,7.5-11.1V56l-5.3-1.6L22.9,45.1L22.9,45.1z
	 M72.9,131.2c-0.2,0,0,0,0.1,0v0L72.9,131.2L72.9,131.2L72.9,131.2z M203.4,131.2L203.4,131.2L203.4,131.2L203.4,131.2L203.4,131.2
	L203.4,131.2z M203.4,131.2L203.4,131.2C203.3,131.2,203.4,131.2,203.4,131.2L203.4,131.2z"/>
</svg>
