<svg id="Livello_1" data-name="Livello 1" xmlns="http://www.w3.org/2000/svg" viewBox="0 0 36.09 36.09"><defs><style>.cls-1{fill:#1d1d1b;}</style></defs><title>scienza</title><path id="scienza" class="cls-1" d="M22.32,37.22l0.13,0.64a0.94,0.94,0,0,0,.93.73l0.78,0A0.94,0.94,0,0,0,25,37.73L25.09,37a1.14,1.14,0,0,1,.84-0.94l1.53-.4a1.11,1.11,0,0,1,1.18.41L29,36.72a0.94,0.94,0,0,0,1.14.31l0.71-.33a0.94,0.94,0,0,0,.48-1.08l-0.22-.74a1.15,1.15,0,0,1,.41-1.2l1-.79a1.11,1.11,0,0,1,1.25-.07l0.5,0.28a0.73,0.73,0,0,0,1-.34l0.52-.58a0.73,0.73,0,0,0,.25-1l-0.44-.57a1,1,0,0,1,0-1.2l0.75-1.15a1.15,1.15,0,0,1,1.16-.52l1,0.21a0.94,0.94,0,0,0,1-.58l0.27-.73a0.94,0.94,0,0,0-.42-1.1l-0.88-.47A1.11,1.11,0,0,1,38,23.93l0.23-1.49a1.14,1.14,0,0,1,.85-0.93l1.08-.22a0.94,0.94,0,0,0,.73-0.93l0-.78a0.94,0.94,0,0,0-.82-0.86L39,18.61a1.11,1.11,0,0,1-.92-0.84l-0.32-1.35a1.14,1.14,0,0,1,.43-1.19l0.92-.62a0.94,0.94,0,0,0,.31-1.14l-0.33-.71A0.94,0.94,0,0,0,38,12.28l-1,.31a1.11,1.11,0,0,1-1.18-.43l-1-1.33a1.13,1.13,0,0,1-.06-1.26l0.55-.86a0.82,0.82,0,0,0-.24-1.07L34.5,7.12A0.82,0.82,0,0,0,33.41,7l-0.85.68a1.08,1.08,0,0,1-1.23,0L30.2,7a1.14,1.14,0,0,1-.53-1.15l0.21-1a0.94,0.94,0,0,0-.58-1l-0.73-.26a0.94,0.94,0,0,0-1.1.43L27,4.84a1.11,1.11,0,0,1-1.13.53l-1.39-.22a1.14,1.14,0,0,1-.93-0.85L23.31,3.23a0.94,0.94,0,0,0-.93-0.73l-0.78,0a0.94,0.94,0,0,0-.86.82l-0.1,1a1.1,1.1,0,0,1-.85.92l-1.46.34a1.15,1.15,0,0,1-1.19-.43L16.59,4.4a0.94,0.94,0,0,0-1.14-.31l-0.71.33a0.94,0.94,0,0,0-.48,1.08l0.28,0.91a1.1,1.1,0,0,1-.43,1.17l-1.43,1a1.14,1.14,0,0,1-1.26.05L10.5,8A1.23,1.23,0,0,0,9.13,8L8.6,8.56a1.23,1.23,0,0,0,.17,1.36l0.65,0.76A1.21,1.21,0,0,1,9.54,12L8.7,13.47A1.1,1.1,0,0,1,7.59,14L6.91,13.9a0.94,0.94,0,0,0-1,.59l-0.26.74a0.94,0.94,0,0,0,.43,1.11L6.7,16.68a1.14,1.14,0,0,1,.54,1.14L7,19.37a1.11,1.11,0,0,1-.83.93l-0.62.12a0.94,0.94,0,0,0-.73.93l0,0.78a0.94,0.94,0,0,0,.82.86l0.65,0.06a1.13,1.13,0,0,1,.94.84l0.43,1.64a1.11,1.11,0,0,1-.41,1.18l-0.52.35a0.94,0.94,0,0,0-.31,1.14l0.33,0.71a0.94,0.94,0,0,0,1.08.48l0.63-.19a1.13,1.13,0,0,1,1.19.42l0.86,1.14A1.12,1.12,0,0,1,10.64,32l-0.39.56a1.06,1.06,0,0,0,.07,1.26l0.58,0.52a1.06,1.06,0,0,0,1.26-.06l0.48-.41a1.16,1.16,0,0,1,1.27-.08l1.5,0.88A1.11,1.11,0,0,1,16,35.81l-0.13.66a0.94,0.94,0,0,0,.59,1l0.74,0.26a0.94,0.94,0,0,0,1.11-.43l0.34-.63a1.14,1.14,0,0,1,1.14-.55l1.66,0.22A1.1,1.1,0,0,1,22.32,37.22ZM32.85,15a11.78,11.78,0,0,1-1,13.09,7.68,7.68,0,0,1-6-3,5.43,5.43,0,0,0,2.08-3.15,8.49,8.49,0,0,0,2-1.49A10.61,10.61,0,0,0,32.85,15ZM30,11.6a7.69,7.69,0,0,1-3,5.91,5.43,5.43,0,0,0-3.21-2.09,8.49,8.49,0,0,0-1.46-2,10.65,10.65,0,0,0-5.56-2.9A11.78,11.78,0,0,1,30,11.6ZM24.47,22.35a2.44,2.44,0,1,1-.17-3.45A2.44,2.44,0,0,1,24.47,22.35ZM12.42,26.7a11.78,11.78,0,0,1,1-13.28,7.71,7.71,0,0,1,6,3,5.41,5.41,0,0,0-2.06,3.2,8.5,8.5,0,0,0-2,1.48A10.68,10.68,0,0,0,12.42,26.7ZM15.32,30a7.71,7.71,0,0,1,3-6.08,5.41,5.41,0,0,0,3.13,2A8.49,8.49,0,0,0,23,28.06,10.65,10.65,0,0,0,28.51,31,11.78,11.78,0,0,1,15.32,30Z" transform="translate(-4.85 -2.5)"/></svg>