<?xml version="1.0" encoding="utf-8"?>
<!-- Generator: Adobe Illustrator 19.1.0, SVG Export Plug-In . SVG Version: 6.00 Build 0)  -->
<svg version="1.1" id="Livello_1" xmlns="http://www.w3.org/2000/svg" xmlns:xlink="http://www.w3.org/1999/xlink" x="0px" y="0px"
	 viewBox="0 0 120.5 108.5" enable-background="new 0 0 120.5 108.5" xml:space="preserve">
<g>
	<path fill-rule="evenodd" clip-rule="evenodd" d="M118,99.6L63.4,5c-1.4-2.5-4.9-2.2-6.2,0L2.5,99.6C1.1,102,3,105,5.6,105h109.3
		C117.7,105,119.3,101.9,118,99.6z M18.1,94.2l42.2-73.1l42.2,73.1H18.1z"/>
	<g>
		<g>
			<polygon fill="#141414" points="44.4,78.7 37.1,88.1 42,88.1 48.3,78.7 			"/>
			<path fill="#141414" d="M50.7,83c-0.5-0.2-0.7-0.5-0.8-0.7l-2.8,5.9H52l1.5-4.3C52.6,83.6,51.5,83.3,50.7,83z"/>
			<path fill="#141414" d="M50.7,81.3c0.1,0,0.3,0,0.5,0c0.2,0,0.4,0,0.6,0c0.5,0,0.8-0.1,0.9-0.3c0.4-0.6,0.9-1.5,1.1-2.4h-2.3
				l-1.3,2.7C50.4,81.3,50.6,81.3,50.7,81.3z"/>
			<polygon fill="#141414" points="57.4,88.5 62.4,88.5 62.4,78.7 58.8,78.7 			"/>
			<polygon fill="#141414" points="77.2,78.7 73.6,78.7 78.1,88.1 83,88.1 			"/>
			<path fill="#141414" d="M71.1,82.7c-0.7,0.6-1.5,1.3-2,1.6c-0.4,0.2-0.6,0.3-0.8,0.3c-0.3,0-0.5-0.2-0.6-0.3l0,0
				c-0.2-0.3-0.4-0.7,0.3-1.4c0.1-0.1,0.1-0.1,0.2-0.2c0.3-0.2,0.6-0.5,0.6-0.9c0-0.4-0.2-1-0.8-1.7c-0.1-0.1-0.4-0.6-1-1.5h-0.8
				l2.1,9.4h4.8l-1.9-5.5C71.2,82.7,71.1,82.7,71.1,82.7z"/>
		</g>
		<path fill="#141414" d="M65.5,68.4c-0.6-1.6-0.4-6.9-0.3-7.8c0.1-0.8,0.8-2.3,1.5-0.3c0.8,2,1.7,5.4,1.8,6.7c0.1,1.3,1.7,3,2,0.5
			c0.2-1.6-0.2-4.5-0.3-5.1c-0.3-1.6-3.2-8.6-6.6-9.7c-0.4-0.1-0.8-0.2-1.2-0.2v-1.1c0.9-0.5,1.4-1.5,1.4-2.7c0-1.7-1.3-3.1-2.9-3.1
			c-1.6,0-2.9,1.4-2.9,3.1c0,1.3,0.8,2.5,1.9,2.9v0.9c-2.1,0.7-3.6,2.2-3.9,3c-0.4,1.1-0.8,3.2-1.5,4.3c-0.6,1.1-2.3,4.1-2.9,5.3
			c-0.6,1.2-0.9,2-0.8,2.6c0.1,0.6,0.6,1.2,1.2,0.6c0.6-0.7,4.2-5.1,4.7-6.2c0.5-1.1,1.2-3.9,1,1.5c-0.2,5.4-1.5,7.3-1.8,8.5
			c-0.3,1.1-1.5,4.7-1.7,5.8c-0.2,1-0.9,2.6-1.4,3.3c-0.6,0.8-2.2,0.1-2.6,0.4c-0.3,0.3-0.5,0.7,0.5,1.2c1,0.5,2.8,0.8,3.5,0.8
			c0.7,0,5.5-10.8,6.9-13c0.4-0.6,2,1.9,3.7,4.4c1.7,2.6,3.1,4.7,3.3,4.9c1.6,2,0.6,2.5,0,3c-0.6,0.6-0.5,0.9-0.3,1.1
			c0.2,0.3,0.3,0.4,1.1,0c0.8-0.4,2.4-2,2.8-2.3C72.2,81.6,66.2,70,65.5,68.4z"/>
	</g>
</g>
</svg>
