<?xml version="1.0" encoding="utf-8"?>
<!-- Generator: Adobe Illustrator 19.1.0, SVG Export Plug-In . SVG Version: 6.00 Build 0)  -->
<svg version="1.1" id="Layer_1" xmlns="http://www.w3.org/2000/svg" xmlns:xlink="http://www.w3.org/1999/xlink" x="0px" y="0px"
	 viewBox="0 0 378 595" enable-background="new 0 0 378 595" xml:space="preserve">
<g>
	<g id="bulb">
		<path fill="none" d="M187.7,63.3h-0.9c-35.9,0.1-73.2,17.3-97.5,45.1c-15.2,17.4-32.2,46.6-26.8,87c5.1,37.6,23.2,63.9,39.2,87.1
			c10.1,14.7,19.7,28.5,25.2,44l0,0.1c1.9,5.8,3.7,10.4,5.3,23.7c1.2,10,3.4,27.8,5.4,40.5c1.5,9.5,9,14,13.7,13.5h70.7
			c6,0.3,13.8-5.6,15.5-13.1c2.8-12.5,3.3-30.8,4.6-40.9c1.6-13.3,3.4-17.9,5.3-23.7l0-0.1c5.4-15.4,15-29.3,25.2-44
			c16-23.2,34.2-49.5,39.2-87.1c5.4-40.4-11.6-69.6-26.8-87C260.9,80.7,223.5,63.4,187.7,63.3z"/>
		<path fill="#1D1D1B" d="M235.9,560.4c-0.5-0.3-1.1-0.6-1.7-0.8c-1.6-0.6-3.3-0.9-5.2-0.9h-83.6c-2,0-3.9,0.3-5.5,0.9
			c-0.6,0.2-1.2,0.5-1.7,0.8c-2.6,1.4-4.3,3.7-4.3,6.2c0,4.6,8.4,7.1,16.7,7.6c1.9,0.1,5.7,1.8,9.6,3.7c7.6,3.5,17,7.9,27.1,7.9h0.1
			c0,0,0,0,0,0c9.9,0,19.2-4.2,26.6-7.6c4.2-1.9,8.2-3.8,10.7-4c9.8-0.8,15.7-3.5,15.7-7.2C240.5,564.3,238.7,561.9,235.9,560.4z"/>
		<path fill="#1D1D1B" d="M333.4,234.8L333.4,234.8l30.4-8.2l4.7-26.4L343.2,182l0,0c0.1-11.7-1.2-23.3-4-34.5l19.7-24.1l-11.4-24.2
			l-31-0.1c-2.6-3.6-5.5-7.2-8.5-10.6c-4.6-5.2-9.5-10.2-14.9-14.8l0,0l3.4-31.1l-22.8-14.1l-26.2,16.9l0,0
			c-10.9-4.5-22.1-7.8-33.4-9.9l0-0.1L200.8,7.3h-27.2l-13.4,28.1l0,0.1c-11.3,2-22.6,5.4-33.4,9.9l0,0l-26.2-16.9L77.9,42.6
			l3.4,31.1l0,0C76,78.3,71,83.3,66.5,88.5c-3,3.4-5.8,7-8.5,10.6l-31,0.1l-11.4,24.2l19.7,24.1c-2.8,11.2-4.1,22.8-4,34.5l0,0
			L5.9,200.2l4.7,26.4l30.4,8.2l0,0c4.1,11.5,9,21.9,14.3,31.4l-16.1,26.6l14.7,22.4l30.6-4.1c7.2,10.9,13.1,21,15.4,31l-0.1,0
			l-26.7,16l2.6,26.7l27.7,10.1c3.4,23.7,10,39.7,28.4,39.7h110.6c22.4,0,25-16,28.4-39.7l27.7-10.1l2.6-26.7l-26.7-16l-0.1,0
			c2.3-10,8.2-20.1,15.4-31l30.6,4.1l14.7-22.4l-16.1-26.6C324.4,256.7,329.4,246.3,333.4,234.8z M311.9,195.4
			c-5.1,37.6-23.2,63.9-39.2,87.1c-10.1,14.7-19.7,28.5-25.2,44l0,0.1c-1.9,5.8-3.7,10.4-5.3,23.7c-1.3,10.2-1.8,28.5-4.6,40.9
			c-1.7,7.5-9.5,13.4-15.5,13.1h-70.7c-4.7,0.5-12.3-4.1-13.7-13.5c-1.9-12.6-4.1-30.5-5.4-40.5c-1.6-13.3-3.4-17.9-5.3-23.7l0-0.1
			c-5.4-15.4-15-29.3-25.2-44c-16-23.2-34.2-49.5-39.2-87.1c-5.4-40.4,11.6-69.6,26.8-87c24.3-27.8,61.6-45,97.5-45.1h0.9
			c35.9,0.1,73.2,17.3,97.5,45.1C300.4,125.8,317.4,155,311.9,195.4z"/>
		<path fill="#1D1D1B" d="M123.7,511.1h127c8.3,0,15-6.7,15-15c0-8.3-6.7-15-15-15h-127c-8.3,0-15,6.7-15,15
			C108.7,504.4,115.4,511.1,123.7,511.1z"/>
		<path fill="#1D1D1B" d="M255.7,518.6h-137c-8.3,0-15,6.7-15,15c0,8.3,6.7,15,15,15h137c8.3,0,15-6.7,15-15
			C270.7,525.3,264,518.6,255.7,518.6z"/>
		<path fill="#1D1D1B" d="M123.7,473.7h127c8.3,0,15-6.7,15-15c0-8.3-6.7-15-15-15h-127c-8.3,0-15,6.7-15,15
			C108.7,467,115.4,473.7,123.7,473.7z"/>
	</g>
</g>
</svg>
