<svg id="Livello_1" data-name="Livello 1" xmlns="http://www.w3.org/2000/svg" viewBox="0 0 26.8 35.11"><defs><style>.cls-1{fill:#1d1d1b;}</style></defs><title>territorio</title><path id="territorio" class="cls-1" d="M31.88,7.56C31.42,7,30.63,7.51,30.22,6.49s0.14-4.26-2-3.22c-1,.48-0.92,2-2.49,2.48-0.13,2.14-2.24,4.36-2.24,4.36-1.47,1.29-.36,2.23-0.17,3.48,0.13,0.91.42,2.69-.67,3.26a4,4,0,0,1-1.87,0A5.81,5.81,0,0,0,19,16.43c-0.56.16-1,1.11-1.54,1.32s-1.2-.11-1.78.21c-1.23.55-.51,2-0.34,3.42-0.73,0-4.56,1-4.89,1.52-0.85,1.29,1.74,3.42,2.28,4,2.61,3-2.23,5.86,1.28,8.68-0.09-.07,2.22,2,3,2.13,1.13,0.22,3-1.17,4.09-.37a9.85,9.85,0,0,0,2,.76,2.49,2.49,0,0,0,.77,0,4.25,4.25,0,0,0,.4-0.45c0.5-.27.71-0.13,0.91-0.71s0-1,.14-1.41,0.54-.7.72-1.07,0.22-.85.38-1.23a1.18,1.18,0,0,1,2.19-.16c0.47-.9,1.55-0.69,2.53-0.69a4.18,4.18,0,0,0,2.53-.71c0.2-.53.07-1.13,0.63-1.47s1.1,0.1,1.57.54,0.18,0.48.94,0.58A8.79,8.79,0,0,0,37,29.64,2.35,2.35,0,0,0,36.42,28a17.21,17.21,0,0,1-1.24-2.18,15.55,15.55,0,0,0-1.09-1.44,5.83,5.83,0,0,1-2.84.2c-0.19-.7-2.36-5.09-0.6-4.94a1.11,1.11,0,0,0,1.19,1,1.77,1.77,0,0,1,.42-1.36A4.69,4.69,0,0,1,33.55,19c0.14-.59-1.08-2.17-1.39-2.69a11.05,11.05,0,0,1-.6-1.7c-0.18-.43-0.69-0.72-0.85-1.15-0.76-2,2-4.26,1.06-6.1" transform="translate(-10.24 -3.06)"/></svg>