<svg id="Livello_1" data-name="Livello 1" xmlns="http://www.w3.org/2000/svg" viewBox="0 0 36.89 36.62"><defs><style>.cls-1{fill:#1d1d1b;}</style></defs><title>turismo</title><g id="turismo"><path class="cls-1" d="M28.48,10c-0.33.31-.69,0.66-1.07,1l-3.89-.36c0.24-.21.48-0.43,0.72-0.67s0.52-.54.75-0.81L23.32,7.55c-0.27.23-.54,0.48-0.81,0.75a13.43,13.43,0,0,0-1.77,2.15L17,10.11c0.26-.23.52-0.47,0.78-0.73s0.52-.54.75-0.81L16.83,6.89c-0.27.23-.54,0.48-0.81,0.75a13.22,13.22,0,0,0-1.81,2.21L4.93,9,3.6,10.29l18.54,6.24c-3.56,3.79-7.35,8-9.44,10.73L6.23,25.65,5.85,26l5.62,3a1.16,1.16,0,0,0-.3,1,1.15,1.15,0,0,0,1-.27l2.73,5.75,0.38-.38-1.32-6.54c2.78-2,7.15-5.62,11.05-9l5.6,18.75L31.94,37l-0.55-9.69a12.76,12.76,0,0,0,2.37-1.91c0.27-.27.52-0.54,0.75-0.81L32.84,22.9c-0.27.23-.54,0.48-0.81,0.75s-0.55.58-.8,0.86L31,20.63a13.5,13.5,0,0,0,2.09-1.74c0.27-.27.52-0.54,0.75-0.81l-1.68-1.68c-0.27.23-.54,0.48-0.81,0.75l-0.52.55-0.19-3.29,1.07-1c5-4.82,9.54-10.7,8.64-11.63S33.48,5.21,28.48,10Z" transform="translate(-3.6 -1.66)"/><path class="cls-1" d="M18,6c-0.22.15-.46,0.33-0.69,0.52l1.6,1.6c0.19-.24.37-0.47,0.52-0.69Z" transform="translate(-3.6 -1.66)"/><path class="cls-1" d="M24.48,6.65C24.26,6.8,24,7,23.79,7.17l1.6,1.6c0.19-.24.36-0.47,0.52-0.69Z" transform="translate(-3.6 -1.66)"/><path class="cls-1" d="M34.9,24.11c0.19-.24.37-0.47,0.52-0.69L34,22c-0.22.15-.46,0.33-0.69,0.52Z" transform="translate(-3.6 -1.66)"/><path class="cls-1" d="M34.24,17.62c0.19-.24.36-0.47,0.52-0.69l-1.42-1.42c-0.22.15-.46,0.33-0.69,0.52Z" transform="translate(-3.6 -1.66)"/></g></svg>