<?xml version="1.0" encoding="utf-8"?>
<!-- Generator: Adobe Illustrator 19.1.0, SVG Export Plug-In . SVG Version: 6.00 Build 0)  -->
<svg version="1.1" id="Modalità_Isolamento" xmlns="http://www.w3.org/2000/svg" xmlns:xlink="http://www.w3.org/1999/xlink"
	 x="0px" y="0px" viewBox="0 0 68.7 67" enable-background="new 0 0 68.7 67" xml:space="preserve">
<g>
	<path d="M63.4,13.4h-2.5c-1.3,0-2.4,1.1-2.4,2.4v0.9h-1.3V6.6c0-2.3-1.8-4.1-4.1-4.1H14.2c-2.3,0-4.1,1.8-4.1,4.1v10.2H8.7v-0.9
		c0-1.3-1.1-2.4-2.4-2.4H3.8c-1.3,0-2.4,1.1-2.4,2.4v6.2c0,1.3,1.1,2.4,2.4,2.4h2.5c1.3,0,2.4-1.1,2.4-2.4V22h1.3v34.6H9.9
		c-0.5,0-1,0.6-1,1.3c0,0.7,0.4,1.3,1,1.3h2.3v3c0,1.2,1,2.2,2.2,2.2h3.1c1.2,0,2.2-1,2.2-2.2v-3h27.7v3c0,1.2,1,2.2,2.2,2.2h3.1
		c1.2,0,2.2-1,2.2-2.2v-3h2.3c0.5,0,1-0.6,1-1.3c0-0.7-0.4-1.3-1-1.3h-0.1V22h1.3v0.1c0,1.3,1.1,2.4,2.4,2.4h2.5
		c1.3,0,2.4-1.1,2.4-2.4v-6.2C65.8,14.5,64.8,13.4,63.4,13.4z M55.6,48.3v3.2c0,1.2-1,2.1-2.1,2.1h-8.3c-1.2,0-2.1-1-2.1-2.1v-3.2
		c0-1.2,1-2.1,2.1-2.1h8.3C54.7,46.1,55.6,47.1,55.6,48.3z M12.5,6.6c0-0.9,0.8-1.7,1.7-1.7H53c0.9,0,1.7,0.8,1.7,1.7v34.8H12.5V6.6
		z M39.6,51.4H27.6c-0.4,0-0.7-0.3-0.7-0.7c0-0.4,0.3-0.7,0.7-0.7h12.1c0.4,0,0.7,0.3,0.7,0.7C40.3,51.1,40,51.4,39.6,51.4z
		 M40.3,52.8c0,0.4-0.3,0.7-0.7,0.7H27.6c-0.4,0-0.7-0.3-0.7-0.7c0-0.4,0.3-0.7,0.7-0.7h12.1C40,52.1,40.3,52.4,40.3,52.8z
		 M39.6,49.4H27.6c-0.4,0-0.7-0.3-0.7-0.7c0-0.4,0.3-0.7,0.7-0.7h12.1c0.4,0,0.7,0.3,0.7,0.7C40.3,49,40,49.4,39.6,49.4z M11.8,48.3
		c0-1.2,0.9-2.1,2.1-2.1h8.3c1.2,0,2.1,1,2.1,2.1v3.2c0,1.2-1,2.1-2.1,2.1h-8.3c-1.2,0-2.1-1-2.1-2.1V48.3z"/>
	<path d="M51.8,40.2l-13.5-1.5h4.6c0.3,0,0.6-0.3,0.6-0.6c0-0.3-0.3-0.6-0.6-0.6H15.6c-0.3,0-0.6,0.3-0.6,0.6c0,0.3,0.3,0.6,0.6,0.6
		h15.7L51.7,41l0,0c0.2,0,0.4-0.2,0.4-0.4C52.2,40.4,52,40.2,51.8,40.2z"/>
</g>
</svg>
