<svg xmlns="http://www.w3.org/2000/svg" width="113.318" height="113.831" viewBox="0 0 113.318 113.831"><defs><style>.a{opacity:0.002;}.b{fill:#fff;}</style></defs><g class="a" transform="translate(0 0.826)"><path class="b" d="M105.7,34.61H5.772A5.768,5.768,0,0,1,.4,26.752L9.369,3.678A5.767,5.767,0,0,1,14.746,0H96.724A5.768,5.768,0,0,1,102.1,3.678l8.974,23.073A5.77,5.77,0,0,1,105.7,34.61ZM21.128,7.691,15.36,25H96.116l-4.6-13.8-1.167-3.5Z" transform="translate(0.022 78.394)"/><path class="b" d="M1.6,452a5.745,5.745,0,0,0,5.424,3.846h99.911A5.745,5.745,0,0,0,112.351,452Z" transform="translate(-1.215 -342.841)"/><g transform="translate(3.846 9.174)"><path class="b" d="M193.614,81.351l-5.768-5.768V61H184V77.174l9.614,9.614v25.737h3.846V36h-3.846Z" transform="translate(-143.622 -36)"/><path class="b" d="M287.382,60h-3.845V76.509L272,88.046v42.711h3.846V89.638L287.382,78.1Z" transform="translate(-210.472 -54.232)"/><path class="b" d="M346.919,65.638V36h-3.846V64.046l-1.923,1.923L335.382,60.2V51.382h-3.845v10.41l6.895,6.9L327.691,79.428l-3.845-3.846v-6.9H320v8.487l4.972,4.972L320,87.119v25.406h3.846V100.248l12.333-12.333h10.741V84.07H334.586L323.846,94.81v-6.1Z" transform="translate(-246.935 -36)"/><path class="b" d="M19.846,26,16,36V71.406L26.741,82.147H24.818l-6.332,6.332L21.2,91.2l5.2-5.2h4.176L42.919,98.325v14.2h3.846V96.733L19.846,69.814Z" transform="translate(-16 -36)"/><path class="b" d="M93.15,88.024V68H89.3V86.432l-9.614,9.614L75.846,92.2V79.537H72V93.792l25,25v18.046h3.845V117.2L82.41,98.765Z" transform="translate(-58.541 -60.309)"/><path class="b" d="M184,92h3.846v7.691H184Z" transform="translate(-143.622 -78.541)"/><path class="b" d="M368,68h3.845v3.846H368Z" transform="translate(-283.398 -60.309)"/></g><g transform="translate(0 0)"><ellipse class="b" cx="7.5" cy="7" rx="7.5" ry="7" transform="translate(48.318 0.093)"/><ellipse class="b" cx="6.5" cy="6" rx="6.5" ry="6" transform="translate(73.318 8.093)"/><ellipse class="b" cx="5.5" cy="7" rx="5.5" ry="7" transform="translate(95.318 0.093)"/><ellipse class="b" cx="6" cy="5" rx="6" ry="5" transform="translate(101.318 51.093)"/><ellipse class="b" cx="5" cy="7" rx="5" ry="7" transform="translate(2.318 0.093)"/><ellipse class="b" cx="5.5" cy="7" rx="5.5" ry="7" transform="translate(30.318 8.093)"/><ellipse class="b" cx="4" cy="5.5" rx="4" ry="5.5" transform="translate(15.318 22.093)"/><path class="b" d="M0,249.772a5.768,5.768,0,1,0,9.846-4.078l-.233.233.233-.233A5.768,5.768,0,0,0,0,249.772Z" transform="translate(0 -184.838)"/></g></g></svg>