<svg xmlns="http://www.w3.org/2000/svg" width="109.657" height="111.142" viewBox="0 0 109.657 111.142"><defs><style>.a{opacity:0;}.b{fill:#fff;}</style></defs><g class="a" transform="translate(0 -0.001)"><path class="b" d="M53.924,111.143a68.2,68.2,0,0,1-15.78-1.631c-4.213-1.053-6.534-2.454-6.534-3.947V83.327a1.811,1.811,0,0,0,.44,1.036,1.771,1.771,0,0,1-.44-1.112V72.094c0,1.412,2.108,2.758,5.939,3.792-3.5-1.182-5.431-2.7-5.431-4.266,0-1.624,2.05-3.179,5.772-4.38a53.513,53.513,0,0,1,14.173-2.1V55.358H11.156V38.448C4.588,37.815,0,35.593,0,33.044v-9.2a2.417,2.417,0,0,0,.365,1.146A2.387,2.387,0,0,1,0,23.747V5.158C0,6.648,1.55,8.047,4.356,9.1a31.071,31.071,0,0,0,10.52,1.632A31.067,31.067,0,0,0,25.4,9.1c2.809-1.053,4.356-2.454,4.356-3.946V8.87c0,2.287-2.678,4.483-7.541,6.184A66.509,66.509,0,0,1,3.621,18.092a29.769,29.769,0,0,0,11.255,1.936A31.065,31.065,0,0,0,25.4,18.4c2.809-1.053,4.356-2.455,4.356-3.947v3.719c0,2.287-2.678,4.483-7.541,6.184A66.509,66.509,0,0,1,3.621,27.389a29.769,29.769,0,0,0,11.255,1.936c1,0,2.008-.037,2.982-.111a27.885,27.885,0,0,0,7.569-1.531c2.788-1.051,4.323-2.448,4.324-3.934v3.717c0,2.287-2.678,4.483-7.541,6.184A66.509,66.509,0,0,1,3.621,36.687a29.771,29.771,0,0,0,11.255,1.935V51.639H52.065V38.58A28.167,28.167,0,0,1,42.8,36.753c-2.422-1.021-3.756-2.338-3.756-3.708v-9.2a2.419,2.419,0,0,0,.368,1.151,2.388,2.388,0,0,1-.368-1.244V5.158c0,1.49,1.55,2.89,4.356,3.941a31.071,31.071,0,0,0,10.52,1.632A28.759,28.759,0,0,0,65.6,8.61a33.941,33.941,0,0,1-10.4,1.453c-8.16,0-14.8-2.257-14.8-5.031S47.044,0,55.2,0,70,2.258,70,5.032a2.62,2.62,0,0,1-1.2,1.987V8.87c0,2.287-2.678,4.483-7.542,6.184a66.513,66.513,0,0,1-18.59,3.037,29.769,29.769,0,0,0,11.255,1.936A31.068,31.068,0,0,0,64.444,18.4c2.809-1.053,4.356-2.455,4.356-3.947v3.719c0,2.287-2.678,4.483-7.542,6.184a66.513,66.513,0,0,1-18.59,3.037,29.769,29.769,0,0,0,11.255,1.936,36.406,36.406,0,0,0,6.526-.561,23.1,23.1,0,0,0,4.185-1.143,13.213,13.213,0,0,0,1.686-.785c1.471-.827,2.322-1.794,2.459-2.795a2.172,2.172,0,0,0,.02-.293v3.717c0,2.287-2.678,4.483-7.542,6.184a66.513,66.513,0,0,1-18.59,3.037,29.771,29.771,0,0,0,11.255,1.935c.621,0,1.247-.014,1.859-.043v13.06h7.438v3.719H55.784v9.764a55.211,55.211,0,0,1,14.7,2.038c3.884,1.212,6.023,2.8,6.023,4.459a2.146,2.146,0,0,1-.273,1.023v5.028c0,1.137-1.015,2.246-3.016,3.3a35.948,35.948,0,0,1-8.309,2.773,153.5,153.5,0,0,1-28.058,3.1,63.653,63.653,0,0,0,16.591,1.981,73.075,73.075,0,0,0,16.13-1.668c4.26-1.038,6.626-2.414,6.661-3.872-.033,1.473-2.336,2.859-6.482,3.9a67.447,67.447,0,0,1-15.43,1.644,67.451,67.451,0,0,0,15.43-1.643c4.179-1.051,6.481-2.447,6.483-3.932v5.576c0,1.137-1.015,2.246-3.016,3.3A35.955,35.955,0,0,1,64.913,94.9,153.537,153.537,0,0,1,36.855,98a63.7,63.7,0,0,0,16.591,1.98A73.045,73.045,0,0,0,69.58,98.311c4.293-1.047,6.658-2.434,6.658-3.9v5.579c0,1.137-1.015,2.246-3.016,3.3a35.953,35.953,0,0,1-8.309,2.772,153.517,153.517,0,0,1-28.058,3.1,63.652,63.652,0,0,0,16.591,1.981,73.042,73.042,0,0,0,16.13-1.668c4.262-1.039,6.627-2.414,6.661-3.873-.032,1.481-2.354,2.872-6.536,3.917A68.209,68.209,0,0,1,53.924,111.143ZM35.648,86.456q1.089.387,2.449.73a67.479,67.479,0,0,0,15.435,1.642A67.476,67.476,0,0,1,38.1,87.185Q36.738,86.844,35.648,86.456Zm-32.8-59.42a14.261,14.261,0,0,0,1.473.646A30.934,30.934,0,0,0,14.78,29.326,30.933,30.933,0,0,1,4.324,27.682,14.307,14.307,0,0,1,2.852,27.036Zm39.05,0a14.26,14.26,0,0,0,1.472.646,30.4,30.4,0,0,0,9.9,1.638,30.4,30.4,0,0,1-9.9-1.639A14.316,14.316,0,0,1,41.9,27.036ZM96.692,55.358H89.254V51.639h3.719V38.624a31.068,31.068,0,0,1-10.52-1.632c-2.809-1.053-4.356-2.455-4.356-3.947v-9.2a2.418,2.418,0,0,0,.366,1.148,2.388,2.388,0,0,1-.366-1.241V7.182c-1.053-.674-1.587-1.4-1.587-2.15C76.511,2.258,83.946,0,93.084,0s16.573,2.257,16.573,5.031c0,.806-.608,1.575-1.808,2.287V8.87c0,2.287-2.678,4.483-7.541,6.184a66.509,66.509,0,0,1-18.589,3.037,29.769,29.769,0,0,0,11.255,1.936,31.065,31.065,0,0,0,10.52-1.632c2.809-1.053,4.356-2.455,4.356-3.947v3.719c0,2.287-2.678,4.483-7.541,6.184a66.509,66.509,0,0,1-18.589,3.037,29.769,29.769,0,0,0,11.255,1.936c1.065,0,2.126-.042,3.155-.125a27.713,27.713,0,0,0,7.4-1.518c2.788-1.051,4.323-2.448,4.324-3.934v3.717c0,2.287-2.678,4.483-7.541,6.184a66.509,66.509,0,0,1-18.589,3.037,29.771,29.771,0,0,0,11.255,1.935c1.26,0,2.511-.059,3.719-.175v16.91ZM80.929,27.026a14.209,14.209,0,0,0,1.492.656,30.931,30.931,0,0,0,10.455,1.643,30.93,30.93,0,0,1-10.455-1.644A14.263,14.263,0,0,1,80.929,27.026ZM81.048,8.49h0c2.838,1.423,7.184,2.24,11.925,2.24a29.115,29.115,0,0,0,11.543-2.057,42.842,42.842,0,0,1-11.432,1.389A41.2,41.2,0,0,1,81.048,8.49Zm4.487,46.868H81.816V51.639h3.719v3.718Zm-7.438,0H74.379V51.639H78.1v3.718Zm-7.438,0H66.94V51.639h3.72v3.718Zm36.168-20.271h0a3.291,3.291,0,0,0,.932-1.421A3.255,3.255,0,0,1,106.828,35.087ZM15.25,10.063c-7.343,0-13.317-2.257-13.317-5.031S7.907,0,15.25,0,28.568,2.258,28.568,5.032,22.594,10.063,15.25,10.063Z"/></g></svg>