<svg xmlns="http://www.w3.org/2000/svg" width="115.366" height="115.367" viewBox="0 0 115.366 115.367"><defs><style>.a{opacity:0;}.b{fill:#fff;}</style></defs><g class="a"><g transform="translate(27.483 27.478)"><path class="b" d="M0,0,3.753,1.215l.093,21.9H0Z" transform="translate(19.061 16.347) rotate(135)"/><rect class="b" width="6" height="3" transform="translate(6.119 29.514)"/><rect class="b" width="24.473" height="3.845" transform="translate(20.028 43.097) rotate(135)"/><rect class="b" width="7" height="3" transform="translate(47.119 29.514)"/><path class="b" d="M0,0H5V5.9L2.123,4.375,0,5.38Z" transform="translate(28.119 6.514)"/><rect class="b" width="5" height="8" transform="translate(29.119 46.514)"/><rect class="b" width="3.845" height="24.473" transform="translate(60.407 57.693) rotate(135)"/><path class="b" d="M0,0,22.105.049l1.3,3.775L0,3.845Z" transform="translate(60.406 2.719) rotate(135)"/></g><path class="b" d="M160,200v19.228l19.228,9.614V209.614Z" transform="translate(-121.545 -151.93)"/><path class="b" d="M97.322,113a14.819,14.819,0,0,1-11.086-5.112,18.878,18.878,0,0,1,0-24.682,14.577,14.577,0,0,1,22.172,0,18.88,18.88,0,0,1,0,24.682A14.819,14.819,0,0,1,97.322,113ZM91.56,92.839l-2.718,2.717,5.765,5.766a1.923,1.923,0,0,0,2.718,0l9.609-9.61L104.217,89l-8.251,8.25L91.56,92.84ZM56.5,113a14.04,14.04,0,0,1-10.668-5.112,19.443,19.443,0,0,1,0-24.682,13.687,13.687,0,0,1,21.335,0,19.443,19.443,0,0,1,0,24.682A14.039,14.039,0,0,1,56.5,113ZM51.2,92.84l-2.717,2.717,5.765,5.766a1.923,1.923,0,0,0,2.718,0l9.609-9.61L63.858,89l-8.251,8.25L51.2,92.839ZM16.565,113a16.045,16.045,0,0,1-11.713-5.112,18.121,18.121,0,0,1,0-24.682,15.976,15.976,0,0,1,23.427,0,18.121,18.121,0,0,1,0,24.682A16.045,16.045,0,0,1,16.565,113ZM10.84,92.84,8.123,95.557l5.765,5.766a1.922,1.922,0,0,0,2.717,0l9.61-9.61L23.5,89l-8.25,8.25L10.84,92.839ZM57.528,74.979V55.76l19.22-9.609V65.369L57.529,74.978Zm39.794-3.393a15.678,15.678,0,1,1,11.086-4.592A15.575,15.575,0,0,1,97.322,71.586ZM91.56,52.479,88.842,55.2l5.765,5.766a1.923,1.923,0,0,0,2.718,0l9.609-9.61-2.717-2.717-8.251,8.25L91.56,52.479ZM16.565,71.586A16.941,16.941,0,0,1,4.852,66.994a15.091,15.091,0,0,1,0-22.172A16.941,16.941,0,0,1,16.565,40.23a16.941,16.941,0,0,1,11.713,4.592,15.091,15.091,0,0,1,0,22.172A16.941,16.941,0,0,1,16.565,71.586ZM10.84,52.479,8.123,55.2l5.765,5.766a1.922,1.922,0,0,0,2.717,0l9.61-9.61L23.5,48.635l-8.25,8.25L10.84,52.479ZM97.322,31.947a15.431,15.431,0,0,1-11.086-4.678,16.187,16.187,0,0,1,0-22.59,15.473,15.473,0,0,1,22.172,0,16.188,16.188,0,0,1,0,22.59A15.431,15.431,0,0,1,97.322,31.947ZM91.56,12.118l-2.718,2.718L94.607,20.6a1.921,1.921,0,0,0,2.718,0l9.609-9.609-2.717-2.718-8.251,8.251L91.56,12.118ZM56.5,31.947a14.579,14.579,0,0,1-10.668-4.678,16.354,16.354,0,0,1-4.419-11.295,16.355,16.355,0,0,1,4.419-11.3,14.5,14.5,0,0,1,21.335,0,16.355,16.355,0,0,1,4.419,11.3,16.354,16.354,0,0,1-4.419,11.295A14.578,14.578,0,0,1,56.5,31.947ZM51.2,12.118l-2.717,2.718L54.248,20.6a1.921,1.921,0,0,0,2.718,0l9.609-9.609L63.858,8.275l-8.251,8.251ZM16.565,31.947A16.771,16.771,0,0,1,4.852,27.269a15.573,15.573,0,0,1,0-22.59A16.771,16.771,0,0,1,16.565,0,16.771,16.771,0,0,1,28.279,4.679a15.573,15.573,0,0,1,0,22.59A16.771,16.771,0,0,1,16.565,31.947ZM10.84,12.118,8.123,14.836,13.888,20.6a1.92,1.92,0,0,0,2.717,0l9.61-9.609L23.5,8.275l-8.25,8.251Z" transform="translate(0.602 1.992)"/><path class="b" d="M17.3,202.61a17.305,17.305,0,1,1,17.3-17.305A17.325,17.325,0,0,1,17.3,202.61Zm0-30.764a13.459,13.459,0,1,0,13.459,13.459A13.475,13.475,0,0,0,17.3,171.846Z" transform="translate(0 -127.621)"/><path class="b" d="M353.3,202.61a17.305,17.305,0,1,1,17.3-17.305A17.325,17.325,0,0,1,353.3,202.61Zm0-30.764a13.459,13.459,0,1,0,13.459,13.459A13.475,13.475,0,0,0,353.3,171.846Z" transform="translate(-255.244 -127.621)"/><path class="b" d="M17.3,34.61a17.305,17.305,0,1,1,17.3-17.305A17.325,17.325,0,0,1,17.3,34.61Zm0-30.765A13.459,13.459,0,1,0,30.764,17.305,13.475,13.475,0,0,0,17.3,3.846Z" transform="translate(0)"/><path class="b" d="M353.3,34.61a17.305,17.305,0,1,1,17.3-17.305A17.325,17.325,0,0,1,353.3,34.61Zm0-30.765a13.459,13.459,0,1,0,13.459,13.459A13.475,13.475,0,0,0,353.3,3.846Z" transform="translate(-255.244)"/><path class="b" d="M185.3,34.61a17.305,17.305,0,1,1,17.3-17.305A17.325,17.325,0,0,1,185.3,34.61Zm0-30.765a13.459,13.459,0,1,0,13.459,13.459A13.475,13.475,0,0,0,185.3,3.846Z" transform="translate(-127.622)"/><path class="b" d="M17.3,370.61a17.305,17.305,0,1,1,17.3-17.3A17.325,17.325,0,0,1,17.3,370.61Zm0-30.764a13.459,13.459,0,1,0,13.459,13.459A13.475,13.475,0,0,0,17.3,339.846Z" transform="translate(0 -255.243)"/><path class="b" d="M353.3,370.61a17.305,17.305,0,1,1,17.3-17.3A17.325,17.325,0,0,1,353.3,370.61Zm0-30.764a13.459,13.459,0,1,0,13.459,13.459A13.475,13.475,0,0,0,353.3,339.846Z" transform="translate(-255.244 -255.243)"/><path class="b" d="M185.3,370.61a17.305,17.305,0,1,1,17.3-17.3A17.325,17.325,0,0,1,185.3,370.61Zm0-30.764a13.459,13.459,0,1,0,13.459,13.459A13.475,13.475,0,0,0,185.3,339.846Z" transform="translate(-127.622 -255.243)"/></g></svg>