<svg xmlns="http://www.w3.org/2000/svg" width="461.574" height="700.806" viewBox="0 0 461.574 700.806"><defs><style>.a{fill:#1b2230;}.b{fill:#faa719;}.c{fill:#a36d4e;}.d{fill:#fa8108;}.e{fill:#186b82;}.f{fill:#1e88a6;}.g{fill:#3cafcf;}.h{fill:#39a6c4;}.i{fill:#61ceed;}.j{fill:#135669;}.k{fill:#fff;}.l{fill:#b5bec7;}.m{fill:#39c089;}.n{fill:#6a8199;}.o{fill:#171938;}.p{fill:#fcb947;}.q{fill:#e39c22;}.r{fill:#c9f5ff;}.s{fill:#4b575e;}.t{fill:#26d0d4;}.u{fill:#dadd00;}</style></defs><g transform="translate(-126.024 -35.462)"><g transform="translate(419.684 238.567)"><path class="a" d="M250.272,124.828a5.507,5.507,0,0,0,4.783,9.477c.11.6.532,2.55,1.745,2.916,1.658.5,4.2-2.126,4.346-4.249C261.34,130.031,257.017,126.762,250.272,124.828Z" transform="translate(-228.901 -99.337)"/><path class="a" d="M266.553,140.791a5.987,5.987,0,0,0,4.072-5.438,5.7,5.7,0,0,0-1.734-3.888,8.629,8.629,0,0,0,1.97-5.492c-.12-4.269-3.96-8.528-7.613-8.2-2.566.228-4.584,2.676-5.4,4.707C255.8,127.556,259.312,134.808,266.553,140.791Z" transform="translate(-215.209 -110.358)"/><path class="b" d="M300.566,134.6q-.779,11.515-1.967,23.539c-1.507,15.159-3.415,29.675-5.615,43.511l-45.6-.333a209.649,209.649,0,0,0,3.1-25.475,210.448,210.448,0,0,0-1.108-37.623,55.363,55.363,0,0,1,13.713-5.945C279.777,127.609,294.273,132.157,300.566,134.6Z" transform="translate(-230.609 -90.884)"/><path class="c" d="M260.545,126.664c.087-.491.46-2.43,1.253-2.527.813-.1,1.765,1.765,2.077,3.284.65,3.187-1.138,6.7-2.067,6.577C261.335,133.933,260.67,132.869,260.545,126.664Z" transform="translate(-210.103 -100.421)"/><path class="b" d="M274.041,131.952q8.434,22.293,16.865,44.585L276,174.977,264.408,151.62Q269.223,141.786,274.041,131.952Z" transform="translate(-204.085 -88.238)"/><path class="d" d="M273.7,128.582a28.1,28.1,0,0,1-.261,5.809c-1.284,8.549-6.9,18.617-11.634,18.215-4.062-.345-7.932-8.434-8.743-19.389Z" transform="translate(-221.758 -93.489)"/><path class="c" d="M269.963,121.365c1.86,1.486,2.64,3.2,4.052,6.3a36.417,36.417,0,0,1,2.445,8.053c1.069,4.863,1.6,7.29,1.085,9.986a16.311,16.311,0,0,1-3.428,7.16c-1.369,1.724-2.568,3.236-4.65,3.765-2.046.522-3.778-.2-5.911-1.1a16.823,16.823,0,0,1-6.753-4.771c-1.98-2.379-2.63-4.681-3.929-9.28a39.058,39.058,0,0,1-1.412-6.963c-.486-4.627-.729-6.94.5-9.408,2.241-4.512,7.426-5.7,8.1-5.848C260.611,119.14,265.878,118.1,269.963,121.365Z" transform="translate(-224.875 -108.406)"/><path class="b" d="M259.595,133.367l-18.769,37.984,14.093,2.552,13.225-24.21-1.968-12.055Z" transform="translate(-240.826 -86.033)"/><path class="d" d="M252.9,140.369a19.98,19.98,0,0,1-6.712,19.351Z" transform="translate(-232.471 -75.125)"/><path class="b" d="M254.828,173.713q1.646-4.62,3.228-9.416c3.064-9.293,5.681-18.33,7.919-27.058l-8.856-4.244A233.3,233.3,0,0,0,244.8,160.388q-2.21,5.909-3.975,11.544Z" transform="translate(-240.825 -86.613)"/><path class="d" d="M258.9,138.789q-1.93,3.611-3.857,7.226a9.886,9.886,0,0,1-4.771-1.005,10.077,10.077,0,0,1-4.538-4.643q1.888-3.764,3.77-7.526a8.814,8.814,0,0,1,3.612.371A10.036,10.036,0,0,1,258.9,138.789Z" transform="translate(-233.174 -86.926)"/><path class="c" d="M260.76,128.914q-6.73,5.5-13.458,11.007a8.813,8.813,0,0,0,1.8,2.589,9.274,9.274,0,0,0,5.482,2.55q3.25-2.314,6.5-4.625c.182.775.483,1.681.959,1.729.816.084,1.872-2.364,2.164-4.136C264.858,134.053,262.157,130.5,260.76,128.914Z" transform="translate(-230.734 -92.971)"/><path class="a" d="M284.033,130.766a6.669,6.669,0,0,1-4.387,5.379,6.579,6.579,0,0,1-4.934-.568,4.125,4.125,0,0,1-2.3,2.834,4.022,4.022,0,0,1-3.231-.1,5.748,5.748,0,0,1-6.932,5.083,4.621,4.621,0,0,1-1.785,3.576,4.715,4.715,0,0,1-5.978-1.082,8.093,8.093,0,0,1-5.835-1.87c-2.8-2.612-3.164-7.807-.223-12.227-1.228-4.251-.486-6.395.394-7.564,1.445-1.916,3.379-1.363,6.075-3.937,2.121-2.026,1.86-3.267,3.527-4.236,1.3-.755,3.435-1.143,7.093.31a8.291,8.291,0,0,1,5.305-1.476c4.579.379,6.776,4.742,6.894,4.985a4.3,4.3,0,0,1,5.254,5.988A7.235,7.235,0,0,1,284.033,130.766Z" transform="translate(-232.169 -114.863)"/></g><g transform="translate(161.93 321.547)"><path class="e" d="M182.405,285.8a110.967,110.967,0,0,1,39.817-17.348q9.9,23.333,19.794,46.665l-39.7-12.214Z" transform="translate(-74.09 41.443)"/><path class="e" d="M328.812,240.148a208.924,208.924,0,0,0-48.323-24.426q-10.809,28.041-21.623,56.078l51.679-15.028Z" transform="translate(45.036 -40.707)"/><path class="f" d="M357.328,485.98a69.223,69.223,0,0,1-70.938,0L159.126,189.836H484.592Z" transform="translate(-110.358 -81.037)"/><path class="g" d="M527.773,269.967a733.071,733.071,0,0,1-176.9,21.5,732.971,732.971,0,0,1-175.518-21.5q-17.646-55.743-35.29-111.489h423Z" transform="translate(-140.061 -129.892)"/><path class="h" d="M393.549,225.271Q380,268.065,366.455,310.845a360.8,360.8,0,0,1-134.48,26.344c-4.986.015-9.866-.089-14.66-.279V249.784q6.507.176,13.194.177A546.511,546.511,0,0,0,393.549,225.271Z" transform="translate(-19.701 -25.83)"/><path class="h" d="M182.405,275.233q7.095,22.419,14.194,44.831a188.993,188.993,0,0,0,70.452,13.8q3.918.008,7.682-.148V288.074q-3.411.092-6.912.092A286.313,286.313,0,0,1,182.405,275.233Z" transform="translate(-74.09 52.01)"/><ellipse class="i" cx="211.5" cy="28.587" rx="211.5" ry="28.587" transform="translate(0.001)"/><path class="j" d="M499,168.466c0,9.3-76.46,16.842-170.778,16.842S157.45,177.767,157.45,168.466s76.458-16.844,170.775-16.844S499,159.163,499,168.466Z" transform="translate(-112.969 -140.573)"/></g><g transform="translate(455.806 315.734)"><path class="b" d="M295.574,156.615a14.527,14.527,0,0,0-4.6-8.505,14.117,14.117,0,0,0-5.86-3.08q-11.672,7.555-23.341,15.107a7.116,7.116,0,0,0,5.1,9.219,101.526,101.526,0,0,0,28.7-12.741Z" transform="translate(-244.874 -145.03)"/><path class="d" d="M270.884,160.293,265.53,162.7a15.871,15.871,0,0,1-2.205-2.461,16.572,16.572,0,0,1-2.88-6.907q2.935-1.562,5.87-3.121A12.688,12.688,0,0,1,268.794,153,13.263,13.263,0,0,1,270.884,160.293Z" transform="translate(-246.381 -136.957)"/><path class="c" d="M274.142,159.439a10.858,10.858,0,0,0-4.239-8.029A56.78,56.78,0,0,0,260.086,156c-5.08,3.008-5.229,4.205-5.119,4.717.151.7,1.005,1.136,1.806,1.407a4.088,4.088,0,0,0,3.09,2.31,2.736,2.736,0,0,0,1,1.563c1.432,1.023,3.791.138,3.845-.517.02-.238-.251-.591-1.55-1.1q1.727-.641,3.527-1.394C269.379,161.857,271.866,160.654,274.142,159.439Z" transform="translate(-254.947 -135.09)"/></g><g transform="translate(315.627 199.212)"><path class="j" d="M272.2,166.209,229.68,182.26c-4.916,1.855-10.516-.819-12.6-5.973l-16.067-39.794c-2.195-5.438-.1-11.849,4.776-14.325l42.283-21.482a10.29,10.29,0,0,1,14.634,5.863L279,151.684A11.478,11.478,0,0,1,272.2,166.209Z" transform="translate(-200.146 -99.478)"/><path class="k" d="M216.927,112.724l12.972,2.128a4.755,4.755,0,0,1,2.908,7.7l-8.331,10.17a4.753,4.753,0,0,1-8.124-1.335l-4.643-12.3A4.753,4.753,0,0,1,216.927,112.724Z" transform="translate(-182.62 -78.942)"/></g><g transform="translate(418.698 170.808)"><g transform="translate(122.783)"><path class="l" d="M292.644,98.32a2.558,2.558,0,0,1-2.463-1.878,38.022,38.022,0,0,0-1.54-4.52,2.557,2.557,0,0,1,4.714-1.982,43.278,43.278,0,0,1,1.757,5.139,2.561,2.561,0,0,1-1.783,3.149A2.631,2.631,0,0,1,292.644,98.32Z" transform="translate(-288.44 -88.373)"/></g><g transform="translate(3.932 14.847)"><path class="l" d="M331.613,151.508a31.2,31.2,0,0,1-7.725-1,2.559,2.559,0,0,1,1.269-4.957,25.016,25.016,0,0,0,9.132.691,2.558,2.558,0,0,1,.578,5.083A29.229,29.229,0,0,1,331.613,151.508Zm12.611-3.169a2.559,2.559,0,0,1-1.184-4.827,24.317,24.317,0,0,0,7.2-5.615,2.556,2.556,0,1,1,3.88,3.328,29.415,29.415,0,0,1-8.715,6.822A2.506,2.506,0,0,1,344.223,148.339Zm-29.079-1.571a2.555,2.555,0,0,1-1.225-.315,73.358,73.358,0,0,1-8.8-5.763,2.558,2.558,0,0,1,3.072-4.09,68.587,68.587,0,0,0,8.188,5.367,2.559,2.559,0,0,1-1.233,4.8Zm-16.356-12a2.564,2.564,0,0,1-1.683-.632c-2.548-2.231-5.054-4.525-7.52-6.781a2.6,2.6,0,0,1-.2-3.648,2.514,2.514,0,0,1,3.579-.194c2.509,2.3,4.985,4.569,7.508,6.771a2.559,2.559,0,0,1-1.686,4.484Zm57.672-1.7a2.831,2.831,0,0,1-.356-.023,2.558,2.558,0,0,1-2.179-2.888,15.18,15.18,0,0,0,.141-2.08,17.874,17.874,0,0,0-.177-2.476,2.557,2.557,0,0,1-1.461-4.62c.095-.069.189-.138.281-.207a2.561,2.561,0,0,1,3.185-2.732,28.481,28.481,0,0,0,3.136-3.64,2.557,2.557,0,1,1,4.147,2.993,33.585,33.585,0,0,1-4.656,5.2,23.865,23.865,0,0,1,.66,5.479,20.223,20.223,0,0,1-.189,2.788A2.559,2.559,0,0,1,356.461,133.068Zm-21.267-.243a2.558,2.558,0,0,1-.256-5.1,35.471,35.471,0,0,0,9.186-2.225,2.558,2.558,0,0,1,1.839,4.773,40.535,40.535,0,0,1-10.508,2.543C335.365,132.819,335.278,132.825,335.194,132.825Zm-10.068-.721a2.643,2.643,0,0,1-.7-.1,18.186,18.186,0,0,1-7.3-3.878,16.507,16.507,0,0,1-2.346-2.609,2.557,2.557,0,1,1,4.131-3.016,11.987,11.987,0,0,0,1.627,1.819,13.153,13.153,0,0,0,5.282,2.76,2.559,2.559,0,0,1-.7,5.021Zm-80.589-6.3a2.563,2.563,0,0,1-2.4-3.456,42.184,42.184,0,0,1,4.9-9.61,2.558,2.558,0,0,1,4.172,2.96,37.234,37.234,0,0,0-4.282,8.441A2.558,2.558,0,0,1,244.537,125.8Zm39.14-4.645a2.548,2.548,0,0,1-1.673-.624,91.339,91.339,0,0,0-7.753-6.134,2.557,2.557,0,1,1,2.911-4.205,95.756,95.756,0,0,1,8.193,6.472,2.559,2.559,0,0,1-1.678,4.492Zm29.711-4.006a2.557,2.557,0,0,1-2.548-2.348c-.043-.527-.064-1.051-.064-1.578a16.641,16.641,0,0,1,1.985-8.063,14.665,14.665,0,0,1,1.118-1.716,2.558,2.558,0,0,1,4.082,3.085,9.051,9.051,0,0,0-.724,1.113,11.35,11.35,0,0,0-1.346,5.582c0,.386.015.772.049,1.159a2.557,2.557,0,0,1-2.341,2.758A2.035,2.035,0,0,1,313.387,117.149Zm37.042-2.967a2.553,2.553,0,0,1-2.049-1.023,34.6,34.6,0,0,0-6.628-6.707,2.559,2.559,0,1,1,3.1-4.07,39.843,39.843,0,0,1,7.618,7.707,2.558,2.558,0,0,1-2.044,4.093Zm-93.637-3.845a2.559,2.559,0,0,1-.946-4.937c.35-.138.693-.261,1.038-.371a17.34,17.34,0,0,1,10.605.161,2.558,2.558,0,1,1-1.519,4.886,12.225,12.225,0,0,0-7.533-.171c-.235.074-.468.159-.7.251A2.553,2.553,0,0,1,256.792,110.337Zm108.688-.99a2.631,2.631,0,0,1-.685-.092,2.562,2.562,0,0,1-1.783-3.149,30.355,30.355,0,0,0,1.056-8.1c0-.4-.008-.79-.02-1.179a2.557,2.557,0,1,1,5.111-.182c.018.448.026.9.026,1.361a35.487,35.487,0,0,1-1.241,9.467A2.561,2.561,0,0,1,365.48,109.348Zm-31.125-7.063a2.621,2.621,0,0,1-.724-.1,15.953,15.953,0,0,0-5.474-.686,17.083,17.083,0,0,0-3.113.6,2.557,2.557,0,0,1-1.4-4.919,18.992,18.992,0,0,1,11.434.1,2.558,2.558,0,0,1-.724,5.011Z" transform="translate(-241.978 -94.177)"/></g><g transform="translate(0 51.254)"><path class="l" d="M243,118.547a2.617,2.617,0,0,1-.463-.041,2.558,2.558,0,0,1-2.054-2.977q.5-2.713,1.054-5.131a2.557,2.557,0,1,1,4.985,1.143q-.53,2.317-1.008,4.911A2.557,2.557,0,0,1,243,118.547Z" transform="translate(-240.44 -108.41)"/></g></g><path class="m" d="M344.006,139.747,287.776,142a7.027,7.027,0,0,1-7.175-6.088l-7.932-66.689c-.6-5.062,2.476-9.137,6.863-8.989L348.4,62.563c3.829.13,6.63,4.093,6.29,8.758l-4.528,62.2A6.7,6.7,0,0,1,344.006,139.747Z" transform="translate(228.352 38.59)"/><path class="k" d="M291.611,67.831h-3.766V64.065h-2.331v3.766h-3.766v2.331h3.766v3.766h2.331V70.162h3.766Z" transform="translate(242.615 44.562)"/><g transform="translate(532.655 118.49)"><circle class="k" cx="8.54" cy="8.54" r="8.54" transform="translate(0.811)"/><path class="k" d="M303.691,93.812h-18.7V85.565a9.352,9.352,0,0,1,9.352-9.349h0a9.351,9.351,0,0,1,9.349,9.349Z" transform="translate(-284.99 -54.996)"/></g><path class="l" d="M258.328,118.781,247.421,130.8a3.19,3.19,0,0,1-5.4-1.169l-4.955-15.455a3.191,3.191,0,0,1,3.714-4.093l15.862,3.438A3.19,3.19,0,0,1,258.328,118.781Z" transform="translate(172.758 116.139)"/><g transform="translate(389.711 127.495)"><path class="n" d="M268.223,104.377l-16.4-31.317a3.052,3.052,0,0,0-4.308-1.067l-16.333,9.462a3.382,3.382,0,0,0-1.445,4.4l16.4,31.317a3.05,3.05,0,0,0,4.308,1.067l16.33-9.462A3.381,3.381,0,0,0,268.223,104.377Z" transform="translate(-228.647 -71.309)"/><g transform="translate(0)"><path class="l" d="M266.482,108.693l-16.33,9.462a3.05,3.05,0,0,1-4.308-1.069l-16.4-31.317a3.378,3.378,0,0,1,1.445-4.4l16.333-9.462a3.05,3.05,0,0,1,4.308,1.067l16.4,31.317A3.382,3.382,0,0,1,266.482,108.693Z" transform="translate(-229.108 -71.441)"/><g transform="translate(1.127 1.829)"><path class="g" d="M229.715,83.745l19.7-11.416L265.5,103.041l-19.7,11.416Z" transform="translate(-229.29 -71.886)"/><path class="o" d="M249.55,73.044l15.785,30.146-19.152,11.094L230.4,84.138,249.55,73.044Zm.258-.888L229.549,83.892l16.379,31.279,20.259-11.736L249.808,72.156Z" transform="translate(-229.549 -72.156)"/></g><path class="o" d="M239.276,73.574l-7.207,4.175-.291-.555,7.207-4.175Z" transform="translate(-224.949 -68.982)"/></g></g><g transform="translate(256.053 114.299)"><path class="o" d="M217.6,79.884l1.233,1.711-33.47,33.427-1.5-1.953Z" transform="translate(-165.944 -45.09)"/><path class="n" d="M228.511,101.076l-34.167,33.788a1.468,1.468,0,0,1-2.489-.524l-14.708-30.269a3.254,3.254,0,0,1,.53-3.507l34.167-33.788a1.468,1.468,0,0,1,2.489.522L229.04,97.566A3.253,3.253,0,0,1,228.511,101.076Z" transform="translate(-176.857 -66.282)"/><path class="n" d="M250.719,95.436l-34.31,33.932a3.261,3.261,0,0,1-3.4.524l-27.943-12.708a1.348,1.348,0,0,1-.532-2.318l34.31-33.932a3.272,3.272,0,0,1,3.4-.524l27.943,12.708A1.348,1.348,0,0,1,250.719,95.436Z" transform="translate(-165.633 -44.673)"/><path class="l" d="M228.918,101.166l-34.167,33.788a1.468,1.468,0,0,1-2.489-.524l-14.708-30.268a3.254,3.254,0,0,1,.53-3.507L212.25,66.866a1.468,1.468,0,0,1,2.489.522l14.708,30.269A3.258,3.258,0,0,1,228.918,101.166Z" transform="translate(-176.223 -66.142)"/><path class="l" d="M250.568,95l-34.31,33.932a3.272,3.272,0,0,1-3.407.527L184.91,116.749a1.346,1.346,0,0,1-.532-2.315L218.688,80.5a3.267,3.267,0,0,1,3.4-.527l27.943,12.711A1.346,1.346,0,0,1,250.568,95Z" transform="translate(-165.868 -45.35)"/><path class="g" d="M226.791,94.7,191.16,129.939l-13.178-27.117,35.631-35.237Z" transform="translate(-175.104 -64.253)"/><g transform="translate(2.878 3.331)"><path class="g" d="M178.133,102.558,213.284,67.8l12.883,26.512-35.152,34.762Z" transform="translate(-177.746 -67.255)"/><path class="o" d="M213.428,68.666l12.588,25.9-34.671,34.29-12.588-25.9,34.671-34.287Zm.184-1.082-35.63,35.239,13.176,27.117L226.791,94.7,213.612,67.584Z" transform="translate(-177.982 -67.584)"/></g><path class="o" d="M235.277,87.341l-35.119,34.731-14.589-6.635,35.119-34.731Z" transform="translate(-163.283 -43.811)"/><path class="o" d="M212.259,92.274l-7.474,7.392-7.034-3.2,7.474-7.392Z" transform="translate(-144.306 -30.773)"/></g><g transform="translate(440.52 168.436)"><path class="p" d="M265.827,98.033c-1.164,4.538-7.4,13.57-11.933,12.406s-5.658-12.079-4.5-16.617a8.48,8.48,0,0,1,16.43,4.21Z" transform="translate(-248.971 -87.446)"/><path class="j" d="M259.235,94.11a4.288,4.288,0,1,1-3.09-5.218A4.29,4.29,0,0,1,259.235,94.11Z" transform="translate(-246.134 -85.406)"/></g><g transform="translate(321.691 35.462)"><path class="p" d="M256.855,47.573l9.636,33.162a4.777,4.777,0,0,1-3.282,5.934L218.994,99.52a4.782,4.782,0,0,1-5.952-3.251l-9.636-33.162a4.781,4.781,0,0,1,3.282-5.937L250.9,44.322A4.782,4.782,0,0,1,256.855,47.573Z" transform="translate(-201.434 -21.963)"/><path class="q" d="M256.855,47.573l1.921,6.607-5.9,7.577-15.22,19.5-23.3-8.306-9.037-3.233-1.918-6.607a4.781,4.781,0,0,1,3.282-5.937L250.9,44.322A4.782,4.782,0,0,1,256.855,47.573Z" transform="translate(-201.434 -21.963)"/><path class="q" d="M257.889,56.459l-1.921-6.607L223.633,38.313,202.517,65.384l1.921,6.61a4.783,4.783,0,0,0,5.952,3.251L254.6,62.394A4.781,4.781,0,0,0,257.889,56.459Z" transform="translate(-202.517 -31.02)"/><path class="r" d="M241.566,35.462,253.13,75.255l-15.218,19.5-23.3-8.306L203.05,46.655Z" transform="translate(-201.686 -35.462)"/><g transform="translate(13.317 25.298)"><path class="s" d="M236.743,46.1l-2.5.726a.382.382,0,1,1-.215-.734l2.5-.726a.382.382,0,1,1,.212.734Zm-4.558,1.325-4.558,1.325a.382.382,0,1,1-.215-.734l4.561-1.325a.382.382,0,0,1,.212.734Zm-6.617,1.924-4.558,1.325a.382.382,0,1,1-.215-.734l4.558-1.325a.382.382,0,1,1,.215.734Zm-6.617,1.924L214.389,52.6a.381.381,0,1,1-.212-.732l4.558-1.325a.381.381,0,0,1,.476.258A.387.387,0,0,1,218.95,51.274Zm-6.617,1.921-4.118,1.2a.382.382,0,1,1-.215-.734l4.118-1.2a.382.382,0,1,1,.215.734Z" transform="translate(-207.723 -45.352)"/><g transform="translate(0.987 3.389)"><path class="s" d="M237.129,47.429a.382.382,0,1,1-.215-.734l0,0a.383.383,0,0,1,.212.737Zm-1.471.427-6.177,1.8a.384.384,0,0,1-.215-.737l6.177-1.793a.382.382,0,1,1,.215.734Zm-7.648,2.223-6.178,1.8a.383.383,0,0,1-.212-.737l6.178-1.8a.383.383,0,0,1,.212.737ZM220.364,52.3,214.187,54.1a.382.382,0,1,1-.215-.734l6.177-1.8a.384.384,0,0,1,.215.737Zm-7.648,2.22-4.118,1.2a.382.382,0,0,1-.212-.734l4.116-1.2a.382.382,0,1,1,.215.734Z" transform="translate(-208.109 -46.677)"/></g><g transform="translate(1.972 6.783)"><path class="s" d="M237.514,48.754l-.737.215a.383.383,0,0,1-.212-.737l.734-.212a.382.382,0,1,1,.215.734Zm-2.8.811-1.617.471a.382.382,0,1,1-.212-.734l1.617-.471a.383.383,0,0,1,.473.261A.379.379,0,0,1,234.718,49.565Zm-3.087.9-4.118,1.2a.382.382,0,0,1-.212-.734l4.118-1.2a.382.382,0,1,1,.212.734Zm-6.175,1.8-1.619.471a.383.383,0,0,1-.212-.737l1.617-.468a.382.382,0,1,1,.215.734Zm-3.09.9-4.118,1.2a.383.383,0,0,1-.212-.737l4.118-1.2a.383.383,0,0,1,.212.737Zm-6.175,1.8-1.619.468a.382.382,0,0,1-.212-.734l1.617-.471a.384.384,0,0,1,.215.737Zm-3.09.9-4.116,1.2a.382.382,0,1,1-.215-.734l4.118-1.2a.382.382,0,1,1,.212.734Z" transform="translate(-208.494 -48.004)"/></g><g transform="translate(2.957 10.429)"><path class="s" d="M237.017,50.181l-4.118,1.2a.383.383,0,0,1-.212-.737l4.118-1.2a.383.383,0,0,1,.212.737Zm-6.175,1.8-.442.128a.383.383,0,0,1-.212-.737l.44-.128a.384.384,0,0,1,.215.737Zm-2.5.726-1.617.468a.382.382,0,1,1-.215-.734l1.619-.471a.383.383,0,0,1,.212.737Zm-3.087.9L221.134,54.8a.382.382,0,1,1-.212-.734l4.116-1.2a.384.384,0,1,1,.215.737Zm-6.178,1.793-.44.128a.382.382,0,1,1-.215-.734l.443-.128a.382.382,0,0,1,.212.734Zm-2.5.726-1.619.471a.382.382,0,0,1-.212-.734l1.617-.471a.382.382,0,1,1,.215.734Zm-3.087.9-4.118,1.2a.382.382,0,1,1-.215-.734l4.118-1.2a.382.382,0,1,1,.215.734Z" transform="translate(-208.879 -49.429)"/></g></g></g><g transform="translate(421.517 43.735)"><circle class="b" cx="24.485" cy="24.485" r="24.485" transform="matrix(0.231, -0.973, 0.973, 0.231, 0, 47.649)"/><path class="k" d="M270.077,49.684H249.706a1.263,1.263,0,0,1-1.264-1.264h0a1.263,1.263,0,0,1,1.264-1.264h20.372a1.263,1.263,0,0,1,1.264,1.264h0A1.263,1.263,0,0,1,270.077,49.684Z" transform="translate(-230.792 -25.515)"/><path class="k" d="M270.077,51.568H249.706a1.263,1.263,0,0,1-1.264-1.264h0a1.263,1.263,0,0,1,1.264-1.264h20.372a1.263,1.263,0,0,1,1.264,1.264h0A1.263,1.263,0,0,1,270.077,51.568Z" transform="translate(-230.792 -22.58)"/><path class="k" d="M270.077,53.452H249.706a1.263,1.263,0,0,1-1.264-1.264h0a1.263,1.263,0,0,1,1.264-1.264h20.372a1.263,1.263,0,0,1,1.264,1.264h0A1.263,1.263,0,0,1,270.077,53.452Z" transform="translate(-230.792 -19.644)"/><path class="k" d="M270.077,55.338H249.706a1.265,1.265,0,0,1-1.264-1.266h0a1.265,1.265,0,0,1,1.264-1.264h20.372a1.265,1.265,0,0,1,1.264,1.264h0A1.265,1.265,0,0,1,270.077,55.338Z" transform="translate(-230.792 -16.711)"/></g><path class="t" d="M262.818,67.361l2.213,4.484a1.149,1.149,0,0,0,.867.629l4.947.721a1.151,1.151,0,0,1,.639,1.965L267.9,78.65a1.148,1.148,0,0,0-.33,1.018l.844,4.929a1.152,1.152,0,0,1-1.67,1.215l-4.425-2.328a1.151,1.151,0,0,0-1.072,0l-4.425,2.328a1.153,1.153,0,0,1-1.673-1.215L256,79.668a1.15,1.15,0,0,0-.333-1.018l-3.579-3.489a1.151,1.151,0,0,1,.637-1.965l4.947-.721a1.144,1.144,0,0,0,.867-.629l2.215-4.484A1.152,1.152,0,0,1,262.818,67.361Z" transform="translate(195.858 48.7)"/><g transform="translate(202.819 237.042)"><circle class="l" cx="8.844" cy="8.844" r="8.844" transform="translate(28.138 27.853)"/><g transform="translate(13.669 13.128)"><path class="l" d="M163.524,141.434a4.394,4.394,0,0,1-.776-.073,4.282,4.282,0,0,1-3.443-4.987,23.257,23.257,0,0,1,28.562-18.4A4.287,4.287,0,1,1,185.8,126.3a15.4,15.4,0,0,0-11.843,2.071,15.108,15.108,0,0,0-6.222,9.549A4.29,4.29,0,0,1,163.524,141.434Z" transform="translate(-159.233 -117.328)"/></g><path class="l" d="M160.339,151.23a4.5,4.5,0,0,1-.48-.026,4.286,4.286,0,0,1-3.786-4.738c.339-3.036,2.779-18.631,17.636-27.344,13.065-7.658,26.1-4.271,29.779-3.049a4.287,4.287,0,1,1-2.7,8.138c-2.007-.665-12.534-3.679-22.743,2.311-11.569,6.783-13.3,19.471-13.455,20.895A4.282,4.282,0,0,1,160.339,151.23Z" transform="translate(-156.046 -114.267)"/></g><g transform="translate(533.233 257.872)"><rect class="d" width="54.364" height="39.364" rx="2.277" transform="translate(0.001)"/><path class="o" d="M339.581,128.234v5.709H285.216v-5.709a5.827,5.827,0,0,1,5.827-5.824h42.713A5.833,5.833,0,0,1,339.581,128.234Z" transform="translate(-285.216 -122.41)"/><path class="b" d="M311.822,131.628H288.962a1.022,1.022,0,0,1-1.021-1.023h0a1.022,1.022,0,0,1,1.021-1.021h22.861a1.022,1.022,0,0,1,1.023,1.021h0A1.023,1.023,0,0,1,311.822,131.628Z" transform="translate(-280.971 -111.233)"/><path class="b" d="M311.822,135.124H288.962a1.02,1.02,0,0,1-1.021-1.021h0a1.02,1.02,0,0,1,1.021-1.021h22.861a1.021,1.021,0,0,1,1.023,1.021h0A1.021,1.021,0,0,1,311.822,135.124Z" transform="translate(-280.971 -105.781)"/><path class="b" d="M304.527,133.387H288.962a1.022,1.022,0,0,1-1.021-1.023h0a1.022,1.022,0,0,1,1.021-1.021h15.565a1.022,1.022,0,0,1,1.021,1.021h0A1.022,1.022,0,0,1,304.527,133.387Z" transform="translate(-280.971 -108.492)"/></g><path class="m" d="M214.572,57.734l-57.9-13.007a5.9,5.9,0,0,0-7.252,5.7L146.939,90c-.176,2.819,2.177,5.548,5.246,6.152l25.027,4.932,6.541,8.968c.944,1.294,3.249.941,3.545-.547l1.233-6.19,11.342,2.236a5.972,5.972,0,0,0,6.807-3.617l12.048-36.2C219.923,62.141,218.081,58.522,214.572,57.734Z" transform="translate(32.57 14.187)"/><path class="j" d="M252.342,160.311h-1.328a23.272,23.272,0,0,0-2.635-6.362l.939-.939a3.18,3.18,0,0,0,0-4.5l-3.517-3.517a3.18,3.18,0,0,0-4.5,0l-.939.939A23.272,23.272,0,0,0,234,143.3V141.97a3.182,3.182,0,0,0-3.182-3.182h-4.973a3.182,3.182,0,0,0-3.182,3.182V143.3a23.239,23.239,0,0,0-6.362,2.635l-.939-.939a3.18,3.18,0,0,0-4.5,0l-3.517,3.517a3.18,3.18,0,0,0,0,4.5l.939.939a23.273,23.273,0,0,0-2.635,6.362h-1.328a3.182,3.182,0,0,0-3.182,3.182v4.973a3.182,3.182,0,0,0,3.182,3.182h1.328a23.273,23.273,0,0,0,2.635,6.362l-.939.939a3.18,3.18,0,0,0,0,4.5l3.517,3.517a3.18,3.18,0,0,0,4.5,0l.939-.939a23.24,23.24,0,0,0,6.362,2.635v1.328a3.182,3.182,0,0,0,3.182,3.182h4.973A3.182,3.182,0,0,0,234,189.988v-1.328a23.273,23.273,0,0,0,6.362-2.635l.939.939a3.18,3.18,0,0,0,4.5,0l3.517-3.517a3.18,3.18,0,0,0,0-4.5l-.939-.939a23.272,23.272,0,0,0,2.635-6.362h1.328a3.182,3.182,0,0,0,3.182-3.182v-4.973A3.182,3.182,0,0,0,252.342,160.311Zm-24.009,21.584a15.916,15.916,0,1,1,15.916-15.916A15.913,15.913,0,0,1,228.333,181.895Z" transform="translate(117.032 160.979)"/><g transform="translate(126.024 160.508)"><g transform="translate(0 0.001)"><path class="u" d="M158.334,84.786c2.578-.379,16.578-2.41,29.432,7.16A39.607,39.607,0,0,1,202.9,116.7c2.195,12.984-2.231,27.58-13.539,36.761a39.2,39.2,0,0,1-46.374,1.913,38.585,38.585,0,0,1-13.519-16.156,40.3,40.3,0,0,1-2.591-24.518c12.58,2.775,25.2,5.546,37.784,8.324Z" transform="translate(-126.024 -84.348)"/><path class="o" d="M126.873,96.214c12.58,2.775,25.2,5.546,37.784,8.324l-35.193,16.195A40.3,40.3,0,0,1,126.873,96.214Z" transform="translate(-126.024 -65.86)"/></g><path class="d" d="M158.411,116.4l-5.755-32.051a31.317,31.317,0,0,0-26.539,23.733Z" transform="translate(-125.879 -84.347)"/></g></g></svg>