<svg xmlns="http://www.w3.org/2000/svg" width="1328.995" height="692.557" viewBox="0 0 1328.995 692.557"><defs><style>.a{fill:#d1d3d4;}.b{fill:#bcbec0;}.c{fill:#e6e7e8;}.d{fill:#d9dadb;}.e{fill:#3fa09b;}.f{fill:#26374d;}.g{fill:#fac152;}.h{fill:#9ad3d6;}.i,.n{fill:#527d7c;}.j{fill:#61a0aa;}.k,.r{fill:#fff;}.l{fill:#f89c46;}.m{fill:#eb5a3c;}.n{stroke:#fff;stroke-linecap:round;stroke-miterlimit:10;stroke-width:4.734px;}.o{fill:#c5c200;}.p{fill:#dadd00;}.q{fill:#3f3c3e;}.r{stroke:#707070;}.s{fill:#00bef3;font-size:25px;font-family:OpenSans-Bold, Open Sans;font-weight:700;}.t{stroke:none;}.u{fill:none;}</style></defs><g transform="translate(-1281.844 -6465)"><g transform="translate(1237.344 6574.7)"><g transform="translate(953.614 150.494)"><path class="a" d="M2219.806,818.733h-1.241V694.8h-39.306V957.86h40.547Z" transform="translate(-1963.427 -694.803)"/><path class="b" d="M2048.25,694.8l-12.874,7.865-1.694,1.034-12.035,7.356-1.695,1.034-12.034,7.347-1.695,1.042-10.992,6.712-1.043.635-.525.322V807.14H1925.9V774.763h-11.23v-14.5h-71.646v14.5h-10.281v183.1h215.832V694.8Z" transform="translate(-1832.741 -694.803)"/><rect class="a" width="35.96" height="139.128" transform="translate(256.379 123.929)"/><path class="c" d="M2302.554,748.008V838.8h-.463V977.926h64.392V748.008Z" transform="translate(-2009.751 -714.869)"/><path class="d" d="M2447.521,863.558h-7.875V748.008h-34.174V977.926h42.049Z" transform="translate(-2048.741 -714.869)"/></g><g transform="translate(1270.695 391.245)"><g transform="translate(0 46.56)"><rect class="e" width="102.8" height="44.714"/></g><rect class="f" width="41.087" height="44.714" transform="translate(61.713 46.56)"/><path class="g" d="M2341.812,1127.888h102.8l-30.856-46.56h-41.087Z" transform="translate(-2341.812 -1081.328)"/><g transform="translate(0 0)"><path class="e" d="M2341.812,1127.888l30.856-46.56,30.856,46.56Z" transform="translate(-2341.812 -1081.328)"/></g></g><g transform="translate(243.973 45.238)"><rect class="f" width="54.84" height="29.255" transform="translate(59.816 0)"/><g transform="translate(0 20.287)"><rect class="h" width="75.54" height="305.323"/><rect class="f" width="54.832" height="305.323" transform="translate(75.54)"/></g><g transform="translate(86.986 72.623)"><rect class="i" width="4.927" height="233.438"/><g transform="translate(14.75)"><rect class="i" width="4.927" height="233.438"/></g><g transform="translate(29.5)"><rect class="i" width="4.927" height="233.438"/></g></g><g transform="translate(11.535 72.623)"><rect class="i" width="4.927" height="233.438"/><g transform="translate(15.846)"><rect class="i" width="4.927" height="233.438"/></g><g transform="translate(31.697)"><rect class="i" width="4.927" height="233.438"/></g><g transform="translate(47.543)"><rect class="i" width="4.927" height="233.438"/></g></g><rect class="h" width="46.763" height="29.255" transform="translate(14.389 0)"/><g transform="translate(12.425 33.515)"><g transform="translate(0 21.321)"><rect class="i" width="50.469" height="4.923"/></g><g transform="translate(0 10.66)"><rect class="i" width="50.469" height="4.923"/></g><rect class="i" width="50.469" height="4.923"/></g></g><g transform="translate(708.929 0)"><rect class="h" width="109.492" height="236.615" transform="translate(0 10.025)"/><rect class="j" width="27.801" height="236.615" transform="translate(137.293 246.64) rotate(180)"/><g transform="translate(0 0)"><rect class="e" width="109.492" height="10.025"/></g><rect class="f" width="27.801" height="10.025" transform="translate(137.293 10.025) rotate(180)"/><g transform="translate(19.868 31.733)"><rect class="f" width="69.755" height="10.214"/><g transform="translate(0 26.141)"><rect class="f" width="69.755" height="10.214"/></g><g transform="translate(0 52.281)"><rect class="f" width="69.755" height="10.214"/></g><g transform="translate(0 78.421)"><rect class="f" width="69.755" height="10.214"/></g><g transform="translate(0 104.562)"><rect class="f" width="69.755" height="10.214"/></g><g transform="translate(0 130.703)"><rect class="f" width="69.755" height="10.214"/></g><g transform="translate(0 156.844)"><rect class="f" width="69.755" height="10.214"/></g><g transform="translate(0 182.985)"><rect class="h" width="69.755" height="10.214"/></g></g></g><g transform="translate(480.218 6.969)"><g transform="translate(0 0)"><path class="h" d="M1219.979,378.727v363.4h-76.393V425.4l.736-.451,1.459-.889,15.382-9.394,2.372-1.458,16.842-10.283,2.372-1.447,16.842-10.295,2.372-1.447Z" transform="translate(-1143.586 -378.727)"/><rect class="f" width="55.459" height="363.398" transform="translate(76.393)"/></g><path class="k" d="M1174.179,434.081V763h-2.372V435.54Z" transform="translate(-1154.229 -399.603)"/><path class="k" d="M1205.027,415.249V755.9h-2.372V416.7Z" transform="translate(-1165.863 -392.501)"/><path class="k" d="M1235.874,396.4V748.79H1233.5V397.845Z" transform="translate(-1177.497 -385.391)"/><rect class="l" width="56.159" height="2.372" transform="translate(75.693 45.33)"/><rect class="l" width="56.159" height="2.372" transform="translate(75.693 85.62)"/><rect class="l" width="56.159" height="2.372" transform="translate(75.693 125.922)"/><rect class="l" width="56.159" height="2.372" transform="translate(75.693 166.223)"/><rect class="l" width="56.159" height="2.372" transform="translate(75.693 206.513)"/><rect class="l" width="2.372" height="363.398" transform="translate(94.421 0)"/><rect class="l" width="2.372" height="363.398" transform="translate(113.635 0)"/><path class="k" d="M1219.979,451.5v2.372h-76.393v-1.031l.742-.451,1.472-.889Z" transform="translate(-1143.586 -406.174)"/><rect class="k" width="76.393" height="2.372" transform="translate(0 85.62)"/><rect class="k" width="76.393" height="2.372" transform="translate(0 125.922)"/><rect class="k" width="76.393" height="2.372" transform="translate(0 166.223)"/><rect class="k" width="76.393" height="2.372" transform="translate(0 206.513)"/><rect class="l" width="56.159" height="2.372" transform="translate(75.693 247.893)"/><rect class="l" width="56.159" height="2.372" transform="translate(75.693 288.183)"/><rect class="k" width="76.393" height="2.372" transform="translate(0 247.893)"/><rect class="k" width="76.393" height="2.372" transform="translate(0 288.183)"/></g><g transform="translate(374.783 110.835)"><g transform="translate(0 0)"><rect class="e" width="104.447" height="225.712"/></g><rect class="l" width="40.672" height="225.712" transform="translate(63.774 0)"/><g transform="translate(75.491 25.96)"><rect class="i" width="18.356" height="5.569"/><g transform="translate(0 20.178)"><rect class="i" width="18.356" height="5.569"/></g><g transform="translate(0 40.357)"><rect class="i" width="18.356" height="5.569"/></g><g transform="translate(0 60.536)"><rect class="i" width="18.356" height="5.568"/></g><g transform="translate(0 80.714)"><rect class="i" width="18.356" height="5.569"/></g><g transform="translate(0 100.893)"><rect class="i" width="18.356" height="5.569"/></g><g transform="translate(0 121.071)"><rect class="i" width="18.356" height="5.569"/></g><g transform="translate(0 141.25)"><rect class="i" width="18.356" height="5.569"/></g><g transform="translate(0 161.43)"><rect class="i" width="18.356" height="5.568"/></g><g transform="translate(0 181.608)"><rect class="i" width="18.356" height="5.568"/></g></g><g transform="translate(16.169 25.96)"><rect class="i" width="33.27" height="5.569"/><g transform="translate(0 20.178)"><rect class="i" width="33.27" height="5.569"/></g><g transform="translate(0 40.357)"><rect class="i" width="33.27" height="5.569"/></g><g transform="translate(0 181.608)"><rect class="i" width="33.27" height="5.568"/></g></g></g><g transform="translate(970.326 83.397)"><g transform="translate(0 0)"><path class="l" d="M1936.161,877.043h-76.59V613.892l76.59-26.811Z" transform="translate(-1859.571 -587.081)"/><path class="m" d="M2038.13,877.043h-55.594V587.081l55.594,39.04Z" transform="translate(-1905.946 -587.081)"/></g><g transform="translate(86.949 37.872)"><line class="n" y2="218.138"/><line class="n" y2="210.274" transform="translate(12.05 7.863)"/><line class="n" y2="202.411" transform="translate(24.1 15.726)"/><line class="n" y2="194.548" transform="translate(36.15 23.59)"/></g><g transform="translate(14.195 37.872)"><line class="n" y2="203.783" transform="translate(0 14.355)"/><line class="n" y2="207.372" transform="translate(12.05 10.766)"/><line class="n" y2="210.961" transform="translate(24.1 7.177)"/><line class="n" y2="214.549" transform="translate(36.15 3.589)"/><line class="n" y2="218.138" transform="translate(48.2)"/></g></g><g transform="translate(568.218 127.058)"><path class="g" d="M1296.469,1020.163h-82.48V701.7l82.48-44.518Z" transform="translate(-1213.99 -657.178)"/><rect class="f" width="59.869" height="362.986" transform="translate(82.48)"/><g transform="translate(13.21 59.336)"><g transform="translate(0 0.111)"><rect class="i" width="57.963" height="6.001"/></g><g transform="translate(0 17.993)"><rect class="i" width="57.963" height="6"/></g><g transform="translate(0 35.873)"><rect class="i" width="57.963" height="6.001"/></g><g transform="translate(0 53.754)"><rect class="i" width="57.963" height="6"/></g><g transform="translate(0 71.636)"><rect class="i" width="57.963" height="6"/></g><g transform="translate(0 89.516)"><rect class="i" width="57.963" height="6"/></g><g transform="translate(0 107.396)"><rect class="i" width="57.963" height="6.001"/></g><g transform="translate(0 125.279)"><rect class="i" width="57.963" height="6"/></g><g transform="translate(79.553)"><rect class="e" width="42.043" height="6.223"/></g><g transform="translate(79.553 17.881)"><rect class="e" width="42.043" height="6.223"/></g><g transform="translate(79.553 35.762)"><rect class="e" width="42.043" height="6.223"/></g><g transform="translate(79.553 53.644)"><rect class="e" width="42.043" height="6.223"/></g><g transform="translate(79.553 71.524)"><rect class="e" width="42.043" height="6.223"/></g><g transform="translate(79.553 89.405)"><rect class="e" width="42.043" height="6.223"/></g><g transform="translate(79.553 107.286)"><rect class="e" width="42.043" height="6.223"/></g><g transform="translate(79.553 125.167)"><rect class="e" width="42.043" height="6.223"/></g><g transform="translate(79.553 143.048)"><rect class="e" width="42.043" height="6.223"/></g><g transform="translate(79.553 160.928)"><rect class="e" width="42.043" height="6.223"/></g><g transform="translate(79.553 178.809)"><rect class="e" width="42.043" height="6.223"/></g></g></g><g transform="translate(845.64 96.261)"><path class="f" d="M1784.62,673.181v-29.9h-14.327V607.732h-45.9v35.549h-14.327v29.9H1696.37v220.3h101.944v-220.3Z" transform="translate(-1673.336 -607.732)"/><path class="h" d="M1747.639,673.181v-29.9h-14.327V607.732h-45.9v35.549h-14.326v29.9h-13.7v220.3h101.945v-220.3Z" transform="translate(-1659.389 -607.732)"/><g transform="translate(18.718 77.593)"><rect class="i" width="4.805" height="192.875"/><g transform="translate(19.902)"><rect class="i" width="4.805" height="192.875"/></g><g transform="translate(39.801)"><rect class="i" width="4.805" height="192.875"/></g><g transform="translate(59.704)"><rect class="i" width="4.805" height="192.875"/></g></g></g><g transform="translate(677.371 209.332)"><rect class="k" width="117.877" height="210.991" transform="translate(0 58.834)"/><path class="m" d="M1389.234,848.1l58.834-58.834h117.669L1507.111,848.1Z" transform="translate(-1389.234 -789.268)"/><path class="f" d="M1637.111,789.268v269.825h-58.626V846.976Z" transform="translate(-1460.608 -789.268)"/><g transform="translate(135.399 73.949)"><g transform="translate(18.608 0)"><g transform="translate(0 0)"><rect class="k" width="10.098" height="10.099" transform="translate(0 10.098) rotate(-90)"/></g></g><g transform="translate(18.608 20.239)"><g transform="translate(0 0)"><rect class="k" width="10.099" height="10.099" transform="translate(0 10.099) rotate(-90)"/></g></g><g transform="translate(18.608 40.479)"><g transform="translate(0 0)"><rect class="k" width="10.099" height="10.099" transform="translate(0 10.099) rotate(-90)"/></g></g><g transform="translate(18.608 60.719)"><g transform="translate(0 0)"><rect class="k" width="10.098" height="10.099" transform="translate(0 10.098) rotate(-90)"/></g></g><g transform="translate(0 0)"><g transform="translate(0)"><rect class="k" width="10.098" height="10.098" transform="translate(0 10.098) rotate(-90)"/></g></g><g transform="translate(0 20.239)"><g transform="translate(0 0)"><rect class="k" width="10.099" height="10.098" transform="translate(0 10.099) rotate(-90)"/></g></g><g transform="translate(0 40.479)"><g transform="translate(0 0)"><rect class="k" width="10.099" height="10.098" transform="translate(0 10.099) rotate(-90)"/></g></g><g transform="translate(0 60.719)"><g transform="translate(0 0)"><rect class="k" width="10.098" height="10.098" transform="translate(0 10.098) rotate(-90)"/></g></g></g><g transform="translate(15.169 73.949)"><rect class="l" width="9.327" height="24.258"/><rect class="l" width="9.327" height="24.258" transform="translate(27.304)"/><rect class="l" width="9.327" height="24.258" transform="translate(54.608)"/><rect class="l" width="9.327" height="24.258" transform="translate(81.912)"/></g><g transform="translate(15.169 118.447)"><rect class="l" width="9.327" height="24.258"/><rect class="l" width="9.327" height="24.258" transform="translate(27.304)"/><rect class="l" width="9.327" height="24.258" transform="translate(54.608)"/><rect class="l" width="9.327" height="24.258" transform="translate(81.912)"/></g></g><g transform="translate(678.6 321.535)"><g transform="translate(0 0)"><path class="e" d="M1425.2,969.409l-34,33.995h224.768l-33.995-33.995Z" transform="translate(-1391.207 -969.409)"/></g><path class="m" d="M1425.2,969.409l-34,33.995h134.934l-33.995-33.995Z" transform="translate(-1391.207 -969.409)"/><rect class="l" width="224.768" height="134.934" transform="translate(0 33.995)"/><rect class="f" width="89.834" height="134.934" transform="translate(134.934 33.995)"/><path class="l" d="M1486.752,991.132l-21.1,21.1h42.192Z" transform="translate(-1419.285 -977.602)"/><g transform="translate(161.59 68.625)"><g transform="translate(32.22)"><rect class="k" width="8.038" height="18.118"/></g><g transform="translate(16.11)"><rect class="k" width="8.038" height="18.118"/></g><rect class="k" width="8.038" height="18.118"/><g transform="translate(32.22 33.385)"><rect class="k" width="8.038" height="18.118"/></g><g transform="translate(16.11 33.385)"><rect class="k" width="8.038" height="18.118"/></g><g transform="translate(0 33.385)"><rect class="k" width="8.038" height="18.118"/></g></g><g transform="translate(17.577 54.461)"><rect class="f" width="13.32" height="13.32"/><rect class="f" width="13.32" height="13.32" transform="translate(27.4)"/><rect class="f" width="13.32" height="13.32" transform="translate(54.801)"/><rect class="f" width="13.32" height="13.32" transform="translate(82.202)"/></g><g transform="translate(17.577 80.082)"><rect class="f" width="13.32" height="13.32"/><rect class="f" width="13.32" height="13.32" transform="translate(27.4)"/><rect class="f" width="13.32" height="13.32" transform="translate(54.801)"/><rect class="f" width="13.32" height="13.32" transform="translate(82.202)"/></g><g transform="translate(17.577 105.704)"><rect class="f" width="13.32" height="30.453"/><rect class="f" width="13.32" height="30.453" transform="translate(27.4)"/><rect class="f" width="13.32" height="30.453" transform="translate(54.801)"/><rect class="f" width="13.32" height="30.453" transform="translate(82.202)"/></g></g><g transform="translate(82.73 213.201)"><g transform="translate(76.913 108.005)"><rect class="f" width="51.207" height="117.535"/></g><g transform="translate(39.405 0)"><rect class="l" width="128.12" height="76.913" transform="translate(0 38.457)"/><rect class="o" width="51.207" height="76.913" transform="translate(76.914 38.457)"/><path class="f" d="M692.729,833.936h128.12L782.392,795.48H731.185Z" transform="translate(-692.729 -795.48)"/></g><g transform="translate(0 0)"><path class="f" d="M754.471,945.6H882.59L844.134,907.14H792.927Z" transform="translate(-676.609 -837.591)"/><path class="l" d="M731.185,795.48l-38.457,38.457,38.457,7.512,38.456-7.512Z" transform="translate(-653.324 -795.48)"/><path class="l" d="M784.239,945.6l-38.456-38.456H668.869L629.464,945.6h0v117.535H835.446V945.6Z" transform="translate(-629.464 -837.591)"/><rect class="o" width="51.207" height="117.535" transform="translate(154.775 108.005)"/></g><g transform="translate(162.555 122.288)"><rect class="k" width="16.42" height="6.918"/><rect class="k" width="16.419" height="6.918" transform="translate(21.295)"/></g><g transform="translate(162.555 137.752)"><rect class="k" width="16.42" height="6.918"/><rect class="k" width="16.419" height="6.918" transform="translate(21.295)"/></g><g transform="translate(123.065 45.193)"><rect class="k" width="16.419" height="6.918"/><rect class="k" width="16.419" height="6.918" transform="translate(21.294)"/><g transform="translate(0 12.07)"><rect class="k" width="16.419" height="6.918"/><rect class="k" width="16.419" height="6.918" transform="translate(21.294)"/></g></g><g transform="translate(162.555 153.216)"><rect class="k" width="16.42" height="6.918"/><rect class="k" width="16.419" height="6.918" transform="translate(21.295)"/></g><path class="f" d="M756.341,834.952a8.6,8.6,0,1,1-8.6-8.6A8.6,8.6,0,0,1,756.341,834.952Z" transform="translate(-670.826 -807.122)"/><path class="g" d="M760.63,1089.629H728.57v-96.2A16.029,16.029,0,0,1,744.6,977.4h0a16.03,16.03,0,0,1,16.03,16.03Z" transform="translate(-666.841 -864.089)"/></g><g transform="translate(900.41 271.75)"><rect class="k" width="242.51" height="145.584" transform="translate(0 72.792)"/><rect class="f" width="96.926" height="145.584" transform="translate(145.585 72.792)"/><path class="g" d="M1747.322,962.272h242.51l-72.792-72.792h-96.926Z" transform="translate(-1747.322 -889.48)"/><path class="m" d="M1747.322,962.272l72.792-72.792,72.793,72.792-137.461.252Z" transform="translate(-1747.322 -889.48)"/><g transform="translate(174.344 110.156)"><g transform="translate(34.763)"><rect class="k" width="8.672" height="19.548"/></g><g transform="translate(17.381)"><rect class="k" width="8.672" height="19.548"/></g><rect class="k" width="8.672" height="19.548"/><g transform="translate(34.763 36.021)"><rect class="k" width="8.672" height="19.548"/></g><g transform="translate(17.381 36.021)"><rect class="k" width="8.672" height="19.548"/></g><g transform="translate(0 36.021)"><rect class="k" width="8.672" height="19.548"/></g></g><g transform="translate(41.66 110.156)"><g transform="translate(47.183)"><rect class="h" width="11.771" height="19.548"/></g><g transform="translate(23.592)"><rect class="h" width="11.771" height="19.548"/></g><rect class="h" width="11.771" height="19.548"/><g transform="translate(47.183 36.021)"><rect class="h" width="11.771" height="19.548"/></g><g transform="translate(23.592 36.021)"><rect class="h" width="11.771" height="19.548"/></g><g transform="translate(0 36.021)"><rect class="h" width="11.771" height="19.548"/></g></g><path class="k" d="M1864.491,962.841a10.848,10.848,0,1,1-10.849-10.848A10.849,10.849,0,0,1,1864.491,962.841Z" transform="translate(-1783.328 -913.056)"/></g><g transform="translate(289.308 272.914)"><path class="f" d="M1044.687,899.151l-12.68,10.127h116V891.349h-90.326Z" transform="translate(-974.979 -891.349)"/><path class="f" d="M1168.247,965.679l-54.775-45.546h-116L940.45,965.679Z" transform="translate(-940.45 -902.204)"/><g transform="translate(0 63.479)"><rect class="g" width="227.796" height="111.35"/><rect class="f" width="89.207" height="111.35" transform="translate(138.589)"/><g transform="translate(22.965 17.855)"><rect class="f" width="8.9" height="17.406"/><rect class="f" width="8.899" height="17.406" transform="translate(26.053)"/><rect class="f" width="8.899" height="17.406" transform="translate(52.105)"/><rect class="f" width="8.899" height="17.406" transform="translate(78.158)"/></g></g><path class="k" d="M1079.85,954.824H940.45l46.355-45.3V891.349h50.94v18.174Z" transform="translate(-940.45 -891.349)"/></g><g transform="translate(1143.045 377.218)"><g transform="translate(0 0)"><rect class="f" width="71.216" height="130.106" transform="translate(136.954 162.285) rotate(180)"/><path class="l" d="M2136.871,1221.092h71.216V1090.986l-37.041-32.179-34.175,32.179Z" transform="translate(-2136.871 -1058.808)"/><path class="m" d="M2191.738,1058.808h65.034l37.745,32.179h-65.738Z" transform="translate(-2157.563 -1058.808)"/><g transform="translate(43.311 43.234)"><path class="e" d="M2220.293,1135.162v16.6h-13.887v-16.6a6.933,6.933,0,0,1,4.642-6.532,6.165,6.165,0,0,1,2.3-.411A6.961,6.961,0,0,1,2220.293,1135.162Z" transform="translate(-2206.406 -1128.219)"/><g transform="translate(0 0.411)"><path class="e" d="M2215.649,1135.411v16.6h-9.243v-16.6a4.9,4.9,0,1,1,9.243,0Z" transform="translate(-2206.406 -1128.879)"/></g></g><g transform="translate(12.412 43.234)"><path class="e" d="M2170.685,1135.162v16.6H2156.8v-16.6a6.933,6.933,0,0,1,4.643-6.532,6.162,6.162,0,0,1,2.3-.411A6.962,6.962,0,0,1,2170.685,1135.162Z" transform="translate(-2156.798 -1128.219)"/><g transform="translate(0 0.411)"><path class="e" d="M2166.042,1135.411v16.6H2156.8v-16.6a4.9,4.9,0,1,1,9.244,0Z" transform="translate(-2156.798 -1128.879)"/></g></g><g transform="translate(43.311 81.823)"><path class="e" d="M2220.293,1197.117v16.6h-13.887v-16.6a6.935,6.935,0,0,1,4.642-6.533,6.174,6.174,0,0,1,2.3-.411A6.961,6.961,0,0,1,2220.293,1197.117Z" transform="translate(-2206.406 -1190.174)"/><g transform="translate(0 0.411)"><path class="e" d="M2215.649,1197.366v16.6h-9.243v-16.6a4.9,4.9,0,1,1,9.243,0Z" transform="translate(-2206.406 -1190.833)"/></g></g><g transform="translate(12.412 81.823)"><path class="e" d="M2170.685,1197.117v16.6H2156.8v-16.6a6.935,6.935,0,0,1,4.643-6.533,6.171,6.171,0,0,1,2.3-.411A6.962,6.962,0,0,1,2170.685,1197.117Z" transform="translate(-2156.798 -1190.174)"/><g transform="translate(0 0.411)"><path class="e" d="M2166.042,1197.366v16.6H2156.8v-16.6a4.9,4.9,0,1,1,9.244,0Z" transform="translate(-2156.798 -1190.833)"/></g></g><g transform="translate(43.311 120.412)"><path class="e" d="M2220.293,1259.072v16.6h-13.887v-16.6a6.933,6.933,0,0,1,4.642-6.532,6.175,6.175,0,0,1,2.3-.411A6.961,6.961,0,0,1,2220.293,1259.072Z" transform="translate(-2206.406 -1252.128)"/><g transform="translate(0 0.411)"><path class="e" d="M2215.649,1259.32v16.6h-9.243v-16.6a4.9,4.9,0,1,1,9.243,0Z" transform="translate(-2206.406 -1252.788)"/></g></g><g transform="translate(12.412 120.412)"><path class="l" d="M2170.685,1259.072v16.6H2156.8v-16.6a6.933,6.933,0,0,1,4.643-6.532,6.172,6.172,0,0,1,2.3-.411A6.962,6.962,0,0,1,2170.685,1259.072Z" transform="translate(-2156.798 -1252.128)"/></g></g><g transform="translate(90.315 61.178)"><rect class="k" width="15.832" height="11.18" transform="translate(11.18 0) rotate(90)"/></g><g transform="translate(110.182 61.178)"><rect class="k" width="15.832" height="11.18" transform="translate(11.18 0) rotate(90)"/></g><g transform="translate(90.315 87.264)"><rect class="k" width="15.832" height="11.18" transform="translate(11.18 0) rotate(90)"/></g><g transform="translate(110.182 87.264)"><rect class="k" width="15.832" height="11.18" transform="translate(11.18 0) rotate(90)"/></g><g transform="translate(81.356 122.571)"><path class="f" d="M2291.031,1267.387v28.021h-23.543v-28.021a11.825,11.825,0,0,1,7.971-11.176,11.655,11.655,0,0,1,3.821-.616A11.783,11.783,0,0,1,2291.031,1267.387Z" transform="translate(-2267.487 -1255.595)"/><path class="f" d="M2283.47,1267.76v28.021h-15.983V1267.76a8.445,8.445,0,1,1,15.983,0Z" transform="translate(-2267.487 -1255.968)"/></g></g><g transform="translate(132.986 360.302)"><rect class="j" width="91.012" height="104.779" transform="translate(0 45.426)"/><path class="p" d="M515.226,1077.076l45.425-45.426H651.5l-45.264,45.426Z" transform="translate(-515.226 -1031.65)"/><path class="l" d="M706.61,1031.65l-45.264,44.555v105.65H706.61Z" transform="translate(-570.334 -1031.65)"/><g transform="translate(104.54 57.096)"><g transform="translate(14.368 0)"><g transform="translate(0)"><rect class="k" width="7.797" height="7.797" transform="translate(0 7.797) rotate(-90)"/></g></g><g transform="translate(14.368 15.627)"><g transform="translate(0 0)"><rect class="k" width="7.797" height="7.797" transform="translate(0 7.797) rotate(-90)"/></g></g><g transform="translate(14.368 31.254)"><g transform="translate(0 0)"><rect class="k" width="7.796" height="7.797" transform="translate(0 7.796) rotate(-90)"/></g></g><g transform="translate(14.368 46.881)"><g transform="translate(0 0)"><rect class="k" width="7.797" height="7.797" transform="translate(0 7.797) rotate(-90)"/></g></g><g transform="translate(0 0)"><rect class="k" width="7.797" height="7.797" transform="translate(0 7.797) rotate(-90)"/></g><g transform="translate(0 15.627)"><g transform="translate(0 0)"><rect class="k" width="7.797" height="7.797" transform="translate(0 7.797) rotate(-90)"/></g></g><g transform="translate(0 31.254)"><g transform="translate(0 0)"><rect class="k" width="7.796" height="7.797" transform="translate(0 7.796) rotate(-90)"/></g></g><g transform="translate(0 46.881)"><g transform="translate(0 0)"><rect class="k" width="7.797" height="7.797" transform="translate(0 7.797) rotate(-90)"/></g></g></g><g transform="translate(11.712 57.096)"><rect class="f" width="7.201" height="18.73"/><rect class="f" width="7.201" height="18.73" transform="translate(21.081)"/><rect class="f" width="7.201" height="18.73" transform="translate(42.162)"/><rect class="f" width="7.202" height="18.73" transform="translate(63.243)"/></g><g transform="translate(11.712 91.452)"><rect class="f" width="7.201" height="18.73"/><rect class="f" width="7.201" height="18.73" transform="translate(21.081)"/><rect class="f" width="7.201" height="18.73" transform="translate(42.162)"/><rect class="f" width="7.202" height="18.73" transform="translate(63.243)"/></g></g><g transform="translate(244.245 375.171)"><rect class="k" width="152.426" height="66.3" transform="translate(0 69.037)"/><rect class="g" width="60.921" height="66.3" transform="translate(0 69.037)"/><path class="f" d="M846.279,1124.559H693.853l45.752-69.038h60.921Z" transform="translate(-693.853 -1055.521)"/><path class="k" d="M883.166,1124.559l-45.752-69.038-45.753,69.038Z" transform="translate(-730.74 -1055.521)"/></g><g transform="translate(50.71 330.403)"><g transform="translate(312.313)"><path class="l" d="M1247.792,983.954l7.611,30.89h86.4l-15.493-30.89Z" transform="translate(-1021.543 -983.763)"/><rect class="l" width="256.208" height="128.104" transform="translate(0 124.35)"/><path class="f" d="M1154.637,1144.508H884.551l64.05-64.058h141.985Z" transform="translate(-884.551 -1020.155)"/><path class="p" d="M1108.729,1144.508H884.551l64.05-64.058h96.079Z" transform="translate(-884.551 -1020.155)"/><path class="l" d="M923.159,1178.221l46.349-46.349,46.349,46.349Z" transform="translate(-899.111 -1039.548)"/><path class="f" d="M1029.6,1163.9l35.5-32.029H997.573Z" transform="translate(-927.176 -1039.548)"/><rect class="h" width="86.443" height="221.372" transform="translate(160.13 31.081)"/><rect class="f" width="73.687" height="221.372" transform="translate(320.26 252.453) rotate(180)"/><path class="h" d="M1157.2,983.954l-15.494,30.89h86.4l-15.494-30.89Z" transform="translate(-981.534 -983.763)"/><path class="k" d="M1211.679,1011.411a7.206,7.206,0,1,1-7.206-7.206A7.206,7.206,0,0,1,1211.679,1011.411Z" transform="translate(-1002.488 -991.4)"/><path class="k" d="M1000.877,1178.926a7.206,7.206,0,1,1-7.207-7.205A7.206,7.206,0,0,1,1000.877,1178.926Z" transform="translate(-922.986 -1054.577)"/><g transform="translate(172.474 48.146)"><path class="k" d="M6.445,0h0A6.445,6.445,0,0,1,12.89,6.445V24.681a0,0,0,0,1,0,0H0a0,0,0,0,1,0,0V6.445A6.445,6.445,0,0,1,6.445,0Z" transform="translate(0 0)"/><path class="k" d="M1211.379,1085.625h-12.89v-18.236a6.445,6.445,0,0,1,6.445-6.445h0a6.445,6.445,0,0,1,6.445,6.445Z" transform="translate(-1175.423 -1060.945)"/><path class="k" d="M1248.41,1085.625h-12.89v-18.236a6.445,6.445,0,0,1,6.445-6.445h0a6.444,6.444,0,0,1,6.445,6.445Z" transform="translate(-1189.389 -1060.945)"/></g><g transform="translate(172.474 101.397)"><path class="k" d="M6.445,0h0A6.445,6.445,0,0,1,12.89,6.445V24.681a0,0,0,0,1,0,0H0a0,0,0,0,1,0,0V6.445A6.445,6.445,0,0,1,6.445,0Z"/><path class="k" d="M1211.379,1171.12h-12.89v-18.237a6.444,6.444,0,0,1,6.445-6.444h0a6.445,6.445,0,0,1,6.445,6.444Z" transform="translate(-1175.423 -1146.439)"/><path class="k" d="M1248.41,1171.12h-12.89v-18.237a6.445,6.445,0,0,1,6.445-6.444h0a6.444,6.444,0,0,1,6.445,6.444Z" transform="translate(-1189.389 -1146.439)"/></g><g transform="translate(172.474 154.647)"><path class="k" d="M6.445,0h0A6.445,6.445,0,0,1,12.89,6.445V24.681a0,0,0,0,1,0,0H0a0,0,0,0,1,0,0V6.445A6.445,6.445,0,0,1,6.445,0Z"/><path class="k" d="M1211.379,1256.613h-12.89v-18.236a6.445,6.445,0,0,1,6.445-6.445h0a6.445,6.445,0,0,1,6.445,6.445Z" transform="translate(-1175.423 -1231.932)"/><path class="k" d="M1248.41,1256.613h-12.89v-18.236a6.445,6.445,0,0,1,6.445-6.445h0a6.445,6.445,0,0,1,6.445,6.445Z" transform="translate(-1189.389 -1231.932)"/></g><g transform="translate(241.179 0.002)"><rect class="i" width="0.847" height="34.556" transform="matrix(0.894, -0.448, 0.448, 0.894, 0, 0.38)"/></g><g transform="translate(254.425)"><path class="i" d="M1308.524,1014.919l-15.5-30.891.756-.381,15.5,30.891Z" transform="translate(-1293.029 -983.647)"/></g><g transform="translate(267.671)"><path class="i" d="M1329.789,1014.919l-15.495-30.891.756-.381,15.5,30.891Z" transform="translate(-1314.295 -983.647)"/></g><g transform="translate(280.92 0.002)"><rect class="i" width="0.846" height="34.556" transform="translate(0 0.379) rotate(-26.634)"/></g><g transform="translate(294.165)"><path class="i" d="M1372.326,1014.919l-15.495-30.891.757-.381,15.495,30.891Z" transform="translate(-1356.832 -983.647)"/></g><g transform="translate(12.41 151.998)"><rect class="k" width="19.397" height="19.397"/><rect class="k" width="19.397" height="19.397" transform="translate(38.59)"/><rect class="k" width="19.397" height="19.397" transform="translate(77.181)"/><rect class="k" width="19.397" height="19.397" transform="translate(115.772)"/></g><g transform="translate(12.41 188.401)"><rect class="k" width="19.397" height="19.397"/><rect class="k" width="19.397" height="19.397" transform="translate(38.59)"/><rect class="k" width="19.397" height="19.397" transform="translate(77.181)"/><rect class="k" width="19.397" height="19.397" transform="translate(115.772)"/></g></g><g transform="translate(0 91.231)"><rect class="q" width="69.842" height="129.176" transform="translate(0 31.948)"/><path class="k" d="M556.48,1291.243H486.638V1162.067l36.327-31.948,33.515,31.948Z" transform="translate(-422.169 -1130.118)"/><path class="l" d="M483.929,1130.118H420.151l-37.018,31.948H447.6Z" transform="translate(-383.133 -1130.118)"/><g transform="translate(84.201 45.709)"><path class="l" d="M518.318,1210.4v16.48h13.619V1210.4a6.877,6.877,0,0,0-4.552-6.486,5.983,5.983,0,0,0-2.257-.408A6.87,6.87,0,0,0,518.318,1210.4Z" transform="translate(-518.318 -1203.504)"/><g transform="translate(0 38.313)"><path class="l" d="M518.318,1271.909v16.479h13.619v-16.479a6.877,6.877,0,0,0-4.552-6.485,5.983,5.983,0,0,0-2.257-.408A6.87,6.87,0,0,0,518.318,1271.909Z" transform="translate(-518.318 -1265.015)"/></g><g transform="translate(0 76.626)"><path class="l" d="M518.318,1333.42v16.48h13.619v-16.48a6.876,6.876,0,0,0-4.552-6.485,5.974,5.974,0,0,0-2.257-.409A6.87,6.87,0,0,0,518.318,1333.42Z" transform="translate(-518.318 -1326.526)"/></g></g><g transform="translate(107.934 45.709)"><path class="l" d="M556.421,1210.4v16.48H570.04V1210.4a6.877,6.877,0,0,0-4.553-6.486,5.978,5.978,0,0,0-2.257-.408A6.869,6.869,0,0,0,556.421,1210.4Z" transform="translate(-556.421 -1203.504)"/><g transform="translate(0 38.313)"><path class="l" d="M556.421,1271.909v16.479H570.04v-16.479a6.877,6.877,0,0,0-4.553-6.485,5.978,5.978,0,0,0-2.257-.408A6.87,6.87,0,0,0,556.421,1271.909Z" transform="translate(-556.421 -1265.015)"/></g><g transform="translate(0 76.626)"><path class="l" d="M556.421,1333.42v16.48H570.04v-16.48a6.877,6.877,0,0,0-4.553-6.485,5.969,5.969,0,0,0-2.257-.409A6.869,6.869,0,0,0,556.421,1333.42Z" transform="translate(-556.421 -1326.526)"/></g></g><g transform="translate(34.775 60.74)"><rect class="k" width="15.719" height="10.964" transform="translate(10.964 0) rotate(90)"/></g><g transform="translate(15.291 60.74)"><rect class="k" width="15.719" height="10.964" transform="translate(10.964 0) rotate(90)"/></g><g transform="translate(34.775 86.639)"><rect class="k" width="15.72" height="10.964" transform="translate(10.964 0) rotate(90)"/></g><g transform="translate(15.291 86.639)"><rect class="k" width="15.72" height="10.964" transform="translate(10.964 0) rotate(90)"/></g><g transform="translate(31.436 121.694)"><path class="g" d="M433.6,1337.206v27.82h23.089v-27.82a11.73,11.73,0,0,0-7.817-11.1,11.312,11.312,0,0,0-3.748-.612A11.629,11.629,0,0,0,433.6,1337.206Z" transform="translate(-433.604 -1325.498)"/><path class="l" d="M445.507,1337.576v27.82h15.675v-27.82a11.73,11.73,0,0,0-7.817-11.1A11.711,11.711,0,0,0,445.507,1337.576Z" transform="translate(-438.093 -1325.868)"/></g></g><g transform="translate(187.437 130.605)"><g transform="translate(0 62.157)"><rect class="h" width="137.234" height="59.692"/></g><rect class="f" width="54.85" height="59.692" transform="translate(82.385 62.157)"/><path class="o" d="M684.062,1255.489H821.3L780.1,1193.332h-54.85Z" transform="translate(-684.062 -1193.332)"/><path class="h" d="M684.062,1255.489l41.192-62.157,41.193,62.157Z" transform="translate(-684.062 -1193.332)"/><path class="k" d="M740.917,1255.631l-15.325,24.674h30.65Z" transform="translate(-699.725 -1216.827)"/></g><path class="j" d="M681.2,1322.2a40.942,40.942,0,0,0-21.058,5.82,54.329,54.329,0,0,0-96.236-5.545,41.214,41.214,0,0,0-35.558,31.409h192.94A41.213,41.213,0,0,0,681.2,1322.2Z" transform="translate(-437.899 -1101.427)"/></g><path class="j" d="M1740.651,1218.323a18.683,18.683,0,0,0-10.138,2.976,25.565,25.565,0,0,0-36.858-9.97,27.954,27.954,0,0,0-44.643,4.909A21.195,21.195,0,0,0,1624.383,1233H1758.97A18.777,18.777,0,0,0,1740.651,1218.323Z" transform="translate(-800.547 -735.736)"/></g><g class="r" transform="translate(1538.844 6597)"><circle class="t" cx="5.5" cy="5.5" r="5.5"/><circle class="u" cx="5.5" cy="5.5" r="5"/></g><g class="r" transform="translate(1659.844 6664)"><circle class="t" cx="5.5" cy="5.5" r="5.5"/><circle class="u" cx="5.5" cy="5.5" r="5"/></g><g class="r" transform="translate(1790.844 6564)"><circle class="t" cx="5.5" cy="5.5" r="5.5"/><circle class="u" cx="5.5" cy="5.5" r="5"/></g><g class="r" transform="translate(1871.844 6730)"><circle class="t" cx="5.5" cy="5.5" r="5.5"/><circle class="u" cx="5.5" cy="5.5" r="5"/></g><g class="r" transform="translate(1425.844 6756)"><circle class="t" cx="5.5" cy="5.5" r="5.5"/><circle class="u" cx="5.5" cy="5.5" r="5"/></g><g class="r" transform="translate(1298.844 7015)"><circle class="t" cx="5.5" cy="5.5" r="5.5"/><circle class="u" cx="5.5" cy="5.5" r="5"/></g><g class="r" transform="translate(1425.844 6971)"><circle class="t" cx="5.5" cy="5.5" r="5.5"/><circle class="u" cx="5.5" cy="5.5" r="5"/></g><g class="r" transform="translate(1589.844 6978)"><circle class="t" cx="5.5" cy="5.5" r="5.5"/><circle class="u" cx="5.5" cy="5.5" r="5"/></g><g class="r" transform="translate(1661.844 6886)"><circle class="t" cx="5.5" cy="5.5" r="5.5"/><circle class="u" cx="5.5" cy="5.5" r="5"/></g><g class="r" transform="translate(1335.844 6835)"><circle class="t" cx="5.5" cy="5.5" r="5.5"/><circle class="u" cx="5.5" cy="5.5" r="5"/></g><g class="r" transform="translate(1376.844 6746)"><circle class="t" cx="5.5" cy="5.5" r="5.5"/><circle class="u" cx="5.5" cy="5.5" r="5"/></g><g class="r" transform="translate(1466.844 6636)"><circle class="t" cx="5.5" cy="5.5" r="5.5"/><circle class="u" cx="5.5" cy="5.5" r="5"/></g><g class="r" transform="translate(1611.844 6634)"><circle class="t" cx="5.5" cy="5.5" r="5.5"/><circle class="u" cx="5.5" cy="5.5" r="5"/></g><g class="r" transform="translate(1736.844 6642)"><circle class="t" cx="5.5" cy="5.5" r="5.5"/><circle class="u" cx="5.5" cy="5.5" r="5"/></g><g class="r" transform="translate(1837.844 6607)"><circle class="t" cx="5.5" cy="5.5" r="5.5"/><circle class="u" cx="5.5" cy="5.5" r="5"/></g><g class="r" transform="translate(1538.844 6559)"><circle class="t" cx="5.5" cy="5.5" r="5.5"/><circle class="u" cx="5.5" cy="5.5" r="5"/></g><g class="r" transform="translate(1659.844 6625)"><circle class="t" cx="5.5" cy="5.5" r="5.5"/><circle class="u" cx="5.5" cy="5.5" r="5"/></g><g class="r" transform="translate(1790.844 6526)"><circle class="t" cx="5.5" cy="5.5" r="5.5"/><circle class="u" cx="5.5" cy="5.5" r="5"/></g><g class="r" transform="translate(1871.844 6691)"><circle class="t" cx="5.5" cy="5.5" r="5.5"/><circle class="u" cx="5.5" cy="5.5" r="5"/></g><g class="r" transform="translate(1425.844 6717)"><circle class="t" cx="5.5" cy="5.5" r="5.5"/><circle class="u" cx="5.5" cy="5.5" r="5"/></g><g class="r" transform="translate(1298.844 6976)"><circle class="t" cx="5.5" cy="5.5" r="5.5"/><circle class="u" cx="5.5" cy="5.5" r="5"/></g><g class="r" transform="translate(1425.844 6932)"><circle class="t" cx="5.5" cy="5.5" r="5.5"/><circle class="u" cx="5.5" cy="5.5" r="5"/></g><g class="r" transform="translate(1589.844 6940)"><circle class="t" cx="5.5" cy="5.5" r="5.5"/><circle class="u" cx="5.5" cy="5.5" r="5"/></g><g class="r" transform="translate(1661.844 6848)"><circle class="t" cx="5.5" cy="5.5" r="5.5"/><circle class="u" cx="5.5" cy="5.5" r="5"/></g><g class="r" transform="translate(1335.844 6796)"><circle class="t" cx="5.5" cy="5.5" r="5.5"/><circle class="u" cx="5.5" cy="5.5" r="5"/></g><g class="r" transform="translate(1376.844 6708)"><circle class="t" cx="5.5" cy="5.5" r="5.5"/><circle class="u" cx="5.5" cy="5.5" r="5"/></g><g class="r" transform="translate(1466.844 6597)"><circle class="t" cx="5.5" cy="5.5" r="5.5"/><circle class="u" cx="5.5" cy="5.5" r="5"/></g><g class="r" transform="translate(1611.844 6596)"><circle class="t" cx="5.5" cy="5.5" r="5.5"/><circle class="u" cx="5.5" cy="5.5" r="5"/></g><g class="r" transform="translate(1736.844 6603)"><circle class="t" cx="5.5" cy="5.5" r="5.5"/><circle class="u" cx="5.5" cy="5.5" r="5"/></g><g class="r" transform="translate(1837.844 6568)"><circle class="t" cx="5.5" cy="5.5" r="5.5"/><circle class="u" cx="5.5" cy="5.5" r="5"/></g><g class="r" transform="translate(1538.844 6579)"><circle class="t" cx="5.5" cy="5.5" r="5.5"/><circle class="u" cx="5.5" cy="5.5" r="5"/></g><g class="r" transform="translate(1659.844 6645)"><circle class="t" cx="5.5" cy="5.5" r="5.5"/><circle class="u" cx="5.5" cy="5.5" r="5"/></g><g class="r" transform="translate(1790.844 6546)"><circle class="t" cx="5.5" cy="5.5" r="5.5"/><circle class="u" cx="5.5" cy="5.5" r="5"/></g><g class="r" transform="translate(1871.844 6711)"><ellipse class="t" cx="5.5" cy="6" rx="5.5" ry="6"/><ellipse class="u" cx="5.5" cy="6" rx="5" ry="5.5"/></g><g class="r" transform="translate(1425.844 6737)"><circle class="t" cx="5.5" cy="5.5" r="5.5"/><circle class="u" cx="5.5" cy="5.5" r="5"/></g><g class="r" transform="translate(1298.844 6997)"><circle class="t" cx="5.5" cy="5.5" r="5.5"/><circle class="u" cx="5.5" cy="5.5" r="5"/></g><g class="r" transform="translate(1425.844 6952)"><ellipse class="t" cx="5.5" cy="6" rx="5.5" ry="6"/><ellipse class="u" cx="5.5" cy="6" rx="5" ry="5.5"/></g><g class="r" transform="translate(1589.844 6960)"><circle class="t" cx="5.5" cy="5.5" r="5.5"/><circle class="u" cx="5.5" cy="5.5" r="5"/></g><g class="r" transform="translate(1661.844 6868)"><circle class="t" cx="5.5" cy="5.5" r="5.5"/><circle class="u" cx="5.5" cy="5.5" r="5"/></g><g class="r" transform="translate(1335.844 6816)"><circle class="t" cx="5.5" cy="5.5" r="5.5"/><circle class="u" cx="5.5" cy="5.5" r="5"/></g><g class="r" transform="translate(1376.844 6728)"><circle class="t" cx="5.5" cy="5.5" r="5.5"/><circle class="u" cx="5.5" cy="5.5" r="5"/></g><g class="r" transform="translate(1466.844 6618)"><circle class="t" cx="5.5" cy="5.5" r="5.5"/><circle class="u" cx="5.5" cy="5.5" r="5"/></g><g class="r" transform="translate(1611.844 6616)"><circle class="t" cx="5.5" cy="5.5" r="5.5"/><circle class="u" cx="5.5" cy="5.5" r="5"/></g><g class="r" transform="translate(1736.844 6623)"><circle class="t" cx="5.5" cy="5.5" r="5.5"/><circle class="u" cx="5.5" cy="5.5" r="5"/></g><g class="r" transform="translate(1837.844 6588)"><circle class="t" cx="5.5" cy="5.5" r="5.5"/><circle class="u" cx="5.5" cy="5.5" r="5"/></g><g class="r" transform="translate(1538.844 6540)"><circle class="t" cx="5.5" cy="5.5" r="5.5"/><circle class="u" cx="5.5" cy="5.5" r="5"/></g><g class="r" transform="translate(1659.844 6607)"><circle class="t" cx="5.5" cy="5.5" r="5.5"/><circle class="u" cx="5.5" cy="5.5" r="5"/></g><g class="r" transform="translate(1790.844 6507)"><circle class="t" cx="5.5" cy="5.5" r="5.5"/><circle class="u" cx="5.5" cy="5.5" r="5"/></g><g class="r" transform="translate(1871.844 6673)"><circle class="t" cx="5.5" cy="5.5" r="5.5"/><circle class="u" cx="5.5" cy="5.5" r="5"/></g><g class="r" transform="translate(1425.844 6699)"><circle class="t" cx="5.5" cy="5.5" r="5.5"/><circle class="u" cx="5.5" cy="5.5" r="5"/></g><g class="r" transform="translate(1298.844 6958)"><circle class="t" cx="5.5" cy="5.5" r="5.5"/><circle class="u" cx="5.5" cy="5.5" r="5"/></g><g class="r" transform="translate(1425.844 6914)"><circle class="t" cx="5.5" cy="5.5" r="5.5"/><circle class="u" cx="5.5" cy="5.5" r="5"/></g><g class="r" transform="translate(1589.844 6921)"><circle class="t" cx="5.5" cy="5.5" r="5.5"/><circle class="u" cx="5.5" cy="5.5" r="5"/></g><g class="r" transform="translate(1661.844 6829)"><circle class="t" cx="5.5" cy="5.5" r="5.5"/><circle class="u" cx="5.5" cy="5.5" r="5"/></g><g class="r" transform="translate(1335.844 6778)"><circle class="t" cx="5.5" cy="5.5" r="5.5"/><circle class="u" cx="5.5" cy="5.5" r="5"/></g><g class="r" transform="translate(1376.844 6689)"><circle class="t" cx="5.5" cy="5.5" r="5.5"/><circle class="u" cx="5.5" cy="5.5" r="5"/></g><g class="r" transform="translate(1466.844 6579)"><circle class="t" cx="5.5" cy="5.5" r="5.5"/><circle class="u" cx="5.5" cy="5.5" r="5"/></g><g class="r" transform="translate(1611.844 6577)"><circle class="t" cx="5.5" cy="5.5" r="5.5"/><circle class="u" cx="5.5" cy="5.5" r="5"/></g><g class="r" transform="translate(1736.844 6585)"><circle class="t" cx="5.5" cy="5.5" r="5.5"/><circle class="u" cx="5.5" cy="5.5" r="5"/></g><g class="r" transform="translate(1837.844 6550)"><circle class="t" cx="5.5" cy="5.5" r="5.5"/><circle class="u" cx="5.5" cy="5.5" r="5"/></g><text class="s" transform="translate(1514.844 6525)"><tspan x="0" y="0">0/1</tspan></text><text class="s" transform="translate(1642.844 6591)"><tspan x="0" y="0">0/1</tspan></text><text class="s" transform="translate(1773.844 6492)"><tspan x="0" y="0">0/1</tspan></text><text class="s" transform="translate(1858.844 6658)"><tspan x="0" y="0">0/1</tspan></text><text class="s" transform="translate(1409.844 6683)"><tspan x="0" y="0">0/1</tspan></text><text class="s" transform="translate(1281.844 6943)"><tspan x="0" y="0">0/1</tspan></text><text class="s" transform="translate(1409.844 6899)"><tspan x="0" y="0">0/1</tspan></text><text class="s" transform="translate(1573.844 6906)"><tspan x="0" y="0">0/1</tspan></text><text class="s" transform="translate(1644.844 6814)"><tspan x="0" y="0">0/1</tspan></text><text class="s" transform="translate(1319.844 6762)"><tspan x="0" y="0">0/1</tspan></text><text class="s" transform="translate(1359.844 6674)"><tspan x="0" y="0">0/1</tspan></text><text class="s" transform="translate(1449.844 6564)"><tspan x="0" y="0">0/1</tspan></text><text class="s" transform="translate(1595.844 6562)"><tspan x="0" y="0">0/1</tspan></text><text class="s" transform="translate(1720.844 6569)"><tspan x="0" y="0">0/1</tspan></text><text class="s" transform="translate(1821.844 6534)"><tspan x="0" y="0">0/1</tspan></text></g></svg>