<svg xmlns="http://www.w3.org/2000/svg" width="1022.54" height="927.723" viewBox="0 0 1022.54 927.723"><defs><style>.a{fill:#b8a6a7;}.b{fill:#695d5e;}.c{fill:#8c7c7e;}.d{fill:#c2afb0;}.e{fill:#8fc3c7;}.f{fill:#226166;}.g{fill:#d4c5c6;}.h{fill:#b1dde0;}.i{fill:#fff;}.j{fill:#97a317;}.k,.s{fill:#575757;}.l{fill:#7d715a;}.m{fill:#616161;}.n{fill:#858585;}.ae,.ag,.o,.s{mix-blend-mode:multiply;isolation:isolate;}.ae,.p{fill:#a1a1a1;}.q,.z{fill:#c3ebe1;}.aa,.r{fill:#308a91;}.aa,.ag,.s,.z{opacity:0.5;}.t{fill:#3f3f3f;}.u{fill:#454545;}.v{fill:silver;}.w{fill:#787878;}.ag,.x{fill:#969696;}.y{fill:#fff6a1;}.ab{fill:#cfcfcf;}.ac{fill:#dadada;}.ad{fill:#303030;}.af{fill:#c9d64f;}.ah{fill:#00bef3;}.ai{fill:#a1e2e7;}.aj{fill:#00aed6;}.ak{fill:#998a8b;}</style></defs><g transform="translate(-271.085 -648.365)"><g transform="translate(407.911 648.365)"><path class="a" d="M1695.369,777.028,1566.706,648.365h-48.522L1236.831,929.718h-63.82l-107.387,107.387-32.888-32.888H957.98L809.655,1152.543h885.714Z" transform="translate(-809.655 -648.365)"/><path class="b" d="M1300.852,1517.584h-37.23v50.649l62.443,62.442h87.769l-80.094-80.2Z" transform="translate(-1077.771 -1161.731)"/><path class="c" d="M2514.1,648.365h-48.522v78.371l48.636,48.636-56.177,56.177,38.721,38.721h79.79l59.448,59.448-222.24,222.825h229.007V777.028Z" transform="translate(-1757.047 -648.365)"/><path class="b" d="M1918.817,1491.051l-157.794-155.444H1697.2l174.415,175.55H1987.9l-20.106-20.106Z" transform="translate(-1333.846 -1054.255)"/><path class="d" d="M846.951,1697.1l112.807-112.808v-13.9L833.026,1697.1Z" transform="translate(-823.458 -1192.919)"/><path class="d" d="M1550.874,1502.522v-34.709l-32.781,34.709Z" transform="translate(-1228.063 -1132.337)"/><rect class="a" width="66.215" height="59.448" transform="translate(819.499 221.904)"/></g><g transform="translate(1048.044 839.868)"><rect class="b" width="42.139" height="202.681" transform="translate(61.586 30.402)"/><path class="e" d="M2458.344,1160.027h-35.906c-23.807,0-49.169,19.3-49.169,43.107v314.95h85.075V1204.666a38.422,38.422,0,0,1,38.422-38.422h33.015v-6.217Z" transform="translate(-2373.268 -1142.059)"/><path class="f" d="M2628.2,1175.212h-22.4a43.107,43.107,0,0,0-43.107,43.107v314.95h8.823V1219.851a38.422,38.422,0,0,1,38.421-38.422h31.717v-6.217Z" transform="translate(-2485.146 -1151.027)"/><path class="g" d="M2717.924,1116.137h86.526v30.4H2687.522Z" transform="translate(-2558.868 -1116.137)"/><path class="h" d="M2386.471,1236.851h0a5.317,5.317,0,0,0,5.3-5.364l-.144-16.2c-.13-45.649,47.3-45.785,47.3-45.785l-10.633.031s-47.432.254-47.3,45.784l.144,16.265A5.317,5.317,0,0,0,2386.471,1236.851Z" transform="translate(-2377.832 -1147.655)"/><path class="h" d="M2527.988,1284.761h0a5.316,5.316,0,0,0,5.3-5.364l-.143-64.11c-.13-45.649,47.3-45.785,47.3-45.785l-10.634.031s-47.432.254-47.3,45.784l.143,64.174A5.318,5.318,0,0,0,2527.988,1284.761Z" transform="translate(-2461.413 -1147.655)"/><path class="h" d="M2419.23,1225.606h0a5.316,5.316,0,0,0,5.3-5.363l-.143-4.957c-.13-45.649,47.3-45.785,47.3-45.785l-10.634.031s-47.432.254-47.3,45.784l.143,5.021A5.317,5.317,0,0,0,2419.23,1225.606Z" transform="translate(-2397.181 -1147.655)"/></g><g transform="translate(1042.349 1013.286)"><g transform="translate(76.746 41.189)"><path class="i" d="M2564.839,1640.346a18.018,18.018,0,0,0-18.018,18.018h36.035A18.018,18.018,0,0,0,2564.839,1640.346Z" transform="translate(-2546.821 -1640.346)"/></g><g transform="translate(26.79 34.229)"><path class="i" d="M2449.775,1623.344a24.979,24.979,0,0,0-24.978,24.978h49.956A24.978,24.978,0,0,0,2449.775,1623.344Z" transform="translate(-2424.797 -1623.344)"/></g><g transform="translate(0 43.629)"><path class="i" d="M2374.937,1646.305a15.578,15.578,0,0,0-15.578,15.578h31.156A15.578,15.578,0,0,0,2374.937,1646.305Z" transform="translate(-2359.359 -1646.305)"/></g><path class="i" d="M2631.384,1583.953a4.193,4.193,0,1,0,4.194,4.193A4.193,4.193,0,0,0,2631.384,1583.953Z" transform="translate(-2517.542 -1565.851)"/><path class="i" d="M2545.392,1539.736a5.624,5.624,0,1,0,5.624,5.624A5.624,5.624,0,0,0,2545.392,1539.736Z" transform="translate(-2465.91 -1539.736)"/><circle class="i" cx="8.292" cy="8.292" r="8.292" transform="translate(73.039 39.389) rotate(-73.155)"/><circle class="i" cx="8.292" cy="8.292" r="8.292" transform="matrix(0.16, -0.987, 0.987, 0.16, 30.28, 37.281)"/></g><circle class="j" cx="32.046" cy="32.046" r="32.046" transform="translate(370.902 1056.472)"/><circle class="j" cx="41.135" cy="41.135" r="41.135" transform="translate(387.317 983.227)"/><circle class="j" cx="41.135" cy="41.135" r="41.135" transform="translate(320.678 1107.53)"/><circle class="j" cx="63.918" cy="63.918" r="63.918" transform="translate(357.553 1132.192) rotate(-45)"/><circle class="j" cx="63.918" cy="63.918" r="63.918" transform="translate(478.185 1130.109) rotate(-45)"/><g transform="translate(417.517 940.939)"><rect class="k" width="9.643" height="47.759" transform="translate(103.8 190.265)"/><path class="l" d="M905.687,1363.017h0l-72.567,53v15.813H978.254v-15.813l-72.567-53Z" transform="translate(-833.12 -1363.017)"/><rect class="m" width="224.39" height="119.347" transform="translate(0 53.005)"/><path class="n" d="M833.12,1416.022h224.39l72.567-53H905.687Z" transform="translate(-833.12 -1363.017)"/><g class="o" transform="translate(9.856)"><rect class="p" width="2.158" height="119.347" transform="translate(143.401 53.005)"/><rect class="p" width="2.158" height="119.347" transform="translate(131.451 53.005)"/><rect class="p" width="2.158" height="119.347" transform="translate(119.501 53.005)"/><rect class="p" width="2.158" height="119.347" transform="translate(107.551 53.005)"/><rect class="p" width="2.158" height="119.347" transform="translate(95.601 53.005)"/><rect class="p" width="2.158" height="119.347" transform="translate(83.651 53.005)"/><rect class="p" width="2.158" height="119.347" transform="translate(71.701 53.005)"/><rect class="p" width="2.158" height="119.347" transform="translate(59.75 53.005)"/><rect class="p" width="2.158" height="119.347" transform="translate(47.8 53.005)"/><rect class="p" width="2.158" height="119.347" transform="translate(35.85 53.005)"/><rect class="p" width="2.158" height="119.347" transform="translate(23.9 53.005)"/><rect class="p" width="2.158" height="119.347" transform="translate(11.95 53.005)"/><rect class="p" width="2.158" height="119.347" transform="translate(0 53.005)"/><path class="p" d="M1207.471,1416.022h2.158l70.621-53h-2.158Z" transform="translate(-1064.07 -1363.017)"/><path class="p" d="M1178.281,1416.022h2.158l70.622-53H1248.9Z" transform="translate(-1046.83 -1363.017)"/><path class="p" d="M1149.092,1416.022h2.158l70.621-53h-2.158Z" transform="translate(-1029.591 -1363.017)"/><path class="p" d="M1119.9,1416.022h2.158l70.622-53h-2.158Z" transform="translate(-1012.351 -1363.017)"/><path class="p" d="M1090.712,1416.022h2.158l70.622-53h-2.158Z" transform="translate(-995.111 -1363.017)"/><rect class="p" width="2.158" height="119.347" transform="translate(203.691 53.005)"/><rect class="p" width="2.158" height="119.347" transform="translate(191.741 53.005)"/><rect class="p" width="2.158" height="119.347" transform="translate(179.791 53.005)"/><rect class="p" width="2.158" height="119.347" transform="translate(167.841 53.005)"/><rect class="p" width="2.158" height="119.347" transform="translate(155.891 53.005)"/><path class="p" d="M1354.737,1416.022h2.158l70.622-53h-2.158Z" transform="translate(-1151.046 -1363.017)"/><path class="p" d="M1325.548,1416.022h2.158l70.621-53h-2.158Z" transform="translate(-1133.807 -1363.017)"/><path class="p" d="M1296.358,1416.022h2.158l70.622-53h-2.158Z" transform="translate(-1116.567 -1363.017)"/><path class="p" d="M1267.168,1416.022h2.158l70.621-53h-2.158Z" transform="translate(-1099.328 -1363.017)"/><path class="p" d="M1237.979,1416.022h2.158l70.622-53H1308.6Z" transform="translate(-1082.088 -1363.017)"/><path class="p" d="M1061.522,1416.022h2.158l70.622-53h-2.158Z" transform="translate(-977.872 -1363.017)"/><path class="p" d="M1032.333,1416.022h2.158l70.622-53h-2.158Z" transform="translate(-960.632 -1363.017)"/><path class="p" d="M1003.143,1416.022h2.158l70.622-53h-2.158Z" transform="translate(-943.393 -1363.017)"/><path class="p" d="M973.953,1416.022h2.158l70.622-53h-2.158Z" transform="translate(-926.153 -1363.017)"/><path class="p" d="M944.763,1416.022h2.158l70.622-53h-2.158Z" transform="translate(-908.913 -1363.017)"/><path class="p" d="M915.574,1416.022h2.158l70.622-53H986.2Z" transform="translate(-891.674 -1363.017)"/><path class="p" d="M886.384,1416.022h2.158l70.622-53h-2.158Z" transform="translate(-874.434 -1363.017)"/><path class="p" d="M857.194,1416.022h2.158l70.622-53h-2.158Z" transform="translate(-857.194 -1363.017)"/></g><g transform="translate(126.821 4.829)"><path class="e" d="M1276.166,1377.184h7.91l-8.861,6.718-.337,2.382,12-9.1h17.5l-19.6,14.858h-10.715l-.314,2.221h8.1l-9.074,6.879-.337,2.382,12.215-9.261h17.5l-19.6,14.858h-10.906l-.3,2.121h12.181l48.05-36.429H1276.5Zm48.514,0-19.6,14.858h-17.5l19.6-14.858Z" transform="translate(-1218.761 -1374.813)"/><path class="f" d="M1272.873,1431.583l-.792,5.6h10.906l19.6-14.859h-17.5Z" transform="translate(-1219.193 -1402.872)"/><path class="f" d="M1274.838,1429.2l9.074-6.879h-8.1Z" transform="translate(-1220.822 -1402.872)"/><path class="f" d="M1311.008,1395.462h17.5l19.6-14.858h-17.5Z" transform="translate(-1242.184 -1378.233)"/><path class="f" d="M1278.8,1389.7l-.815,5.759H1288.7l19.6-14.858h-17.5Z" transform="translate(-1222.679 -1378.233)"/><path class="f" d="M1280.8,1387.322l8.861-6.718h-7.911Z" transform="translate(-1224.341 -1378.233)"/><path class="q" d="M1142.956,1411.242h52.563l.3-2.121h-6.591l7.383-5.6.337-2.382-10.525,7.979h-17.5l19.6-14.858h9.4l.314-2.221h-6.781l7.6-5.759.337-2.382-10.738,8.141h-17.5l19.6-14.858h9.586l.335-2.371h-9.666Zm42.764-16.979-19.6,14.858h-17.5l19.6-14.858Z" transform="translate(-1142.932 -1374.813)"/><path class="r" d="M1262.572,1450.541l.792-5.6-7.383,5.6Z" transform="translate(-1209.685 -1416.232)"/><path class="r" d="M1206.392,1437.18h17.5l10.525-7.979.973-6.879h-9.4Z" transform="translate(-1180.397 -1402.872)"/><path class="r" d="M1156.8,1437.18h17.5l19.6-14.859h-17.5Z" transform="translate(-1151.109 -1402.872)"/><path class="r" d="M1268.2,1408.59l.815-5.759-7.6,5.759Z" transform="translate(-1212.896 -1391.361)"/><path class="r" d="M1211.829,1395.462h17.5l10.738-8.141.95-6.718h-9.586Z" transform="translate(-1183.609 -1378.233)"/><path class="r" d="M1301.026,1411.241l.857,2.8,47.862-36.208-.637-3.019Z" transform="translate(-1236.289 -1374.813)"/><path class="f" d="M1142.9,1463.795l.857,2.8h64.737l-.857-2.8Z" transform="translate(-1142.896 -1427.366)"/></g><g transform="translate(36.947 4.829)"><path class="e" d="M1056.637,1377.184h7.911l-8.861,6.718-.337,2.382,12-9.1h17.5l-19.6,14.858h-10.715l-.314,2.221h8.1l-9.074,6.879-.337,2.382,12.216-9.261h17.5l-19.6,14.858h-10.905l-.3,2.121H1064l48.05-36.429h-55.078Zm48.514,0-19.6,14.858h-17.5l19.6-14.858Z" transform="translate(-999.232 -1374.813)"/><path class="f" d="M1053.343,1431.583l-.792,5.6h10.906l19.6-14.859h-17.5Z" transform="translate(-999.664 -1402.872)"/><path class="f" d="M1055.308,1429.2l9.074-6.879h-8.1Z" transform="translate(-1001.293 -1402.872)"/><path class="f" d="M1091.478,1395.462h17.5l19.6-14.858h-17.5Z" transform="translate(-1022.655 -1378.233)"/><path class="f" d="M1059.267,1389.7l-.815,5.759h10.716l19.6-14.858h-17.5Z" transform="translate(-1003.15 -1378.233)"/><path class="f" d="M1061.266,1387.322l8.861-6.718h-7.911Z" transform="translate(-1004.811 -1378.233)"/><path class="q" d="M923.426,1411.242h52.563l.3-2.121H969.7l7.383-5.6.337-2.382-10.525,7.979H949.4l19.6-14.858h9.4l.314-2.221h-6.781l7.6-5.759.337-2.382-10.738,8.141h-17.5l19.6-14.858h9.586l.335-2.371h-9.666Zm42.764-16.979-19.6,14.858H929.1l19.6-14.858Z" transform="translate(-923.402 -1374.813)"/><path class="r" d="M1043.043,1450.541l.792-5.6-7.383,5.6Z" transform="translate(-990.156 -1416.232)"/><path class="r" d="M986.862,1437.18h17.5l10.525-7.979.973-6.879h-9.4Z" transform="translate(-960.868 -1402.872)"/><path class="r" d="M937.273,1437.18h17.5l19.6-14.859h-17.5Z" transform="translate(-931.58 -1402.872)"/><path class="r" d="M1048.67,1408.59l.815-5.759-7.6,5.759Z" transform="translate(-993.367 -1391.361)"/><path class="r" d="M992.3,1395.462h17.5l10.738-8.141.95-6.718H1011.9Z" transform="translate(-964.079 -1378.233)"/><path class="r" d="M1081.5,1411.241l.857,2.8,47.862-36.208-.637-3.019Z" transform="translate(-1016.759 -1374.813)"/><path class="f" d="M923.367,1463.795l.857,2.8h64.737l-.857-2.8Z" transform="translate(-923.367 -1427.366)"/></g><g transform="translate(37.565 92.904)"><rect class="e" width="52.759" height="54.674" transform="translate(9.316)"/><path class="s" d="M938.671,1723.5h-5.446l5.877,6.975h55.867v-3.252l-3.087-3.723Z" transform="translate(-929.808 -1668.824)"/><g transform="translate(0 54.674)"><rect class="k" width="59.099" height="3.248"/></g><g transform="translate(59.099 54.674)"><rect class="t" width="2.976" height="3.248"/></g><rect class="u" width="5.92" height="54.674" transform="translate(3.396)"/><rect class="v" width="59.099" height="0.814" transform="translate(0 54.674)"/><path class="s" d="M939.093,1596.32h52.759v-6.371H933.173Z" transform="translate(-929.777 -1589.949)"/></g><g transform="translate(0 172.351)"><rect class="w" width="224.39" height="2.191"/><g transform="translate(0 15.723)"><rect class="w" width="224.39" height="2.191"/></g><g transform="translate(4.274 2.191)"><rect class="k" width="220.116" height="13.532"/></g><rect class="t" width="220.116" height="4.03" transform="translate(4.274 2.191)"/><rect class="t" width="0.87" height="13.5" transform="translate(132.385 2.223)"/><rect class="t" width="0.87" height="13.5" transform="translate(86.701 2.207)"/><rect class="t" width="0.87" height="13.5" transform="translate(42.131 2.207)"/><g transform="translate(0 15.162)"><rect class="i" width="224.39" height="0.545"/></g></g><rect class="k" width="9.643" height="47.759" transform="translate(20.787 190.265)"/></g><rect class="i" width="5.757" height="96.961" transform="translate(965.284 943.114)"/><g transform="translate(912.764 943.225)"><rect class="r" width="52.52" height="96.693"/><g transform="translate(22.812 1.624)"><rect class="w" width="3.248" height="95.069"/><rect class="w" width="3.248" height="95.069" transform="translate(25.307)"/></g><rect class="t" width="52.52" height="3.248"/><rect class="t" width="52.52" height="3.248" transform="translate(0 17.55)"/><rect class="t" width="3.248" height="95.069" transform="translate(23.966 1.624)"/><rect class="t" width="3.248" height="95.069" transform="translate(49.273 1.624)"/></g><rect class="v" width="51.817" height="117.451" transform="translate(638.33 922.467)"/><path class="x" d="M1372.486,1233.085H1424.3l80.21-58.789H1452.7Z" transform="translate(-734.156 -310.618)"/><g transform="translate(669.368 874.527)"><path class="e" d="M1459.052,1368.864h158.139V1251.413h-32.722l-63.219-46.085-62.2,46.085Z" transform="translate(-1454.65 -1203.473)"/><path class="t" d="M1448.3,1250.585l64.84-48.392,3.3,2.408-68.143,50.923Z" transform="translate(-1448.3 -1201.621)"/><g transform="translate(0 13.393)"><rect class="t" width="3.248" height="115.189" transform="translate(1.154 36.809)"/><rect class="k" width="3.248" height="116.813" transform="translate(0 35.185)"/><rect class="t" width="3.248" height="116.813" transform="translate(163.695 35.185)"/><rect class="k" width="3.248" height="116.813" transform="translate(162.541 35.185)"/><rect class="t" width="3.248" height="146.034" transform="translate(42.368 5.964)"/><rect class="k" width="3.248" height="147.658" transform="translate(41.214 4.34)"/><path class="t" d="M1652.463,1386.724h3.248V1237.935l-3.248-2.368Z" transform="translate(-1568.88 -1234.726)"/><path class="k" d="M1649.644,1385.51h3.248V1235.88l-3.248-2.367Z" transform="translate(-1567.215 -1233.513)"/><path class="t" d="M1753.134,1430.067h3.248V1311.322l-3.248-2.367Z" transform="translate(-1628.337 -1278.069)"/><path class="k" d="M1750.315,1428.853h3.248V1309.267l-3.248-2.368Z" transform="translate(-1626.672 -1276.855)"/></g><rect class="k" width="162.541" height="3.248" transform="translate(0 86.247)"/><path class="k" d="M1448.3,1248.737l64.056-47.94,3.3,2.408-67.359,50.471Z" transform="translate(-1448.3 -1200.797)"/></g><path class="s" d="M1372.486,1233.085l31.177,31.177H1538.28l20.8-31.177L1452.7,1174.3Z" transform="translate(-734.156 -310.618)"/><g transform="translate(814.525 927.481)"><path class="v" d="M1802.866,1470.538l167.657.157V1330.3l-167.657-.157Zm98.239-124.76,58.278.157v96.8l-58.278-.157Z" transform="translate(-1802.866 -1330.145)"/></g><g transform="translate(623.011 841.585)"><path class="i" d="M1335.066,1190.414v278.293H1526.58V1190.414l-95.565-70.083Zm176.176,128.25H1350.386V1201.213l80.21-58.789,80.646,58.789Z" transform="translate(-1335.066 -1120.331)"/></g><g transform="translate(634.813 1077.291)"><path class="s" d="M1377.688,1767.96h-5.446l5.877,6.975h26.891v-3.253l-3.086-3.723Z" transform="translate(-1368.825 -1738.531)"/><g transform="translate(3.396 0)"><rect class="e" width="29.703" height="30.242"/></g><g transform="translate(0 29.428)"><rect class="k" width="30.123" height="3.248"/></g><g transform="translate(30.123 29.428)"><rect class="t" width="2.976" height="3.248"/></g><rect class="v" width="5.92" height="29.428" transform="translate(3.396)"/><rect class="v" width="30.123" height="0.814" transform="translate(0 29.428)"/><path class="s" d="M1378.109,1702.447h23.784v-6.371h-29.7Z" transform="translate(-1368.794 -1696.076)"/></g><path class="j" d="M697.054,2090.728h189.76V1925.9l71.438-3.963v-22.079H728.381a31.327,31.327,0,0,0-31.327,31.327Z" transform="translate(-335.241 -739.137)"/><path class="y" d="M714.34,2099.877H882.532V1941.388l85.929-3.964v-22.079H742.243a27.9,27.9,0,0,0-27.9,27.9Z" transform="translate(-345.45 -748.287)"/><g transform="translate(490.777 1005.583)"><g transform="translate(2.644 6.33)"><rect class="i" width="246.503" height="1.694"/><rect class="i" width="246.503" height="1.694" transform="translate(0 4.094)"/><rect class="i" width="246.503" height="1.694" transform="translate(0 8.259)"/><rect class="i" width="246.503" height="1.694" transform="translate(0 12.424)"/><rect class="i" width="246.503" height="1.694" transform="translate(0 16.589)"/><rect class="i" width="246.503" height="1.694" transform="translate(0 20.753)"/><rect class="i" width="246.503" height="1.694" transform="translate(0 24.918)"/></g><rect class="z" width="246.503" height="31.109" transform="translate(2.644 3.225)"/><g transform="translate(251.791 6.33)"><rect class="i" width="56.618" height="1.694"/><rect class="i" width="56.618" height="1.694" transform="translate(0 4.094)"/><rect class="i" width="56.618" height="1.694" transform="translate(0 8.259)"/><rect class="i" width="56.618" height="1.694" transform="translate(0 12.424)"/><rect class="i" width="56.618" height="1.694" transform="translate(0 16.589)"/><rect class="i" width="56.618" height="1.694" transform="translate(0 20.753)"/><rect class="i" width="56.618" height="1.694" transform="translate(0 24.918)"/></g><rect class="aa" width="56.618" height="31.109" transform="translate(251.791 3.225)"/><rect class="k" width="308.409" height="3.225"/><rect class="k" width="2.644" height="31.11" transform="translate(0 3.225)"/><rect class="i" width="308.409" height="0.806"/><rect class="k" width="2.644" height="31.11" transform="translate(249.147 3.225)"/><rect class="k" width="2.644" height="31.11" transform="translate(305.765 3.225)"/><rect class="k" width="2.644" height="31.11" transform="translate(186.522 3.225)"/><rect class="k" width="2.644" height="31.11" transform="translate(123.897 3.225)"/><rect class="k" width="2.644" height="31.11" transform="translate(61.271 3.225)"/></g><g transform="translate(919.668 1005.583)"><g transform="translate(0 6.33)"><rect class="i" width="14.288" height="1.694"/><rect class="i" width="14.288" height="1.694" transform="translate(0 4.094)"/><rect class="i" width="14.288" height="1.694" transform="translate(0 8.259)"/><rect class="i" width="14.288" height="1.694" transform="translate(0 12.424)"/><rect class="i" width="14.288" height="1.694" transform="translate(0 16.589)"/><rect class="i" width="14.288" height="1.694" transform="translate(0 20.753)"/><rect class="i" width="14.288" height="1.694" transform="translate(0 24.918)"/></g><rect class="z" width="14.288" height="31.109" transform="translate(0 3.225)"/><g transform="translate(15.908 6.33)"><rect class="i" width="102.105" height="1.694"/><rect class="i" width="102.105" height="1.694" transform="translate(0 4.094)"/><rect class="i" width="102.105" height="1.694" transform="translate(0 8.259)"/><rect class="i" width="102.105" height="1.694" transform="translate(0 12.424)"/><rect class="i" width="102.105" height="1.694" transform="translate(0 16.589)"/><rect class="i" width="102.105" height="1.694" transform="translate(0 20.753)"/><rect class="i" width="102.105" height="1.694" transform="translate(0 24.918)"/></g><rect class="aa" width="102.105" height="31.109" transform="translate(15.908 3.225)"/><rect class="k" width="118.013" height="3.225"/><rect class="i" width="118.013" height="0.806"/><rect class="k" width="2.644" height="31.11" transform="translate(65.598 3.225)"/><rect class="k" width="2.644" height="31.11" transform="translate(115.369 3.225)"/><rect class="k" width="2.644" height="31.11" transform="translate(13.453 3.225)"/><rect class="k" width="2.644" height="31.11" transform="translate(0 3.225)"/></g><rect class="w" width="308.409" height="2.191" transform="translate(490.777 1039.918)"/><g transform="translate(718.96 841.585)"><rect class="v" width="167.821" height="18.452" transform="translate(95.565 70.083)"/><path class="ab" d="M1569.435,1120.331,1665,1190.414h167.821l-95.949-70.083Z" transform="translate(-1569.435 -1120.331)"/><path class="w" d="M1586.989,1120.331l102.443,74.876H1843.34l-102.828-74.876Z" transform="translate(-1579.802 -1120.331)"/><path class="x" d="M1821.2,1298.708l6.557,4.793v-7.189l-6.557-4.793Z" transform="translate(-1718.132 -1221.436)"/><rect class="k" width="153.908" height="7.189" transform="translate(109.63 74.876)"/><g transform="translate(19.035)"><path class="k" d="M1615.931,1120.331l100.2,74.876h2.165l-100.2-74.876Z" transform="translate(-1615.931 -1120.331)"/><path class="k" d="M1645.215,1120.331l100.2,74.876h2.165l-100.2-74.876Z" transform="translate(-1633.226 -1120.331)"/><path class="k" d="M1674.5,1120.331l100.2,74.876h2.165l-100.2-74.876Z" transform="translate(-1650.522 -1120.331)"/><path class="k" d="M1703.783,1120.331l100.2,74.876h2.165l-100.2-74.876Z" transform="translate(-1667.817 -1120.331)"/><path class="k" d="M1733.067,1120.331l100.2,74.876h2.165l-100.2-74.876Z" transform="translate(-1685.112 -1120.331)"/><path class="k" d="M1762.352,1120.331l100.2,74.876h2.165l-100.2-74.876Z" transform="translate(-1702.408 -1120.331)"/><path class="k" d="M1791.636,1120.331l100.2,74.876H1894l-100.2-74.876Z" transform="translate(-1719.703 -1120.331)"/><path class="k" d="M1820.92,1120.331l100.2,74.876h2.165l-100.2-74.876Z" transform="translate(-1736.999 -1120.331)"/><path class="k" d="M1850.2,1120.331l100.2,74.876h2.165l-100.2-74.876Z" transform="translate(-1754.294 -1120.331)"/><path class="k" d="M1879.488,1120.331l100.2,74.876h2.165l-100.2-74.876Z" transform="translate(-1771.59 -1120.331)"/><path class="k" d="M1908.772,1120.331l100.2,74.876h2.165l-100.2-74.876Z" transform="translate(-1788.885 -1120.331)"/><path class="k" d="M1938.056,1120.331l100.2,74.876h2.165l-100.2-74.876Z" transform="translate(-1806.18 -1120.331)"/><rect class="t" width="2.165" height="7.189" transform="translate(100.2 74.876)"/><rect class="t" width="2.165" height="7.189" transform="translate(112.188 74.876)"/><rect class="t" width="2.165" height="7.189" transform="translate(124.177 74.876)"/><rect class="t" width="2.165" height="7.189" transform="translate(136.166 74.876)"/><rect class="t" width="2.165" height="7.189" transform="translate(148.155 74.876)"/><rect class="t" width="2.165" height="7.189" transform="translate(160.143 74.876)"/><rect class="t" width="2.165" height="7.189" transform="translate(172.132 74.876)"/><rect class="t" width="2.165" height="7.189" transform="translate(184.121 74.876)"/><rect class="t" width="2.165" height="7.189" transform="translate(196.11 74.876)"/><rect class="t" width="2.165" height="7.189" transform="translate(208.098 74.876)"/><rect class="t" width="2.165" height="7.189" transform="translate(220.087 74.876)"/><rect class="t" width="2.165" height="7.189" transform="translate(232.076 74.876)"/></g></g><g transform="translate(900.093 1039.918)"><g transform="translate(8.794 0)"><rect class="w" width="128.794" height="2.191"/></g><g transform="translate(8.794 15.723)"><rect class="w" width="128.794" height="2.191"/></g><g transform="translate(5.156 2.191)"><rect class="k" width="132.433" height="13.532"/></g><rect class="t" width="0.87" height="13.5" transform="translate(103.473 2.223)"/><rect class="t" width="0.87" height="13.5" transform="translate(57.788 2.207)"/><rect class="x" width="8.794" height="2.191"/><rect class="x" width="8.794" height="2.191" transform="translate(0 15.723)"/><rect class="x" width="1.624" height="13.532" transform="translate(3.532 2.191)"/></g><g transform="translate(824.226 1039.918)"><rect class="m" width="83.171" height="7.586" transform="translate(28.179 0)"/><rect class="m" width="83.171" height="6.792" transform="translate(19.604 7.586)"/><rect class="m" width="83.171" height="6.792" transform="translate(11.03 14.378)"/><rect class="m" width="83.171" height="6.792" transform="translate(2.455 21.169)"/><rect class="i" width="83.171" height="7.586" transform="translate(25.723 0)"/><rect class="ac" width="83.171" height="6.792" transform="translate(17.149 7.586)"/><rect class="i" width="83.171" height="6.792" transform="translate(8.574 14.378)"/><rect class="ac" width="83.171" height="6.792" transform="translate(0 21.169)"/><rect class="m" width="11.03" height="1.963" transform="translate(100.32 7.586)"/><rect class="m" width="11.03" height="1.963" transform="translate(91.745 14.378)"/><rect class="m" width="11.03" height="1.963" transform="translate(83.171 21.169)"/></g><g transform="translate(854.263 857.637)"><path class="t" d="M1901.423,1159.541l38.873,29.468,4.124-28.982-.641-.485Z" transform="translate(-1900.812 -1159.541)"/><path class="x" d="M1996.375,1189.708l7.654,5.8h8.729l3.274-23.009-15.533-11.775Z" transform="translate(-1956.892 -1160.241)"/><path class="t" d="M2036.392,1212.5h33.627l-30.354-23.01Z" transform="translate(-1980.526 -1177.227)"/><path class="e" d="M1918.607,1164.558l32.26,24.445,3.333-23.426-1.344-1.019Z" transform="translate(-1910.961 -1162.504)"/><path class="r" d="M1997.407,1190.473l8.906,6.749h7.342l2.618-18.4-15.534-11.77Z" transform="translate(-1957.501 -1163.974)"/><path class="f" d="M2037.095,1214.2H2064l-24.288-18.4Z" transform="translate(-1980.941 -1180.954)"/><path class="ab" d="M1899.931,1162.464l39.054,29.564.43-3.02-38.867-29.467Z" transform="translate(-1899.931 -1159.541)"/><path class="ab" d="M1995.326,1234.538l7.255,5.492.829-2.709-7.654-5.8Z" transform="translate(-1956.272 -1202.051)"/><path class="ad" d="M2013.046,1248.4h9.172l.385-2.709h-8.729Z" transform="translate(-1966.738 -1210.422)"/><path class="ad" d="M2035.451,1248.4h33.388l.829-2.709h-33.831Z" transform="translate(-1979.97 -1210.422)"/></g><g transform="translate(490.777 1042.109)"><path class="ae" d="M1136.783,1624.641l65.783,65.707h15.393v-23.854H1432.22l-22.747-25.886v-13.736l-15.338-16.733Z" transform="translate(-1085.726 -1610.139)"/><rect class="i" width="308.409" height="14.502"/><rect class="v" width="57.051" height="14.502" transform="translate(251.358)"/></g><g transform="translate(795.782 857.637)"><path class="t" d="M1758.575,1159.541l38.873,29.468,4.124-28.982-.64-.485Z" transform="translate(-1757.964 -1159.541)"/><path class="x" d="M1853.528,1189.708l7.654,5.8h8.729l3.274-23.009-15.533-11.775Z" transform="translate(-1814.044 -1160.241)"/><path class="t" d="M1893.545,1212.5h33.627l-30.353-23.01Z" transform="translate(-1837.678 -1177.227)"/><path class="e" d="M1775.76,1164.558,1808.02,1189l3.333-23.426-1.345-1.019Z" transform="translate(-1768.114 -1162.504)"/><path class="r" d="M1854.559,1190.473l8.906,6.749h7.342l2.618-18.4-15.534-11.77Z" transform="translate(-1814.653 -1163.974)"/><path class="f" d="M1894.248,1214.2h26.906l-24.288-18.4Z" transform="translate(-1838.094 -1180.954)"/><path class="ab" d="M1757.083,1162.464l39.054,29.564.43-3.02-38.867-29.467Z" transform="translate(-1757.083 -1159.541)"/><path class="ab" d="M1852.478,1234.538l7.254,5.492.829-2.709-7.654-5.8Z" transform="translate(-1813.424 -1202.051)"/><path class="ad" d="M1870.2,1248.4h9.172l.385-2.709h-8.729Z" transform="translate(-1823.89 -1210.422)"/><path class="ad" d="M1892.6,1248.4h33.388l.829-2.709h-33.831Z" transform="translate(-1837.122 -1210.422)"/></g><path class="af" d="M1454.963,1700.787l-103.129,101.042h610.64a53.11,53.11,0,0,0,53.11-53.11v-64.362h-520.53A57.127,57.127,0,0,0,1454.963,1700.787Z" transform="translate(-721.959 -611.864)"/><path class="j" d="M1273.1,1880.053h638.315a57.666,57.666,0,0,0,57.666-57.666v-64.628h-390.4a57.308,57.308,0,0,0-40.524,16.786l-76.749,76.78-184.946,1.934Z" transform="translate(-675.46 -655.216)"/><rect class="m" width="322.843" height="4.699" transform="translate(765.39 1067.879)"/><g transform="translate(778.705 1082.357)"><path class="ag" d="M1718.089,1842.809h84.106L1864.376,1786h-84.106Z" transform="translate(-1716.976 -1754.249)"/><path class="f" d="M1896.168,1768.274h0c-3.1,0-5.611,3.034-5.611,6.777v35.012c0,3.743,2.512,6.777,5.611,6.777h0c3.1,0,5.612-3.034,5.612-6.777v-35.012C1901.779,1771.308,1899.267,1768.274,1896.168,1768.274Z" transform="translate(-1818.837 -1743.782)"/><path class="e" d="M1888.512,1712.169h10.277l-11.512,10.541-.438,3.738,15.594-14.279h22.731l-25.462,23.314h-13.922l-.408,3.484H1895.9l-11.789,10.794-.438,3.737,15.871-14.531h22.731l-25.462,23.314h-14.169l-.389,3.327h15.825l62.426-57.16h-71.556Zm63.029,0-25.462,23.314h-22.732l25.462-23.314Z" transform="translate(-1813.932 -1708.449)"/><path class="f" d="M1884.233,1797.526l-1.029,8.783h14.168l25.462-23.314H1900.1Z" transform="translate(-1814.494 -1752.476)"/><path class="f" d="M1886.787,1793.789l11.789-10.794h-10.524Z" transform="translate(-1816.61 -1752.476)"/><path class="f" d="M1933.778,1740.85h22.731l25.462-23.314H1959.24Z" transform="translate(-1844.364 -1713.816)"/><path class="f" d="M1891.93,1731.814l-1.058,9.036h13.921l25.462-23.314h-22.731Z" transform="translate(-1819.023 -1713.816)"/><path class="f" d="M1894.527,1728.077l11.512-10.541h-10.277Z" transform="translate(-1821.181 -1713.816)"/><path class="q" d="M1715.447,1765.609h68.289l.389-3.327h-8.563l9.592-8.783.438-3.737-13.674,12.52h-22.731l25.462-23.314h12.207l.408-3.484h-8.81l9.868-9.036.438-3.738-13.95,12.773h-22.732l25.462-23.314H1790l.436-3.72h-12.558Zm55.558-26.641-25.462,23.314h-22.732l25.462-23.314Z" transform="translate(-1715.416 -1708.449)"/><path class="r" d="M1870.851,1827.272l1.029-8.783-9.592,8.783Z" transform="translate(-1802.141 -1773.44)"/><path class="r" d="M1797.862,1806.309h22.731l13.674-12.52,1.264-10.794h-12.207Z" transform="translate(-1764.09 -1752.476)"/><path class="r" d="M1733.436,1806.309h22.731l25.462-23.314H1758.9Z" transform="translate(-1726.04 -1752.476)"/><path class="r" d="M1878.162,1761.448l1.058-9.036-9.868,9.036Z" transform="translate(-1806.313 -1734.414)"/><path class="r" d="M1804.926,1740.85h22.731l13.95-12.773,1.235-10.541h-12.454Z" transform="translate(-1768.263 -1713.816)"/><path class="r" d="M1920.81,1765.609l1.113,4.391,62.182-56.813-.828-4.737Z" transform="translate(-1836.704 -1708.449)"/><path class="f" d="M1715.37,1848.069l1.113,4.391h84.105l-1.113-4.391Z" transform="translate(-1715.37 -1790.91)"/></g><g transform="translate(904.33 1082.357)"><path class="ag" d="M2024.946,1842.809h84.106L2171.234,1786h-84.106Z" transform="translate(-2023.833 -1754.249)"/><path class="f" d="M2203.025,1768.274h0c-3.1,0-5.611,3.034-5.611,6.777v35.012c0,3.743,2.512,6.777,5.611,6.777h0c3.1,0,5.611-3.034,5.611-6.777v-35.012C2208.636,1771.308,2206.124,1768.274,2203.025,1768.274Z" transform="translate(-2125.694 -1743.782)"/><path class="e" d="M2195.37,1712.169h10.277l-11.512,10.541-.438,3.738,15.594-14.279h22.731l-25.462,23.314h-13.921l-.408,3.484h10.524l-11.788,10.794-.438,3.737,15.87-14.531h22.732l-25.462,23.314H2189.5l-.39,3.327h15.825l62.426-57.16h-71.557Zm63.028,0-25.462,23.314H2210.2l25.462-23.314Z" transform="translate(-2120.79 -1708.449)"/><path class="f" d="M2191.091,1797.526l-1.029,8.783h14.169l25.462-23.314h-22.732Z" transform="translate(-2121.351 -1752.476)"/><path class="f" d="M2193.644,1793.789l11.789-10.794h-10.524Z" transform="translate(-2123.467 -1752.476)"/><path class="f" d="M2240.635,1740.85h22.731l25.462-23.314H2266.1Z" transform="translate(-2151.22 -1713.816)"/><path class="f" d="M2198.787,1731.814l-1.058,9.036h13.922l25.462-23.314h-22.731Z" transform="translate(-2125.88 -1713.816)"/><path class="f" d="M2201.384,1728.077l11.512-10.541h-10.278Z" transform="translate(-2128.038 -1713.816)"/><path class="q" d="M2022.3,1765.609h68.29l.389-3.327h-8.563l9.592-8.783.438-3.737-13.674,12.52h-22.731l25.462-23.314h12.207l.408-3.484h-8.81l9.868-9.036.438-3.738-13.95,12.773h-22.732l25.462-23.314h12.454l.436-3.72H2084.73Zm55.558-26.641-25.462,23.314h-22.732l25.462-23.314Z" transform="translate(-2022.273 -1708.449)"/><path class="r" d="M2177.708,1827.272l1.029-8.783-9.592,8.783Z" transform="translate(-2108.998 -1773.44)"/><path class="r" d="M2104.719,1806.309h22.731l13.674-12.52,1.264-10.794h-12.207Z" transform="translate(-2070.947 -1752.476)"/><path class="r" d="M2040.293,1806.309h22.731l25.462-23.314h-22.731Z" transform="translate(-2032.897 -1752.476)"/><path class="r" d="M2185.019,1761.448l1.058-9.036-9.869,9.036Z" transform="translate(-2113.17 -1734.414)"/><path class="r" d="M2111.783,1740.85h22.732l13.95-12.773,1.235-10.541h-12.454Z" transform="translate(-2075.119 -1713.816)"/><path class="r" d="M2227.667,1765.609l1.113,4.391,62.182-56.813-.828-4.737Z" transform="translate(-2143.561 -1708.449)"/><path class="f" d="M2022.227,1848.069l1.113,4.391h84.105l-1.113-4.391Z" transform="translate(-2022.227 -1790.91)"/></g><g transform="translate(869.871 928.57)"><rect class="i" width="188.057" height="14.502" transform="translate(0 0.076)"/><path class="v" d="M2237.613,1347.505l98.05-.152V1332.8l-98.05.152Z" transform="translate(-2114.977 -1332.804)"/><path class="ae" d="M1965.261,1333.176l14.536,14.5h-41.741v-14.5Z" transform="translate(-1938.056 -1333.024)"/><rect class="i" width="13.44" height="124.807" transform="translate(167.81 14.502)"/><rect class="v" width="6.72" height="124.807" transform="translate(181.336 14.502)"/></g><g transform="translate(387.601 1178.964)"><path class="ah" d="M760.046,2003.4v341.516H924.018v-335.2A38.422,38.422,0,0,1,962.44,1971.3H774.391A43,43,0,0,0,760.046,2003.4Z" transform="translate(-760.046 -1960.297)"/><path class="ai" d="M823.847,1944.425a42.944,42.944,0,0,0-28.762,11H1016.15v-11h-192.3Z" transform="translate(-780.74 -1944.425)"/></g><path class="af" d="M0,0H63.484a0,0,0,0,1,0,0V178.852a0,0,0,0,1,0,0h0A63.484,63.484,0,0,1,0,115.368V0A0,0,0,0,1,0,0Z" transform="translate(298.329 1172.738)"/><g transform="translate(541.835 1189.965)"><path class="j" d="M1211.621,2054.409h-74.838v181.21h45.566a29.272,29.272,0,0,0,29.272-29.273v-10.485a26.2,26.2,0,0,1,26.2-26.2h460.31a38.746,38.746,0,0,0,38.746-38.746v-76.508Z" transform="translate(-1136.783 -2020.384)"/><path class="y" d="M1190.745,1971.3h-25.017a28.945,28.945,0,0,0-28.945,28.945v187.138h25.305a28.657,28.657,0,0,0,28.657-28.657V2019.664a36.74,36.74,0,0,1,36.74-36.739h372.686V1971.3Z" transform="translate(-1136.783 -1971.298)"/></g><g transform="translate(580.758 1056.611)"><rect class="i" width="13.44" height="133.354" transform="translate(0 0)"/><rect class="v" width="6.72" height="133.354" transform="translate(13.526 0)"/></g><path class="aj" d="M0,0H22.006V157.5H0Z" transform="translate(551.573 1406.089)"/><g transform="translate(387.139 1443.253)"><g transform="translate(83.472 78.391)"><path class="i" d="M1004.75,2781.47a41.942,41.942,0,0,0-41.942,41.942h83.884A41.942,41.942,0,0,0,1004.75,2781.47Z" transform="translate(-962.808 -2781.47)"/></g><g transform="translate(0 90.058)"><path class="i" d="M789.192,2809.967a30.275,30.275,0,0,0-30.276,30.275h60.551A30.275,30.275,0,0,0,789.192,2809.967Z" transform="translate(-758.916 -2809.967)"/></g><g transform="translate(164.434 96.749)"><path class="i" d="M1184.154,2826.311a23.584,23.584,0,0,0-23.584,23.584h47.168A23.584,23.584,0,0,0,1184.154,2826.311Z" transform="translate(-1160.57 -2826.311)"/></g><g transform="translate(50.794 101.451)"><path class="i" d="M901.87,2837.8a18.882,18.882,0,0,0-18.882,18.882h37.764A18.882,18.882,0,0,0,901.87,2837.8Z" transform="translate(-882.988 -2837.797)"/></g><path class="i" d="M1057.924,2633.7a5.083,5.083,0,1,0,5.083,5.082A5.082,5.082,0,0,0,1057.924,2633.7Z" transform="translate(-932.51 -2615.807)"/><path class="i" d="M933.675,2589.989a5.083,5.083,0,1,0,5.083,5.083A5.083,5.083,0,0,0,933.675,2589.989Z" transform="translate(-859.128 -2589.989)"/><path class="i" d="M966.111,2708.628a6.817,6.817,0,1,0,6.816,6.817A6.816,6.816,0,0,0,966.111,2708.628Z" transform="translate(-877.261 -2660.058)"/><circle class="i" cx="10.05" cy="10.05" r="10.05" transform="translate(74.547 68.341)"/><circle class="i" cx="10.05" cy="10.05" r="10.05" transform="translate(144.646 68.341)"/><circle class="i" cx="14.974" cy="14.974" r="14.974" transform="translate(5.749 93.32) rotate(-89.827)"/></g><path class="i" d="M6.251,0h388.8A6.251,6.251,0,0,1,401.3,6.251v0a6.251,6.251,0,0,1-6.251,6.251H6.251A6.251,6.251,0,0,1,0,6.251v0A6.251,6.251,0,0,1,6.251,0Z" transform="translate(271.085 1563.586)"/><path class="ai" d="M1005.009,2006.878h0a5.264,5.264,0,0,0,5.248-5.339l-.112-7.822c-.129-45.2,46.836-45.333,46.836-45.333l-10.528.03s-46.965.252-46.836,45.333l.114,7.943A5.263,5.263,0,0,0,1005.009,2006.878Z" transform="translate(-513.936 -767.8)"/><path class="ai" d="M1068.529,2059.792h0a7.788,7.788,0,0,0,7.772-7.81l-.166-58.266c-.129-45.2,46.836-45.333,46.836-45.333l-15.575.03s-46.964.252-46.835,45.333l.166,58.28A7.787,7.787,0,0,0,1068.529,2059.792Z" transform="translate(-549.931 -767.8)"/><g transform="translate(390.582 1180.584)"><path class="ai" d="M932.75,2113.011h0a14.958,14.958,0,0,0,14.942-14.981l-.165-104.313c-.129-45.2,46.836-45.333,46.836-45.333l-29.915.03s-46.964.252-46.836,45.333l.165,104.33A14.957,14.957,0,0,0,932.75,2113.011Z" transform="translate(-856.087 -1948.384)"/><path class="ai" d="M772.749,2015.069h0a5.264,5.264,0,0,0,5.249-5.311l-.142-16.041c-.129-45.2,46.836-45.333,46.836-45.333l-10.528.03s-46.964.252-46.836,45.333l.142,16.1A5.264,5.264,0,0,0,772.749,2015.069Z" transform="translate(-767.328 -1948.384)"/></g><g transform="translate(651.992 1156.211)"><path class="ak" d="M1443.059,1888.848l-37.2,33.75H1486.4l-23.333-29.446h37.409l-4.744-4.3Z" transform="translate(-1405.857 -1888.848)"/><path class="b" d="M1545.607,1899.361l23.333,29.447h21.018v-23.148l-6.942-6.3Z" transform="translate(-1488.394 -1895.057)"/></g></g></svg>