<svg xmlns="http://www.w3.org/2000/svg" xmlns:xlink="http://www.w3.org/1999/xlink" width="1600" height="1014.359" viewBox="0 0 1600 1014.359"><defs><style>.a,.w{fill:none;}.b{fill:#00a864;}.c,.v{isolation:isolate;}.d{fill:#038bb1;}.e{clip-path:url(#a);}.f{fill:#949494;}.g{fill:#999;}.h{fill:#9e9e9e;}.i{fill:#a3a3a3;}.j{fill:#a8a8a8;}.k{fill:#adadad;}.l{fill:#b3b3b3;}.m{fill:#b8b8b8;}.n{fill:#008006;}.o{fill:#00aed6;}.p{fill:#4fc8ed;}.q{fill:#c5c5c5;}.r{fill:#e5e5e5;}.s,.x{fill:#fff;}.t{fill:#00bef3;}.u{fill:#2f4595;}.v{fill:#606060;opacity:0.5;mix-blend-mode:multiply;}.w{stroke:#fff;stroke-dasharray:5;}.x{font-size:27px;font-family:OpenSans-Bold, Open Sans;font-weight:700;}</style><clipPath id="a"><path class="a" d="M182.023,383.081c-.007,2.468-1.631,4.928-4.885,6.821L178.18,24.031c3.247-1.893,4.878-4.354,4.878-6.821C182.754,126.971,182.335,273.319,182.023,383.081Z" transform="translate(-177.138 -17.21)"/></clipPath></defs><g transform="translate(932 -5643.537)"><path class="b" d="M431,0c210.25-85.267,738,0,738,0,238.035,0,431,192.965,431,431v76c0,238.035-192.965,431-431,431,0,0-269.992,94.686-562.242-13.064S0,745.035,0,507V431c0-144.724,218.4-11.639,328-89.933C398.368,290.8,220.75,85.267,431,0Z" transform="translate(668 6620) rotate(180)"/><g transform="translate(57.313 5739.806)"><g transform="translate(0 0)"><g transform="translate(0)"><g class="c"><g transform="translate(252.535 11.524)"><path class="d" d="M218.325,35.8l-1.037,365.872L177.837,378.9l1.037-365.873Z" transform="translate(-177.837 -13.022)"/></g><g transform="translate(228.779 8.656)"><path class="d" d="M203.694,13.618c-.312-.085-.638-.156-.957-.234l-.241-.057c-.191-.043-.376-.1-.567-.142-.546-.113-1.106-.206-1.666-.291-.539-.071-1.085-.135-1.631-.177s-1.1-.078-1.652-.092c-.227,0-.461-.007-.695-.007-.34,0-.681.007-1.021.014q-.925.032-1.851.128c-.716.071-1.432.17-2.134.3-.312.057-.6.156-.908.22-.27.057-.511.128-.773.191-.468.121-.964.206-1.418.355a18.58,18.58,0,0,0-3.744,1.638L183.4,381.332a20.344,20.344,0,0,1,5.162-1.992c.255-.064.51-.128.766-.184a27.749,27.749,0,0,1,5.92-.666,28.109,28.109,0,0,1,6.2.709l.241.057a20.619,20.619,0,0,1,5.46,2.106L208.2,15.49a18.321,18.321,0,0,0-2.46-1.184C205.077,14.05,204.4,13.816,203.694,13.618Z" transform="translate(-183.401 -12.618)"/><path class="d" d="M183.137,22.985c-.064-2.446-1.716-4.878-4.956-6.75l-1.042,365.871c3.247,1.872,4.9,4.311,4.963,6.75v.163l1.035-365.871Z" transform="translate(-113.933 9.411)"/></g><g class="c" transform="translate(292.062 41.215)"><g class="e" transform="translate(0)"><g class="c"><path class="f" d="M178.173,17.21l-1.035,365.871v.149l1.035-365.871V17.21" transform="translate(-172.253 -17.21)"/><path class="g" d="M178.287,17.231,177.251,383.1a5.524,5.524,0,0,1-.113.957L178.18,18.188a5.511,5.511,0,0,0,.106-.957" transform="translate(-172.366 -17.082)"/><path class="h" d="M178.465,17.366l-1.042,365.871a5.016,5.016,0,0,1-.269.936L178.2,18.3a6.649,6.649,0,0,0,.269-.936" transform="translate(-172.65 -16.26)"/><path class="i" d="M178.673,17.5l-1.042,365.871a5.753,5.753,0,0,1-.44.95l1.035-365.871a6.776,6.776,0,0,0,.447-.95" transform="translate(-173.128 -15.456)"/><path class="j" d="M178.963,17.632,177.928,383.5a7.971,7.971,0,0,1-.674,1L178.3,18.625a7.816,7.816,0,0,0,.667-.993" transform="translate(-173.865 -14.64)"/><path class="k" d="M179.426,17.772,178.383,383.65a9.4,9.4,0,0,1-1.035,1.113l1.035-365.871a10.167,10.167,0,0,0,1.042-1.12" transform="translate(-174.994 -13.787)"/><path class="l" d="M180.65,17.93,179.615,383.8a12.661,12.661,0,0,1-2.12,1.574L178.53,19.5a12.76,12.76,0,0,0,2.12-1.574" transform="translate(-177.261 -12.825)"/><path class="m" d="M179.063,18.152l-1.035,365.871-.234.142,1.042-365.871.227-.142" transform="translate(-177.794 -11.473)"/></g></g></g><path class="d" d="M184.732,20.471c-.036.121-.057.234-.1.355a13.358,13.358,0,0,1-1.51,2.95c-.113.17-.227.347-.355.518a17.4,17.4,0,0,1-2.51,2.772,25.541,25.541,0,0,1-2.226,1.652c-.659.468-1.219.964-1.964,1.4l-1.035,365.871.383-.227c.61-.369,1.042-.787,1.581-1.17a25.769,25.769,0,0,0,2.219-1.645c.064-.057.156-.1.213-.156a18.685,18.685,0,0,0,1.964-2.113c.128-.17.22-.34.34-.5s.234-.355.355-.525c.191-.291.418-.574.581-.865a12.98,12.98,0,0,0,.844-1.808c.035-.092.05-.184.085-.277.035-.12.057-.234.1-.354a9.031,9.031,0,0,0,.539-2.978l.007-.277,1.035-365.871A11.264,11.264,0,0,1,184.732,20.471Z" transform="translate(127.637 24.042)"/><g transform="translate(22.466 11.496)"><path class="d" d="M394.1,13.019l-1.037,365.873-206.315,119.9,1.037-365.873Z" transform="translate(-186.751 -13.019)"/></g><g transform="translate(0 132.165)"><path class="n" d="M220.1,30.837l-1.037,365.872-.052-.8,1.037-365.873Z" transform="translate(-219.01 -30.037)"/></g><g transform="translate(10.602 131.393)"><path class="d" d="M228.749,29.928,227.712,395.8l-11.863,6.893,1.037-365.873Z" transform="translate(-215.849 -29.928)"/></g><g transform="translate(9.269 138.287)"><path class="o" d="M219.892,30.9l-1.037,365.873h-1.333L218.559,30.9Z" transform="translate(-217.522 -30.9)"/></g><g transform="translate(0.052 132.965)"><path class="p" d="M227.965,35.471l-1.037,365.873-9.218-5.322L218.747,30.15Z" transform="translate(-217.71 -30.15)"/></g><g transform="translate(85.749 48.033)"><path class="q" d="M385.178,18.172l-1.037,365.873-206.315,119.9,1.037-365.872Z" transform="translate(-177.826 -18.172)"/></g><g transform="translate(22.466 146.354)"><path class="r" d="M271.244,68.575l-1.037,332.643-63.283-36.537L207.96,32.038Z" transform="translate(-206.924 -32.038)"/></g><g transform="translate(23.501 23.617)"><path class="s" d="M445.181,39.516c3.694,2.134,5.843,4.829,6.438,7.608.064,2.524-1.56,5.048-4.878,6.984L240.421,174l-63.283-36.537L383.451,17.571A24.031,24.031,0,0,1,395.3,14.728a31.159,31.159,0,0,1,13.394,3.723Z" transform="translate(-177.138 -14.728)"/></g><g transform="translate(73.886 174.823)"><path class="n" d="M209.678,36.853l-1.037,365.873-.052-.8,1.037-365.873Z" transform="translate(-208.589 -36.053)"/></g><g transform="translate(84.489 54.154)"><path class="t" d="M395.546,19.035l-1.037,365.873L176.331,511.7l1.037-365.872Z" transform="translate(-176.331 -19.035)"/></g><g transform="translate(1.038)"><path class="p" d="M477.549,39.573c12.423,7.169,12.486,18.811.149,25.98L259.523,192.345H258.19l-9.218-5.325-.057-.8,11.862-6.892L467.1,59.434c3.318-1.936,4.942-4.467,4.878-6.984-.064-2.446-1.716-4.878-4.956-6.75L427.568,22.925a24.409,24.409,0,0,0-11.912-2.872A24.031,24.031,0,0,0,403.808,22.9L197.495,142.79l-11.863,6.892H184.3l-9.218-5.318-.05-.8L393.208,16.77C405.545,9.6,425.633,9.6,438.1,16.8Z" transform="translate(-175.032 -11.397)"/></g><g transform="translate(83.156 180.945)"><path class="d" d="M209.472,36.917l-1.037,365.872H207.1l1.037-365.872Z" transform="translate(-207.101 -36.917)"/></g><g transform="translate(73.938 175.623)"><path class="o" d="M217.544,41.488,216.507,407.36l-9.218-5.321,1.037-365.873Z" transform="translate(-207.289 -36.166)"/></g></g><g transform="translate(119.241 107.619)"><path class="u" d="M330.944,26.575,330.235,72.3l-149,86.591.708-45.722Z" transform="translate(-181.232 -26.575)"/></g><g transform="translate(163.976 361.826)"><path class="u" d="M241.474,26.575l-.285,18.4L181.232,79.816l.285-18.4Z" transform="translate(-181.232 -26.575)"/></g><g transform="translate(142.464 381.745)"><path class="s" d="M287.772,65.236l-.488,31.537L184.507,156.5,185,124.963Z" transform="translate(-184.507 -65.236)"/></g></g><g transform="translate(32.733 412.82)"><path class="v" d="M379.907,69.619l.069.052,5.724,4.3L179.765,195.716l-5.183-4.008Z" transform="translate(-102.333 -69.619)"/><path class="v" d="M214.245,80.236l-5.5,3.2L249.9,107.4V100.82Z" transform="translate(-208.743 -4.954)"/></g></g></g><line class="w" x2="274.452" transform="translate(230.119 5926.888)"/><line class="w" x2="381.788" transform="translate(230.119 6183.677)"/><line class="w" x2="241.844" transform="translate(279.031 6117.102)"/><text class="x" transform="translate(429 5913)"><tspan x="0" y="0">Titolo</tspan></text><text class="x" transform="translate(430 6103)"><tspan x="0" y="0">Autore</tspan></text><text class="x" transform="translate(440 6169)"><tspan x="0" y="0">Casa editrice</tspan></text></g></svg>