<svg xmlns="http://www.w3.org/2000/svg" width="761.59" height="760.948" viewBox="0 0 761.59 760.948"><defs><style>.a{fill:#dedb03;}.b{fill:#fff;}.c{fill:#c5c200;}</style></defs><g transform="translate(197.951 -1534.089)"><path class="a" d="M359.643,18.964C239.43-45.281,102.415,66.721,28.274,160.723s20.7,187.158,23.07,341.625C62.68,640.326,315.378,624.113,470.321,576.264c93.932-45.98,137.177-17.572,144.86-306.037C659.116,55,500.8,131.035,359.643,18.964Z" transform="translate(563.64 2138.879) rotate(172)"/><g transform="translate(-39.487 1570.983)"><g transform="translate(303.023 203.811)"><path class="b" d="M288.685,283.106H218.541v5.758h70.144c4,0,5.793,4.948,8.191,8.239s2.829,9.99,14.8,12.168C301.232,305.786,301.448,283.106,288.685,283.106Z" transform="translate(-218.541 -159.562)"/><path class="b" d="M308.417,245.114c1.74,8.275-12.413,22.929-19.732,22.929H218.541V273.8h70.144C302.487,272.437,311.68,256.869,308.417,245.114Z" transform="translate(-218.541 -180.763)"/><g transform="translate(0 49.515)"><path class="b" d="M290.446,265.505c9.847.642,20.078-5.2,23.539-13.625-2.8,5.749-15,8.8-23.288,8.019-.089,1.405-.153,2.857-.195,4.369C290.486,264.687,290.468,265.1,290.446,265.505Z" transform="translate(-178.416 -226.503)"/><path class="b" d="M327.352,288.091c.109-.229.217-.455.315-.69.22-.5.43-1.021.629-1.549.084-.232.173-.458.255-.69a38,38,0,0,0,2.019-10.568c.022-.408.04-.818.056-1.237.042-1.511.106-2.963.195-4.369,1.317-20.55,7.669-30.162,16.643-33.152-19.234-2.61-27,16.182-31.086,30.776-3.563,12.742-19.376,12.562-27.694,12.509v-.006H218.541v30.5h70.144C296.145,309.592,318.828,306.431,327.352,288.091Z" transform="translate(-218.541 -235.592)"/></g><path class="b" d="M358.787,296.5c-3.482,1.444-12.192,6.69-24.967-8.988s-35.71-18.293-45.134-18.064H218.541v12.083h70.144c26.578,0,35.964,11.78,41.507,17.088C336.071,304.236,346.014,309.864,358.787,296.5Z" transform="translate(-218.541 -167.194)"/><path class="b" d="M358.787,296.5c-3.482,1.444-12.192,6.69-24.967-8.988s-35.71-18.293-45.134-18.064H218.541v12.083h70.144c26.578,0,35.964,11.78,41.507,17.088C336.071,304.236,346.014,309.864,358.787,296.5Z" transform="translate(-218.541 -167.194)"/><path class="b" d="M258.577,306.074a4.761,4.761,0,1,0,4.757,4.763A4.761,4.761,0,0,0,258.577,306.074Z" transform="translate(-198.856 -146.746)"/><path class="b" d="M280.4,281.594a4.758,4.758,0,1,0,4.76,4.757A4.758,4.758,0,0,0,280.4,281.594Z" transform="translate(-186.676 -160.406)"/><path class="b" d="M266.978,246.035a4.76,4.76,0,1,0,4.757,4.76A4.759,4.759,0,0,0,266.978,246.035Z" transform="translate(-194.17 -180.249)"/><path class="b" d="M296.712,265.331a4.758,4.758,0,1,0,4.757,4.757A4.76,4.76,0,0,0,296.712,265.331Z" transform="translate(-177.576 -169.481)"/><path class="b" d="M286.264,289.853s-.43,5.078-3.686,7.231c-2.61,1.729-6.15,1.186-7.482.852l8.522-6.483-9.241,5.4c.254-1.488,1.3-4.782,3.794-6.428C281.425,288.266,286.264,289.853,286.264,289.853Z" transform="translate(-187.382 -156.112)"/><path class="b" d="M289.056,240.318s-.433,5.076-3.686,7.225c-2.613,1.729-6.153,1.189-7.482.852l8.522-6.483-9.241,5.4c.254-1.485,1.3-4.779,3.794-6.425C284.215,238.729,289.056,240.318,289.056,240.318Z" transform="translate(-185.824 -183.754)"/><path class="b" d="M308.526,279.253s-.432,5.079-3.688,7.225c-2.614,1.733-6.15,1.189-7.482.855l8.518-6.483-9.238,5.4c.256-1.488,1.3-4.778,3.794-6.427C303.687,277.664,308.526,279.253,308.526,279.253Z" transform="translate(-174.961 -162.027)"/><path class="b" d="M313.463,242.649s2.061,4.662.241,8.111c-1.457,2.773-4.821,4-6.146,4.344l4.35-9.781-5.5,9.171c-.494-1.421-1.158-4.814.235-7.457C308.453,243.587,313.463,242.649,313.463,242.649Z" transform="translate(-169.844 -182.138)"/><path class="b" d="M271.084,236.7s5.049.672,7.045,4.02c1.609,2.689.9,6.2.506,7.51l-6.079-8.808,4.958,9.479c-1.469-.321-4.71-1.524-6.24-4.087C269.275,241.467,271.084,236.7,271.084,236.7Z" transform="translate(-189.639 -185.456)"/><path class="b" d="M308.184,249.158s-5.059.6-7.821-2.15c-2.222-2.212-2.407-5.783-2.346-7.153l8.074,7.033-7.154-7.962c1.51-.048,4.944.312,7.061,2.417C308.764,244.1,308.184,249.158,308.184,249.158Z" transform="translate(-174.197 -184.218)"/><path class="b" d="M312.509,302.841s-5.056.6-7.818-2.15c-2.223-2.209-2.41-5.783-2.348-7.154l8.071,7.031-7.151-7.955c1.508-.051,4.945.307,7.059,2.416C313.087,297.779,312.509,302.841,312.509,302.841Z" transform="translate(-171.783 -154.26)"/><path class="b" d="M329.249,347.754s-28.138,6.584-41.514-6.693c-10.741-10.671-9.442-30.124-8.217-37.676l19.784,14-14.13-19.67c8.292-1.253,26.909-1.507,37.154,8.658C335.7,319.649,329.249,347.754,329.249,347.754Z" transform="translate(-184.962 -151.751)"/><path class="b" d="M340.917,308.352s-13.667,7.078-22.306,1.974c-6.941-4.1-8.814-14.317-9.169-18.371l12.04,4.635-9.862-8.3c4.113-1.733,13.69-4.3,20.307-.386C340.567,293,340.917,308.352,340.917,308.352Z" transform="translate(-167.816 -158.032)"/><path class="b" d="M281.393,343.149s-17.4-7.659-19.182-19.93c-1.435-9.859,6.941-19.577,10.568-23.065l4.869,15.183L278,299.406c4.853,2.624,14.742,9.851,16.115,19.243C295.9,330.92,281.393,343.149,281.393,343.149Z" transform="translate(-194.263 -150.467)"/><path class="b" d="M256.826,310.419s-3.883-9.568.064-15.027c3.169-4.381,10.11-5,12.846-4.986l-3.845,7.759,6.159-6.073c.9,2.856,2.019,9.412-1,13.594C267.106,311.14,256.826,310.419,256.826,310.419Z" transform="translate(-198.129 -155.489)"/><path class="b" d="M251.961,229.708s11.269-4.939,17.894-.418c5.324,3.635,6.29,11.88,6.36,15.139l-9.367-4.328,7.44,7.139c-3.376,1.164-11.148,2.716-16.222-.748C251.439,241.972,251.961,229.708,251.961,229.708Z" transform="translate(-199.897 -190.657)"/><path class="b" d="M282.128,214.222s15.382,7.937,15.65,18.149c.21,8.211-8.725,15.359-12.516,17.868l-2.817-12.894-2.142,13c-4.236-2.607-12.656-9.471-12.858-17.3C267.18,222.839,282.128,214.222,282.128,214.222Z" transform="translate(-191.253 -198.001)"/><path class="b" d="M352,217.972s2.731,26.092-10.436,35.866c-10.585,7.851-27.6,3.574-34.124,1.273l14.505-15.365-18.89,9.421c-.2-7.58,1.614-24.187,11.7-31.672C327.92,207.72,352,217.972,352,217.972Z" transform="translate(-171.388 -198.532)"/><path class="b" d="M357.609,265.45s-.5,29.2-15.864,37.419c-12.349,6.607-29.987-1.348-36.662-5.12l17.526-14.111-21.434,6.742c.779-8.37,4.894-26.271,16.655-32.568C333.2,249.587,357.609,265.45,357.609,265.45Z" transform="translate(-172.428 -174.997)"/><path class="b" d="M320.405,203.816s11,19.181,4.185,30.662c-5.475,9.22-20.038,11.093-25.845,11.307l5.935-16.171-11.336,12.941c-2.738-5.752-7-19.034-1.787-27.826C298.368,203.25,320.405,203.816,320.405,203.816Z" transform="translate(-179.172 -203.811)"/></g><g transform="translate(67.146 277.113)"><path class="b" d="M76.471,250.859,92.81,277.11l16.378-26.251h9.326L96.845,284.751v22.3H88.813v-22.3L67.146,250.859Z" transform="translate(-67.146 -250.859)"/><path class="b" d="M101.985,260.139h7.68v34.01h21.512v-34.01h7.718v41.729h-7.718v-7.053a7.229,7.229,0,0,1-.784,2.744,8.1,8.1,0,0,1-1.7,2.253,7.9,7.9,0,0,1-2.37,1.508,7.338,7.338,0,0,1-2.822.548H109.665a7.446,7.446,0,0,1-2.977-.608,7.657,7.657,0,0,1-4.094-4.095,7.546,7.546,0,0,1-.608-3.016Z" transform="translate(-47.705 -245.681)"/><path class="b" d="M139.461,267.857v26.292h19.905V287.1h7.718v7.053a7.546,7.546,0,0,1-.608,3.016,7.657,7.657,0,0,1-4.094,4.095,7.546,7.546,0,0,1-3.016.608H139.461a7.446,7.446,0,0,1-2.977-.608,7.657,7.657,0,0,1-4.094-4.095,7.545,7.545,0,0,1-.608-3.016V267.857a7.539,7.539,0,0,1,.608-3.016,7.667,7.667,0,0,1,4.094-4.1,7.472,7.472,0,0,1,2.977-.606h19.905a7.571,7.571,0,0,1,3.016.606,7.667,7.667,0,0,1,4.094,4.1,7.54,7.54,0,0,1,.608,3.016v7.053h-7.718v-7.053Z" transform="translate(-31.078 -245.681)"/><path class="b" d="M168.2,267.857v26.292H188.11V287.1h7.718v7.053a7.546,7.546,0,0,1-.608,3.016,7.657,7.657,0,0,1-4.094,4.095,7.546,7.546,0,0,1-3.016.608H168.2a7.446,7.446,0,0,1-2.977-.608,7.657,7.657,0,0,1-4.095-4.095,7.546,7.546,0,0,1-.608-3.016V267.857a7.54,7.54,0,0,1,.608-3.016,7.667,7.667,0,0,1,4.095-4.1,7.471,7.471,0,0,1,2.977-.606H188.11a7.571,7.571,0,0,1,3.016.606,7.666,7.666,0,0,1,4.094,4.1,7.54,7.54,0,0,1,.608,3.016v7.053H188.11v-7.053Z" transform="translate(-15.038 -245.681)"/><path class="b" d="M189.27,283.648a7.407,7.407,0,0,1,.606-3,8.1,8.1,0,0,1,1.645-2.449,7.6,7.6,0,0,1,2.449-1.664,7.451,7.451,0,0,1,2.977-.609h19.905v-8.071H191.658v-7.718h25.195a7.566,7.566,0,0,1,3.016.606,7.676,7.676,0,0,1,4.1,4.1,7.565,7.565,0,0,1,.606,3.016v34.01h-7.718v-7.053a7.2,7.2,0,0,1-.784,2.744,8.1,8.1,0,0,1-1.7,2.253,7.882,7.882,0,0,1-2.371,1.508,7.324,7.324,0,0,1-2.82.548H196.948a7.452,7.452,0,0,1-2.977-.608,7.657,7.657,0,0,1-4.095-4.095,7.545,7.545,0,0,1-.606-3.016Zm7.678,10.5h19.905v-10.5H196.948Z" transform="translate(1.002 -245.681)"/></g></g><path class="c" d="M172.213,9.081C114.65-21.683,49.041,31.949,13.539,76.961s9.91,89.62,11.047,163.585c5.428,66.07,126.431,58.307,200.625,35.394,44.979-22.017,65.686-8.414,69.365-146.544C315.614,26.334,239.8,62.745,172.213,9.081Z" transform="translate(138 2253.543) rotate(172)"/></g></svg>