<svg xmlns="http://www.w3.org/2000/svg" xmlns:xlink="http://www.w3.org/1999/xlink" width="701.586" height="1062.543" viewBox="0 0 701.586 1062.543"><defs><style>.a{fill:#acacac;}.b{fill:none;}.c{fill:#dedb03;}.d{fill:#00bef3;}.e{isolation:isolate;}.f{fill:#01497c;}.g{fill:#051e2e;}.h{fill:#0f3352;}.i{fill:#013a62;}.j{fill:#082b42;}.k{fill:#015a9a;}.l{fill:#134169;}.m{fill:#014f87;}.n{clip-path:url(#a);}.o{fill:#fff;}.p{fill:#e6e6e6;}.q{fill:#fe534f;}.r{fill:#a1e2e7;}.s{fill:#ff6845;}.t{fill:#ff9f69;}.u{fill:#fb3;}.v{fill:#ffd56c;}.w{fill:#04a390;}.x{fill:#06bca1;}.y{fill:#71c9ff;}.z{opacity:0.39;}.aa{fill:#cfe8ff;}.ab{fill:#5e70dd;}.ac{fill:#403e4c;}.ad{fill:#626170;}.ae{fill:#aaaad5;}.af{fill:#8e8ebf;}.ag{clip-path:url(#b);}.ah{fill:#737373;}.ai{clip-path:url(#c);}.aj{clip-path:url(#d);}.ak{clip-path:url(#e);}.al{fill:#4dd8ff;}.am{clip-path:url(#f);}.an{clip-path:url(#g);}.ao{fill:#95e8ff;}</style><clipPath id="a"><path class="a" d="M62.451,122.913,65.3,182.549a3.641,3.641,0,0,1-2.129,2.984,11.432,11.432,0,0,1-10.36,0,3.666,3.666,0,0,1-2.161-3.026l3.007-59.622a2.188,2.188,0,0,0,1.3,1.813,6.825,6.825,0,0,0,6.219,0A2.185,2.185,0,0,0,62.451,122.913Z" transform="translate(-50.65 -122.885)"/></clipPath><clipPath id="b"><path class="b" d="M411.369,316.117l5.122-2.974c21.39-9.407,48.558-5.7,76.514,10.44l-5.122,2.967C459.934,310.415,432.766,306.722,411.369,316.117Z" transform="translate(-411.369 -308.05)"/></clipPath><clipPath id="c"><path class="b" d="M423.513,313.482l5.122-2.967c27.571,15.915,54.424,43.133,75.581,76.658l-5.122,2.968C477.931,356.622,451.091,329.41,423.513,313.482Z" transform="translate(-423.513 -310.515)"/></clipPath><clipPath id="d"><path class="b" d="M415.49,323.577l5.129-2.974c14.069-6.219,31.975-3.78,50.417,6.868l-5.122,2.974C447.465,319.809,429.572,317.365,415.49,323.577Z" transform="translate(-415.49 -317.232)"/></clipPath><clipPath id="e"><path class="b" d="M423.493,321.831l5.122-2.974c18.152,10.49,35.856,28.415,49.8,50.486l-5.122,2.974C459.349,350.246,441.658,332.315,423.493,321.831Z" transform="translate(-423.493 -318.857)"/></clipPath><clipPath id="f"><path class="b" d="M419.207,331.005l5.116-2.98c7.517-3.3,17.036-1.985,26.872,3.692l-5.116,2.974C436.237,329.014,426.717,327.71,419.207,331.005Z" transform="translate(-419.207 -326.246)"/></clipPath><clipPath id="g"><path class="b" d="M423.472,330.088l5.116-2.974c9.665,5.582,19.1,15.14,26.525,26.872L450,356.96C442.563,345.228,433.137,335.67,423.472,330.088Z" transform="translate(-423.472 -327.114)"/></clipPath></defs><g transform="translate(246.946 -7714.495)"><path class="c" d="M359.643,18.964C239.43-45.281,102.415,66.721,28.274,160.723s20.7,187.158,23.07,341.625C62.68,640.326,315.378,624.113,470.321,576.264c93.932-45.98,137.177-17.572,144.86-306.037C659.116,55,500.8,131.035,359.643,18.964Z" transform="translate(454.64 8542.879) rotate(172)"/><path class="d" d="M172.213,9.081C114.65-21.683,49.041,31.949,13.539,76.961s9.91,89.62,11.047,163.585c5.428,66.07,126.431,58.307,200.625,35.394,44.979-22.017,65.686-8.414,69.365-146.544C315.614,26.334,239.8,62.745,172.213,9.081Z" transform="translate(189 8735.543) rotate(172)"/><g transform="translate(132.346 7751.594)"><g transform="translate(26.515 172.804)"><g transform="translate(0 66.203)"><g transform="translate(12.539 135.908)"><g transform="translate(0 38.719)"><g class="e"><g transform="translate(102.155)"><path class="f" d="M51.192,184.68l2.04-1.185,2.451,6.184-2.038,1.185Z" transform="translate(-51.192 -183.496)"/></g><path class="g" d="M29.213,195.539l2.038-1.185L133.408,183.5l-2.04,1.185Z" transform="translate(-29.213 -183.496)"/><g transform="translate(0 1.185)"><path class="h" d="M131.367,183.75l2.453,6.184L31.664,200.8l-2.451-6.191Z" transform="translate(-29.213 -183.75)"/></g></g></g><g transform="translate(13.64)"><g class="e"><g transform="translate(5.12)"><path class="g" d="M34,175.165v2.8h-.756l85.663,108.25,2.038-1.185Z" transform="translate(-33.249 -175.165)"/></g><g transform="translate(88.304 109.869)"><path class="i" d="M53.625,199.988l2.038-1.185-2.478,3.341-2.038,1.184Z" transform="translate(-51.146 -198.804)"/></g><g transform="translate(0 2.803)"><path class="h" d="M37.267,175.768h-5.12l88.3,111.591,2.478-3.34Z" transform="translate(-32.147 -175.768)"/></g></g></g></g><g transform="translate(33.706 89.723)"><g transform="translate(0 31.146)"><g class="e"><path class="g" d="M118.855,171.929l-85.088,9.044v.969l85.088-9.046Z" transform="translate(-33.767 -171.929)"/><g transform="translate(0 0.967)"><path class="h" d="M118.855,172.137l-85.088,9.046v6.447l85.088-9.048Z" transform="translate(-33.767 -172.137)"/></g></g></g><g transform="translate(16.488)"><g class="e"><path class="g" d="M105.915,251.912l-68.6-86.684v3.761l68.6,86.684Z" transform="translate(-37.314 -165.228)"/><g transform="translate(0 3.761)"><path class="h" d="M105.915,252.721l-68.6-86.684v6.47l68.6,86.688Z" transform="translate(-37.314 -166.037)"/></g></g></g></g><g transform="translate(49.865 56.677)"><g transform="translate(0 24.834)"><g class="e"><path class="g" d="M106.173,163.461l-68.93,7.328v.969l68.93-7.328Z" transform="translate(-37.244 -163.461)"/><g transform="translate(0 0.969)"><path class="h" d="M106.173,163.67,37.244,171v6.448l68.93-7.332Z" transform="translate(-37.244 -163.67)"/></g></g></g><g transform="translate(14.842)"><g class="e"><path class="g" d="M94.525,226.465,40.437,158.118v3.758l54.088,68.349Z" transform="translate(-40.437 -158.118)"/><g transform="translate(0 3.758)"><path class="h" d="M94.525,227.275,40.437,158.927V165.4l54.088,68.349Z" transform="translate(-40.437 -158.927)"/></g></g></g></g><g transform="translate(60.419 24.526)"><g transform="translate(0 22.527)"><g class="e"><path class="g" d="M95.581,156.047l-56.067,5.96v.969l56.067-5.959Z" transform="translate(-39.515 -156.047)"/><g transform="translate(0 0.969)"><path class="h" d="M95.581,156.256l-56.067,5.959v6.447L95.581,162.7Z" transform="translate(-39.515 -156.256)"/></g></g></g><g transform="translate(13.531)"><g class="e"><g transform="translate(2.301)"><path class="g" d="M42.921,151.2v3.765l1.748,2.208.987-2.514Z" transform="translate(-42.921 -151.201)"/><path class="g" d="M81.784,199.333l-37.5-47.388-.987,2.514,38.487,48.634Z" transform="translate(-41.549 -148.486)"/></g><g transform="translate(0 3.765)"><path class="h" d="M84.962,202.853,44.727,152.011v3.563h-2.3l42.536,53.752Z" transform="translate(-42.426 -152.011)"/></g></g></g></g><g transform="translate(0 182.913)"><g class="e"><g transform="translate(0 5.324)"><path class="j" d="M37.327,237.443l-10.462-6.08-.35-44.94,10.458,6.08Z" transform="translate(-26.515 -186.424)"/></g><path class="k" d="M36.973,196.682,26.515,190.6l9.223-5.324,10.46,6.08Z" transform="translate(-26.515 -185.278)"/><g transform="translate(10.458 6.08)"><path class="l" d="M37.991,186.586l.35,44.94-9.221,5.324-.354-44.94Z" transform="translate(-28.765 -186.586)"/></g></g></g><g class="e" transform="translate(0.082)"><g transform="translate(0 2.903)"><path class="h" d="M110.371,152.267l-9.268-5.719L26.533,331.96l10.4,6.059Z" transform="translate(-26.533 -146.548)"/></g><g transform="translate(74.57)"><path class="m" d="M58.86,152.292l-6.795-6.368-9.489,2.9,9.268,5.719Z" transform="translate(-42.577 -145.924)"/></g><g transform="translate(10.403 6.368)"><path class="l" d="M102.206,149.548,28.771,335.3l9.137-5.292,71.313-182.714Z" transform="translate(-28.771 -147.294)"/></g></g></g><g transform="translate(115.431 66.203)"><g transform="translate(0 135.908)"><g transform="translate(0 38.719)"><g class="e"><path class="f" d="M55.842,184.68,53.8,183.5l-2.453,6.184,2.038,1.185Z" transform="translate(-51.351 -183.496)"/><g transform="translate(2.453)"><path class="g" d="M156.071,195.539l-2.036-1.185L51.878,183.5l2.038,1.185Z" transform="translate(-51.878 -183.496)"/></g><g transform="translate(2.038 1.185)"><path class="l" d="M54.242,183.75l-2.453,6.184L153.946,200.8l2.451-6.191Z" transform="translate(-51.789 -183.75)"/></g></g></g><g transform="translate(0.184)"><g class="e"><path class="g" d="M138.335,175.165v2.8h.76L53.431,286.218l-2.04-1.185Z" transform="translate(-51.39 -175.165)"/><g transform="translate(0 109.869)"><path class="i" d="M53.431,199.988,51.39,198.8l2.481,3.341,2.038,1.184Z" transform="translate(-51.39 -198.804)"/></g><g transform="translate(2.04 2.803)"><path class="l" d="M137.494,175.768h5.12L54.307,287.359l-2.478-3.34Z" transform="translate(-51.829 -175.768)"/></g></g></g></g><g transform="translate(0.39 89.723)"><g transform="translate(0 31.146)"><g class="e"><path class="g" d="M51.435,171.929l85.091,9.044v.969L51.435,172.9Z" transform="translate(-51.435 -171.929)"/><g transform="translate(0 0.967)"><path class="l" d="M51.435,172.137l85.091,9.046v6.447l-85.091-9.048Z" transform="translate(-51.435 -172.137)"/></g></g></g><g class="e"><path class="g" d="M51.435,251.912l68.6-86.684v3.761l-68.6,86.684Z" transform="translate(-51.435 -165.228)"/><g transform="translate(0 3.761)"><path class="l" d="M51.435,252.721l68.6-86.684v6.47L51.435,259.2Z" transform="translate(-51.435 -166.037)"/></g></g></g><g transform="translate(0.39 56.677)"><g transform="translate(0 24.834)"><g class="e"><path class="g" d="M51.435,163.461l68.93,7.328v.969l-68.93-7.328Z" transform="translate(-51.435 -163.461)"/><g transform="translate(0 0.969)"><path class="l" d="M51.435,163.67,120.364,171v6.448l-68.93-7.332Z" transform="translate(-51.435 -163.67)"/></g></g></g><g class="e"><path class="g" d="M51.435,226.465l54.088-68.346v3.758L51.435,230.225Z" transform="translate(-51.435 -158.118)"/><g transform="translate(0 3.758)"><path class="l" d="M51.435,227.275l54.088-68.349V165.4L51.435,233.748Z" transform="translate(-51.435 -158.927)"/></g></g></g><g transform="translate(2.7 24.526)"><g transform="translate(0 22.527)"><g class="e"><path class="g" d="M51.932,156.047,108,162.007v.969l-56.067-5.959Z" transform="translate(-51.932 -156.047)"/><g transform="translate(0 0.969)"><path class="l" d="M51.932,156.256,108,162.215v6.447L51.932,162.7Z" transform="translate(-51.932 -156.256)"/></g></g></g><g class="e"><path class="g" d="M62.737,151.2v3.765l-1.75,2.208L60,154.659Z" transform="translate(-22.501 -151.201)"/><path class="g" d="M51.932,199.333l37.5-47.388.987,2.514L51.932,203.094Z" transform="translate(-51.932 -148.486)"/><g transform="translate(0 3.765)"><path class="l" d="M51.932,202.853l40.235-50.843v3.563h2.3L51.932,209.326Z" transform="translate(-51.932 -152.011)"/></g></g></g><g transform="translate(28.248)"><g transform="translate(70.904 182.913)"><g class="e"><g transform="translate(9.223 5.324)"><path class="l" d="M74.668,237.443l10.46-6.08.351-44.94L75.018,192.5Z" transform="translate(-74.668 -186.424)"/></g><g transform="translate(0.349)"><path class="k" d="M81.982,196.682l10.462-6.08-9.225-5.324-10.46,6.08Z" transform="translate(-72.759 -185.278)"/></g><g transform="translate(0 6.08)"><path class="j" d="M73.033,186.586l-.349,44.94,9.223,5.324.35-44.94Z" transform="translate(-72.684 -186.586)"/></g></g></g><g class="e"><g transform="translate(7.02 2.903)"><path class="l" d="M58.938,152.267l9.268-5.719L142.774,331.96l-10.4,6.059Z" transform="translate(-58.938 -146.548)"/></g><path class="m" d="M57.428,152.292l6.8-6.368,9.491,2.9-9.268,5.719Z" transform="translate(-57.428 -145.924)"/><g transform="translate(0 6.368)"><path class="h" d="M64.448,149.548,137.883,335.3l-9.139-5.292L57.428,147.294Z" transform="translate(-57.428 -147.294)"/></g></g></g></g><g transform="translate(108.566 62.288)"><g class="e"><g transform="translate(0 5.326)"><path class="g" d="M60.683,445.965l-10.46-6.078-.35-293.66,10.458,6.078Z" transform="translate(-49.874 -146.227)"/></g><path class="k" d="M60.331,156.486l-10.458-6.078,9.221-5.326,10.46,6.078Z" transform="translate(-49.874 -145.081)"/><g transform="translate(10.458 6.078)"><path class="l" d="M61.347,146.389,61.7,440.049l-9.223,5.326-.352-293.659Z" transform="translate(-52.124 -146.389)"/></g></g></g><g transform="translate(74.011 37.619)"><g class="e"><g class="e" transform="translate(0 25.684)"><g class="e"><path class="g" d="M66.553,145.354l-.028,9.737c-.014,4.559-2.1,9.114-6.261,13.144l.028-9.732c4.164-4.034,6.247-8.589,6.261-13.149Z" transform="translate(22.587 -145.103)"/><path class="g" d="M83.344,148.183l-.028,9.732a34.249,34.249,0,0,1-6.688,4.978,59.219,59.219,0,0,1-22.681,7.055l.028-9.737a59.059,59.059,0,0,0,22.681-7.055,34.243,34.243,0,0,0,6.688-4.973Z" transform="translate(-0.463 -134.783)"/><path class="g" d="M95.949,170.728l-.028,9.737c-14.111,1.636-29.346-.716-40.329-7.055-8.784-5.071-13.172-11.731-13.153-18.373l.028-9.737c-.019,6.646,4.369,13.3,13.153,18.373,10.983,6.34,26.218,8.691,40.329,7.055Z" transform="translate(-42.439 -145.3)"/></g></g><g transform="translate(0.027)"><path class="l" d="M118.405,147.331c17.453,10.081,17.55,26.423.2,36.5s-45.553,10.081-63.011,0-17.55-26.418-.209-36.5S100.948,137.255,118.405,147.331Z" transform="translate(-42.445 -139.774)"/></g></g></g><g transform="translate(84.204)"><g class="e"><g transform="translate(0 19.809)"><g class="e"><path class="g" d="M63.23,135.983,63.211,177.3c-.014,3.514-1.622,7.028-4.829,10.142l.023-41.31c3.207-3.114,4.815-6.623,4.824-10.146Z" transform="translate(5.526 -135.792)"/><path class="g" d="M76.185,138.166l-.023,41.31A26.645,26.645,0,0,1,71,183.315a45.63,45.63,0,0,1-17.494,5.443l.019-41.31A45.633,45.633,0,0,0,71.021,142a26.483,26.483,0,0,0,5.164-3.834Z" transform="translate(-12.254 -127.829)"/><path class="g" d="M85.9,155.56l-.019,41.31c-10.885,1.26-22.64-.553-31.108-5.443-6.781-3.909-10.165-9.049-10.146-14.176l.019-41.31c-.014,5.127,3.37,10.262,10.146,14.171,8.473,4.894,20.223,6.707,31.108,5.447Z" transform="translate(-44.632 -135.942)"/></g></g><g transform="translate(0.02)"><path class="l" d="M103.23,137.508c13.46,7.771,13.534,20.381.153,28.152s-35.138,7.776-48.6,0-13.534-20.381-.158-28.152S89.761,129.737,103.23,137.508Z" transform="translate(-44.636 -131.68)"/></g></g></g></g><g transform="translate(138.69 129.396)"><g class="e"><g class="e" transform="translate(0 2.531)"><path class="a" d="M62.451,122.913,65.3,182.549a3.641,3.641,0,0,1-2.129,2.984,11.432,11.432,0,0,1-10.36,0,3.666,3.666,0,0,1-2.161-3.026l3.007-59.622a2.188,2.188,0,0,0,1.3,1.813,6.825,6.825,0,0,0,6.219,0A2.185,2.185,0,0,0,62.451,122.913Z" transform="translate(-50.65 -122.885)"/><g class="n"><g class="e"><path class="a" d="M53.638,122.891l2.849,59.636a2.986,2.986,0,0,1-.943,2.082l-2.477-60.468a1.82,1.82,0,0,0,.572-1.25Z" transform="translate(-41.837 -122.863)"/><path class="o" d="M58.231,123.16l2.477,60.468a5.585,5.585,0,0,1-1.185.9,11.469,11.469,0,0,1-7.873.943L52.8,124.266a6.87,6.87,0,0,0,4.727-.572,3.231,3.231,0,0,0,.706-.534Z" transform="translate(-47.002 -121.882)"/><path class="a" d="M56.446,125.269,55.3,186.477a8.936,8.936,0,0,1-2.487-.943,3.666,3.666,0,0,1-2.161-3.026l3.007-59.622a2.188,2.188,0,0,0,1.3,1.813,5.265,5.265,0,0,0,1.492.572Z" transform="translate(-50.65 -122.885)"/></g></g></g><g transform="translate(3.008)"><path class="p" d="M58.793,123.086c1.72.99,1.729,2.6.019,3.6a6.825,6.825,0,0,1-6.219,0c-1.72-.995-1.729-2.6-.019-3.6A6.853,6.853,0,0,1,58.793,123.086Z" transform="translate(-51.297 -122.34)"/></g></g></g><circle class="q" cx="9.525" cy="9.525" r="9.525" transform="translate(136.491 120.406)"/><path class="o" d="M58.691,125.178a4.02,4.02,0,1,0-4.02,4.02A4.019,4.019,0,0,0,58.691,125.178Z" transform="translate(88.04 2.742)"/></g><g transform="translate(-148.829 7651.517)"><g transform="translate(127.22 421.617)"><g transform="translate(0 0)"><g transform="translate(241.131 159.432)"><path class="r" d="M252.514,577.637l-.025-2.469c.259,0,25.96-.457,35.238-16.023,5.757-9.657,4.131-23.18-4.834-40.195-13.7-26-17.111-45.2-10.146-57.087C277.9,453.069,288.524,448.4,304.325,448l.063,2.469c-14.89.382-24.819,4.635-29.512,12.641-6.5,11.1-3.072,29.5,10.2,54.688,9.4,17.832,11,32.171,4.766,42.618-4.157,6.967-11.95,12.154-22.538,15A65.314,65.314,0,0,1,252.514,577.637Z" transform="translate(-252.489 -448)"/></g><path class="o" d="M368.665,719.214v-286.4a15.518,15.518,0,0,0-15.472-15.472H142.777a15.518,15.518,0,0,0-15.472,15.472v286.4Z" transform="translate(-127.141 -389.405)"/><g transform="translate(60.611)"><g transform="translate(42.471)"><path class="s" d="M211.546,431.063V417.381a14.554,14.554,0,1,0-29.108,0v13.682Z" transform="translate(-179.23 -402.827)"/><rect class="o" width="35.525" height="8.335" rx="0.825" transform="translate(0 22.758)"/><path class="t" d="M200.975,419.849V412.34a5.458,5.458,0,0,0-10.916,0v7.509Z" transform="translate(-172.181 -399.076)"/></g><path class="u" d="M189.482,431.063V417.381a14.554,14.554,0,1,0-29.108,0v13.682Z" transform="translate(-157.166 -402.827)"/><rect class="o" width="35.525" height="8.335" rx="0.825" transform="translate(0 22.758)"/><path class="v" d="M178.911,419.849V412.34a5.458,5.458,0,0,0-10.916,0v7.509Z" transform="translate(-150.117 -399.076)"/><g transform="translate(84.942)"><path class="w" d="M233.61,431.063V417.381a14.554,14.554,0,1,0-29.108,0v13.682Z" transform="translate(-201.294 -402.827)"/><rect class="o" width="35.525" height="8.335" rx="0.825" transform="translate(0 22.758)"/><path class="x" d="M223.039,419.849V412.34a5.458,5.458,0,0,0-10.916,0v7.509Z" transform="translate(-194.245 -399.076)"/></g></g><g transform="translate(33.945 69.601)"><rect class="y" width="173.798" height="68.795"/><g transform="translate(20.402 5.468)"><g transform="translate(0 5.991)"><path class="s" d="M157.993,496.806a2.538,2.538,0,0,1-1.347-4.689L194.44,468.5,208.1,482.154l72.777-36.939a2.537,2.537,0,0,1,2.3,4.526l-76.061,38.6-13.4-13.405-34.371,21.482A2.52,2.52,0,0,1,157.993,496.806Z" transform="translate(-155.453 -444.938)"/></g><g transform="translate(109.02)"><path class="s" d="M227.736,468.043a2.568,2.568,0,0,1-.878-.156,2.676,2.676,0,0,1-1.484-3.332l4.389-14.217a.064.064,0,0,0-.048-.081l-15.438-3.372A2.672,2.672,0,0,1,212.1,444.2a2.539,2.539,0,0,1,3.072-2.312l20.335,4.441a.684.684,0,0,1,.527.926l-5.871,19A2.538,2.538,0,0,1,227.736,468.043Z" transform="translate(-212.09 -441.826)"/></g><g transform="translate(90.085 40.244)"><path class="o" d="M206.938,462.82v11.8h-2.191v-9.96h-2.495V462.82Z" transform="translate(-202.253 -462.653)"/><path class="o" d="M208.3,474.152a4.838,4.838,0,0,1-1.752-2.09,8.615,8.615,0,0,1,0-6.522,4.838,4.838,0,0,1,1.752-2.09,4.835,4.835,0,0,1,5.064,0,4.809,4.809,0,0,1,1.763,2.09,8.639,8.639,0,0,1,0,6.522,4.809,4.809,0,0,1-1.763,2.09,4.835,4.835,0,0,1-5.064,0Zm4.525-2.233a7,7,0,0,0,0-6.237,2.414,2.414,0,0,0-3.977,0,7,7,0,0,0,0,6.237,2.414,2.414,0,0,0,3.977,0Z" transform="translate(-198.876 -462.733)"/><path class="o" d="M214.19,474.152a4.842,4.842,0,0,1-1.754-2.09,8.639,8.639,0,0,1,0-6.522,4.842,4.842,0,0,1,1.754-2.09,4.835,4.835,0,0,1,5.064,0,4.818,4.818,0,0,1,1.761,2.09,8.615,8.615,0,0,1,0,6.522,4.818,4.818,0,0,1-1.761,2.09,4.836,4.836,0,0,1-5.064,0Zm4.525-2.233a7,7,0,0,0,0-6.237,2.414,2.414,0,0,0-3.977,0,6.98,6.98,0,0,0,0,6.237,2.414,2.414,0,0,0,3.977,0Z" transform="translate(-193.426 -462.733)"/><path class="o" d="M218.367,468.339a3.933,3.933,0,0,1,0-4.685,2.57,2.57,0,0,1,2.04-.9,2.6,2.6,0,0,1,2.048.885,3.917,3.917,0,0,1,0,4.7,2.6,2.6,0,0,1-2.048.885A2.573,2.573,0,0,1,218.367,468.339Zm3.111-.826a3.223,3.223,0,0,0,0-3.034,1.308,1.308,0,0,0-2.123.006,3.07,3.07,0,0,0,0,3.018,1.308,1.308,0,0,0,2.123.01Zm6.01-4.637h1.65l-8.056,11.8h-1.652ZM226.1,473.9a3.933,3.933,0,0,1,0-4.685,2.786,2.786,0,0,1,4.089,0,3.894,3.894,0,0,1,0,4.685,2.782,2.782,0,0,1-4.089,0Zm3.1-.832a3.123,3.123,0,0,0,0-3.018,1.308,1.308,0,0,0-2.123-.01,3.167,3.167,0,0,0,0,3.034,1.311,1.311,0,0,0,2.123-.006Z" transform="translate(-188.065 -462.709)"/></g></g><g class="z" transform="translate(3.865 3.847)"><path class="o" d="M190.083,502.085H158.854l61.553-61.1h31.229Z" transform="translate(-135.771 -440.984)"/><path class="o" d="M156.367,502.085h-9.5l61.553-61.1h9.5Z" transform="translate(-146.862 -440.984)"/></g><g transform="translate(1.366 80.098)"><g transform="translate(36.456 0.001)"><path class="aa" d="M189.818,493.789A12.123,12.123,0,1,1,177.7,481.666,12.124,12.124,0,0,1,189.818,493.789Z" transform="translate(-163.514 -479.608)"/><path class="ab" d="M178.684,508.96a14.182,14.182,0,1,1,14.181-14.183A14.2,14.2,0,0,1,178.684,508.96Zm0-24.246a10.064,10.064,0,1,0,10.063,10.063A10.074,10.074,0,0,0,178.684,484.714Z" transform="translate(-164.503 -480.597)"/><path class="s" d="M171.609,491.361h0a1.031,1.031,0,0,1,.179-1.444l5.959-4.633a1.031,1.031,0,0,1,1.444.179h0a1.033,1.033,0,0,1-.181,1.445l-5.958,4.633A1.029,1.029,0,0,1,171.609,491.361Z" transform="translate(-158.131 -476.462)"/></g><g transform="translate(0 0.001)"><path class="aa" d="M170.879,493.789a12.123,12.123,0,1,1-12.123-12.123A12.123,12.123,0,0,1,170.879,493.789Z" transform="translate(-144.575 -479.608)"/><path class="ab" d="M159.745,508.96a14.182,14.182,0,1,1,14.183-14.183A14.2,14.2,0,0,1,159.745,508.96Zm0-24.246a10.064,10.064,0,1,0,10.065,10.063A10.074,10.074,0,0,0,159.745,484.714Z" transform="translate(-145.564 -480.597)"/><path class="s" d="M153.425,493.531h0a1.032,1.032,0,0,1-1.028-1.03v-7.548a1.032,1.032,0,0,1,1.028-1.03h0a1.034,1.034,0,0,1,1.03,1.03V492.5A1.033,1.033,0,0,1,153.425,493.531Z" transform="translate(-139.244 -477.52)"/></g><g transform="translate(72.909)"><path class="aa" d="M195.651,505.872a12.122,12.122,0,1,1,13.066-11.1A12.12,12.12,0,0,1,195.651,505.872Z" transform="translate(-182.451 -479.607)"/><path class="ab" d="M183.488,493.631a14.181,14.181,0,1,1,12.987,15.282A14.2,14.2,0,0,1,183.488,493.631Zm24.167,1.963a10.065,10.065,0,1,0-10.847,9.214A10.077,10.077,0,0,0,207.655,495.594Z" transform="translate(-183.441 -480.597)"/><path class="s" d="M190.69,487.649h0a1.032,1.032,0,0,1,1.424.3l4.137,6.314a1.032,1.032,0,0,1-.3,1.425h0a1.034,1.034,0,0,1-1.426-.3l-4.137-6.314A1.035,1.035,0,0,1,190.69,487.649Z" transform="translate(-177.166 -474.228)"/></g></g><g transform="translate(10.359 112.592)"><path class="u" d="M161.778,503.247a5.771,5.771,0,1,1-5.771-5.769A5.77,5.77,0,0,1,161.778,503.247Z" transform="translate(-150.236 -497.477)"/><path class="s" d="M180.349,503.247a5.771,5.771,0,1,1-5.771-5.769A5.77,5.77,0,0,1,180.349,503.247Z" transform="translate(-133.06 -497.477)"/><circle class="w" cx="5.771" cy="5.771" r="5.771" transform="translate(71.745)"/></g><g transform="translate(121.507 78.749)"><path class="ac" d="M226.322,567.7h0a10.064,10.064,0,0,1-10.035-10.034V489.931A10.064,10.064,0,0,1,226.322,479.9h0a10.064,10.064,0,0,1,10.034,10.035v67.735A10.064,10.064,0,0,1,226.322,567.7Z" transform="translate(-200.293 -479.896)"/><path class="ad" d="M223.384,521.819h0a3.932,3.932,0,0,1-3.921-3.919V493.754a3.933,3.933,0,0,1,3.921-3.921h0a3.932,3.932,0,0,1,3.919,3.921V517.9A3.93,3.93,0,0,1,223.384,521.819Z" transform="translate(-197.355 -470.705)"/><path class="s" d="M254.076,498.655h-40.14a5.976,5.976,0,0,1-5.958-5.96h0a5.976,5.976,0,0,1,5.958-5.958h40.14a5.976,5.976,0,0,1,5.958,5.958h0A5.976,5.976,0,0,1,254.076,498.655Z" transform="translate(-207.978 -473.568)"/></g></g><rect class="ae" width="241.688" height="74.163" transform="translate(0 255.646)"/><rect class="af" width="59.14" height="16.897" transform="translate(32.995 273.385)"/><rect class="ae" width="7.7" height="14.76" transform="translate(238.585 280.407)"/><rect class="o" width="5.402" height="5.093" transform="translate(286.517 158.197)"/></g></g></g><g transform="translate(-198.635 7406.445)"><g transform="translate(411.369 308.05)"><g class="e"><g class="e"><g class="ag"><g class="e"><path class="a" d="M411.369,316.117l5.122-2.974c21.39-9.407,48.558-5.7,76.514,10.44l-5.122,2.967c-27.949-16.136-55.117-19.828-76.514-10.434Z" transform="translate(-411.369 -308.05)"/></g></g></g><g transform="translate(141.905 92.189)"><path class="ah" d="M444.087,325.653l5.119-2.972-10.2,7.537-5.119,2.978Z" transform="translate(-433.891 -322.682)"/></g><g class="e" transform="translate(76.514 15.533)"><g class="ai"><g class="e"><path class="a" d="M423.513,313.482l5.122-2.967c27.571,15.915,54.424,43.133,75.581,76.658l-5.116,2.968c-21.17-33.519-48.01-60.731-75.588-76.659Z" transform="translate(-423.513 -310.515)"/></g></g></g><g transform="translate(0 2.979)"><path class="d" d="M487.883,324.044c27.578,15.928,54.418,43.14,75.588,76.659l-10.194,7.548c-18.366-29.083-41.6-52.691-65.444-66.452-24.163-13.956-47.7-17.125-66.257-8.972L411.369,313.61C432.766,304.216,459.934,307.908,487.883,324.044Z" transform="translate(-411.369 -308.523)"/></g></g></g><g transform="translate(437.334 365.903)"><g class="e"><g class="e"><g class="aj"><g class="e"><path class="a" d="M415.49,323.577l5.129-2.974c14.069-6.219,31.975-3.78,50.417,6.868l-5.122,2.974c-18.448-10.635-36.342-13.08-50.423-6.868Z" transform="translate(-415.49 -317.232)"/></g></g></g><g transform="translate(90.03 60.726)"><path class="ah" d="M439.975,329.842l5.119-2.972-10.2,7.537-5.113,2.972Z" transform="translate(-429.779 -326.87)"/></g><g class="e" transform="translate(50.423 10.239)"><g class="ak"><g class="e"><path class="a" d="M423.493,321.831l5.122-2.974c18.152,10.49,35.856,28.415,49.8,50.486l-5.122,2.974c-13.943-22.071-31.635-40-49.8-50.486Z" transform="translate(-423.493 -318.857)"/></g></g></g><g transform="translate(0 2.98)"><path class="al" d="M465.913,327.938c18.164,10.484,35.856,28.415,49.8,50.486l-10.194,7.535c-11.146-17.642-25.227-31.944-39.656-40.267S436.8,335.4,425.71,340.262L415.49,321.07C429.572,314.858,447.465,317.3,465.913,327.938Z" transform="translate(-415.49 -317.705)"/></g></g></g><g transform="translate(460.753 422.694)"><g class="e"><g class="e"><g class="am"><g class="e"><path class="a" d="M419.207,331.005l5.116-2.98c7.517-3.3,17.036-1.985,26.872,3.692l-5.116,2.974c-9.841-5.677-19.362-6.981-26.872-3.686Z" transform="translate(-419.207 -326.246)"/></g></g></g><g transform="translate(43.193 32.343)"><path class="ah" d="M436.264,334.351l5.119-2.972-10.2,7.537-5.119,2.978Z" transform="translate(-426.063 -331.379)"/></g><g class="e" transform="translate(26.872 5.471)"><g class="an"><g class="e"><path class="a" d="M423.472,330.088l5.116-2.974c9.665,5.582,19.1,15.14,26.525,26.872L450,356.96c-7.435-11.732-16.86-21.29-26.525-26.872Z" transform="translate(-423.472 -327.114)"/></g></g></g><g transform="translate(0 2.978)"><path class="ao" d="M446.079,332.185c9.665,5.582,19.091,15.14,26.525,26.872L462.4,366.6c-4.6-7.3-10.44-13.237-16.369-16.665-5.96-3.44-12-4.234-16.589-2.2L419.207,328.5C426.717,325.2,436.237,326.509,446.079,332.185Z" transform="translate(-419.207 -326.718)"/></g></g></g></g></g></svg>