<svg xmlns="http://www.w3.org/2000/svg" xmlns:xlink="http://www.w3.org/1999/xlink" width="1203.017" height="869.981" viewBox="0 0 1203.017 869.981"><defs><style>.a{fill:#dadd00;}.b{fill:#da764a;}.c{fill:#f0b080;}.d{fill:#fff;}.e{fill:#00bef3;}.f{fill:#a1e2e7;}.g{fill:#f87564;}.h{fill:#002b69;}.i{fill:#8d779c;opacity:0.36;mix-blend-mode:multiply;isolation:isolate;}.j{fill:#e84949;}.k{fill:#ff9500;fill-rule:evenodd;}.l{fill:#ffbe10;}.m{opacity:0.71;}.n{fill:#8a5785;}.o{fill:#ffdacc;}.p{filter:url(#a);}</style><filter id="a" x="647.878" y="157.422" width="413.875" height="560.217" filterUnits="userSpaceOnUse"><feOffset dy="3" input="SourceAlpha"/><feGaussianBlur stdDeviation="3" result="b"/><feFlood flood-opacity="0.161"/><feComposite operator="in" in2="b"/><feComposite in="SourceGraphic"/></filter></defs><g transform="translate(526 -13314.361)"><path class="a" d="M93.65,614.368C-106.586,532.546,75.965,457.494,79.857,315.1,68.579,186.119-14.536,15.92,173.9.054,411.37-1.862,445.177,46.538,566.556,213.681S799.723,338.119,716.293,630.262C678.057,712.979,540.146,839.909,93.65,614.368Z" transform="translate(-195.956 13456.552) rotate(-11)"/><g transform="translate(-526 13477.783)"><g transform="translate(275.751 82.399)"><path class="b" d="M2121.787,742.816l69.767,31.177-20.091,28.792-72.618-23.273Z" transform="translate(-1766.157 -696.085)"/><path class="b" d="M2104.331,955.724l2.057,60.04,165.128-56.4s68.47,16.129,121.007-22.623L2430.9,930.4l71.006,26.246,21.158-60.554L2412.429,856.95,2200.74,875.915l-83.576,44.239Z" transform="translate(-2101.336 -733.851)"/><path class="c" d="M1949.452,812.142l96.373-35.31,67.762-27.3,144.507-65.844s27.323-22.8,54.583-1.871l161.563,81.823-75.218.31-94.959-37.34s-26.083,13.384,6.581,32.562,129.78,28.34,129.78,28.34,38.822,16.625,1.523,44.446c0,0-44.691,17.145-106.339-4.943l-46.3-7s-7.805.03-48.366,23.788c0,0-18,20.461-113.654-14.512,0,0-54.5-18.76-99.592,9.328l-79.966,105.518Z" transform="translate(-1947.731 -672.976)"/></g><g transform="translate(656.878)"><g class="p" transform="matrix(1, 0, 0, 1, -656.88, -163.42)"><path class="d" d="M1601.953,549.829l367.286,20.12-30.038,522.1-365.837-19.881Z" transform="translate(-916.49 -386.41)"/></g><g transform="translate(20.208 37.296)"><g transform="translate(15.566 45.567)"><rect class="a" width="173.422" height="15.797" transform="translate(176.799 55.529) rotate(-176.745)"/><rect class="a" width="173.422" height="15.797" transform="translate(179.162 25.617) rotate(-176.745)"/><rect class="a" width="173.422" height="15.756" transform="translate(173.142 119.851) rotate(-176.745)"/><rect class="a" width="173.422" height="15.797" transform="translate(174.923 88.515) rotate(-176.745)"/></g><g transform="translate(0 187.005)"><path class="e" d="M1955.528,904.757,1954.07,930.4l-331.383-19.7,1.459-25.648Z" transform="translate(-1612.864 -885.052)"/><path class="e" d="M1959.2,967.842l-1.459,25.647-331.383-19.7,1.458-25.648Z" transform="translate(-1618.99 -905.926)"/><path class="e" d="M1962.868,1030.926l-1.458,25.647-331.383-19.7,1.459-25.648Z" transform="translate(-1625.115 -926.8)"/><path class="e" d="M1966.538,1094.011l-1.458,25.647-331.383-19.7,1.459-25.648Z" transform="translate(-1631.242 -947.674)"/><path class="e" d="M1970.208,1157.1l-1.458,25.647-331.383-19.705,1.459-25.647Z" transform="translate(-1637.367 -968.549)"/><path class="e" d="M2061.526,1248.355l-1.133,12.058-114.146-6.54,1.133-12.058Z" transform="translate(-1935.36 -1003.102)"/><path class="e" d="M1761.155,1243.343l-1.2,15.388-114.147-6.54,1.2-15.389Z" transform="translate(-1433.963 -1001.443)"/><path class="e" d="M1747.326,1272.632l-.919,14.183-98.132-5.2.92-14.184Z" transform="translate(-1421.784 -1011.577)"/></g><path class="f" d="M1606.311,790.974l131.339,7.641,6.786-137.438L1613.1,653.536Z" transform="translate(-1390.816 -621.441)"/><rect class="g" width="117.228" height="15.756" transform="translate(140.311 22.384) rotate(-176.746)"/></g></g><g transform="translate(0 147.805)"><rect class="d" width="189.166" height="59.497" transform="translate(351.795 207.95) rotate(-97.677)"/><path class="h" d="M2566.313,818.513l356.945-47.786,31.415,233.057-388.36,52.013Z" transform="translate(-2566.313 -770.727)"/></g><path class="i" d="M2086.557,869.423s7.466,29.866-33.961,35.963-48.7,1.63-78.681-5.955L1976.6,833.7Z" transform="translate(-1302.342 -643.76)"/><g transform="translate(890.258 51.363)"><path class="j" d="M1651.688,867.92l10.542-25.528,20.644,15.4L1664.889,780.8,1633.7,790.926Z" transform="translate(-1560.752 -677.619)"/><path class="j" d="M1751.68,860.748l-11.265-27.958-27.74,11.79,30.275-73.04,39.005,16.168Z" transform="translate(-1712.674 -674.554)"/><path class="k" d="M1614.9,667.52a19.646,19.646,0,0,1,15.792-12.474,19.659,19.659,0,0,1,30.241-18.2,19.67,19.67,0,0,1,35.271,1.483,19.663,19.663,0,0,1,26.321,22.429,19.646,19.646,0,0,1,8.233,33.571,19.644,19.644,0,0,1-12.963,32.042,19.662,19.662,0,0,1-29.263,18.423,19.675,19.675,0,0,1-34.525-2.15,19.662,19.662,0,0,1-26.754-21.909,19.645,19.645,0,0,1-8.891-33.4,19.628,19.628,0,0,1-3.462-19.816" transform="translate(-1600.705 -626.592)"/><circle class="l" cx="41.646" cy="41.646" r="41.646" transform="translate(73.768 122.575) rotate(-135)"/><path class="d" d="M1676.956,708.781l-17.577-15.194,23.123,1.947,8.926-21.323,5.3,22.521,23.377,1.968-20.048,12.172,5.284,22.446-17.433-15.069-20,12.141Z" transform="translate(-1615.164 -642.349)"/></g><g class="m" transform="translate(749.147 420.287)"><path class="n" d="M1892.426,1260.771c20.68,20.191,54.568,18.121,73.583-3.96,17.807-20.679,15-50.579-4.616-67.271-18.944-16.12-48.389-15.392-67.216,2.047C1874.159,1210.13,1872.539,1241.355,1892.426,1260.771Zm67.479-69.7c18.676,15.939,21.253,44.429,4.252,64.055-18.093,20.888-50.233,22.819-69.869,3.716-18.922-18.405-17.489-48.095,1.513-65.786C1913.723,1176.375,1941.841,1175.659,1959.905,1191.076Z" transform="translate(-1878.311 -1177.958)"/><path class="n" d="M1898.344,1258.711l1.846-1.892a40.547,40.547,0,0,1-6.035-7.451l-2.18,1.435A42.617,42.617,0,0,0,1898.344,1258.711Zm8.181,6.257a43.785,43.785,0,0,0,9.555,4.191l.848-2.5a41.461,41.461,0,0,1-9.012-3.949Zm-18.783-23.254,2.4-.916a39.519,39.519,0,0,1-1.848-9.173l-2.482.371A41.3,41.3,0,0,0,1887.742,1241.714Zm38.707,29.317a46.38,46.38,0,0,0,10.55-.56l-.339-2.572a43.471,43.471,0,0,1-9.956.518Zm-40.253-48.856,2.423.167a41.029,41.029,0,0,1,2.425-8.906l-2.261-.67A43.1,43.1,0,0,0,1886.2,1222.175Zm60.948,45.374a46.234,46.234,0,0,0,9.139-5.089l-1.419-2.08a44.162,44.162,0,0,1-8.636,4.783Zm-53.759-63.337,1.991,1.115a42.511,42.511,0,0,1,5.961-6.951l.363-.336-1.635-1.483-.341.313A45.568,45.568,0,0,0,1893.385,1204.212Zm70.532,51.339.17-.2a45.02,45.02,0,0,0,5.623-8.076l-2.122-1.21a42.584,42.584,0,0,1-5.339,7.617Zm-54.924-62.94a43.689,43.689,0,0,1,8.234-3.783l-.737-1.974a46.074,46.074,0,0,0-8.7,3.971Zm62.12,44.789,2.3.689a42.489,42.489,0,0,0,1.486-9.575l-2.345-.174A40.686,40.686,0,0,1,1971.112,1237.4Zm-45.105-50.563a43.407,43.407,0,0,1,8.935-.173l.215-2.077a46.125,46.125,0,0,0-9.416.175Zm45.912,32.516,2.283-.329a42.092,42.092,0,0,0-2.762-8.962l-2.116.793A39.734,39.734,0,0,1,1971.919,1219.352Zm-28.259-31.042a41.705,41.705,0,0,1,8.132,3.407l1.127-1.8a44.4,44.4,0,0,0-8.573-3.592Zm21.276,14.9,1.853-1.2a42.37,42.37,0,0,0-6.283-6.8l-1.518,1.543A40.5,40.5,0,0,1,1964.936,1203.213Z" transform="translate(-1880.35 -1180.097)"/><path class="n" d="M1904.249,1257.031a37.941,37.941,0,0,0,3.643,3.089l1.59-2.076a35.991,35.991,0,0,1-6.565-6.329l-2.018,1.641A38.115,38.115,0,0,0,1904.249,1257.031Zm12.236,7.934a40.173,40.173,0,0,0,9.651,2.555l.43-2.559a37.266,37.266,0,0,1-9.031-2.393Zm-20.559-19.817,2.311-1.111a34.811,34.811,0,0,1-2.522-8.522l-2.454.532A36.831,36.831,0,0,0,1895.926,1245.147Zm40.261,22.477a41.655,41.655,0,0,0,9.764-2.329l-.821-2.4a38.88,38.88,0,0,1-9.147,2.162Zm-43.208-40.974,2.45.043a35.627,35.627,0,0,1,1.871-8.57l-2.3-.595A38.241,38.241,0,0,0,1892.978,1226.65Zm61.82,34.067a40.694,40.694,0,0,0,7.382-6.486l-1.813-1.672a38.24,38.24,0,0,1-6.935,6.066Zm-55.652-51.523,2.021,1.089a37.656,37.656,0,0,1,5.585-6.7l.31-.3-1.645-1.492-.31.294A40.288,40.288,0,0,0,1899.146,1209.194Zm66.414,35.96,2.13,1.169a38.12,38.12,0,0,0,3.356-8.831l-2.312-.607A36.14,36.14,0,0,1,1965.56,1245.154Zm-51.521-47.02a38.89,38.89,0,0,1,7.932-3.455l-.677-2.012a41,41,0,0,0-8.431,3.649Zm55.731,30.126,2.354.053a37.884,37.884,0,0,0-1.157-9.006l-2.258.469A35.392,35.392,0,0,1,1969.77,1228.26Zm-39.356-35.174a38.447,38.447,0,0,1,8.526.3l.362-2.084a41.183,41.183,0,0,0-9.042-.32Zm35.25,18.824,2.045-.966a37.306,37.306,0,0,0-5.144-7.283l-1.719,1.388A34.832,34.832,0,0,1,1965.664,1211.911Zm-18.533-16.352a36.269,36.269,0,0,1,7.422,3.949l1.329-1.708a38.468,38.468,0,0,0-7.887-4.192Z" transform="translate(-1882.376 -1182.229)"/><path class="n" d="M1910.366,1255.354c14.229,13.578,37.333,12.31,50.586-2.529,12.665-14.183,11.15-35.167-2.57-47.064-13.384-11.606-34.339-10.987-47.5,1.6C1897.143,1220.506,1896.514,1242.135,1910.366,1255.354Zm46.479-48a30.648,30.648,0,0,1,2.294,43.83c-12.332,13.729-33.765,14.885-46.978,2.321-12.891-12.259-12.376-32.37.378-44.634C1924.794,1197.083,1944.36,1196.489,1956.845,1207.349Z" transform="translate(-1884.754 -1184.414)"/><path class="n" d="M1916.423,1222.6l38.024,34.9,10.038-11-37.739-33.945Z" transform="translate(-1890.424 -1189.407)"/></g><g transform="translate(613.527 167.894)"><path class="c" d="M1991.888,800.75h0l4.892,1.117c32.665,19.177,129.781,28.339,129.781,28.339s38.822,16.625,1.523,44.446c0,0-44.691,17.145-106.339-4.943l-50.405-7.7Z" transform="translate(-1971.339 -800.75)"/><path class="o" d="M2015.909,879.413l-7.12-.606c-13-1.425-14.26-7.9-13.563-16.085l.313-3.675a12.155,12.155,0,0,1,13.143-11.082l9.831.836a12.155,12.155,0,0,1,11.082,13.143l-.543,6.387A12.155,12.155,0,0,1,2015.909,879.413Z" transform="translate(-1872.586 -816.359)"/></g></g></g></svg>