<?xml version="1.0" encoding="UTF-8" standalone="no"?>
<svg
   xmlns:dc="http://purl.org/dc/elements/1.1/"
   xmlns:cc="http://creativecommons.org/ns#"
   xmlns:rdf="http://www.w3.org/1999/02/22-rdf-syntax-ns#"
   xmlns:svg="http://www.w3.org/2000/svg"
   xmlns="http://www.w3.org/2000/svg"
   xmlns:sodipodi="http://sodipodi.sourceforge.net/DTD/sodipodi-0.dtd"
   xmlns:inkscape="http://www.inkscape.org/namespaces/inkscape"
   width="1157.5406"
   height="691.63525"
   viewBox="0 0 1157.5407 691.63524"
   version="1.1"
   id="svg109"
   sodipodi:docname="datacatalog-section-12.svg"
   inkscape:version="0.92.4 (5da689c313, 2019-01-14)">
  <metadata
     id="metadata113">
    <rdf:RDF>
      <cc:Work
         rdf:about="">
        <dc:format>image/svg+xml</dc:format>
        <dc:type
           rdf:resource="http://purl.org/dc/dcmitype/StillImage" />
      </cc:Work>
    </rdf:RDF>
  </metadata>
  <sodipodi:namedview
     pagecolor="#ffffff"
     bordercolor="#666666"
     borderopacity="1"
     objecttolerance="10"
     gridtolerance="10"
     guidetolerance="10"
     inkscape:pageopacity="0"
     inkscape:pageshadow="2"
     inkscape:window-width="1920"
     inkscape:window-height="986"
     id="namedview111"
     showgrid="false"
     inkscape:zoom="0.27127029"
     inkscape:cx="601.50848"
     inkscape:cy="346.99637"
     inkscape:window-x="-11"
     inkscape:window-y="-11"
     inkscape:window-maximized="1"
     inkscape:current-layer="svg109" />
  <defs
     id="defs15">
    <style
       id="style2">.a{fill:#dadd00;}.b{fill:#da764a;}.c{fill:#f0b080;}.d{fill:#fff;}.e{fill:#00bef3;}.f{fill:#a1e2e7;}.g{fill:#f87564;}.h{fill:#002b69;}.i{fill:#8d779c;opacity:0.36;mix-blend-mode:multiply;isolation:isolate;}.j{fill:#e84949;}.k{fill:#ff9500;fill-rule:evenodd;}.l{fill:#ffbe10;}.m{opacity:0.71;}.n{fill:#8a5785;}.o{fill:#ffdacc;}.p{filter:url(#a);}</style>
    <filter
       id="a"
       x="647.87799"
       y="157.422"
       width="413.875"
       height="560.21698"
       filterUnits="userSpaceOnUse">
      <feOffset
         dy="3"
         input="SourceAlpha"
         id="feOffset4" />
      <feGaussianBlur
         stdDeviation="3"
         result="b"
         id="feGaussianBlur6" />
      <feFlood
         flood-opacity="0.161"
         id="feFlood8" />
      <feComposite
         operator="in"
         in2="b"
         id="feComposite10"
         result="result1" />
      <feComposite
         in="SourceGraphic"
         in2="result1"
         id="feComposite12" />
    </filter>
  </defs>
  <g
     transform="translate(526,-13404.713)"
     id="g107">
    <path
       class="a"
       d="M 93.65,614.368 C -106.586,532.546 75.965,457.494 79.857,315.1 68.579,186.119 -14.536,15.92 173.9,0.054 411.37,-1.862 445.177,46.538 566.556,213.681 687.935,380.824 799.723,338.119 716.293,630.262 678.057,712.979 540.146,839.909 93.65,614.368 Z"
       transform="rotate(-11,69777.84,7745.8164)"
       id="path17"
       inkscape:connector-curvature="0"
       style="fill:#dadd00" />
    <g
       transform="translate(-526,13477.783)"
       id="g105">
      <g
         transform="translate(275.751,82.399)"
         id="g25">
        <path
           class="b"
           d="m 2121.787,742.816 69.767,31.177 -20.091,28.792 -72.618,-23.273 z"
           transform="translate(-1766.157,-696.085)"
           id="path19"
           inkscape:connector-curvature="0"
           style="fill:#da764a" />
        <path
           class="b"
           d="m 2104.331,955.724 2.057,60.04 165.128,-56.4 c 0,0 68.47,16.129 121.007,-22.623 l 38.377,-6.341 71.006,26.246 21.158,-60.554 -110.635,-39.142 -211.689,18.965 -83.576,44.239 z"
           transform="translate(-2101.336,-733.851)"
           id="path21"
           inkscape:connector-curvature="0"
           style="fill:#da764a" />
        <path
           class="c"
           d="m 1949.452,812.142 96.373,-35.31 67.762,-27.3 144.507,-65.844 c 0,0 27.323,-22.8 54.583,-1.871 l 161.563,81.823 -75.218,0.31 -94.959,-37.34 c 0,0 -26.083,13.384 6.581,32.562 32.664,19.178 129.78,28.34 129.78,28.34 0,0 38.822,16.625 1.523,44.446 0,0 -44.691,17.145 -106.339,-4.943 l -46.3,-7 c 0,0 -7.805,0.03 -48.366,23.788 0,0 -18,20.461 -113.654,-14.512 0,0 -54.5,-18.76 -99.592,9.328 l -79.966,105.518 z"
           transform="translate(-1947.731,-672.976)"
           id="path23"
           inkscape:connector-curvature="0"
           style="fill:#f0b080" />
      </g>
      <g
         transform="translate(656.878)"
         id="g65">
        <g
           class="p"
           transform="translate(-656.88,-163.42)"
           id="g29"
           style="filter:url(#a)">
          <path
             class="d"
             d="m 1601.953,549.829 367.286,20.12 -30.038,522.1 -365.837,-19.881 z"
             transform="translate(-916.49,-386.41)"
             id="path27"
             inkscape:connector-curvature="0"
             style="fill:#ffffff" />
        </g>
        <g
           transform="translate(20.208,37.296)"
           id="g63">
          <g
             transform="translate(15.566,45.567)"
             id="g39">
            <rect
               class="a"
               width="173.422"
               height="15.797"
               transform="rotate(-176.745,89.188369,25.252816)"
               id="rect31"
               x="0"
               y="0"
               style="fill:#dadd00" />
            <rect
               class="a"
               width="173.422"
               height="15.797"
               transform="rotate(-176.745,89.944926,10.263246)"
               id="rect33"
               x="0"
               y="0"
               style="fill:#dadd00" />
            <rect
               class="a"
               width="173.422"
               height="15.756"
               transform="rotate(-176.745,88.273656,57.465769)"
               id="rect35"
               x="0"
               y="0"
               style="fill:#dadd00" />
            <rect
               class="a"
               width="173.422"
               height="15.797"
               transform="rotate(-176.745,88.718983,41.772467)"
               id="rect37"
               x="0"
               y="0"
               style="fill:#dadd00" />
          </g>
          <g
             transform="translate(0,187.005)"
             id="g57">
            <path
               class="e"
               d="m 1955.528,904.757 -1.458,25.643 -331.383,-19.7 1.459,-25.648 z"
               transform="translate(-1612.864,-885.052)"
               id="path41"
               inkscape:connector-curvature="0"
               style="fill:#00bef3" />
            <path
               class="e"
               d="m 1959.2,967.842 -1.459,25.647 -331.383,-19.7 1.458,-25.648 z"
               transform="translate(-1618.99,-905.926)"
               id="path43"
               inkscape:connector-curvature="0"
               style="fill:#00bef3" />
            <path
               class="e"
               d="m 1962.868,1030.926 -1.458,25.647 -331.383,-19.7 1.459,-25.648 z"
               transform="translate(-1625.115,-926.8)"
               id="path45"
               inkscape:connector-curvature="0"
               style="fill:#00bef3" />
            <path
               class="e"
               d="m 1966.538,1094.011 -1.458,25.647 -331.383,-19.7 1.459,-25.648 z"
               transform="translate(-1631.242,-947.674)"
               id="path47"
               inkscape:connector-curvature="0"
               style="fill:#00bef3" />
            <path
               class="e"
               d="m 1970.208,1157.1 -1.458,25.647 -331.383,-19.705 1.459,-25.647 z"
               transform="translate(-1637.367,-968.549)"
               id="path49"
               inkscape:connector-curvature="0"
               style="fill:#00bef3" />
            <path
               class="e"
               d="m 2061.526,1248.355 -1.133,12.058 -114.146,-6.54 1.133,-12.058 z"
               transform="translate(-1935.36,-1003.102)"
               id="path51"
               inkscape:connector-curvature="0"
               style="fill:#00bef3" />
            <path
               class="e"
               d="m 1761.155,1243.343 -1.2,15.388 -114.147,-6.54 1.2,-15.389 z"
               transform="translate(-1433.963,-1001.443)"
               id="path53"
               inkscape:connector-curvature="0"
               style="fill:#00bef3" />
            <path
               class="e"
               d="m 1747.326,1272.632 -0.919,14.183 -98.132,-5.2 0.92,-14.184 z"
               transform="translate(-1421.784,-1011.577)"
               id="path55"
               inkscape:connector-curvature="0"
               style="fill:#00bef3" />
          </g>
          <path
             class="f"
             d="m 1606.311,790.974 131.339,7.641 6.786,-137.438 -131.336,-7.641 z"
             transform="translate(-1390.816,-621.441)"
             id="path59"
             inkscape:connector-curvature="0"
             style="fill:#a1e2e7" />
          <rect
             class="g"
             width="117.228"
             height="15.756"
             transform="rotate(-176.746,70.473399,9.1992932)"
             id="rect61"
             x="0"
             y="0"
             style="fill:#f87564" />
        </g>
      </g>
      <g
         transform="translate(0,147.805)"
         id="g71">
        <rect
           class="d"
           width="189.166"
           height="59.497002"
           transform="rotate(-97.677,266.79739,-49.802966)"
           id="rect67"
           x="0"
           y="0"
           style="fill:#ffffff" />
        <path
           class="h"
           d="m 2566.313,818.513 356.945,-47.786 31.415,233.057 -388.36,52.013 z"
           transform="translate(-2566.313,-770.727)"
           id="path69"
           inkscape:connector-curvature="0"
           style="fill:#002b69" />
      </g>
      <path
         class="i"
         d="m 2086.557,869.423 c 0,0 7.466,29.866 -33.961,35.963 -41.427,6.097 -48.7,1.63 -78.681,-5.955 L 1976.6,833.7 Z"
         transform="translate(-1302.342,-643.76)"
         id="path73"
         inkscape:connector-curvature="0"
         style="opacity:0.36000001;isolation:isolate;mix-blend-mode:multiply;fill:#8d779c" />
      <g
         transform="translate(890.258,51.363)"
         id="g85">
        <path
           class="j"
           d="m 1651.688,867.92 10.542,-25.528 20.644,15.4 -17.985,-76.992 -31.189,10.126 z"
           transform="translate(-1560.752,-677.619)"
           id="path75"
           inkscape:connector-curvature="0"
           style="fill:#e84949" />
        <path
           class="j"
           d="m 1751.68,860.748 -11.265,-27.958 -27.74,11.79 30.275,-73.04 39.005,16.168 z"
           transform="translate(-1712.674,-674.554)"
           id="path77"
           inkscape:connector-curvature="0"
           style="fill:#e84949" />
        <path
           class="k"
           d="m 1614.9,667.52 a 19.646,19.646 0 0 1 15.792,-12.474 19.659,19.659 0 0 1 30.241,-18.2 19.67,19.67 0 0 1 35.271,1.483 19.663,19.663 0 0 1 26.321,22.429 19.646,19.646 0 0 1 8.233,33.571 19.644,19.644 0 0 1 -12.963,32.042 19.662,19.662 0 0 1 -29.263,18.423 19.675,19.675 0 0 1 -34.525,-2.15 19.662,19.662 0 0 1 -26.754,-21.909 19.645,19.645 0 0 1 -8.891,-33.4 19.628,19.628 0 0 1 -3.462,-19.816"
           transform="translate(-1600.705,-626.592)"
           id="path79"
           inkscape:connector-curvature="0"
           style="fill:#ff9500;fill-rule:evenodd" />
        <circle
           class="l"
           cx="41.646"
           cy="41.646"
           r="41.646"
           transform="rotate(-135,62.270114,46.009647)"
           id="circle81"
           style="fill:#ffbe10" />
        <path
           class="d"
           d="m 1676.956,708.781 -17.577,-15.194 23.123,1.947 8.926,-21.323 5.3,22.521 23.377,1.968 -20.048,12.172 5.284,22.446 -17.433,-15.069 -20,12.141 z"
           transform="translate(-1615.164,-642.349)"
           id="path83"
           inkscape:connector-curvature="0"
           style="fill:#ffffff" />
      </g>
      <g
         class="m"
         transform="translate(749.147,420.287)"
         id="g97"
         style="opacity:0.70999995">
        <path
           class="n"
           d="m 1892.426,1260.771 c 20.68,20.191 54.568,18.121 73.583,-3.96 17.807,-20.679 15,-50.579 -4.616,-67.271 -18.944,-16.12 -48.389,-15.392 -67.216,2.047 -20.018,18.543 -21.638,49.768 -1.751,69.184 z m 67.479,-69.7 c 18.676,15.939 21.253,44.429 4.252,64.055 -18.093,20.888 -50.233,22.819 -69.869,3.716 -18.922,-18.405 -17.489,-48.095 1.513,-65.786 17.922,-16.681 46.04,-17.397 64.104,-1.98 z"
           transform="translate(-1878.311,-1177.958)"
           id="path87"
           inkscape:connector-curvature="0"
           style="fill:#8a5785" />
        <path
           class="n"
           d="m 1898.344,1258.711 1.846,-1.892 a 40.547,40.547 0 0 1 -6.035,-7.451 l -2.18,1.435 a 42.617,42.617 0 0 0 6.369,7.908 z m 8.181,6.257 a 43.785,43.785 0 0 0 9.555,4.191 l 0.848,-2.5 a 41.461,41.461 0 0 1 -9.012,-3.949 z m -18.783,-23.254 2.4,-0.916 a 39.519,39.519 0 0 1 -1.848,-9.173 l -2.482,0.371 a 41.3,41.3 0 0 0 1.93,9.718 z m 38.707,29.317 a 46.38,46.38 0 0 0 10.55,-0.56 l -0.339,-2.572 a 43.471,43.471 0 0 1 -9.956,0.518 z m -40.253,-48.856 2.423,0.167 a 41.029,41.029 0 0 1 2.425,-8.906 l -2.261,-0.67 a 43.1,43.1 0 0 0 -2.583,9.409 z m 60.948,45.374 a 46.234,46.234 0 0 0 9.139,-5.089 l -1.419,-2.08 a 44.162,44.162 0 0 1 -8.636,4.783 z m -53.759,-63.337 1.991,1.115 a 42.511,42.511 0 0 1 5.961,-6.951 l 0.363,-0.336 -1.635,-1.483 -0.341,0.313 a 45.568,45.568 0 0 0 -6.339,7.342 z m 70.532,51.339 0.17,-0.2 a 45.02,45.02 0 0 0 5.623,-8.076 l -2.122,-1.21 a 42.584,42.584 0 0 1 -5.339,7.617 z m -54.924,-62.94 a 43.689,43.689 0 0 1 8.234,-3.783 l -0.737,-1.974 a 46.074,46.074 0 0 0 -8.7,3.971 z m 62.12,44.789 2.3,0.689 a 42.489,42.489 0 0 0 1.486,-9.575 l -2.345,-0.174 a 40.686,40.686 0 0 1 -1.442,9.06 z m -45.105,-50.563 a 43.407,43.407 0 0 1 8.935,-0.173 l 0.215,-2.077 a 46.125,46.125 0 0 0 -9.416,0.175 z m 45.912,32.516 2.283,-0.329 a 42.092,42.092 0 0 0 -2.762,-8.962 l -2.116,0.793 a 39.734,39.734 0 0 1 2.594,8.497 z m -28.259,-31.042 a 41.705,41.705 0 0 1 8.132,3.407 l 1.127,-1.8 a 44.4,44.4 0 0 0 -8.573,-3.592 z m 21.276,14.9 1.853,-1.2 a 42.37,42.37 0 0 0 -6.283,-6.8 l -1.518,1.543 a 40.5,40.5 0 0 1 5.947,6.459 z"
           transform="translate(-1880.35,-1180.097)"
           id="path89"
           inkscape:connector-curvature="0"
           style="fill:#8a5785" />
        <path
           class="n"
           d="m 1904.249,1257.031 a 37.941,37.941 0 0 0 3.643,3.089 l 1.59,-2.076 a 35.991,35.991 0 0 1 -6.565,-6.329 l -2.018,1.641 a 38.115,38.115 0 0 0 3.35,3.675 z m 12.236,7.934 a 40.173,40.173 0 0 0 9.651,2.555 l 0.43,-2.559 a 37.266,37.266 0 0 1 -9.031,-2.393 z m -20.559,-19.817 2.311,-1.111 a 34.811,34.811 0 0 1 -2.522,-8.522 l -2.454,0.532 a 36.831,36.831 0 0 0 2.665,9.1 z m 40.261,22.477 a 41.655,41.655 0 0 0 9.764,-2.329 l -0.821,-2.4 a 38.88,38.88 0 0 1 -9.147,2.162 z m -43.208,-40.974 2.45,0.043 a 35.627,35.627 0 0 1 1.871,-8.57 l -2.3,-0.595 a 38.241,38.241 0 0 0 -2.022,9.121 z m 61.82,34.067 a 40.694,40.694 0 0 0 7.382,-6.486 l -1.813,-1.672 a 38.24,38.24 0 0 1 -6.935,6.066 z m -55.652,-51.523 2.021,1.089 a 37.656,37.656 0 0 1 5.585,-6.7 l 0.31,-0.3 -1.645,-1.492 -0.31,0.294 a 40.288,40.288 0 0 0 -5.962,7.108 z m 66.414,35.96 2.13,1.169 a 38.12,38.12 0 0 0 3.356,-8.831 l -2.312,-0.607 a 36.14,36.14 0 0 1 -3.175,8.268 z m -51.521,-47.02 a 38.89,38.89 0 0 1 7.932,-3.455 l -0.677,-2.012 a 41,41 0 0 0 -8.431,3.649 z m 55.731,30.126 2.354,0.053 a 37.884,37.884 0 0 0 -1.157,-9.006 l -2.258,0.469 a 35.392,35.392 0 0 1 1.06,8.483 z m -39.356,-35.174 a 38.447,38.447 0 0 1 8.526,0.3 l 0.362,-2.084 a 41.183,41.183 0 0 0 -9.042,-0.32 z m 35.25,18.824 2.045,-0.966 a 37.306,37.306 0 0 0 -5.144,-7.283 l -1.719,1.388 a 34.832,34.832 0 0 1 4.817,6.861 z m -18.533,-16.352 a 36.269,36.269 0 0 1 7.422,3.949 l 1.329,-1.708 a 38.468,38.468 0 0 0 -7.887,-4.192 z"
           transform="translate(-1882.376,-1182.229)"
           id="path91"
           inkscape:connector-curvature="0"
           style="fill:#8a5785" />
        <path
           class="n"
           d="m 1910.366,1255.354 c 14.229,13.578 37.333,12.31 50.586,-2.529 12.665,-14.183 11.15,-35.167 -2.57,-47.064 -13.384,-11.606 -34.339,-10.987 -47.5,1.6 -13.739,13.145 -14.368,34.774 -0.516,47.993 z m 46.479,-48 a 30.648,30.648 0 0 1 2.294,43.83 c -12.332,13.729 -33.765,14.885 -46.978,2.321 -12.891,-12.259 -12.376,-32.37 0.378,-44.634 12.255,-11.788 31.821,-12.382 44.306,-1.522 z"
           transform="translate(-1884.754,-1184.414)"
           id="path93"
           inkscape:connector-curvature="0"
           style="fill:#8a5785" />
        <path
           class="n"
           d="m 1916.423,1222.6 38.024,34.9 10.038,-11 -37.739,-33.945 z"
           transform="translate(-1890.424,-1189.407)"
           id="path95"
           inkscape:connector-curvature="0"
           style="fill:#8a5785" />
      </g>
      <g
         transform="translate(613.527,167.894)"
         id="g103">
        <path
           class="c"
           d="m 1991.888,800.75 v 0 l 4.892,1.117 c 32.665,19.177 129.781,28.339 129.781,28.339 0,0 38.822,16.625 1.523,44.446 0,0 -44.691,17.145 -106.339,-4.943 l -50.405,-7.7 z"
           transform="translate(-1971.339,-800.75)"
           id="path99"
           inkscape:connector-curvature="0"
           style="fill:#f0b080" />
        <path
           class="o"
           d="m 2015.909,879.413 -7.12,-0.606 c -13,-1.425 -14.26,-7.9 -13.563,-16.085 l 0.313,-3.675 a 12.155,12.155 0 0 1 13.143,-11.082 l 9.831,0.836 a 12.155,12.155 0 0 1 11.082,13.143 l -0.543,6.387 a 12.155,12.155 0 0 1 -13.143,11.082 z"
           transform="translate(-1872.586,-816.359)"
           id="path101"
           inkscape:connector-curvature="0"
           style="fill:#ffdacc" />
      </g>
    </g>
  </g>
</svg>
