<svg xmlns="http://www.w3.org/2000/svg" xmlns:xlink="http://www.w3.org/1999/xlink" width="677" height="791" viewBox="0 0 677 791"><defs><style>.a,.c{fill:#fff;}.b{clip-path:url(#a);}.c{stroke:#707070;}.d{opacity:0.666;fill:url(#b);}.e,.f,.g{opacity:0.3;}.e{mix-blend-mode:screen;fill:url(#c);}.e,.g,.i{isolation:isolate;}.f,.g{fill:url(#d);}.g{mix-blend-mode:multiply;}.h{fill:url(#f);}.i{mix-blend-mode:overlay;fill:url(#g);}.j{fill:#dadd00;}.k{fill:#00bef3;}.l{stroke:none;}.m{fill:none;}</style><clipPath id="a"><rect class="a" width="677" height="791" transform="translate(923 4696)"/></clipPath><linearGradient id="b" x1="0.5" x2="0.5" y2="1" gradientUnits="objectBoundingBox"><stop offset="0" stop-color="#4fc8ed"/><stop offset="1" stop-color="#6c696a"/></linearGradient><radialGradient id="c" cx="0.5" cy="0.5" fy="0.4255307912826538" r="0.5" gradientTransform="translate(0.913 -0.074) rotate(80.783)" gradientUnits="objectBoundingBox"><stop offset="0" stop-color="#fff"/><stop offset="0.129" stop-color="#e0e0e0"/><stop offset="0.411" stop-color="#919191"/><stop offset="0.824" stop-color="#151515"/><stop offset="0.892"/></radialGradient><linearGradient id="d" y1="0.5" x2="1" y2="0.5" gradientUnits="objectBoundingBox"><stop offset="0" stop-color="#4d66ae"/><stop offset="0.203" stop-color="#645fab"/><stop offset="0.513" stop-color="#8557a7"/><stop offset="0.603" stop-color="#7e62ae"/><stop offset="0.765" stop-color="#6e82c2"/><stop offset="0.98" stop-color="#54b5e3"/><stop offset="1" stop-color="#52bbe7"/></linearGradient><linearGradient id="f" y1="0.5" x2="1" y2="0.5" gradientUnits="objectBoundingBox"><stop offset="0" stop-color="#21409a"/><stop offset="0.257" stop-color="#453595"/><stop offset="0.513" stop-color="#662d91"/><stop offset="0.589" stop-color="#5f3898"/><stop offset="0.724" stop-color="#4f58ac"/><stop offset="0.904" stop-color="#368bcd"/><stop offset="1" stop-color="#27aae1"/></linearGradient><linearGradient id="g" y1="0.5" x2="1" y2="0.5" gradientUnits="objectBoundingBox"><stop offset="0" stop-color="#00bef3"/><stop offset="0.257" stop-color="#00bef3"/><stop offset="0.513" stop-color="#00bef3"/><stop offset="0.589" stop-color="#00bef3"/><stop offset="0.724" stop-color="#00bef3"/><stop offset="0.904" stop-color="#368bcd"/><stop offset="1" stop-color="#27aae1"/></linearGradient></defs><g class="b" transform="translate(-923 -4696)"><g class="c" transform="translate(1078 4777)"><circle class="l" cx="331" cy="331" r="331"/><circle class="m" cx="331" cy="331" r="330.5"/></g><path class="d" d="M1296.048,901.9l-1.412-.314s-1.881-3.138,1.726-1.412c0,0,.785,2.04,1.255.471a21.727,21.727,0,0,0,2.979-1.53,19.421,19.421,0,0,1,2.51-1.449,2.008,2.008,0,0,0,1.411-3.138,9.266,9.266,0,0,1-.314-1.881l-1.1-.942-.627-.784-.942-.941v-1.1a2.361,2.361,0,0,0-2.667-1.41l-1.253-.157-1.883-1.255-.941-2.038s.628-2.04-1.253-2.354h-1.1l-1.569-1.412-1.724-.942a14.441,14.441,0,0,1-1.569-3.136,10.182,10.182,0,0,0-1.412-2.666l-2.822-1.569-1.883-.628-1.883-1.41-1.724-1.1-1.883-1.255-2.352-.941s-1.569-2.98-1.569-.471c0,0,.785,2.354-.471,2.982l-.783-.628-.942-1.883-1.412-4.235-.941-1.255-.785-1.881.471-1.255-.785-2.509-.626-1.569.626-1.412-1.567-.784s-.471-1.253-.941-2.352-.157-1.255-.157-1.255,1.1-1.255,1.1-1.881a2.279,2.279,0,0,0-.157-.942l-2.04-1.1-.942-1.412-.783-1.41a5.276,5.276,0,0,0-1.569-.628h-1.569c-.471,0-.942-1.255-.942-1.255l-.469-2.038,1.1-.471-1.41-2.2-1.255-.314-3.45-1.255-.785-.783-.628-2.981-.941-.942.471-1.1,2.04-1.883-1.883-.628-1.726-2.195,1.726-4.862a10.093,10.093,0,0,1,1.141-2.073c-.291-.339-.984-1.377-.984-1.377a8.945,8.945,0,0,0-2.04-2.511l-.782-2.04.625-1.1.157-2.2-2.195-.628s-1.1-1.724-1.412-2.352a9.363,9.363,0,0,1-.471-1.1l-.785-2.511-2.038-.783-1.726-1.726-2.979.314s-.157-.785-.314-1.412a2.261,2.261,0,0,0-.941-1.1l-1.1-.314-.471-1.569a5.107,5.107,0,0,0,.471-2.04v-1.567l.157-1.255a1.573,1.573,0,0,0,1.726-1.726s-.471-2.352-3.136-.469l-1.255-.784-.941-1.1-.471-1.569-.785-1.569-.626-1.567-.785-1.726-1.255-1.1-.314-2.038-1.883-1.726-.94-1.567-1.255-1.569-.471-1.569-1.255-1.41.314-1.1-1.41-2.04-.314-1.1,1.1-.628s-3.136,0-1.881-1.255c0,0,2.509-1.255,0-1.726,0,0-1.412-1.41-.47-1.41,0,0,4.234.469,1.255-1.569l-1.412-.785-3.607-2.979-1.412-1.726-.785-.628-.785-.628-.941-1.881a3.223,3.223,0,0,0-.312-1.412c-.314-.471-1.1-.942-1.255-1.412a10.94,10.94,0,0,0-1.569-1.881l-.157-2.668s-2.038.157-2.038-2.344c0,0,2.2-4.4,2.2,1.4l1.255.626v1.255l1.412.941v1.883s2.038-.157,2.038,1.253v2.2l.785.314,2.04,1.41a10,10,0,0,1,.939,1.569,2.97,2.97,0,0,0,.628.942,10.421,10.421,0,0,0,2.956,3.063c1.261.726,2.722.771,3.946-1.337v-2.354a12.976,12.976,0,0,1,1.075-3.136c.6-.942,1.277-2.2,1.277-2.2l.157-2.666s3.921-8,2.667-2.2l-.157,1.412-.785,2.822-.471,2.2v1.726s-2.98,2.823-2.668,4.549l1.569.312,2.825.157h.469c.471,0,1.1.628,1.1.628l.785.784,1.255,1.569,1.411,1.567.314.471a13.843,13.843,0,0,1,.785,1.569s.628,1.255,1.726,2.979l.785.628.782.471,1.1.471,1.1,1.412v.784l.785,1.1.785,1.1v2.823l.628,2.2a9.2,9.2,0,0,1,1.567,1.255c.785.785,1.256.157,1.256.157l1.244,1.881s1.736-2.666,1.422.471c-.056.564-.471,2.511-.471,2.511l-.94,1.41s-.314,4.862,2.352,3.138l1.1.626a2.237,2.237,0,0,1,1.1.316c.47.312,1.41.783,1.41.783s.785.314,1.412.628,1.883.471,2.354.942a19.022,19.022,0,0,0,2.509,1.569l.785,1.1.942,1.569.157.471a10.149,10.149,0,0,0,.939,1.726c.471.783,1.029,2.038,1.029,2.038s1.953,2.2,1.953,2.667-.157,2.823-.157,2.823l-1.1,2.509s-1.567,7.216,0,5.8c0,0,3.138-3.45,2.354,2.354l.784,1.253v3.923s.783,1.41,1.253,1.41,1.883,1.1,1.883,1.1v1.412l2.823.942c.471.157,1.255-2.2,1.255.471v4.392a2.812,2.812,0,0,0,.785,1.724l.628,1.1a9.818,9.818,0,0,1,2.195.628c1.1.471,1.255.785,1.255.785s.785,1.41,1.256,2.352a2.716,2.716,0,0,1,0,2.04l1.1,1.253a5.629,5.629,0,0,1,1.726,0c.785.157.785.314,1.255.785a14.93,14.93,0,0,1,1.412,1.883,13.839,13.839,0,0,0,1.567,1.881,8.112,8.112,0,0,1,.942,1.1s1.726,1.412,2.352,2.04,1.412.784,1.726,1.253a10.234,10.234,0,0,0,1.569,1.412v1.569a10.4,10.4,0,0,0,.942,1.724,9.362,9.362,0,0,1,.783,1.255s1.569,2.04,1.569,3.136-.47.628-.941,1.255a4.337,4.337,0,0,0-.628,1.1v1.883l2.667,2.352-1.569,1.1v4.235l1.1,1.883a6.2,6.2,0,0,0,1.255,1.881c.626.471,0,1.412,0,1.412l1.567,1.253v3.3l.942,1.567v1.569s1.255,1.255,1.1,1.726a20.493,20.493,0,0,1-1.1,2.038l.784,1.1,1.412,1.1v2.038c0,.471,1.41.941,1.41.941s-.157,2.981,1.726,1.412l2.354.314a12.287,12.287,0,0,1,1.1.628,4.624,4.624,0,0,0,1.412.471l2.2-1.1s.783-.157,2.038-.314,2.354,1.412,4.862-.942c.362-.339.157-3.607,1.255-1.881,0,0,.785,4.235,2.195.312V886.69a2.9,2.9,0,0,0,1.883-1.412l1.568-.941,1.726.471,2.511-.626s3.45,1.253,4.235-.471a4.324,4.324,0,0,1,1.881-.785h1.569l1.255-.628,2.195-.785c2.2-.784.471-1.1.471-1.1l1.569-.314,1.256-.314c1.253-.312,0-2.823,1.881-.312l1.412.312,1.253.471.628-.157c.628-.157,1.1-1.1,1.1-1.1l2.511-1.726a2.82,2.82,0,0,1,.783-.941c.471-.314.157-1.412.157-1.412l2.04-.312s1.883-1.1,2.352-1.412a5.528,5.528,0,0,1,1.883-.785,18.2,18.2,0,0,1,2.354-.471,25.457,25.457,0,0,0,2.822-.157c1.1-.157,1.256-.785,1.256-.785l1.724-1.1,1.569-.157,4.706-1.569,1.1-.628h2.509a4.382,4.382,0,0,0,1.412-.784c.471-.471.628-.942,1.1-1.412s1.881-.469,1.881-.469,2.668-2.511.47-2.824c0,0-.784,0-.314-1.255,0,0,.784-1.724,1.412-2.823,0,0,1.255-.785,2.195-1.255s.942-.157.942-.157a10.158,10.158,0,0,0,1.569-.471,4.225,4.225,0,0,1,1.412-.312s1.881-.314,2.665-.471,1.57-.471,2.352-.628,1.726-1.412,1.726-1.412l2.354-.157a5.531,5.531,0,0,1,4.705-1.881,2.646,2.646,0,0,0,3.136,1.41l3.293-2.195s1.883-2.354-.47-2.354l.157-1.255,1.255-.155v-1.412l1.1-.314.314-.628a1.115,1.115,0,0,1,.942-.628l1.41.157h3.766s2.509.628,2.038-.314v-.941l1.1-.314,1.41-1.1,1.569-.157.627-1.412.157-1.255.941-.94,1.724-1.1,1.412-1.569,1.726.157s5.176-.628,2.666-2.352c0,0-2.822-.941-1.412-1.255l1.412-.471a7.991,7.991,0,0,0,1.726-.628,4.279,4.279,0,0,0,1.1-2.038c.159-.628,1.412-1.412,1.412-1.412s.785-2.2,1.412-2.511a3.5,3.5,0,0,0,1.569-1.41c.155-.471,1.41-1.1,1.41-1.1a1.542,1.542,0,0,0,1.726-.314c.628-.785-.314-2.98-.314-2.98s-.471-4.706-1.255-.314c0,0-2.2,1.881-1.567-1.1l1.1-.942s1.255-.784,1.726-1.1a10.247,10.247,0,0,0,1.412-1.567l2.509-.942.157-1.883.784-1.881s1.1-.314,1.1-.941a8.973,8.973,0,0,1,.939-2.354s3.3-3.293-1.881-3.921l-1.726-1.569v-.626c0-.628-1.1-.941-1.1-.941l-1.253-1.255-.471-.941-2.04-1.724a18.019,18.019,0,0,1-1.412-1.883,6.163,6.163,0,0,0-.783-1.1l-1.883-.157-1.1-.471a1.49,1.49,0,0,0-1.568-1.253l-1.1.471a20.392,20.392,0,0,0-2.668-.314c-.939,0-1.41-1.569-1.41-1.569l-1.1.471s-.942,4.392-2.509-.314l-.942-1.412s-.471-.785-.785-1.253-1.1.157-1.1.157l-.157-1.569-.47-.785h-1.1l-.314-1.255-.471-1.41-.941-.314-.471-1.255.157-1.1v-1.724a2.619,2.619,0,0,0-.471-1.412s-1.253-.628.628-1.883l.314-1.253.471-2.354s.627-5.176-2.354-1.569l-.941.941-1.881,1.412-1.255.628-1.255,1.1-1.724.94h-1.569l-1.726.628-1.724,1.255h-1.255l-2.666.314-.942,2.038-1.1.157-.314-1.1-.785-.941-1.253-.628-1.1.471-1.1.157-.941.628a2.48,2.48,0,0,0-1.1-1.412l-.784.314-1.255-.471-.471-.941-1.569.941-1.1,1.569-1.412.157-2.04-.784-.939-1.255-.942-.941-.941-1.724-1.883-.628v-1.726l-.939-.785-1.883-.94-.47-1.1a17.061,17.061,0,0,1-2.352.314c-.784,0-.157-1.412-.157-1.412l-.471-1.569-2.824-.157s-2.666,1.1-3.45-.157c0,0,2.2-.783,1.883-1.881,0,0-1.412-2.668-2.51.157l-1.1.157a4.434,4.434,0,0,0-2.823-.314l-1.881-.157-.942-.628.157-2.04-1.255-.94v-1.255l1.883-.942s-.157-2.195-2.2-.157l-.942.314-.471-1.255-1.253-1.253-1.255-.785a11.1,11.1,0,0,1-.314-1.883c0-.628,1.726-.628,0-2.665h-1.255l-1.567-.157v-1.412l.94-.942v-2.665a5.7,5.7,0,0,0,1.412-1.1.7.7,0,0,1,.785-.314l1.569-.628.469.157c.47.157.627-.785.627-.785a9.313,9.313,0,0,0,1.5.628c.242,0,.856-.471.856-.471s-2.668-4.706,1.412-.312c0,0,.626-3.138,1.1,0l1.255,1.1a17.53,17.53,0,0,0,1.569,1.412c.471.314,1.254.784,1.254.784l1.255,2.666,1.569,1.726,1.881,2.979.941,2.2s3.293,7.371,4.706,4.549l1.1-.628.785-.941s1.1-2.823,1.881-1.255c0,0,.157,2.2,1.1,1.726,0,0,1.569-1.412,2.667.784l.939,1.41v1.883h2.354l1.724,1.065s6.275,1.288,2.511,1.445c0,0-2.2-1.255-1.883.783.1.62,2.04.784,2.04.784l1.567.157.785.942,1.883-1.1,1.1-.314.785.471.939-.157s.785.314,2.04.942,0,1.255,0,1.255.785,3.45,2.04,1.567c0,0,0-1.253,1.1-1.253s.941.314,1.569.628a4.973,4.973,0,0,0,2.195,0h2.2l.942-.314,2.2-1.1,1.1-1.255h1.1l1.412-.628.939-1.567s.942,2.352,1.412,1.1c0,0,1.883-4.078,3.921-1.567l.941,1.41.785,1.569v2.666l.941.942v1.412s2.038,4.705,6.273,4.392c0,0,1.726-1.569,2.04.785h4.706s1.253,1.412,1.412,0h1.253l1.412.833v.734l1.255.157s.785,2.354,1.881.285c0,0,.785-2.793,2.354.229a5.435,5.435,0,0,1,2.979,0l2.04.033a12.651,12.651,0,0,1,1.881,0h3.138l.939.866,1.726.942,1.255.314.785.785,1.1-.314.939-.157s1.412-3.607,1.726-2.04c0,0,1.726,9.568,2.666.942l.785.157.942.784h1.569a4.626,4.626,0,0,0,1.567-.471h.471a11.728,11.728,0,0,1,1.726.314l.785.314c.782.314.782,0,1.567,0a9.179,9.179,0,0,0,1.569-.157h.47a20.323,20.323,0,0,1,2.352.471,16.336,16.336,0,0,1,1.726-.157,2.937,2.937,0,0,0,1.412-.628h.784l2.509.471a3.772,3.772,0,0,0,2.038,0c1.1-.314,1.1-.628,1.1-.628h3.766l1.41-.628v-.785a3.56,3.56,0,0,0,2.667,0,5.861,5.861,0,0,0,1.568,1.726,4.74,4.74,0,0,0,1.412.471,1.082,1.082,0,0,0,.785-.471l1.41-1.726h4.08s1.881,1.412,1.1,2.668v.783l.785.628h2.04v1.255a1.3,1.3,0,0,1,1.569,1.569s-.628,2.2.626,2.98v1.569s.471,1.881,3.295,2.038c0,0,1.567-1.1,1.567.784,0,0-5.176,2.981-2.958,3.921a1.23,1.23,0,0,1,1.546,1.133s-2.352.436-1.253,1.377c0,0,1.412,1.1,1.724-.471,0,0,1.1-2.04,1.255,0,0,0,1.569,3.136,1.883.785h2.2l1.569,1.1s2.352,7.53,5.647,5.176h.942l1.568,2.824,1.726,1.881,1.881,2.667,3.3,2.98,2.509,1.883,2.354,1.881a10.057,10.057,0,0,1,2.508,1.1c.471.471,1.726,0,1.726,0l1.567.628s.314,1.883,1.569,2.04h1.883v1.253l1.1,1.883v.942s.314,1.724,3.766,1.724a14.765,14.765,0,0,0,.628,1.569,28.219,28.219,0,0,0,2.666,2.979l1.569.941c1.567.942,0,2.354,0,2.354v2.509l1.41,2.2v1.567l.628,3.452,2.04,2.195,1.41,3.293.628,4.862.784,1.726v2.979l.628,1.569,1.726,2.2,1.253,2.823.785,2.354,1.569,2.979,1.726,1.726,1.567,2.195v1.881l1.569,2.511v5.019s1.881,4.705,2.195,5.333,1.412,3.293,1.412,3.293l1.412,2.823s1.881,1.569,2.352,1.883.942,2.354.942,2.354l1.255,1.253.628,2.354,1.253,2.509s.628,2.354.785,2.981a3.564,3.564,0,0,0,1.1,1.724c.628.628-.157,1.412,0,1.883s.628,1.724.628,1.724v2.667l.785,1.881,4.234,5.647,3.921,4.391s5.333,4.706,9.4,1.412c0,0,.8-2.979.953-.157l-.941,1.883s-.314,3.764,2.352-1.412v-3.45c0-1.1,1.412-2.511,1.412-2.511s-.157-2.979,3.45-1.724c0,0,6.589-3.452,7.373,3.136v10.98l.785,2.979a9.861,9.861,0,0,0,0,2.195c.157.471.625,1.726.625,1.726l.941,1.412v1.881l2.2,1.883s2.823,1.255,3.45.941A7.139,7.139,0,0,1,1643,952.1l2.666-.628,2.2-.471,2.038-.941,1.255-1.253a7.256,7.256,0,0,0,1.569-1.883,3.469,3.469,0,0,0,0-1.883,11.93,11.93,0,0,0,1.567-1.881,12.3,12.3,0,0,0,.314-3.45,20.782,20.782,0,0,0-.942-3.378c-.312-1.182-1.881-1.327-1.881-1.327l-.785-1.1-.471-1.255s-.156-1.255-.314-2.04-1.567-1.1-1.567-1.1-2.2,1.41-1.255-3.452c0,0-1.1,0-1.1-.626a16.324,16.324,0,0,0-.157-1.726,8.712,8.712,0,0,1-.627-1.255c-.157-.471-.942-1.724-1.255-2.509a16.994,16.994,0,0,0-1.253-2.2l-1.412-.785-.627-1.1-.785-1.1-.785-1.255-1.724-1.569-.942-1.724v-4.235l-1.1-2.354v-4.392a13.754,13.754,0,0,0,.942-2.038l.941-1.1.7-1.255s.392-1.412.06-1.881.8-2.2.961-2.668.939-2.509.939-2.509v-5.647l-.471-1.883-.469-.942s-.159-2.352-.159-2.979v-2.509a3.823,3.823,0,0,1-.782-2.668v-2.195l1.41-1.1,1.255-1.569s1.1-.471,1.569-.626a3.9,3.9,0,0,1,1.567.155l1.1-1.1.784-1.255,2.04-1.1a3.037,3.037,0,0,1,1.41-2.352s6.432,1.253,8.314-4.706c0,0-.47-2.51.783-3.452l2.667-1.881,1.881-1.255s2.2-1.1,2.667-1.412,1.726-1.253,1.726-1.253l1.1-1.569,2.04-.942a7.947,7.947,0,0,0,2.2-1.724,8.729,8.729,0,0,1,2.04-1.726l1.1-.941h1.881v-2.195l1.726-1.412v-1.412l1.1-1.1,2.038-2.352s2.2-.785,2.511-1.569,1.881-.157,1.881-.157h2.2l2.352-.783a16.742,16.742,0,0,1,2.2-1.569l1.41-.471,1.569-.785,1.726-.314v-1.567l2.352-.314v-1.1l.942-1.726,1.255-.785.942-.783v-1.412s.312-4.706,2.666-.471c0,0,1.412.157,1.412-.941l1.567.471h2.824s7.685.941,4.705-2.666c-.6-.726-.314-.784-.314-.784l-1.412-.471s-4.863-2.353,2.2-1.726l.939.992.942,1.989,2.354-.192s1.724-4.043,2.666,0h1.412l1.412.663,2.352.312,1.1.314h.941l1.41.157a13.53,13.53,0,0,0,7.844-.471s.626-2.195,2.2,0l.784,2.04,1.412,2.04V820.5l1.41,1.1,1.569,1.569.941,1.1h.941l.94,1.412,1.255,1.569.628.941h2.311l.354,1.1s-1.567,1.883,1.883,2.354c0,0,2.04.628-.471,1.724,0,0-1.1-.783,0,1.726l2.354,2.666,2.195.854s1.883,8.088,2.04,4.322c0,0-1.412-9.725,2.823,0l.314,1.569.785.942-.471,1.567.628,1.883s-1.412,1.1-1.412,1.569a6.44,6.44,0,0,1-.314,1.41,1.812,1.812,0,0,0-.782,2.667l-.785,1.255-.157,1.567-.628,1.883-.628,1.41.785,1.412.941,1.726,1.1,1.1h1.1l1.412,1.1,1.881,1.389,1.391,1.122s4.413,2.823,3.471-.785c-.2-.759,1.255,0,1.255,0h1.255l.942.655c.939.653.785,0,.785,0l1.567,1.385.471.157a4.054,4.054,0,0,0,1.412,0l.941-.785s1.1,4.862,1.567,1.41c0,0-.471-4.392,1.1-.678l.628.835,1.41.471s.785-3.136,1.569.314l1.255-1.067s-.314,3.892,1.1,2.637l1.255-.941s2.354-4.549,1.883,1.255h1.255v1.881l-.784,1.569.628,2.509h1.253l-.313,1.1.627,1.412.942,1.569.314,1.567.784.785,1.412.628s.94.157-1.255,2.04h-1.569v1.253s.628.785,2.354,0h.942s2.979,1.883-.471,1.569h-.784l-.785,1.412-.941.94-1.724,1.726-.785,1.569.628.941h2.509l-.785,1.567v1.092c0,1.091.785.006.785.006s2.353-.157.627,1.1c0,0-2.2,1.881-2.04,2.823h3.921s2.2.941-.312,2.354H1800s-2.979.783-.314,2.195c0,0-3.764,7.216-.156,2.2h.941s1.411.783.157,2.666c0,0-3.921-.157-.471,2.511l-.941.626s-3.921,4.549.628,3.766l.47,2.038.157,3.293.157,2.354a31.3,31.3,0,0,1,.628,3.293c0,.628-.157,2.321-.157,2.321l.783,1.914s-.155,5.961,1.569.784h2.825s1.567,1.883,2.038,2.511a9.7,9.7,0,0,0,.785.94l2.354,2.2.939,1.569s-2.195,7.528,0,5.331c0,0,1.569-2.509,1.255,0a13.578,13.578,0,0,1,1.883,1.412c.628.628,1.41,1.255,1.41,1.255l.471,2.2.47,2.032.471,2.04s.785,1.724,1.1,2.666a4.589,4.589,0,0,1-.157,2.352l1.1,2.2.942,2.2.783,2.979,1.412,1.569,1.883,2.195s2.508,1.255.627,1.726c0,0-1.255-.314-1.1,1.255v1.724l1.1,1.412h2.509a13.774,13.774,0,0,1,1.569.785,12.241,12.241,0,0,1,1.567,1.881l1.726.942,1.255.941,2.734,1.726,1.658,1.41s2.666,1.412,3.136,1.726,2.509,1.724,2.509,1.724,3.609,3.923-3.45.157c0,0,.314,2.981-1.726,1.255l-.94-.941s-1.255-1.1-1.187-1.41-1.01-.785-1.01-.785l-.471-.942h-2.195l-.314-.785H1832l-.314-1.1-1.724-.783s3.607-.628.94-1.412l-1.254-1.412-1.883-.941-2.038-.94-1.569-1.412s-3.921-2.823-1.883.784c0,0,.941,5.49-1.1,1.1l-.783-1.1-1.412-1.255-1.412-1.412-.94-1.41-1.1-1.255-.941-.471-.314-.785v-1.41l-.785-1.883s-2.352-5.647-2.352-.471l.785.784s.625,4.392-.471,2.2c-.223-.444-.942-.471-.942-.471l-1.255-1.724-.628-2.2s-.628-3.136-2.666.628l-1.569-.785-.628-1.724-2.038-1.1-1.883-1.569-.314-1.412a6.723,6.723,0,0,0-.785-2.352c-.471-.471-4.235-5.8-6.587-1.569l-1.1-.314a1.744,1.744,0,0,0-2.824-.471s-2.979,1.726-5.488-.155l-1.726-.942a5,5,0,0,0-1.881-2.2c-1.1-.471-1.412,0-1.412,0a1.644,1.644,0,0,0-2.825.471s-6.429-4.548-.94,1.883l.626,1.567.784,2.2v2.823h1.569v.785l1.255,2.2.942,1.41s1.41.628,1.881.784.627.471,1.412,1.412a17.5,17.5,0,0,0,2.195,2.04l.784.94a18.17,18.17,0,0,1,2.352.628,2.731,2.731,0,0,0,1.688,0,4.859,4.859,0,0,1,1.451,1.255l.784.942a3.429,3.429,0,0,1,.471,1.41,2.191,2.191,0,0,0,.628,1.255l.469.471a4.374,4.374,0,0,0,1.412.785l1.1.785-.314,1.724-.784,1.4-1.568.172s-1.726-.941-1.726,1.569c0,0-3.3,1.881-1.255,2.038l1.255-.314s.785-2.038,1.567.157c0,0,1.255.941,1.255-1.881h2.354s.785,2.352,1.41.783h1.726l1.726,2.04,1.41,1.883h2.158l1.294.628s-3.3,1.724.627,5.174a1.471,1.471,0,0,0,0,2.354l.775,1.883.008,1.41s-.469,2.668,5.647,4.078c.684.159,1.569,2.2,1.569,2.2l1.412,2.195,2.195,1.569,1.883,1.412v1.881l.783,2.04.785,1.569,1.726,2.509v2.2l.314.626c.314.628,0,.942,0,.942l1.1,2.2,1.1.314.942,2.352,1.412.941,1.255,2.509v1.1l1.567,1.1,1.569,1.726,1.412,1.41,2.038,2.2s2.825,7.685,1.726,1.255c0,0,.942.783,1.569,1.254a.956.956,0,0,0,1.1.157s.628,5.176,2.04,3.607c0,0,1.1.157,1.41.628s1.412,0,1.412,0l.628.785a14.483,14.483,0,0,0,1.412,1.255,4.088,4.088,0,0,0,1.1.471l2.352,1.253v1.412l1.883,1.1.939,1.569,1.255.471,1.883,2.352s2.979,6.118,3.137,1.1l-.157-1.255-1.255-.994s-.314-4.339,1.726-1.2c0,0,3.137,3.136,4.392,2.823,0,0,3.764-2.823,2.979-.157l-.94.784s-2.2,2.509.626,1.567l1.255-.94.942-1.807,2.823-1.958s1.883-3.607,2.354,0l.314.889s1.724,2.406,2.038,0l-.314-1.2s-1.411-1.726.941-1.569h3.764l.942-.628,2.981.628s2.979-.157,0-1.255h-1.1l-1.255-.942s-.628-2.509.627-1.253a1.234,1.234,0,0,0,1.883-.941s1.724.941.625-1.1h-1.1v-1.569s-1.255-2.038.157-1.881c0,0,2.352,1.724,3.45.942l.157-1.1h2.509l.314-.942a5.831,5.831,0,0,0-2.332-.941c-.938-.19-1.089-.035-1.1.046a.268.268,0,0,0-.018-.046,5.142,5.142,0,0,0-1.255-.942l-1.41-1.41s-.314-1.412-.628-2.511a5.735,5.735,0,0,0-.785-1.724,17.486,17.486,0,0,1-1.412-1.569c-.314-.471,0-.784-.157-1.883s-.314-.783-.314-.783a13.629,13.629,0,0,1-1.567-3.138c-.314-1.253,1.1-1.881,1.1-1.881a10.265,10.265,0,0,0,1.412,1.41c.785.628,1.256.471,1.256.471l.471,1.569-.942,1.1v1.41l.785,2.354a15.319,15.319,0,0,1,1.724,2.195l.314.941s.471,1.726,1.883.471c0,0,.314-1.726.647.471,0,0,.451,1.883,1.393,1.883s.155-1.255.155-1.255.628-2.2,1.57-.314l.471,1.412,1.1,1.724h1.1l1.567-.785.628-2.509-.157-1.412-.314-2.352-.628-2.04-.47-.785a5.526,5.526,0,0,1-.783-1.881,8.678,8.678,0,0,1,.157-1.412h1.1l.942.785,1.1,1.1v1.1l1.255.785,1.253,1.1h2.04v-1.412l-1.569-.784s2.511-.155-1.255-2.038H1898.6l-.248-.785s1.412-3.258-2.511-2.352l-.969.94h-2.324l-.941-.852-.157-.715,1.1-.471s3.293,2.666,2.04,0l-.785-1.1-1.255-1.412h-1.255l-1.7-.626-.961.626s-.941-.469-.941-.94v-2.511l-.941-.314h-1.1l-1.726-1.255-.941-1.567s-1.881-1.569,0,2.979v.942l-2.038-.785-1.726-1.569h-2.352l-1.1-1.881h-3.156a1.71,1.71,0,0,1-.139-1.412,3.589,3.589,0,0,0,0-1.881l-1.1-.785-1.255-.628-.628-1.726h-.785l-1.41-.628h-.785s-.471-.783-.732-1.253a1.907,1.907,0,0,1,0-1.255l-1.621-.942-.314-.942s-1.724-.939-1.542-1.532,1.033-.035,1.033-.035,3.8.471,1.922-2.04v-.942a7.069,7.069,0,0,1-1.922,0c-.825-.157,0-1.253,0-1.253l.666-.942-.666-2.2-2.627-.941v-2.823l-1.883-2.195s-1.881-2.04-1.881-2.511-.157-2.04-.157-2.509-.942-1.255-.942-1.255v-1.1l.471-.785a8.388,8.388,0,0,0-.627-2.822,3.348,3.348,0,0,0-1.412-.942l-.628-1.569s.314-2.666.314-3.607a2.808,2.808,0,0,0-.783-1.724l-1.255-.941-.471-1.726s-.471-2.195-.628-2.823-.942-3.3-1.1-3.764-1.1-2.981-1.1-2.981l-1.883-4.548-1.1-2.509-1.724.157-.785-.628-1.255-2.04s.628-4.235-3.136-3.45c0,0-.942,2.2-2.04.628l-1.253-1.412-1.255-1.255-.157-.939-1.726-.785-.942-1.883-1.724-.157-1.1-.784-.942-1.724-.47-1.726-.157-1.412-.471-.785-.469-1.129-1.1-.909v-1.726s-.627-2.666.628-2.195l.471.785,2.038,2.038s3.764.941-1.569-4.235l-2.352-1.569s3.293-2.352.628-2.195c-.647.039-1.1-.941-1.1-.941l-1.569-.785-.942-.157s1.412-5.8-5.645-5.49a2.911,2.911,0,0,0-2.824-2.509v-1.255l.785-3.607.471-1.726.785-1.881.784-2.2,1.41-1.881,1.255-1.255,1.1-.157.942-.941,1.253-.471.785.942.941-1.255h2.354l.783-1.1,1.569-.471.471-.785,2.354-.471h.939s.314,1.569,1.569,1.255c0,0,0,1.724,1.412,1.724l1.41-.626.785.155.628,1.1,1.255.471,1.724,1.883.941,1.724,1.255,1.883.942,1.255.626,2.195.941,1.726.157,1.724.785,2.04,1.412-.157.314.941.785,1.255.157.94-.941.628-1.412.628v1.255h1.1l1.41-1.1,2.04-.942s3.764.628-.47,1.726l-.314.942.47,1.567,1.1.628.157,1.255-.314,1.883.784,1.724-.941.942-.314,1.883s1.726.469,1.1,1.253c0,0,.471,1.412-2.982.157v1.726l1.256.752.785,1.914a11.272,11.272,0,0,1,1.726-1.1c.47-.157,3.136-2.511,1.1.783l-1.253.314s-1.255,2.981,2.666.941v-2.038c0-.785.471-.818.471-.818l1.412-.909,1.1.909s1.255.19,1.255,0,.941,0,.941,0l.314,2.071.785.785.157-.941v-1.914h1.253s1.569,4.582,2.825,0l.942.818,1.1,1.41.471-2.228s2.04-3.262,2.981,0v2.228l.471,1.726,1.1.471-.471,1.255-.626,1.41-1.1.314s-3.3-1.412-1.255.314l-.471,1.726,1.255.941,1.412-.628.939.783.157-2.352,1.1-.942.157-2.195s.471-2.354,1.1-1.1c0,0,2.509,6.587,2.979,4.078v-1.569a3.871,3.871,0,0,0-.784-2.352s1.255-1.1-.471-1.883l.471-1.41s1.883,0,1.569-2.354c0,0,1.1.314,1.1-1.412,0,0,1.254,0,.628-1.881v-1.412l.157-1.1a2.06,2.06,0,0,0,1.881-2.509s1.883.157,1.1-.941l-.157-1.255.784-.471.157-1.567s1.881-.314,1.881-.942a14.085,14.085,0,0,1,1.256-2.979l1.745-3.609,1.234-1.41,2.668-.471,1.726-2.2,2.352-1.724s.941-1.726,1.1-2.2a11.252,11.252,0,0,1,1.1-1.726l1.881-3.293v-3.607l1.726-4.078v-2.824l-.785-2.509v-4.391l-1.1-4.078-1.255-3.293-.782-3.138-.314-2.98-1.255-2.04L1896,864.261l-.471-2.354-3.607-3.921-2.332-2.823-2.687-1.726-1.253-.314-2.04-1.1-.785-1.1-2.352-2.354s-1.255-2.352-1.569-2.979a2.448,2.448,0,0,1,0-1.569l-2.823-3.764a33.936,33.936,0,0,1-1.883-4.078c0-.471-1.412-3.293,2.51.314l.94-.628-.314-1.255-.469-2.195s.155-1.412.626-1.726a8.154,8.154,0,0,1,.784-.471l-.784-1.726.941-.94.941-.941.314-.785s-2.04-1.726.157-1.883l1.726,1.1.94-.157-.314-1.881s.157-.942,2.354-.314c0,0,1.726-1.1,1.256.785a24.431,24.431,0,0,0-2.04,2.038,8.078,8.078,0,0,0-.471.785l.627,1.412s.785.626.785-.941,1.255-.942,1.255-.942l1.724-2.2a4.885,4.885,0,0,0,.941-2.038c0-.785-.941-.471-.941-.471s-4.078-1.883.157-2.352l.784-.941,1.255-1.255,1.567-.628a17.4,17.4,0,0,0,2.629.079,7.988,7.988,0,0,1,1.41-.118l1.765,1.528,1.647,1.06.707,2.706-.589,3.293-.353,2.588-.942,1.176-1.646,1.058-1.412,1.178.118,1.176-1.412.942s-1.529-1.531-1.411.941l.94,2.117.354,1.451.823,1.96,1.763.94,1.648.941s2.352,2.588,3.882.471h1.176s3.528,2.706,3.646-1.058l.589-.589.823-.353.942-.118,1.058-.823.589-.705s.587,1.881.823,1.176l1.412-1.842.823-1.335.587-2.352.589-1.294,1.412-2.354,2.117-1.294s.353-1.881.471-2.47.587-1.528-1.765-1.294l.587-1.647s1.178-.471,0-3.059v-.587l.355-.823,1.41-1.883,1.294-1.294,1.53-.823,1.41-.471,1.53-.234,1.294-.589s.7,1.528,1.528.352l1.06-.941h.94l1.883-.709h2.588l.7-1.29h1.649a6.92,6.92,0,0,0,1.529-.589s.823-2.47,1.528-.353l1.178-.471,1.294-1.528.705.715h1.765l.942-.951.939-1.294s.942-2.117,1.412-.469l1.059.235,1.881-1.412,1.294-.856h1.294l1.176-.672,1.177.118,2.117-.236-.118-.589,2.117-.587,1.294.353h2.235l.587-.823,1.649-.823,1.528-1.176.589-1.095.587.742.707.939.353-1.058,1.058.118,1.294-1.412,1.647-1.412,1.949-.823V793.8l1.228-.236,1.058-.858,1.294-1.023.942-.941,1.53-.118,2.352-1.176s3.411-.823.823-1.412a5.129,5.129,0,0,1-.823-.823c-.238-.353,2.117-.942,2.117-.942l.237-1.058,8.822-6.47,2.47-1.844.941-2.156-.234-3.411a2.329,2.329,0,0,0,.116-3.411l-.823-1.176-.118-1.529,1.06.823.823.234s1.765,4.117,2.822.118l1.294-1.883,2.117-2s4.824-5.176,4.942-5.647,2.941-2.47,2.941-2.47l2.706-2.706s1.528-2.352,1.646-2.7,1.176-1.178,1.176-1.53a22.866,22.866,0,0,1,1.176-2.822l.707-.589-.236-1.06.823-1.292a8,8,0,0,0,.942-2c0-.471.352-2.352.352-2.352l.823-2.47-.353-2.235s3.177,1.294,2-1.53l-.94-.823-.941-.705-.234-1.412,1.058-.353,1.176-.118.471-.705-.352-2.236-1.647-1.058s-.823-1.765-1.176-2.354a7.387,7.387,0,0,1-.589-1.294l.471-1.176,1.058-1.647.236-1.765s2.94.471,2.7-1.53l-1.763-.94-1.06-.353-2.352.116s-1.883.707-1.178-.705l.942-.234.707-.941a1.515,1.515,0,0,0,2.115-.823l.825-.118s1.176-.823.234-1.765l-.705-1.176.471-1.412s2.588-2.941-.589-2.235l-1.883,1.176s-3.411-.353-2.94-1.763l1.294-.823.589-1.178s3.764-1.647-1.765-2.117c0,0,1.058-2-.941-1.881l-.587-1.176s-.589-1.883-1.765-.236l-1.176-.353-.941-1.06-.236-1.058.353-.589.118-2L2013,689.1l-1.294.116-1.294.236-1.294.471-.234.823h-1.176c-.471,0-.823-.941-1.294-1.294s-.236-1.765-.236-1.765a3.022,3.022,0,0,1,1.06-.471c.353,0,1.412.823,1.412.823s1.41-.118,1.528-.589,2.117-.234,2.117-.234h1.294l1.06.941.469-.823s1.883.116.118-.942l-.353-.589.823-.705a3.691,3.691,0,0,0,.118-1.294c-.118-.353-1.176-.353-1.176-.353l-2.119.353a14.323,14.323,0,0,1-2,.589c-.353,0-1.412,1.058-1.412,1.058s-.7.705-1.058.705a3.571,3.571,0,0,1-1.176-.587,5.523,5.523,0,0,1-1.059-1.176,2.942,2.942,0,0,1,.118-1.178l.941-.94,1.529-1.883,2.706-1.647.941-1.647s.587,2.234,1.647.823l1.765-.707,1.763.707H2019s3.3-.942,3.647-1.06,2.47-1.647,2.47-1.647l1.528-3.177-.116-2.234-.118-1.765-.941-1.883-2.235-1.881-2.47-.823-2.352-.823-2.117-.471h-1.647l-2.943-.941-2.7-1.412-1.06-1.412-1.176-.469-.589-1.294-.823-.823-.587-1.883.94-1.176.589-1.53s1.647-1.528,1.883,1.176l.471,1.765s-.354,2,1.294,1.648l.94-.589.941-.353,2.706-.589,2.588-.118,1.528-.823,1.294-.353.941-.589,1.413.236a1.538,1.538,0,0,0,2.234.942l.823-1.178,2.119-1.292,1.529-.118,1.528-.353,2.117-.707,1.06-.471.823,1.294,1.294.354.118,1.058h1.646l.587-1.058.236,1.292.823,1.648.118,1.176,1.176.234s1.765-2.588,2-.234l-.234,1.176-.823.823v2.47l-1.06,1.294.118,2.588a7.99,7.99,0,0,1,1.294,1.412c.118.353,1.881,1.294,1.881,1.294l2.236,1.529,2.354.941.47,1.294,1.41-.234.118,1.647.236,1.412s-2.354.587-2.588,1.528l1.294.823,2.234-1.176a5.765,5.765,0,0,0,.941-1.176,5.388,5.388,0,0,0,.118-1.178s3.293-4.351,2.352.118l-.705,1.412-1.058,1.529-.589,1.06.47.94.234,1.883.941,1.06.118.705-.352.705-.118,1.883-1.412,1.529-1.058,1.06-1.294,1.529v1.883l.234,1.412,1.06,1.294.587,1.763.823,1.53.823.471,1.294.823,1.765.118s1.883,1.41,3.53.234l4.235-.471,2-.353,1.646-.234.355-.825,1.41-.823,1.294-.587.355-1.294.823-.118.705-.353s1.412,1.881,1.647-.353l1.176.353,1.765-.353,1.06-1.294.705-1.06,1.412-.118s2.118-1.647,2.118-2.234,1.528-1.883,1.528-1.883l.823-2.236v-1.647s2.588-1.765.236-1.647l-1.294-.705a2.247,2.247,0,0,1-.471-1.178c0-.587.705-1.058.823-1.647a16.828,16.828,0,0,0-.353-3.059l-.237-3.057-1.294-2.354s-1.411-2.236-1.647-2.706a6.264,6.264,0,0,0-1.529-1.294l-1.294-1.528a10.921,10.921,0,0,1-1.06-1.528c-.116-.354-.705-1.649-.705-1.649l-1.294-1.881-.589-1.647-2.118-1.178-1.528-.823a3.282,3.282,0,0,1-.589-1.176c-.116-.587,2-1.528-.705-3.53,0,0-4.353,1.294-1.176-.823l1.294-.94,1.41-1.883,5.294-2.47,2-1.412,2.236-1.058,1.646-1.883,1.412-.941,1.412-.234,1.763-.589s1.883-.234-.235-1.528c0,0-.118-1.649-.118-2s.471-.705.471-.705,1.412.705.589-.589c0,0-3.53.353-.942-2.234l1.412-1.412,1.176-1.412,1.884-1.412,1.881-1.647,1.883-.353,1.294.234,1.294-1.176,1.294-1.41.823-.354s1.41-.234,1.882-.234.941-1.176.941-1.176.471-2.706,1.647-.823l1.293-.353,1.765-.589,1.413-1.883s3.175-.353.942,1.06l.7.587-.235,1.765,1.529.118,1.176-.236s2,.236,2.47.236a13.361,13.361,0,0,1,1.648.234l2,.355,1.881-.471a14.065,14.065,0,0,0,2.824-.354,5.777,5.777,0,0,1,1.176-.469l1.765-.589,1.647-2,4.353-1.294,1.765-1.53,1.881-.471.942-1.176,1.413-.705,2-1.53.823-2.47,1.883-2,2-.589,1.176-1.294,1.059-1.176,3.53-3.764s2.7-1.883,3.059-2.236,3.528-2.706,3.528-2.706l3.647-3.175a28.17,28.17,0,0,0,2.352-2.588,15.081,15.081,0,0,1,1.412-1.765l.823-2.47,1.413-1.412,2.7-1.765s1.294-1.412,1.883-1.881a17.685,17.685,0,0,0,1.883-2.354l1.411-2.706,1.178-.587,2.586-1.176,2-1.531,1.765-1.176s1.058-.941-.47-2l.235-1.53,1.059-1.058s2.236-1.649,1.058-3.177l.118-1.176s1.765-1.765.705-2.824l-.471-.94.355-1.294s2-.353.823-2.354l-.589-1.412a21.044,21.044,0,0,0-.234-2.234,6.433,6.433,0,0,1,0-1.53l1.41-2.117.471-1.765.941-.823,1.176-1.294,2.118-.471,2.117.354a3.434,3.434,0,0,1,1.177.587c.353.353,1.411.236,1.411.236l1.883,1.176,1.294,1.294v2.823l-.705.707a11.1,11.1,0,0,0,.353,2.941,18.823,18.823,0,0,1,.7,2.823v3.293l-1.058,2.472-.589,2.823-.471,2.117-1.057,1.53.587.705,1.06,1.058.587.236s.823.234-.352,1.058v2.941l-.235,1.178-.823.823-.471.942v1.528l.705,2.117,1.06,1.53v1.292l-.354,1.06-1.058,1.412-.7,1.058-.237,2,1.176,2,.237,1.881s1.528,2,2.94.236v-1.53l.823-.234.823-1.412.942-1.176.235-1.06,1.765.471.588-.471,1.765-.469.823.353,1.058.942,1.178,1.41.116,1.765,1.06,1.176.705-1.763.589-1.178v-1.529c0-.471-.708-.823-.708-.823s1.06-2.117-.586-3.293h-1.06l-1.294.234-.47-.705-.353-1.294v-.942l-.353-.589-.941-.353-.588-.941-1.294-.94-1.06-1.294s-.589-3.059.237-4.824l.823-1.765,1.176-1.883,1.058-1.058.823-1.412s-.587-2,1.06-1.294l.589.823s2,2.236,3.411-.823l.587-.941,1.294.353,2.117-.116,1.764.587,1.06.825,1.175,1.647-.118,1.294s.706,5.058,2.47,1.529l.118-1.412-.118-2a7.588,7.588,0,0,1-1.057-1.294c-.237-.471-1.647-1.06-1.647-1.06l-1.764-2.117-.352-1.763-1.178-2.117s-1.058-2.943-1.058-3.3a12.328,12.328,0,0,0-1.412-2.235l-.705-1.763-.941-2.943-.235-2.586-.589-2.117v-1.3l-.118-1.176a5.934,5.934,0,0,1-.823-1.528,3.024,3.024,0,0,0-.471-1.06l.471-.942.589-1.881.7-1.176s1.176.94,1.176-1.412l-1.41-2-.708-1.883-1.294-2.236-1.41-2.47-1.765-1.881-.352-1.53-.236-2.823a3.554,3.554,0,0,0-4.354-2.117l-1.528.823-1.176.823-.118.823-1.06.471-1.057,1.41-.823,1.06-.823-.118-1.294.707s-1.647,2.117-1.883-.589l.823-.705s2-1.412-.235-1.883l-2.824.234-2.823-.234-3.177-.353-2.7-.118-1.883-.118-1.176-.823-1.06-1.176-1.058.353-.823.942-1.883.353-2.94.236-.942-.942-2-.352-.942,1.058-.234.942-1.647.353-.707.941-.942.118-1.292-1.06-1.412-1.058-.118-1.412.705-.589s1.294-1.176-1.175-.705l-.119-.823v-1.06s2-.587,2.119-1.881c0,0,3.293-.237,1.411-2l-1.176-.234-1.529-.234-2.589-.236s-.589-.823-2.117,1.647h-1.06l-.941-1.294-1.058-.116-1.06.469-1.058.707-1.883.471h-1.295l-1.646-.118s-2.118.352-1.06-1.647l.354-1.647,2-1.06.705-.589,1.883-.352.824-1.058,2.706-.707,1.294-.94,1.294-.589,1.294-1.176,1.763-.589,1.177-.823,1.881-1.529,1.176-.589.942-.705.941-1.531,1.883-.587.705-1.06,1.059-.587,1.763-1.412,1.178-.589,1.647-.234,1.528-.471,1.412-.353,1.412-.823,1.294-.352.939-1.3,1.06-1.176,1.881-.234,1.765-.471,1.412-1.647.942-1.883,1.058-1.058,1.178-.118,1.294-.941,3.176-.471,2.824-2,1.41-1.412,2.354-1.176,2.94-.941a9.363,9.363,0,0,1,2-.705h2.354l2.941-.236,1.294-.705.823-.353,1.646-.118,1.646-.118,2,.353,2.469.118s3.646.118,4,.118a6.251,6.251,0,0,0,1.294-.353l2.472-.353,1.294-.823,2.586.353s1.648-.353,1.53.823l-1.294.471.705.941,2.118-.471a2.41,2.41,0,0,0,2.588-.942s-.235-2,1.531-1.53l.939.354h2.354a6.746,6.746,0,0,1,2,.823l1.765.469,1.176.355,1.765.234,1.646-.353.941-.353,1.294-.589,1.176.118.942,1.058.823.118h1.294l2.117.118h1.883s1.176-.941,1.529-1.176a15.765,15.765,0,0,0,1.294-1.178l2-1.176,2.7.353,4.118-.471,1.765.355.587.587s2.354-.471,1.647.941l1.53-.353,1.41-.589,3.177.236h1.529s1.765,1.647-.705,2.352l-2.941.589s-1.059,2.117,2,2.822c0,0,6.236.471,7.53-1.41,0,0,1.529.705,2.118-.355,0,0,3.293,2.236,5.882-.471,0,0,1.528,1.178,3.293-1.176h1.294l1.176.236s1.883,2.47,3.882,1.294l1.765-.707s1.06-1.412,1.765-.587c0,0,1.412,1.176,2.353.353l2.234.118s4-.589.823-2.588a2.717,2.717,0,0,0-2.234-.707s-6.236-1.647-.942-5.292l4.235-2.472,2.588-1.881s3.646.234,3.646-3.177c0,0,6.941-.705,8-4.353l3.412-1.294,4.351-.94,10.236-.941,6.234,1.294s5.295.705,1.765,3.293c0,0,4.587.352.589,2.47l.587.589,1.412.234s2.941-1.058,1.058,1.765v.823l1.06.236s3.764-2,4.94-.823l1.765-1.883,1.883-.823,3.764-1.883s14.94-5.763,7.294,1.649l-1.528,1.647-.589,1.41,2.352-.469,2.235-.941s5.882.118-5.058,3.293l-.7.941-1.294,1.294-2.235.942-3.059,1.647L2370.738,465l-2.588.589-1.176.823-1.646-.942-1.765,2-1.528,1.412-1.53.823-2.47.234V471l-1.176,1.294-1.412,1.058-2.707.941-1.41.705-2,1.765h-1.881l-2.706.941-5.058,3.059-1.883,1.529-1.058.118-.823-.941-1.647-.234-2.235,2-3.883,4.235h-2.823v3.059l-1.883,1.53-.823.116v1.178l-2,1.881-.237,3.53-.941,4.587.118,3.059.823,3.648,1.176,4.94,1.765,5.176,1.06,4.587v3.648l1.881,2.47,2,2.7.47,2.472.116,3.646.707,1.06,1.057.823s2.118,1.765-.823,1.765l-1.058.94-.942.118s.118,1.529-2.354,1.529l-1.646,1.06-.587,1.06-.471.94-1.412.589s-3.53-.234-3.411,3.177c0,0,2.94,1.058,4.116-1.178,0,0,.47,1.412,2.824.236l1.41-3.059h1.531l.353-.823,1.294-.589.589-.705,1.41-.471.823-1.06,1.178-.234.587-.823,1.53-.589.587-1.294.588-.116.706-.825,1.294-.821.707-.825h1.41l1.176-.94,2.942-2.588,1.058-.589.236-1.529,1.528-1.294V530.76l.353-1.294.47-.941.353-.942,2.941-2,3.411-1.294,3.177-.234,2,.823s3.177.471.47-1.765l-.118-1.529s1.765-1.06-.116-2.354c0,0,.116-1.529.234-2a4.2,4.2,0,0,1,.707-1.178l1.41-1.881,1.294.234,2-.705,2-1.412,2-.234h2.117l2.824.234s8.822-.118,3.411-5.529l-1.177-2.117.236-2.117.824-2c.823-2,1.765-1.647,1.765-1.647l1.176-1.294h1.531s2-.471.939-1.412c0,0-1.057-.823-.234-1.176l.7-.236,1.412-.353,1.294.236s3.176-1.53,2.236.587l-2,.823s-2.236.353-.941,1.647c0,0,2.588,3.882,3.177-.234l.941.234,1.529-.234s1.06-.941-.47-2.941v-1.176l-.471-.941s-.705-1.294-2.351,0c0,0-2.354.587-1.765-1.294,0,0,2.236-.942,1.294-2.354,0,0-2.352-.94-.589-2.47l2-.587,1.41-1.412.707-2s-1.294-2.823-5.176-1.881c0,0-5.529,1.294-4.587-.353l.234-2.117,1.294-2.117,3.059-2.119,3.882-1.528,2.823-2,1.647-1.53.941-2.234.942-1.883a3.628,3.628,0,0,1,4.7.471,3.777,3.777,0,0,0,3.531.234l1.294-1.058,2.117-1.53,2.7-1.294,2.353-.587,1.647-.941s4.235-1.176.589,2.117l-.118.823s.118,3.059,4.587,0l3.882-2.352,2.236-.823,3.175-.941h2.707s1.06-1.765,1.765-.352h4.587l3.295-.236,2.47.589,2.235.587,1.41,1.06,2.94,1.294,2.588.941s2.825,2.823,3.177-1.53l.705-.94,2.117-1.294,1.647-1.178,1.764.118s2,2.706,3.059-.823l2.117-1.06,3.648-1.528,1.512-.568c-.509.174-1.026.262,2.251-1.55,4.469-2.47,2.707-1.294,2.707-1.294l3.88-1.528,3.53-1.412,2.941-.353,1.53-.589,1.176,1.176.942-.705,1.176-1.06,11.881-3.175,2.589.118,3.293-.354,1.648-1.528,1.529-.471.823-.705h4.587l2.118-.353h2.825l1.529.823,1.177.705h2l3.059.471,2.351.352.941-2,.589-.353h1.41a2.608,2.608,0,0,0,1.647-2.706s.825.941,1.412-.589c0,0,.942-1.529-1.647-1.529s-.589-.118-.589-.118.47-2.352-3.175-2.352c0,0,.47-1.178-2.354-1.06,0,0,1.531-2.588.824-4.353l1.059-.352h1.647l1.294-.353.941-.941,3.882-1.176h1.765s2.117-.941,3.057-1.294,4-.823,4.471-1.176,10.94-5.883,11.294-6,8.7-3.3,8.7-3.3,12.117-5.058.589-5.058c0,0-8.116-2.588-.47-5.647,0,0,21.88-4.94,19.645-7.528,0,0-17.058-13.057-44.7-14l-8.586-2.117-5.765-1.765-8.235-1.883-6.7-1.176-2.588-.705s-.706-1.883-3.412-.471l-6.234-1.06-8.353-.587-10.353-.707-7.763-.941-2.942-.353s-.116-1.176-2.7-1.528c0,0-1.176-.823-2.236,1.881h-1.529a.969.969,0,0,1-1.294-.94s5.058-2.824,3.528-4.353l-1.294-1.06s-10.7-3.882-20.939.471l-.939.941-2.588,2.117-.589,1.176a7.348,7.348,0,0,0-4.353-1.41s-1.411-.471-3.882.94l-2.47.355h-3.529l-2.588-.589-.705-.471s-1.294-1.529,1.765-1.647l.942-.589,1.646-.705s2.94-.234,3.764-1.412c0,0-.118-1.41,2.354-2.117l3.411-.941,4.351-.823,4.237-1.176s5.646,0,5.527-1.294c0,0-1.41-1.647-.116-1.647l1.647-.589,2-.705s.942-1.294-3.53-1.412c0,0-.587.589-2.823-1.529l-.941-2.588a12.375,12.375,0,0,0-4.822-4.235l-7.178-.236-5.763.355s-10.47-.707-11.765-.707-3.882-.118-4.469-.118-9.647-.94-9.647-.94-8.7-1.06-9.175-1.176-13.412-.941-13.412-.941l-11.528-1.53-9.882-.823-9.056-2.47-4.706-.941s-7.764-.941-9.411,2.588l-1.647-.823-1.531-.589h-2.235l-3.646.355-3.177.471-4,.94-4.276,1.06s-1.372,1.881.746,2.588l-.746,1.881-1.96,1.53h-3.646l-3.529-.353-2.589-1.06s-1.646-2.236.234-2.706a8.34,8.34,0,0,0,5.295-3.764s5.058-.353,6.195-2.236a7.349,7.349,0,0,0,7.217.236s.587-1.53-3.53-2.824a2.8,2.8,0,0,0,.823-2.822s1.176-1.058-.118-3.059c0,0,2.588-1.176-2.117-2.352l-2.275-.236-1.724-.116-2.235-.354s-5.058-3.528-8.116-1.763c0,0-4.353,1.41-6.039.469l-2.9-.823-7.176-.939-3.647-.355s-12-1.41-12.7,0c0,0-6.47,0-9.119.118l-3.822.118s-6.352-2.117-24.233-1.06l-13.059-.234-8.615.234s-8.913-.353-4.09-1.528l2.235-.118,1.058-.353s2.472-3.293-1.294-2.588l-2-1.765-2-1.294s.586-2.822-3.059-3.646c0,0-18.47-2.472-35.409-.471l-11.88.353-7.53.942-2.588.234-5.763.353-3.3.707-4.822.471h-5.177l-5.294-.118s-8.235.823-2.7,4.705c0,0-1.649,1.176,1.41,2.352l2,.823,3.528.941,3.882,1.178s4.824,2,3.295,3.411c0,0-2.472,1.176.469,2.234l1.413.471,1.294.589.7.941v.941a1.171,1.171,0,0,1-1.765-.825h-1.175l-3.412-.234-1.176-1.176-2.94-.823-3.177-.823-4.235-1.765-4.117-3.177-2.94-.587-5.647-.589-9.529.471s-6.939.705-6,4.824c0,0,4.942,3.88.942,3.646l-2.588.941-3.529,1.765-2.234.705s-4.353-.705-7.059.353l-2.588,1.176-3.646,1.53-4.471.942-2.707.352-10.116-.589-3.764-.353a9.886,9.886,0,0,0-6.1-1.189s-2.019-2.693-6.958-1.517c0,0-1.531-1.41-4.589-.471l-1.529-.234-1.765-.823-3.764-.732-2.354-.8-.941-.825-1.646-.234-1.294-.823-3.764.234-2.588-.116s-.353,1.294-1.765-.589l-3.646-.118-4.235.118-4,1.176-2.822,1.294-1.531.68s-5.292-1.5-1.529-1.385c0,0,3.53-.823,2.117-1.765l-2.588-1.765-1.646-.471-2.118-.116s-1.294-.118-2-.236-.587-.941-.587-.941h-5.176s-2.588-.471-.823-1.058c0,0,2.236,0,.942-1.53a3.32,3.32,0,0,0-3.3-1.294s-1.528.118.589,1.53a12.671,12.671,0,0,1-5.882,0l-3.411-1.06h-4.235l-5.529.471s-3.648.941-1.648,1.53c0,0,2.472.116,0,1.881,0,0-2.586-.705-2.352.942a4.46,4.46,0,0,1-4,3.411l-3.894.234-3.752.118s-5.763.471-2.7,2.117h2.117l1.647.823,1.647.471s2.352,1.647,0,1.412l-1.294.234-1.294,1.176s-2.941,1.06-1.647-1.176c0,0,3.059-1.41-.118-1.176l-1.176-.823-1.412-.471s-4.117.236-3.175-1.176l.823-1.412.705-.941.823-.587,1.412-.236.942-1.41,2.941-1.53.7-.941.589-1.176s.705-.589.587-2.352l-1.881-1.765-2.588-2.706-3.059-1.529-4.705-1.649-3.764-.587h-7.646a1.9,1.9,0,0,1-2-1.765l-2.234-.353h-2.472s-2.588-1.06-3.764.118c0,0,.118,1.763-3.293,1.41l-3.412-.587-4.942.471h-4l-2.925-.236s.337-1.058-2.487-.942l-1.763.471h-4.118s-3.411-.118-1.881-.941c0,0,5.058-1.294.116-2.117l-3.528.118-1.648-.353-2.352-.589-3.177-.118-2.588-.705-2,.236-2.822.116-2.236-.353-3.177.353s-.116-1.763-10.821-1.41L1848.9,302.9h-6.7l-4.588,1.412-1.765,1.058-3.764.81c-2.71.583-2.373.327-1.97.138l-1.089.465-1.294.118-1.06-.721h-1.881s-7.176.014-6.118.976l-.705,1.156-.118.8s-3.764-.568-4.94,1.9l-.825-.118-2.234-.116-2.354-.236-1.294-.978a4.243,4.243,0,0,0-4.235.376h-1.412l-1.058-.376a1.98,1.98,0,0,0-2.588,0s-7.53.155-4.353,1.92h.589l1.294.492,1.881.916s1.178,0,1.53,0a21.885,21.885,0,0,0,2.588-.916s4.116.684.353,1.73l-1.06.854-1.058.992-2,.872-2,.354-1.765-.589-2.47.471-1.176.589s-6.7.471-2.354-1.614l1.236-.083a5.111,5.111,0,0,0,2.646,0s7.412-4.186,0-1.228c0,0-2-2.135-6.488.236h-1.745l-2.174.453s-1-1.176-1.945-.453h-2.3a1.582,1.582,0,0,0-1.821,1.075l-2.825-.083-2.588-.992-4.351.992-4.705.525-3.357.817-3.82.589-3.3-.118-1.166-.587-2.753-.354s-6.619-.98-5.207.354c0,0,.941.548,3.739,0l1.468,1.435s-.345,1.623-3.169.839l-1.375.785-4.27.469-2.817-.312s-.792,2.038-3.082.783a10.8,10.8,0,0,0-6.494-.62s-1.1,3.131-1.567,0l-.941-.564h-2.354l-1.881-1.379-2.668-.343s-3.45-.858-3.921-1.093a7.239,7.239,0,0,0-1.726-.354l-1.1,1.06h-10.2s-4.705.785,1.005.73c0,0,9.347,3.034,4.851,2.72,0,0-4.915,1.726-1.465,1.893,0,0,12.547-.637,2.823,1.937h-7.057l-2.981.876-3.2.785-4.394.785-3.381.314-4.078,1.848L1677.5,330.5h-3.45l-3.293.314-2.04.785-2.718.157h-5.908l-4.549.314h-3.764s-4.078,0-.471,1.883l1.412-.314s8,1.41-1.726,1.881l-2.493.157-.486.941-2.72.785a3.477,3.477,0,0,1-3.084,1.567l-3.764.471s-3.138.314-3.921.471a15.409,15.409,0,0,1-3.3-.314s-6.587-1.881-1.881-2.509l1.1-.314,2.51-.785,1.569-2.195,2.038-.628.784-.471,2.352-.628,1.255.157,2.51.471s2.823-.785-.627-1.726a24.168,24.168,0,0,0-6.589-2.979l-1.724.157-1.569-.785-.941-1.412-1.883-.628-1.1-1.172h-2.825l-2.979.7s-3.764,2.04-1.1,2.511c0,0,5.019,1.1,2.667,1.726,0,0-2.981,1.1-3.657,2.979a3.19,3.19,0,0,1-2.617.471l-2.352-.941-1.639-1.412-2.284-.783h-2.979l-2.825,1.567-1.1,1.255h-1.883l-1.726-.941v-1.881l-.626-1.1h-1.569l-1.412.941h-1.1l-3.764-1.412-3.136-.471s-.784-2.511-5.333-3.212c0,0-2.98-2.435-3.293,0l-2.2.858-2.195-.157-1.255-.7s-.314-2.435-4.863-.709h-3.45l-5.176.785-3.293,1.253H1552.5l-1.569.941H1548.1s-3.921,1.412-.785,1.672c0,0,7.373.368.471,1.31h-6.275l-3.007-1.1s-2.639-1.255-1.385,2.352c0,0-1.724-.785-1.881,0l.157,1.255-.314,1.255s-3.607.314-4.078,2.038c0,0-3.138.628-3.452,3.1,0,0-2.509,1.451-.157,1.922,0,0,3.452,1.1,3.138,2.981,0,0-1.412,1.881-.471,2.822,0,0,2.038,1.726-.157,2.038h-2.04s-2.666.628-.157,1.412c0,0,3.452,2.825-.468,2.825,0,0,1.1,1.881-.471,2.877h-2.04l-2.666.73h-2.354l-2.822-.314s-3.764-1.883-2.511,2.352l-1.41.785-2.981.941h-2.038l-.941,1.255-1.255,1.724-1.881.314s-1.726-1.567-1.569,1.569l-.942.941s-2.509.471-.471.94l1.412,1.726,1.883.98,1.567,1.216,1.726.626s7.685,3.452-2.511,3.609l-3.607-.157-5.019-.471-6.273-.471-5.019-.314-7.844-.471a39.8,39.8,0,0,1-4.706.157c-.782-.157-4.235-.314-4.235-.314s-5.8-.942-8.155.314l-1.1-1.255h-2.979s-.314-1.253-1.255-1.567h-2.822l-3.764-2.354-1.569-.471h-1.883l-1.1-.785-1.567-.312s-1.569-2.04-2.354-.157l-.939.94-.471,1.1s-3.961-1.215-1.726,1.137l2.038,1.842s7.687,2.511,2.354,2.981l-5.961,1.058h-11.449l-4.705.823h-3.3s-10.193-2.666-8.94,1.1l-.941.471a7.48,7.48,0,0,1-1.881.785,38.616,38.616,0,0,0-3.764,1.1l-3.452-.314-2.666-.628-1.883-.628h-1.881a13.254,13.254,0,0,0-2.981.314,2.23,2.23,0,0,1-1.881-.471l-1.726,1.412L1382,380.126l-10.353,3.706-4.078,2.509-3.45,1.412-3.295.157s-8.626-.314-12.547,2.04l-3.293,2.038-2.668,1.255-2.822.628s-5.176.785-4.078-1.1c0,0,4.078-1.726.939-3.138l-.939-.783-1.726-1.255-2.666-.471s.471-1.569-1.412-1.881h-2.175l-7.079-1.569-4.862.157s-5.647.157-6.118.157a17.741,17.741,0,0,1-2.823-1.1s-8,.314-2.981,2.354c0,0,7.53,1.881,1.1,5.645,0,0-2.822,3.45-1.253,5.49,0,0,2.666.628.155,1.726l-3.607.941-3.136.469s-4.235.157-4.235,2.981l-2.2,1.412-1.1.469-1.412.157-1.569,1.255L1283.5,407.2l-3.764.628-3.766,1.567-2.666,1.412s-4.078.628-4.234,2.666l.471.785,1.41,1.412s4.08,1.726.628,3.293l-1.881.314-4.863-.157-1.883.314-1.1-.628a5.02,5.02,0,0,0-3.138-1.253l-3.45.157-3.452-1.569-2.822-.628-2.352.157s-2.2-2.354-3.3,1.569l-1.881.628-1.569.312s-2.666-.157-1.726-1.567c0,0,4.548-1.412,1.569-2.04l-8.156,1.255s-3.764,1.569-3.136-1.255l.312-1.1.785-1.724s2.511-1.726-1.41-1.726l-1.569-1.1-1.883-1.567-4.548-1.726-2.038-.471-2.668-1.881-5.645-1.255-2.2-.785s-3.293-2.038.942-2.195c0,0,6.275,3.136,12.077,2.666,0,0,1.569,2.2,8.313,1.726,0,0,2.667,2.195,10.039,1.881l1.255.471,6.745.628h2.979l2.979,1.569h12.235c.628,0,3.607-.941,4.235-.941s6.118-1.1,6.118-1.1l4.39-2.038,3.3-1.883,2.822-1.726s2.354-.94,1.883-2.195l-1.1-.941-.941-.942-.94-.941s-2.04.314-1.569-2.195c0,0-1.412-1.412-2.511-1.412l-2.666-.785-1.726.157-3.293-1.724s-2.823-2.511-2.823-.314h-1.569l-3.921-1.255-1.569-.157s-.471-2.04-4.705-1.255l-1.411-1.1-2.2-.628-4.235-1.569a8.309,8.309,0,0,0-2.511-.628c-.471.157.471-1.724-6.273-1.569l-1.412-.314s-4.078-2.195-6.745-1.253c0,0-.471-2.354-3.921-1.1,0,0-.628,2.195-2.195.785,0,0,0-1.1-2.667-.471l-1.411-.157-.627-.785-1.569-.471-1.726-.314-1.41.942-2.2.314-.628,1.1s-3.293,5.176-1.253-.785c0,0,1.41-1.255.314-1.255,0,0-2.354-.314-2.982-.314h-2.666s-3.45-1.253-.941-1.41h2.038s4.864-2.2-3.293-1.569l-.942-.314-2.038-1.1s-4.078-2.195-4.549.941l-1.883,1.412-1.567-.157-1.569-.628-4.862-.157-2.195-.628-1.412-.314h-1.883l-3.136.157s-7.53-2.195.785-2.195l4.705-.157,1.253-.785,1.569-.314h2.04s4.706-.785.157-2.2h-1.726l-2.666-1.1-.785-.157-1.412-.785-2.04.314h-3.607l-.942-1.255-2.979-.628h-3.136l-1.1.628-1.569,1.255-.785,1.1s.157,2.04-.939-.157v-1.724l.939-.471s2.668-1.569,1.726-1.569l-1.569-.157-.783-.628-4.08-.157s-.471-1.253-4.235.314c0,0-2.352-.783-2.352,1.255,0,0,1.881,1.1,0,1.569l-2.04,1.724s-3.136,3.452-2.823.314l.471-1.1.785-1.883v-1.1s-.785-1.724-4.237,1.255l-3.136,2.04-2.038.783s-4.08,2.981-3.452.157l1.726-1.41,1.412-.471s2.352-.314,2.038-2.04l2.354-.314s2.038-.941,0-1.253l-2.511-.785h-10.2l-1.567.785-1.569,1.1-1.569-.157-1.253-.94s-3.138.312-1.883,1.525c0,0,1.883,1.769-.941,1.612l-1.41.314-1.412,1.1s-1.726.94-1.255-.941c0,0,3.3-1.569,1.1-2.083l-3.136.356s-2.354-1.255-3.609.941h-3.45l-.942.628h-1.724s-3.607.628,1.567,2.666c0,0,8.315-.942,5.647,0l-2.352.7h-7.844l-2.509.194s-2.354-.891-2.354,1.149c0,0,0,2.979-1.41,1.881l-.628-.94s0-1.412-3.45-1.412a1.994,1.994,0,0,0-1.883,2.509l-2.509,1.1-1.412.785s-1.883-.628-.628-1.726l.785-.471s4.705-2.509-.785-1.881c0,0-.628-1.569-3.348,0a3.471,3.471,0,0,0-2.927-.941l-1.178.628-2.115.628-1.99.785-1.3.783-.157,1.4-1.412.484s-2.195-1.569-2.509.941c0,0,.157,1.567-1.255.785h-3.607l-3.138.783-1.881,1.412-.471.785v.941l-.785.785-1.883.157-1.881.157-2.04,1.567-1.567.157s-1.726-.942.469-2.352c0,0,2.354-1.1,1.412-2.2a8.88,8.88,0,0,0-6.9,3.764s-3.138-2.038-3.452-.94l-3.607,2.195s-5.176,2.354-2.038,2.2c0,0,7.057-1.726,5.488.94l-1.41.785-2.667-.785H1040.7l-2.2,1.1h-1.881l-6.275,1.257-1.883.785-1.41,1.255-.157,1.253-.785.785s-1.726-.628-2.04.157,0,.785,0,.785,2.51,2.038,3.3,0v-.785l1.567-.628,1.255-.471,1.726-1.255,2.509-.157,2.354-.626,3.136-.157,1.412.157.939-.471,1.255-.314h1.569l1.567-.157h1.883l1.412-.785,2.822.314,1.255-.941s6.9-.157.314,1.883h-1.412a31.314,31.314,0,0,1-3.293.628c-.628,0-.942,1.1-.942,1.1H1046.5l-3.3.941s-2.038,1.1,0,2.2v1.567s.784,1.412-1.881,0c0,0-3.3.157-1.726,1.412l-.314,1.017h-.942l-2.038.4s-.314-1.255-1.1.705h-1.569l-1.41.55s-1.412-1.726-3.923.94l-.626.785h-3.766l-.94.628s-8,2.668-3.452,2.668c0,0,6.589.783,3.138,1.567h-1.726l-1.569,1.255s-3.45-1.255-2.823,2.038l-.628.785-1.255.942s-4.235.628-.94,1.569l-.628,1.41h-.784l-1.883,1.726-.314,1.412h-2.979s-5.019,3.136-.471,2.509h1.726s7.842,1.569.314,1.412l-2.667,1.255-4.392,2.195s-2.823,1.883-.628,3.041h-1.253s-3.609.566-1.726,2.135c0,0-.785,2.823-3.45.314a1.316,1.316,0,0,0-2.354-.471s-.942-2.822-2.666-1.726l-.941,1.726s-2.511-1.412-2.823,1.883h-5.019s-1.726,1.253,2.509,1.567c.626.047,3.607,4.862-.471,1.711l-6.586.016s-1.883-.471-5.019,3.921c0,0-3.138,1.569-2.04,0,0,0,3.764-1.726,1.255-2.195h-1.1l-2.038.783-.942.941h-.784l-.785,1.1v1.255l-1.726.94h-2.509l-.942,1.1s0,1.412-2.823,0l-.314,1.412L954.587,445l.314,1.253.784.785h1.1l1.1,1.1S956.47,449.4,956,449.709s.314,1.1.314,1.1l1.1,1.726a5.727,5.727,0,0,1-1.569,1.1,2.951,2.951,0,0,0-1.255,1.1l-.784.939,1.255,1.569v2.195a4.022,4.022,0,0,0,.628,1.412l1.1.785L956,463.595s-1.255,1.8,1.883,2.268c0,0,6.43-3.607,4.86-1.726l-1.1.941-1.569.8-1.412.926-1.41,1.412s1.1,4.549,1.724,1.41l1.1-.314L961.96,469l1.881-1.1s5.176,1.255.628,1.567l-.628.785-1.1.314-1.41.941-.785.941v2.038c0,.471,1.726,1.255,1.726,1.255s2.195.941,2.823,1.255,1.883.471,2.352.785a20.069,20.069,0,0,0,1.883.94s1.883-.471,1.726,1.412h1.253a32.283,32.283,0,0,0,3.3.471h4.078a23.874,23.874,0,0,0,2.98-.471s3.607-.941,4.235-1.255,3.609-1.41,3.609-1.41l2.509-2.2,4.705-2.509,2.2-.942.94.314a5.737,5.737,0,0,0,1.569-1.1c.314-.471,1.1-.157,1.1-.157h2.195s2.354-1.412-.471-3.51c0,0,2.667-4.488,2.824,2.1l1.881,1.412s3.138,1.569,2.04,5.8a1.265,1.265,0,0,0,.941,1.567l1.411,2.981,2.511,4.078,1.881,1.412a5.7,5.7,0,0,1,1.412,1.1,5.188,5.188,0,0,1,.941,1.567,8.4,8.4,0,0,0,1.1,1.883l1.41,1.41s-2.666,5.49-2.666,1.883c0,0,.628-.314.314-1.569,0,0-.471-1.724-2.511-.157,0,0-1.881.942-1.253-.469a.6.6,0,0,0-.157-1.1l-.785-.941-.471-1.883-1.1-.157s-2.665,0-1.1-2.195c0,0,1.41-1.1-2.511-.785l-1.255.628s-3.293,0,.785-2.2c0,0,1.569-.469-1.881-1.41l-3.3.314h-2.509l-2.824.783-2.038.314-1.1.157s0-2.038-1.412-1.253l-2.038,1.41-2.04,1.255-1.881.785a18.041,18.041,0,0,0-6.432,2.195s-2.2-2.352-3.293,0c0,0-3.138,2.04-1.412,2.511,0,0,5.333,1.726.785,2.666l-1.1-.157a12.786,12.786,0,0,0-2.665,1.569,1.153,1.153,0,0,0-.157.941l-.314,1.881-.628.784-.784,1.1v.942l-2.195,2.665.783,1.883.471,1.724-.314,1.255-.157,1.569,1.726,1.1,1.569.626,1.1,1.412.785.941,1.255.628,1.726.314s5.8,2.352.314,2.195l-2.511-.314-.785-.314h-7.057l-2.511-.626s-2.352-2.511-3.293.783l-1.255.628-1.881.314-2.668.471-1.254.628-3.609,1.255h-2.352l-3.45.783-5.333.628-2.2.157-2.509-.94-2.04-.157-.941-1.1.785-.471s2.354-.628.627-1.1h-2.195l-.471,1.255-1.883-.314a2.044,2.044,0,0,0-3.136-.785s-1.255-1.881-3.764-.471c0,0-2.668,1.255-3.452-.157l-1.724.942-1.412-.157h-1.726l-1.1.785-2.04-.314-1.883-1.883-2.823-.94-1.255-1.255-2.038-1.726s-1.726-1.1-1.883-1.567-2.509-.471-2.509-.471L899.533,509l-.471-1.569-1.569-1.724s1.569-3.764-2.195-4.549l-2.2-.785-2.038-1.255-3.45-1.1h-2.2s-2.509-.314.314-1.1l1.883-.471s4.235-2.2,1.1-2.2c0,0-1.724-.314-.314-.941l1.255-.628s5.961-5.959,5.647-8.627c0,0-2.666-2.038-8.313-.471l-.941-1.253s-2.2-2.04-8.94,1.567l.785-1.724s1.253-1.255-.785-.941l.785-.628,2.509-1.883,2.04-1.567,1.1-1.255.785-1.883,1.569-1.253s4.548-2.04,4.392-5.054c0,0-2.509-1.22-3.607.976l-1.1-.157s-1.412-2.511-2.666,1.253h-1.1l-.941.785h-1.1l-.314,1.1,1.255,1.412s4.392,1.1,1.255,1.68H870.829l-2.666.044s-4.548-.628-4.705,2.824c0,0-3.45,0-1.412,2.937,0,0,3.921,1.3.157.984,0,0-4.078-2.668-4.235.784l-.157,1.724a4.059,4.059,0,0,0,.628,2.825h-1.1l-1.255-1.255-1.253-1.569s-1.1-2.195-2.2.157c0,0-1.569-2.195-2.666,0,0,0-2.04,2.668,1.1,3.138h1.1l1.726.626,1.567.785h1.255l1.255.785-.627,1.883h-1.883s-3.136,1.881-1.881,3.45c0,0-3.607,1.412-.941,1.569l1.569-.314,1.724-.314,2.2-.314,1.412-.942s3.921-2.352-.157,1.726l-1.883,1.864h-4.705l-.785,1.587s-2.352,1.883,0,1.726l1.569.626a1.832,1.832,0,0,0,3.136-.469l.628-1.1s3.921-5.333,1.883,0c0,0-.627.784-.941,1.255a6.333,6.333,0,0,0-.471,1.881s2.979,3.293,3.45.628c0,0-1.1-3.136,2.511-3.764h2.038s2.981.471,2.51,2.352c0,0-2.354,3.3-4.235,3.921l-.157.942.157,1.412.782,1.726h1.412l1.255.783s0,1.569-.471,2.04-.157,1.412,0,1.883,1.255.626,1.255.626h4.235a5.017,5.017,0,0,0,2.352,0h1.255v1.255l.314,1.726s2.98.628,1.255,1.567l-1.883,1.04h-2.98l-2.511.058s-3.136-.628-1.881,2.2l.628,1.031-.314.85-1.412,1.255s-.471,1.883,1.726,1.255v2.195l-.628,1.1v1.1l-1.569.628-2.352.94-1.1.471s-.785.314-1.726.785.157,1.1.157,1.1l1.569.942,2.352,1.1h1.412l1.726.314,1.724.314,1.726-.314,1.569.941s3.45,1.726-.314,1.569l-3.138,1.726-1.567,1.881-1.1,1.883-2.04.314-1.253.471-1.255,1.567-1.255.628-1.412-.628-1.411,1.1s-2.2,3.136.94,1.726l1.255-.157,1.255.628.314,1.41s2.038.628,1.881-1.255l.785-.155,1.726-1.569a10.115,10.115,0,0,1,2.195-1.255,4.483,4.483,0,0,1,2.511.157c.784.157,2.352.314,2.352.314s0,2.509,3.609.471l1.567-1.1s5.176-4.078,7.373-2.195c0,0,.785,2.352,5.49.471a1.414,1.414,0,0,1,1.881-.157,4.839,4.839,0,0,0,4.235-.314s2.04,4.078,5.647.783a5.786,5.786,0,0,1,2.823-1.1h2.04c.157,0,2.2-.314,3.45-.471a6.025,6.025,0,0,1,2.511.314,3.946,3.946,0,0,0,1.41-.628,10.435,10.435,0,0,1,2.511-.942s-1.255,1.255.941,1.883l2.823-2.04,1.883-2.352s.785-1.569.94-2.04a16.559,16.559,0,0,1,1.255-2.04l.941-2.666s1.569-1.255,1.1-1.883.471-2.666.471-2.666a3.639,3.639,0,0,0,1.567-4.078s0-3.764,1.883-.157c.229.44,2.038-6.275,3.921.941l.314.941.785,2.509s1.567,5.333-3.607,5.176l-1.883,2.195-3.45,1.255-1.569,1.412-.785,1.881-1.567,1.726-.157.785-.628,1.255-1.883.942-1.881.469s-1.1-1.881-2.667,1.883H916l-1.412,1.255h-1.412l-2.195.941v2.666l-3.452-.746-2.038,1.06-.785.941-2.823-.471-1.412-.471s-.628-1.569-3.136-.157h-1.883l-1.1-.9h-.941l-1.881.432s-2.2-1.726-2.2,1.726c0,0-3.136-1.412-2.979,0l.157,1.166,2.352.558s4.235-1.255,3.138,0l-2.04.785-.785,1.064.628,1.6-.314,1.1-.785-.157-1.724.628h-.941l-.314-.942v-.783l.785-.471s-.785-2.2-2.51,0l-1.1.628-3.138.783h-2.823l-1.569.785h-1.724l-2.668,1.412h-2.823l-1.726,1.569s-5.961-.471-.157,1.881h1.726s5.019,2.354-2.354,1.569c0,0-2.666,2.195,2.51,2.195H870.2s-.628,2.825,3.452.837c0,0,.626,2.615,2.195,1.046,0,0,1.569-2.354,2.981,0a10.606,10.606,0,0,0,2.195,1.569s1.1,4.235,3.921,2.352l.784,1.883,1.569,1.41,1.254,1.883h1.726l2.509,1.726,2.04,2.195,1.1,1.569,1.1,3.764h.782l.314,1.412.157,2.038.471,1.412-.785,1.569.941.94s1.569,9.1-2.509,11.922c0,0-4.392,2.979-7.687,1.255,0,0-2.509-1.726-4.549-.941l-2.195.628-2.04-.941-2.666-.471-2.668.471s-2.979,2.352-5.488.784c0,0-1.255-.941-2.04-.628l-3.136-.157-1.883-.471-2.352-.314s-1.255-2.666-3.138-.471l-1.41.471-2.667.157h-4.863l-2.509-.471s-3.138-5.019-9.725.628l-.941,1.255-1.569.471s-1.724-1.255-3.45,1.253c0,0-1.569-.942-3.293,1.883l1.254,2.195.941,1.569,1.883,1.726v2.352l-.157,2.824s-.784.157-.314,1.881a10.891,10.891,0,0,1,1.569,1.883c.157.471.783,2.509.783,2.509l-.626,2.668-.941,2.509-.628,3.45-.785,2.668-.784,2.666s-.314,2.824-2.823,1.726a2.09,2.09,0,0,1-.784-.785s-2.038.314,1.412,2.979l-.628,1.569-.157,2.824.314.94,1.569-.157s-.157,2.824,1.41,1.255h1.569l.942,2.2-.314,1.567-.157,1.255.471,1.412L830.52,666v2.668s-4.549,3.764.941,1.567a2.257,2.257,0,0,1,2.823-.157l.942.785,2.509.314,2.04.157,1.881-.628,1.1-.785s1.255-.157,1.726-.157,3.136.157,3.136.157l1.255,1.255.942,1.569,1.567,1.1,1.569,1.253,1.255,1.726.157,1.1s-2.2,3.45,2.666.471l2.04.626,1.567.314,2.04-.626.785-1.726s.628-1.726,3.764-1.569l1.569.157.939-.471,1.255-.939s-.628-.942.628-.942l2.04.157,1.253-.471,1.412.157,1.883.471,1.881-.157,2.668-.628,1.41.314s1.883,2.195,3.452.157c0,0,.94-1.569,2.195-.471a1.542,1.542,0,0,0,2.511.314l1.41-2.354,1.883-2.352,2.195-1.883,1.255-1.1s5.8,3.138,5.961-2.038l.157-.942.784-1.569a7.315,7.315,0,0,0,1.41-1.567,15.109,15.109,0,0,0,.314-1.883s2.511-.314,3.3-.314,0-.941,0-.941,2.979-.469,1.881-2.038l-2.509-1.412-1.255-2.666v-1.569l1.883-3.607,3.136-3.45,2.666-1.883s5.8-2.668,1.569-3.764l.785-1.569,1.724.157,2.2-.628s7.371.314,8.626-2.979h.785l2.666-1.569s6.275-.471,4.862-5.176c0,0,2.354-.628.157-2.666l-.939-1.1-.157-2.195.626-1.412,1.1-1.255,1.726-1.1,2.509-.471,1.569-.94h2.195l1.883,1.1s3.293,1.253,4.392,0a1.933,1.933,0,0,1,1.412-.316c.785.157,0,0,.471.157a6.008,6.008,0,0,0,1.724,0l2.354,1.412,3.136.471,1.726.471s2.195,1.255,3.45-.628A2.061,2.061,0,0,0,972,613.46l1.1-1.1,2.2-.942,2.195-.785,1.412-.941h2.2l3.136-.785,1.724-1.567.628-1.412,1.412-.784,1.412-1.1,2.195-.314,1.726.783,1.883.471,2.979,1.412,2.038.942,1.569,1.724s.314,3.609,1.1,2.981c0,0,2.038-1.569,2.352.471l-.783.941.312,1.41s2.51-.314,1.1,1.255c-.314.351,0,1.1,0,1.1l1.1.314,1.412.783,1.1.941,1.1.471,1.1,1.255s-1.255,2.823,2.509,1.255a4.582,4.582,0,0,1,1.569.783,8.93,8.93,0,0,0,1.883,1.1l1.41,1.255,1.883,2.038,3.921,2.668,1.726.784,1.724.785s1.883,3.136,2.824.314h1.1l1.724.471,1.255.626.471.785,1.724,1.255,1.412,1.412,1.412-.157.942.314.471,1.1.939.314,2.2-.157,1.412,1.883.314,1.726,1.41-.314a6.942,6.942,0,0,1,2.04,1.724c.628.942,1.41.314,1.881.314a1.905,1.905,0,0,1,.785.157l.941.941.314,1.883.314,1.253a11.194,11.194,0,0,1,2.195,2.04c.471.785.157,1.255.157,1.724s.157,1.569.157,1.569l1.255,1.255-.314,1.412s-3.136-.942-2.822.314l.314,1.253-.471,1.255-.942,1.569-1.255,1.253.628,1.412,1.1.157,2.352-.314,1.1-.628c1.1-.628.314-1.41.314-1.41l1.1-.785.785-.314,1.41-1.726v-2.352l1.1-.784,1.412-.314h1.881l1.1-.471-.157-1.1-.157-1.1-.157-1.724-.471-1.412-1.1-.471-1.726-.941s-3.764.471-2.04-1.567l1.255-1.569.941-1.881,1.1-2.04s1.41-1.412,3.293.628a7.564,7.564,0,0,0,4.392.628l1.255,1.1.314,1.1.785,1.1,1.41,1.255.784-.471s2.2,1.724.942-1.569c0,0,1.255.942,1.412-.785l-.941-1.567s-1.726-3.923-4.078-4.078l-2.2-.471-1.412-.628-2.509-1.255s-2.509-2.352-4.705-1.726l-1.569-.626-1.724-1.255s-.628,1.255-.785-1.255c0,0,2.979-6.118-6.9-4.235h-3.607a2.8,2.8,0,0,1-2.195-1.412l-3.3-2.195-2.195-2.04-1.412-1.1-1.412-4.235a5.877,5.877,0,0,0-3.607-4.706l-1.881-.941-2.04-1.1-1.726-1.412-1.724-.785-.628-1.412-.784-1.41.471-1.255.628-1.726-.157-1.253s2.038-1.1,2.038-1.569,1.1-1.1,1.1-1.1,4.078-1.1,2.354,0c0,0-1.726,1.1-.314.976l2.195,1.377,1.255.471s2.666,2.979,2.666,1.881l.471-1.1.784-.312s2.2-4.237,1.883-1.255l-.157,2.979,2.509,2.981,2.354,2.038,2.509,2.511s2.354,2.509,2.825,0l1.253.783,1.412.785,1.569.941s2.509,3.136,4.235,1.412h.785a3.943,3.943,0,0,1,2.038.941c.785.783,1.1,0,1.1,0h1.569l.469.783,1.412.785h1.1l.157,2.04s1.255,3.136,4.078,2.666h1.726l2.038.785,2.354,1.255a5.222,5.222,0,0,1,2.038,1.1,2.218,2.218,0,0,0,1.569.628l.628.942,1.41.785.159,1.1h.783l.785,1.253s5.176-.469,1.412,1.412l-.628.942v2.979a21.7,21.7,0,0,1-.157,2.2l-.628,1.569.157,2.038.784,1.883,1.412.942,1.881,1.1,2.2,1.883.942,1.255.783,2.038,1.1,1.883,1.412.628,1.881,2.038.314,1.569,1.569.942,1.1,1.567.627,1.255a11.615,11.615,0,0,1,1.1,1.255c.314.471,1.883,0,1.883,0l2.2.157h.94l-.314,1.255s-2.195,1.1-1.881-.314l-1.1.157-.941,1.253-1.41.941.626,1.1,1.569.785.628,1.41,1.883.785.783,2.354s-1.881-.628-1.567.471l.628,1.41s2.509,4.705,3.136,2.667l.471-1.255s-.157-4.078,1.255-.942a3.556,3.556,0,0,1,.939,1.1,5.048,5.048,0,0,0,.628,1.1l.471,1.567s.627,2.981,1.412-.783c0,0,1.881-2.825,2.038-1.726l.942,1.569,1.569,1.567s3.45,1.255.314-1.41l.471-.942v-1.412l-1.255-.942-.942-1.253-.628-1.412.157-1.883a13.987,13.987,0,0,1,1.726.314c.471.157.942,1.1.942,1.1l1.724.628,1.726-1.255s.314-.942-.314-1.412-1.255-.157-2.352-.626-.941-.628-.941-.628l-.941-2.04-1.1-.314-1.1.785-1.567-1.412-2.667-1.1-1.881-.628-.314-1.1,1.253-.157,2.511.157.471.471c.471.471,1.724,0,1.724,0l1.1.471,1.255.785h1.883l.314,1.253,1.41-.157,1.412,1.1h1.726l.783.784s2.981,4.706,3.138.785l-1.1-.314v-1.883a2.17,2.17,0,0,1,.314-1.1l-.785-1.253s-2.352-.785-.314-.941l.942-.314.941,1.412.785.94,1.881,1.1s5.8-1.253.157-1.881l-1.412-.157-.626-1.412.157-2.354-1.1-.783-1.726.471-2.509-.784-1.569-.942-1.569-1.255-.94-.314-1.412-.157-.785-.314-.628-.94.157-.942,1.1-.157,1.1.157s1.724,1.724,2.038.785a19.934,19.934,0,0,0-3.45-3.609l-.471-1.41-1.569-1.1-1.253-1.1L1116.3,642s0-3.607,2.038-1.253l2.2.471s6.9,3.136,6.744-1.569l-.785-1.569s-.626-3.45,2.2-.785h1.255l1.41-.94s2.2-2.824,1.569,0c0,0,1.255,4.862,2.823,1.253l.785-1.253h8l.628,1.881.942-.645,2.2,1.116s9.1-2.509,4.078,0l-1.726.942s-1.881,1.1-2.038,1.726a13.632,13.632,0,0,1-.785,1.881s-3.3,1.726-1.1,2.354l.471,1.41s-1.726,1.726.157,1.412l2.04-.628h2.822s5.8,0-.157,2.04l.157.942.314.783c.314.784.942.628.942.628l.628.785.626,1.412h-1.1l-.314,1.592s2.352,2.956.784,2.172l-.941-.942-2.04-1.186s-3.45-.539-.628,2.127l-1.881-.314-.942-.628s-2.667-2.666-2.979,0l1.1.628a.9.9,0,0,1,0,1.639s-.314,2.753.471,1.5l.941-.469,2.2-.157.939-.872s.628,2.282,1.883,1.184c0,0,.942-2.666,1.883,0l.94,1.255s4.392,0,2.824,1.569l-1.255.941-.785.94.157,1.1h.942l.471.79h1.724s2.354,1.563.785,2.191l-1.567-.314-1.1.783.157.941-.628.785s-4.078,1.412-1.569,2.04l1.726-.785.784-.157a10.6,10.6,0,0,0,1.724-1.883c.157-.471,1.255.314,2.354.314a2.345,2.345,0,0,0,1.726-.785l2.038-.157,2.04.157-1.1.785-1.412,1.726s-.628,3.764,2.2.785l.782-.941,1.726-.314,1.255,1.412h1.883s0-2.824,1.41,1.253l.628.785.157.941.471.785s2.195.471,2.666.471a3.42,3.42,0,0,1,.941.157h3.45l2.354-1.1s2.509,3.293,2.509.785a2.182,2.182,0,0,1,.628-2.668l.157-1.724s-.314-1.569,1.883-1.412l1.724.628,2.667.314,2.038.157,2.825,1.724,2.979.941.785.941,1.726,2.195s3.921,2.2,5.331.314l2.2-.157h1.883l1.253-.469a3.749,3.749,0,0,0,5.019-2.511l1.883-1.569s3.136-2.666,5.647.157l2.509,1.255a19.224,19.224,0,0,1,2.511-.628c.469,0,1.567-1.41,1.567-1.41l1.255-1.255s1.883-2.04,2.352-.314c0,0,2.2,1.726,0,2.195l-1.567.471-1.1,1.1s-1.412,1.883.314,2.04c0,0,2.038.94.628,1.881l-.628,1.412-1.1,1.412s-1.412,2.038.941,2.509c0,0,2.823.314,0,3.921,0,0-1.569,1.412-.314,1.412,0,0,2.979,1.412.628,2.979l-1.569,1.1-1.1,1.412.314,1.724-1.881,1.569v1.726l-1.255,1.881-.157,1.569-1.1,1.569-1.253,1.1-.941.942v1.1l-.157,2.665L1225.779,714s.941,4.549-6.273,8.156l-2.04.471h-2.2l-2.509-.314-2.2-.942-.628-.94a8.5,8.5,0,0,0-2.666-.314l-2.509-1.1s-.47-1.412-3.3-.785l-1.1.785-2.981.628-2.038-1.412s-7.844-1.881-11.608,1.883a3.252,3.252,0,0,1,0,2.352l-1.41,1.1-3.138.785-1.881,1.1-1.1.783-2.04-1.1h-.785l-2.195-.314-1.255-.942-1.724.157-1.883.157-1.883-.628-.94-.785-.941.471-1.255.314h-.942" transform="translate(274.458 4750.073) rotate(-11)"/><g transform="translate(936.895 4664.498)"><ellipse class="e" cx="314.329" cy="314.329" rx="314.329" ry="314.329" transform="translate(94.319 706.152) rotate(-80.783)"/><path class="f" d="M883.27,390.932A8.528,8.528,0,0,0,874,388.566L761.582,158.254a8.421,8.421,0,0,0,1.106-.793A8.537,8.537,0,1,0,749.3,147.45l-199.5-67.777a8.525,8.525,0,1,0-16.427.8L312.019,180.384a8.5,8.5,0,0,0-13-2.057,8.535,8.535,0,0,0-.737,12.048,8.328,8.328,0,0,0,1.89,1.55L222.928,367.74a8.512,8.512,0,1,0-.812,16.439l77.772,238.366a8.518,8.518,0,1,0,9.163,14.132,8.472,8.472,0,0,0,1.922-2.5l265.493,101.3a8.523,8.523,0,1,0,16.356-.979l184.114-88.362a8.529,8.529,0,1,0,10.681-12.29l87.113-229a8.538,8.538,0,0,0,8.541-13.918ZM775.735,640.49l-282.669-6.92a11.8,11.8,0,0,0-.472-2.818l157.237-47.589a11.683,11.683,0,0,0,2.437,4.435,11.714,11.714,0,0,0,19.174-2.156l104.567,53.74A8.158,8.158,0,0,0,775.735,640.49ZM311.872,629.536a8.374,8.374,0,0,0-5.972-7.383l20.707-108.411a11.75,11.75,0,0,0,8.77-2.909c.055-.048.1-.111.151-.162l136.24,116.607a11.76,11.76,0,0,0-2.172,5.746Zm-83.4-256.414,118.806-55.313a11.315,11.315,0,0,0,7.982,5.461L328.787,490.264a11.734,11.734,0,0,0-8.366,2.358l-93.426-111.4A8.529,8.529,0,0,0,228.472,373.122ZM310.33,191.116a8.474,8.474,0,0,0,2.338-3.5l136.973,23.319a11.742,11.742,0,0,0,2.437,8.251l-86.8,83.808a11.782,11.782,0,0,0-11.56-2.532L308.789,192.19A8.547,8.547,0,0,0,310.33,191.116Zm236.007-106.3,96.716,111-.071.052a11.732,11.732,0,0,0-3.931,9.091L473.02,210.072a11.385,11.385,0,0,0-4.371-7.387L537.983,85.6A8.505,8.505,0,0,0,546.338,84.817Zm204.3,71.9a8.469,8.469,0,0,0,4.835,2.7L738.347,389.815a11.81,11.81,0,0,0-3.828.618L657.1,214.689a11.461,11.461,0,0,0,4.708-14.2l88.116-44.763A8.231,8.231,0,0,0,750.64,156.72ZM357.119,323.472a11.733,11.733,0,0,0,8.073-2.929c.158-.139.269-.305.416-.452L506.164,442.179a15.753,15.753,0,0,0-3.713,12.682l-163.76,43.21a11.74,11.74,0,0,0-8.061-7.49Zm96.224-102.91a11.741,11.741,0,0,0,10.938,2.83L514.027,437.3a15.628,15.628,0,0,0-6.44,3.424c-.04.036-.071.071-.111.107L366.864,318.7a11.787,11.787,0,0,0-.3-14.358Zm277.236,172.17a11.775,11.775,0,0,0-3.908,9.9L533.109,448a15.69,15.69,0,0,0-6.84-8.9L645.824,215.43a11.809,11.809,0,0,0,9.607.119L732.814,391.2A11.765,11.765,0,0,0,730.579,392.732ZM641.96,212.556a11.714,11.714,0,0,0,2.251,1.922L524.616,438.224a15.77,15.77,0,0,0-8.758-1.3l-49.8-214.147a11.443,11.443,0,0,0,7.1-10.839l166.066-5.112A11.683,11.683,0,0,0,641.96,212.556ZM339.138,499.89l163.7-43.2A15.654,15.654,0,0,0,514.6,467.9L482.1,622.43a11.789,11.789,0,0,0-8.608,2.937c-.178.159-.309.345-.475.511L336.8,509.295A11.77,11.77,0,0,0,339.138,499.89Zm151.034,126.5a11.731,11.731,0,0,0-6.226-3.666L516.452,468.2a15.7,15.7,0,0,0,12.016-3.86,15.377,15.377,0,0,0,1.248-1.244L651.9,572.423a11.808,11.808,0,0,0-2.489,8.913l-157.53,47.68A11.781,11.781,0,0,0,490.173,626.389ZM653.29,570.913c-.048.044-.079.1-.123.135L530.886,461.622a15.761,15.761,0,0,0,2.651-11.8L727,404.474a11.551,11.551,0,0,0,6.25,7.74L664.585,568.508A11.765,11.765,0,0,0,653.29,570.913Zm16.554.9a11.824,11.824,0,0,0-3.507-2.647l68.669-156.3a11.734,11.734,0,0,0,15.187-10.95l118.176-5.445a8.473,8.473,0,0,0,1.47,4.883ZM872.324,389.4a8.081,8.081,0,0,0-3.737,5.192l-118.458,5.461a11.693,11.693,0,0,0-9.916-10.094l17.128-230.4a8.537,8.537,0,0,0,2.568-.468ZM748.722,149.23a8.541,8.541,0,0,0,.341,4.835l-88.037,44.72a11.758,11.758,0,0,0-16.447-4.062L547.745,83.585a8.421,8.421,0,0,0,1.478-2.136ZM534.155,82.178a8.275,8.275,0,0,0,2.212,2.481L467.076,201.674a11.766,11.766,0,0,0-17.14,7.411L313.108,185.793a8.475,8.475,0,0,0-.321-3.709Zm-232.3,110.563a8.553,8.553,0,0,0,5.2.155L352,301.2a11.562,11.562,0,0,0-5.54,14.925l-118.79,55.305a8.81,8.81,0,0,0-.888-1.233,8.467,8.467,0,0,0-2.14-1.7ZM223.895,383.593a8.357,8.357,0,0,0,1.756-1.062l93.375,111.344a11.753,11.753,0,0,0,5.731,19.578L304.065,621.788a8.461,8.461,0,0,0-2.4.174Zm87.763,248.84a8.137,8.137,0,0,0,.162-1.026l157.748,3.488a11.741,11.741,0,0,0,19.4,8.3l88.98,89a8.587,8.587,0,0,0-.9,1.506ZM592,732.818a8.393,8.393,0,0,0-12.753-1.977l-88.968-88.988a11.723,11.723,0,0,0,2.759-6.412l282.645,6.92a8.662,8.662,0,0,0,.432,2.092Zm193.828-99.526a8.483,8.483,0,0,0-7.32,1.946,8.377,8.377,0,0,0-1.756,2.223L672.2,583.73a11.763,11.763,0,0,0-1.236-10.415l200.09-170.541a8.566,8.566,0,0,0,1.93,1.395Z" transform="translate(-93.098 36.545)"/><path class="g" d="M883.27,390.932A8.528,8.528,0,0,0,874,388.566L761.582,158.254a8.421,8.421,0,0,0,1.106-.793A8.537,8.537,0,1,0,749.3,147.45l-199.5-67.777a8.525,8.525,0,1,0-16.427.8L312.019,180.384a8.5,8.5,0,0,0-13-2.057,8.535,8.535,0,0,0-.737,12.048,8.328,8.328,0,0,0,1.89,1.55L222.928,367.74a8.512,8.512,0,1,0-.812,16.439l77.772,238.366a8.518,8.518,0,1,0,9.163,14.132,8.472,8.472,0,0,0,1.922-2.5l265.493,101.3a8.523,8.523,0,1,0,16.356-.979l184.114-88.362a8.529,8.529,0,1,0,10.681-12.29l87.113-229a8.538,8.538,0,0,0,8.541-13.918ZM775.735,640.49l-282.669-6.92a11.8,11.8,0,0,0-.472-2.818l157.237-47.589a11.683,11.683,0,0,0,2.437,4.435,11.714,11.714,0,0,0,19.174-2.156l104.567,53.74A8.158,8.158,0,0,0,775.735,640.49ZM311.872,629.536a8.374,8.374,0,0,0-5.972-7.383l20.707-108.411a11.75,11.75,0,0,0,8.77-2.909c.055-.048.1-.111.151-.162l136.24,116.607a11.76,11.76,0,0,0-2.172,5.746Zm-83.4-256.414,118.806-55.313a11.315,11.315,0,0,0,7.982,5.461L328.787,490.264a11.734,11.734,0,0,0-8.366,2.358l-93.426-111.4A8.529,8.529,0,0,0,228.472,373.122ZM310.33,191.116a8.474,8.474,0,0,0,2.338-3.5l136.973,23.319a11.742,11.742,0,0,0,2.437,8.251l-86.8,83.808a11.782,11.782,0,0,0-11.56-2.532L308.789,192.19A8.547,8.547,0,0,0,310.33,191.116Zm236.007-106.3,96.716,111-.071.052a11.732,11.732,0,0,0-3.931,9.091L473.02,210.072a11.385,11.385,0,0,0-4.371-7.387L537.983,85.6A8.505,8.505,0,0,0,546.338,84.817Zm204.3,71.9a8.469,8.469,0,0,0,4.835,2.7L738.347,389.815a11.81,11.81,0,0,0-3.828.618L657.1,214.689a11.461,11.461,0,0,0,4.708-14.2l88.116-44.763A8.231,8.231,0,0,0,750.64,156.72ZM357.119,323.472a11.733,11.733,0,0,0,8.073-2.929c.158-.139.269-.305.416-.452L506.164,442.179a15.753,15.753,0,0,0-3.713,12.682l-163.76,43.21a11.74,11.74,0,0,0-8.061-7.49Zm96.224-102.91a11.741,11.741,0,0,0,10.938,2.83L514.027,437.3a15.628,15.628,0,0,0-6.44,3.424c-.04.036-.071.071-.111.107L366.864,318.7a11.787,11.787,0,0,0-.3-14.358Zm277.236,172.17a11.775,11.775,0,0,0-3.908,9.9L533.109,448a15.69,15.69,0,0,0-6.84-8.9L645.824,215.43a11.809,11.809,0,0,0,9.607.119L732.814,391.2A11.765,11.765,0,0,0,730.579,392.732ZM641.96,212.556a11.714,11.714,0,0,0,2.251,1.922L524.616,438.224a15.77,15.77,0,0,0-8.758-1.3l-49.8-214.147a11.443,11.443,0,0,0,7.1-10.839l166.066-5.112A11.683,11.683,0,0,0,641.96,212.556ZM339.138,499.89l163.7-43.2A15.654,15.654,0,0,0,514.6,467.9L482.1,622.43a11.789,11.789,0,0,0-8.608,2.937c-.178.159-.309.345-.475.511L336.8,509.295A11.77,11.77,0,0,0,339.138,499.89Zm151.034,126.5a11.731,11.731,0,0,0-6.226-3.666L516.452,468.2a15.7,15.7,0,0,0,12.016-3.86,15.377,15.377,0,0,0,1.248-1.244L651.9,572.423a11.808,11.808,0,0,0-2.489,8.913l-157.53,47.68A11.781,11.781,0,0,0,490.173,626.389ZM653.29,570.913c-.048.044-.079.1-.123.135L530.886,461.622a15.761,15.761,0,0,0,2.651-11.8L727,404.474a11.551,11.551,0,0,0,6.25,7.74L664.585,568.508A11.765,11.765,0,0,0,653.29,570.913Zm16.554.9a11.824,11.824,0,0,0-3.507-2.647l68.669-156.3a11.734,11.734,0,0,0,15.187-10.95l118.176-5.445a8.473,8.473,0,0,0,1.47,4.883ZM872.324,389.4a8.081,8.081,0,0,0-3.737,5.192l-118.458,5.461a11.693,11.693,0,0,0-9.916-10.094l17.128-230.4a8.537,8.537,0,0,0,2.568-.468ZM748.722,149.23a8.541,8.541,0,0,0,.341,4.835l-88.037,44.72a11.758,11.758,0,0,0-16.447-4.062L547.745,83.585a8.421,8.421,0,0,0,1.478-2.136ZM534.155,82.178a8.275,8.275,0,0,0,2.212,2.481L467.076,201.674a11.766,11.766,0,0,0-17.14,7.411L313.108,185.793a8.475,8.475,0,0,0-.321-3.709Zm-232.3,110.563a8.553,8.553,0,0,0,5.2.155L352,301.2a11.562,11.562,0,0,0-5.54,14.925l-118.79,55.305a8.81,8.81,0,0,0-.888-1.233,8.467,8.467,0,0,0-2.14-1.7ZM223.895,383.593a8.357,8.357,0,0,0,1.756-1.062l93.375,111.344a11.753,11.753,0,0,0,5.731,19.578L304.065,621.788a8.461,8.461,0,0,0-2.4.174Zm87.763,248.84a8.137,8.137,0,0,0,.162-1.026l157.748,3.488a11.741,11.741,0,0,0,19.4,8.3l88.98,89a8.587,8.587,0,0,0-.9,1.506ZM592,732.818a8.393,8.393,0,0,0-12.753-1.977l-88.968-88.988a11.723,11.723,0,0,0,2.759-6.412l282.645,6.92a8.662,8.662,0,0,0,.432,2.092Zm193.828-99.526a8.483,8.483,0,0,0-7.32,1.946,8.377,8.377,0,0,0-1.756,2.223L672.2,583.73a11.763,11.763,0,0,0-1.236-10.415l200.09-170.541a8.566,8.566,0,0,0,1.93,1.395Z" transform="translate(-93.098 36.545)"/><path class="h" d="M831.4,298.785a8.067,8.067,0,0,0-8.081-.032L682.733,106.518a8.1,8.1,0,1,0-13.467-7.245L399.667,86.2a8.1,8.1,0,1,0-14.505,5.727L245.035,226.066a8.217,8.217,0,0,0-1.05-.769,8.109,8.109,0,1,0-4.974,15.04L227.973,472.793a8.1,8.1,0,1,0,5.485,14.513l169.487,174.73a7.808,7.808,0,0,0-.737,1.007,8.107,8.107,0,1,0,13.986,8.2,8.023,8.023,0,0,0,1.05-3.075l200.117,2.291a8.093,8.093,0,1,0,14.608-5.576l170.358-155.56a8.1,8.1,0,1,0,9.409-13.106,7.867,7.867,0,0,0-2.116-.832l17.826-181.53a8.087,8.087,0,0,0,3.955-15.072ZM618.994,664.707,498.912,593.054l.02-.028a11.146,11.146,0,0,0,.884-9.325L648.2,530.068a10.8,10.8,0,0,0,6.06,5.318L626.227,661.572A8.079,8.079,0,0,0,618.994,664.707Zm-204.79-3.9a7.487,7.487,0,0,0-.9-.658,8.012,8.012,0,0,0-5.116-1.019L355.629,446.078a11.078,11.078,0,0,0,3.19-1.641l121.787,135.8a11,11,0,0,0-1.039,1.423,11.193,11.193,0,0,0,.975,12.714ZM233.51,474.529,363.738,261.587a11.1,11.1,0,0,0,3.856,1.324L351.745,424.3A11.154,11.154,0,0,0,341.3,438.619L236.224,478.425A8.066,8.066,0,0,0,233.51,474.529Zm14.319-243.644,257.234-77.213a11.083,11.083,0,0,0,1.22,2.318l-127.9,89.388a11.134,11.134,0,0,0-20.145,4.316L247.967,232.05A7.664,7.664,0,0,0,247.829,230.885Zm435.622-2.057L548.415,316.155a14.873,14.873,0,0,0-13.851-6.614l-16.281-149.1a11.192,11.192,0,0,0,6.86-5.184c.107-.182.162-.38.258-.563l157.387,65.031A11.193,11.193,0,0,0,683.45,228.828ZM648.428,519.186a11.156,11.156,0,0,0-.947,9.147L499.066,581.981a10.7,10.7,0,0,0-6.69-5.382l41.91-237.3a15,15,0,0,0,8.2-1.4L650.671,516.53A11.145,11.145,0,0,0,648.428,519.186Zm-166.51,59.72L360.2,443.177a10.986,10.986,0,0,0,1.53-2.005,11.181,11.181,0,0,0,.622-10.047l161.358-98.111a14.859,14.859,0,0,0,8.731,5.965l-41.9,237.228A11.2,11.2,0,0,0,481.918,578.906Zm-124.184-153.1a11.224,11.224,0,0,0-4.118-1.427l15.849-161.374A11.187,11.187,0,0,0,378.9,257.5c.024-.04.032-.079.055-.119l142.7,62.685a14.989,14.989,0,0,0,1.082,11.35L361.475,429.473A11.154,11.154,0,0,0,357.734,425.807ZM509.783,159.255a11.148,11.148,0,0,0,6.65,1.482l16.28,149.1a14.918,14.918,0,0,0-9.662,7.023,14.7,14.7,0,0,0-.741,1.451L379.737,255.678a11.224,11.224,0,0,0-.384-8.7L507.5,157.424A11.026,11.026,0,0,0,509.783,159.255ZM662.8,514.727a11.167,11.167,0,0,0-10.629.67L544.111,336.973a14.868,14.868,0,0,0,4.76-4.97l.048-.087,163.007,68.744a11.194,11.194,0,0,0,4.482,12.8ZM712.9,398.461c-.1.159-.139.329-.226.487L549.742,330.232a14.951,14.951,0,0,0-.384-12.46l135.091-87.363a11.091,11.091,0,0,0,9.4,4.348l25.427,158.7A11.149,11.149,0,0,0,712.9,398.461ZM683.636,217.874c-.028.048-.04.1-.067.151L526.142,152.974a11.164,11.164,0,0,0,.262-5.735l143.425-43.42a7.956,7.956,0,0,0,7.506,4.859l13.316,103.988A11.2,11.2,0,0,0,683.636,217.874ZM669.3,102.028,525.853,145.452a11.15,11.15,0,0,0-19.923-1.764L399.315,89.612a8.327,8.327,0,0,0,.353-1.534l269.492,13.066A8.384,8.384,0,0,0,669.3,102.028ZM387.524,94.034A8.1,8.1,0,0,0,398.506,91.3l106.6,54.069a11.148,11.148,0,0,0-.587,6.515l-257.21,77.2a8.186,8.186,0,0,0-.963-1.684L386.474,93.27A8.3,8.3,0,0,0,387.524,94.034ZM246.873,236.393a8.014,8.014,0,0,0,.915-2.477l110.258,17.64a11.159,11.159,0,0,0,4.149,8.961L231.909,473.554a8.063,8.063,0,0,0-2.065-.654l11.041-232.6A8.065,8.065,0,0,0,246.873,236.393Zm-11.354,248.59a8.053,8.053,0,0,0,1.086-4.7l105.344-39.908a11.1,11.1,0,0,0,11.862,6.151l52.563,213.061a8.048,8.048,0,0,0-2.1,1.133L234.786,485.987A7.748,7.748,0,0,0,235.519,484.984ZM415.54,662.119l66.279-66.37a11.156,11.156,0,0,0,15.983-1.177l120.237,71.744a8.111,8.111,0,0,0-.682,2.275L417.24,666.3A8.083,8.083,0,0,0,415.54,662.119Zm213.961.507a8.128,8.128,0,0,0-1.443-.662l28.011-126.1a11.177,11.177,0,0,0,13.245-11.715l130.4-19.368a8.025,8.025,0,0,0,1.351,3.167L630.7,663.506A7.947,7.947,0,0,0,629.5,662.627ZM800.639,499.108a8.057,8.057,0,0,0-1.074,3.8L669.02,522.3a11.142,11.142,0,0,0-4.593-6.654l53.625-101.293a11.2,11.2,0,0,0,11.1-1.122l72.525,84.482A7.992,7.992,0,0,0,800.639,499.108Zm-70.793-103.5a11.284,11.284,0,0,0-1.581-1.149,11.109,11.109,0,0,0-7.154-1.4l-25.4-158.572a11.147,11.147,0,0,0,6.785-4.554L819.73,302.926a8.107,8.107,0,0,0,1.046,7.669Zm91.964-95.753a8.286,8.286,0,0,0-1.209,1.407L703.424,228.317A11.168,11.168,0,0,0,692.5,212.369l-13.3-103.909a8.091,8.091,0,0,0,2.029-.836ZM807.761,495.141a8.068,8.068,0,0,0-4.649,1.371L730.56,412a11,11,0,0,0,1.708-2.172,11.183,11.183,0,0,0-1.118-12.868l90.918-85.009a8.183,8.183,0,0,0,1.13.824,7.9,7.9,0,0,0,2.386.892Z" transform="translate(-67.703 65.086)"/><path class="i" d="M831.4,298.785a8.067,8.067,0,0,0-8.081-.032L682.733,106.518a8.1,8.1,0,1,0-13.467-7.245L399.667,86.2a8.1,8.1,0,1,0-14.505,5.727L245.035,226.066a8.217,8.217,0,0,0-1.05-.769,8.109,8.109,0,1,0-4.974,15.04L227.973,472.793a8.1,8.1,0,1,0,5.485,14.513l169.487,174.73a7.808,7.808,0,0,0-.737,1.007,8.107,8.107,0,1,0,13.986,8.2,8.023,8.023,0,0,0,1.05-3.075l200.117,2.291a8.093,8.093,0,1,0,14.608-5.576l170.358-155.56a8.1,8.1,0,1,0,9.409-13.106,7.867,7.867,0,0,0-2.116-.832l17.826-181.53a8.087,8.087,0,0,0,3.955-15.072ZM618.994,664.707,498.912,593.054l.02-.028a11.146,11.146,0,0,0,.884-9.325L648.2,530.068a10.8,10.8,0,0,0,6.06,5.318L626.227,661.572A8.079,8.079,0,0,0,618.994,664.707Zm-204.79-3.9a7.487,7.487,0,0,0-.9-.658,8.012,8.012,0,0,0-5.116-1.019L355.629,446.078a11.078,11.078,0,0,0,3.19-1.641l121.787,135.8a11,11,0,0,0-1.039,1.423,11.193,11.193,0,0,0,.975,12.714ZM233.51,474.529,363.738,261.587a11.1,11.1,0,0,0,3.856,1.324L351.745,424.3A11.154,11.154,0,0,0,341.3,438.619L236.224,478.425A8.066,8.066,0,0,0,233.51,474.529Zm14.319-243.644,257.234-77.213a11.083,11.083,0,0,0,1.22,2.318l-127.9,89.388a11.134,11.134,0,0,0-20.145,4.316L247.967,232.05A7.664,7.664,0,0,0,247.829,230.885Zm435.622-2.057L548.415,316.155a14.873,14.873,0,0,0-13.851-6.614l-16.281-149.1a11.192,11.192,0,0,0,6.86-5.184c.107-.182.162-.38.258-.563l157.387,65.031A11.193,11.193,0,0,0,683.45,228.828ZM648.428,519.186a11.156,11.156,0,0,0-.947,9.147L499.066,581.981a10.7,10.7,0,0,0-6.69-5.382l41.91-237.3a15,15,0,0,0,8.2-1.4L650.671,516.53A11.145,11.145,0,0,0,648.428,519.186Zm-166.51,59.72L360.2,443.177a10.986,10.986,0,0,0,1.53-2.005,11.181,11.181,0,0,0,.622-10.047l161.358-98.111a14.859,14.859,0,0,0,8.731,5.965l-41.9,237.228A11.2,11.2,0,0,0,481.918,578.906Zm-124.184-153.1a11.224,11.224,0,0,0-4.118-1.427l15.849-161.374A11.187,11.187,0,0,0,378.9,257.5c.024-.04.032-.079.055-.119l142.7,62.685a14.989,14.989,0,0,0,1.082,11.35L361.475,429.473A11.154,11.154,0,0,0,357.734,425.807ZM509.783,159.255a11.148,11.148,0,0,0,6.65,1.482l16.28,149.1a14.918,14.918,0,0,0-9.662,7.023,14.7,14.7,0,0,0-.741,1.451L379.737,255.678a11.224,11.224,0,0,0-.384-8.7L507.5,157.424A11.026,11.026,0,0,0,509.783,159.255ZM662.8,514.727a11.167,11.167,0,0,0-10.629.67L544.111,336.973a14.868,14.868,0,0,0,4.76-4.97l.048-.087,163.007,68.744a11.194,11.194,0,0,0,4.482,12.8ZM712.9,398.461c-.1.159-.139.329-.226.487L549.742,330.232a14.951,14.951,0,0,0-.384-12.46l135.091-87.363a11.091,11.091,0,0,0,9.4,4.348l25.427,158.7A11.149,11.149,0,0,0,712.9,398.461ZM683.636,217.874c-.028.048-.04.1-.067.151L526.142,152.974a11.164,11.164,0,0,0,.262-5.735l143.425-43.42a7.956,7.956,0,0,0,7.506,4.859l13.316,103.988A11.2,11.2,0,0,0,683.636,217.874ZM669.3,102.028,525.853,145.452a11.15,11.15,0,0,0-19.923-1.764L399.315,89.612a8.327,8.327,0,0,0,.353-1.534l269.492,13.066A8.384,8.384,0,0,0,669.3,102.028ZM387.524,94.034A8.1,8.1,0,0,0,398.506,91.3l106.6,54.069a11.148,11.148,0,0,0-.587,6.515l-257.21,77.2a8.186,8.186,0,0,0-.963-1.684L386.474,93.27A8.3,8.3,0,0,0,387.524,94.034ZM246.873,236.393a8.014,8.014,0,0,0,.915-2.477l110.258,17.64a11.159,11.159,0,0,0,4.149,8.961L231.909,473.554a8.063,8.063,0,0,0-2.065-.654l11.041-232.6A8.065,8.065,0,0,0,246.873,236.393Zm-11.354,248.59a8.053,8.053,0,0,0,1.086-4.7l105.344-39.908a11.1,11.1,0,0,0,11.862,6.151l52.563,213.061a8.048,8.048,0,0,0-2.1,1.133L234.786,485.987A7.748,7.748,0,0,0,235.519,484.984ZM415.54,662.119l66.279-66.37a11.156,11.156,0,0,0,15.983-1.177l120.237,71.744a8.111,8.111,0,0,0-.682,2.275L417.24,666.3A8.083,8.083,0,0,0,415.54,662.119Zm213.961.507a8.128,8.128,0,0,0-1.443-.662l28.011-126.1a11.177,11.177,0,0,0,13.245-11.715l130.4-19.368a8.025,8.025,0,0,0,1.351,3.167L630.7,663.506A7.947,7.947,0,0,0,629.5,662.627ZM800.639,499.108a8.057,8.057,0,0,0-1.074,3.8L669.02,522.3a11.142,11.142,0,0,0-4.593-6.654l53.625-101.293a11.2,11.2,0,0,0,11.1-1.122l72.525,84.482A7.992,7.992,0,0,0,800.639,499.108Zm-70.793-103.5a11.284,11.284,0,0,0-1.581-1.149,11.109,11.109,0,0,0-7.154-1.4l-25.4-158.572a11.147,11.147,0,0,0,6.785-4.554L819.73,302.926a8.107,8.107,0,0,0,1.046,7.669Zm91.964-95.753a8.286,8.286,0,0,0-1.209,1.407L703.424,228.317A11.168,11.168,0,0,0,692.5,212.369l-13.3-103.909a8.091,8.091,0,0,0,2.029-.836ZM807.761,495.141a8.068,8.068,0,0,0-4.649,1.371L730.56,412a11,11,0,0,0,1.708-2.172,11.183,11.183,0,0,0-1.118-12.868l90.918-85.009a8.183,8.183,0,0,0,1.13.824,7.9,7.9,0,0,0,2.386.892Z" transform="translate(-67.703 65.086)"/><path class="j" d="M337.714,68.981a9.472,9.472,0,1,1-9.472-9.472A9.472,9.472,0,0,1,337.714,68.981Z" transform="translate(223.723 7.531)"/><ellipse class="j" cx="9.472" cy="9.472" rx="9.472" ry="9.472" transform="translate(239.08 701.768)"/><path class="j" d="M374.6,83.652a6.313,6.313,0,1,1-6.313-6.313A6.316,6.316,0,0,1,374.6,83.652Z" transform="translate(351.753 60.363)"/><path class="j" d="M369.091,58.684a3.159,3.159,0,1,1-3.159-3.159A3.159,3.159,0,0,1,369.091,58.684Z" transform="translate(354.112 -4.274)"/><path class="j" d="M357.612,234.748a6.315,6.315,0,1,1-6.317-6.317A6.318,6.318,0,0,1,357.612,234.748Z" transform="translate(301.392 508.066)"/><path class="j" d="M396.206,144.33a6.315,6.315,0,1,1-6.313-6.313A6.316,6.316,0,0,1,396.206,144.33Z" transform="translate(415.75 240.159)"/><path class="j" d="M228.4,216.562a6.313,6.313,0,1,1-6.313-6.313A6.316,6.316,0,0,1,228.4,216.562Z" transform="translate(-81.475 454.191)"/><ellipse class="j" cx="3.157" cy="3.157" rx="3.157" ry="3.157" transform="translate(115.593 708.082)"/><path class="j" d="M397.8,179.384a6.313,6.313,0,1,1-6.313-6.313A6.312,6.312,0,0,1,397.8,179.384Z" transform="translate(420.474 344.028)"/><path class="j" d="M400.427,194.022a3.159,3.159,0,1,1-3.159-3.159A3.156,3.156,0,0,1,400.427,194.022Z" transform="translate(446.964 396.748)"/><path class="j" d="M411.577,119.4a3.157,3.157,0,1,1-3.159-3.159A3.156,3.156,0,0,1,411.577,119.4Z" transform="translate(480.015 175.634)"/><path class="j" d="M292.813,64.232a6.313,6.313,0,1,1-6.313-6.317A6.312,6.312,0,0,1,292.813,64.232Z" transform="translate(109.394 2.808)"/><path class="j" d="M303.524,45.748a3.157,3.157,0,1,1-3.155-3.155A3.156,3.156,0,0,1,303.524,45.748Z" transform="translate(159.841 -42.593)"/><path class="j" d="M254.044,82.059a6.315,6.315,0,1,1-6.317-6.313A6.316,6.316,0,0,1,254.044,82.059Z" transform="translate(-5.492 55.643)"/><path class="j" d="M221.026,131.406a6.315,6.315,0,1,1-6.317-6.313A6.319,6.319,0,0,1,221.026,131.406Z" transform="translate(-103.328 201.864)"/><path class="j" d="M205.064,143.566a3.159,3.159,0,1,1-3.159-3.159A3.156,3.156,0,0,1,205.064,143.566Z" transform="translate(-131.919 247.241)"/><path class="j" d="M211.526,114.177a3.159,3.159,0,1,1-3.159-3.159A3.159,3.159,0,0,1,211.526,114.177Z" transform="translate(-112.771 160.158)"/><path class="j" d="M219.429,179.384a6.313,6.313,0,1,1-6.313-6.313A6.312,6.312,0,0,1,219.429,179.384Z" transform="translate(-108.048 344.028)"/><ellipse class="j" cx="3.157" cy="3.157" rx="3.157" ry="3.157" transform="translate(0 497.569)"/><ellipse class="j" cx="3.157" cy="3.157" rx="3.157" ry="3.157" transform="translate(66.83 134.545)"/><path class="j" d="M394.614,114.945a6.315,6.315,0,1,1-6.317-6.317A6.316,6.316,0,0,1,394.614,114.945Z" transform="translate(411.03 153.076)"/><path class="j" d="M383.457,209.13a6.313,6.313,0,1,1-6.313-6.317A6.312,6.312,0,0,1,383.457,209.13Z" transform="translate(377.983 432.157)"/><path class="j" d="M383.1,226.81a3.157,3.157,0,1,1-3.155-3.159A3.153,3.153,0,0,1,383.1,226.81Z" transform="translate(395.637 493.903)"/><path class="j" d="M250.117,240.865a3.157,3.157,0,1,1-3.155-3.155A3.156,3.156,0,0,1,250.117,240.865Z" transform="translate(1.59 535.561)"/><ellipse class="j" cx="3.157" cy="3.157" rx="3.157" ry="3.157" transform="translate(66.83 631.814)"/><path class="j" d="M421.775,153.742a3.159,3.159,0,1,1-3.159-3.155A3.159,3.159,0,0,1,421.775,153.742Z" transform="translate(510.22 277.406)"/><g transform="translate(884.343 231.657)"><path class="k" d="M417.658,162.036a6.315,6.315,0,1,1-6.317-6.313A6.315,6.315,0,0,1,417.658,162.036Z" transform="translate(-405.028 60.968)"/><path class="k" d="M440.764,145.178a6.315,6.315,0,1,1-6.313-6.317A6.312,6.312,0,0,1,440.764,145.178Z" transform="translate(-336.562 11.004)"/><path class="k" d="M457.343,158.009a6.313,6.313,0,1,1-6.313-6.313A6.312,6.312,0,0,1,457.343,158.009Z" transform="translate(-287.428 49.036)"/><path class="k" d="M482.6,146.427a6.313,6.313,0,1,1-6.313-6.317A6.312,6.312,0,0,1,482.6,146.427Z" transform="translate(-212.58 14.705)"/><path class="k" d="M508.554,156.76a6.315,6.315,0,1,1-6.313-6.313A6.312,6.312,0,0,1,508.554,156.76Z" transform="translate(-135.693 45.335)"/><path class="k" d="M529.787,145.519a6.315,6.315,0,1,1-6.317-6.313A6.315,6.315,0,0,1,529.787,145.519Z" transform="translate(-72.777 12.026)"/><path class="k" d="M472.775,174.142a3.159,3.159,0,1,1-3.159-3.155A3.159,3.159,0,0,1,472.775,174.142Z" transform="translate(-223.004 106.197)"/><path class="k" d="M452.45,128.626a3.157,3.157,0,1,1-3.155-3.159A3.153,3.153,0,0,1,452.45,128.626Z" transform="translate(-283.217 -28.684)"/><path class="k" d="M504.283,134.871a3.157,3.157,0,1,1-3.155-3.159A3.155,3.155,0,0,1,504.283,134.871Z" transform="translate(-129.63 -10.179)"/><ellipse class="k" cx="3.157" cy="3.157" rx="3.157" ry="3.157" transform="translate(553.96 146.281)"/><path class="k" d="M529.892,157.349a3.159,3.159,0,1,1-3.159-3.155A3.16,3.16,0,0,1,529.892,157.349Z" transform="translate(-53.763 56.438)"/><path class="k" d="M437.44,107.359a6.315,6.315,0,1,1-6.317-6.313A6.316,6.316,0,0,1,437.44,107.359Z" transform="translate(-346.412 -101.046)"/><path class="k" d="M439.481,174.838a6.313,6.313,0,1,1-6.313-6.313A6.315,6.315,0,0,1,439.481,174.838Z" transform="translate(-340.352 98.902)"/><path class="k" d="M447.03,188.328a3.157,3.157,0,1,1-3.155-3.159A3.153,3.153,0,0,1,447.03,188.328Z" transform="translate(-299.277 148.22)"/></g></g></g></svg>