<svg xmlns="http://www.w3.org/2000/svg" width="584.936" height="386.172" viewBox="0 0 584.936 386.172"><defs><style>.a,.g{fill:none;stroke-linecap:round;stroke-linejoin:round;stroke-width:0.936px;}.a{stroke:#e0e0e0;}.b{fill:#39c089;}.c{fill:#00bef3;}.d{fill:#dadd00;}.e{fill:#9c27b0;}.f{fill:#f93a9b;}.g{stroke:#bdbdbd;}</style></defs><g transform="translate(-127.565 -1344.132)"><g transform="translate(128.033 1344.6)"><line class="a" x2="584" transform="translate(0 318.292)"/><line class="a" x2="584" transform="translate(0 342.292)"/><line class="a" x2="584" transform="translate(0 366.292)"/><line class="a" x2="584" transform="translate(0 293.808)"/><line class="a" x2="584" transform="translate(0 269.324)"/><line class="a" x2="584" transform="translate(0 244.84)"/><line class="a" x2="584" transform="translate(0 220.356)"/><line class="a" x2="584" transform="translate(0 195.872)"/><line class="a" x2="584" transform="translate(0 171.388)"/><line class="a" x2="584" transform="translate(0 146.904)"/><line class="a" x2="584" transform="translate(0 122.42)"/><line class="a" x2="584" transform="translate(0 97.936)"/><line class="a" x2="584" transform="translate(0 73.452)"/><line class="a" x2="584" transform="translate(0 48.968)"/><line class="a" x2="584" transform="translate(0 24.484)"/><line class="a" x2="584" transform="translate(0 0)"/></g><g transform="translate(189.784 1506.704)"><rect class="b" width="72.554" height="97.936" transform="translate(0 124.736)"/><g transform="translate(18.552)"><path class="b" d="M283.654,1562.414a9.179,9.179,0,1,0-9.178-9.178A9.178,9.178,0,0,0,283.654,1562.414Z" transform="translate(-265.929 -1544.057)"/><path class="b" d="M292.641,1580.353c-.059,0-.115.014-.174.017s-.113-.017-.172-.017H263.933c-.059,0-.114.015-.172.017s-.113-.017-.173-.017a3.2,3.2,0,0,0-3.2,3.2v30.623a3.2,3.2,0,1,0,6.4,0v-26.167h1.523v66.5a4.077,4.077,0,1,0,8.154,0v-32.524h3.3v32.524a4.077,4.077,0,1,0,8.154,0v-66.5h1.522v26.167a3.2,3.2,0,0,0,6.4,0v-30.623A3.2,3.2,0,0,0,292.641,1580.353Z" transform="translate(-260.389 -1558.332)"/></g></g><g transform="translate(286.77 1457.736)"><rect class="c" width="72.554" height="146.904" transform="translate(0 124.736)"/><g transform="translate(18.551)"><path class="c" d="M443.507,1481.7a9.178,9.178,0,1,0-9.178-9.178A9.179,9.179,0,0,0,443.507,1481.7Z" transform="translate(-425.781 -1463.348)"/><path class="c" d="M452.493,1499.644c-.059,0-.115.014-.173.018s-.113-.018-.173-.018H423.786c-.06,0-.115.014-.173.018s-.113-.018-.172-.018a3.2,3.2,0,0,0-3.2,3.2v30.622a3.2,3.2,0,0,0,6.4,0V1507.3h1.522v66.5a4.077,4.077,0,0,0,8.154,0v-32.523h3.3V1573.8a4.077,4.077,0,1,0,8.154,0v-66.5h1.522v26.166a3.2,3.2,0,0,0,6.4,0v-30.622A3.2,3.2,0,0,0,452.493,1499.644Z" transform="translate(-420.241 -1477.623)"/></g></g><g transform="translate(480.741 1433.166)"><rect class="d" width="72.554" height="171.388" transform="translate(0 124.822)"/><g transform="translate(18.552 0)"><path class="d" d="M763.211,1441.209a9.178,9.178,0,1,0-9.178-9.178A9.179,9.179,0,0,0,763.211,1441.209Z" transform="translate(-745.486 -1422.852)"/><path class="d" d="M772.2,1459.149c-.059,0-.114.014-.172.017s-.113-.017-.173-.017H743.491c-.059,0-.114.014-.172.017s-.114-.017-.173-.017a3.2,3.2,0,0,0-3.2,3.2v30.623a3.2,3.2,0,0,0,6.4,0V1466.8h1.522v66.5a4.077,4.077,0,0,0,8.154,0v-32.524h3.3V1533.3a4.077,4.077,0,0,0,8.154,0v-66.5H769v26.167a3.2,3.2,0,0,0,6.4,0v-30.623A3.2,3.2,0,0,0,772.2,1459.149Z" transform="translate(-739.946 -1437.127)"/></g></g><g transform="translate(577.727 1408.735)"><rect class="e" width="72.554" height="195.872" transform="translate(0 124.769)"/><g transform="translate(-1637.877 -1445.251)"><path class="e" d="M1691.983,1465.5a9.259,9.259,0,1,0-9.259-9.259A9.258,9.258,0,0,0,1691.983,1465.5Z" transform="translate(-17.552 0)"/><path class="e" d="M1696.722,1531.4l-4.036-27.366a3.207,3.207,0,0,0-1.553-2.292c-.017-.011-.035-.02-.052-.031-.086-.049-.169-.1-.259-.141a3.491,3.491,0,0,0-1.674-.44h-28.613a3.5,3.5,0,0,0-2.092.7,3.208,3.208,0,0,0-1.407,2.2L1653,1531.4a3.227,3.227,0,1,0,6.386.942l3.464-23.49h1.725l-5.786,39.534h6.182v27.544a4.113,4.113,0,1,0,8.225,0v-27.544h3.329v27.544a4.113,4.113,0,1,0,8.225,0v-27.544h6.486l-5.785-39.534h1.421l3.464,23.49a3.227,3.227,0,1,0,6.385-.942Z" transform="translate(0 -31.935)"/></g></g><g transform="translate(383.756 1384.284)"><rect class="f" width="72.554" height="220.356" transform="translate(0 124.736)"/><g transform="translate(-1638.906 -1446.8)"><path class="f" d="M1691.983,1465.5a9.259,9.259,0,1,0-9.259-9.259A9.258,9.258,0,0,0,1691.983,1465.5Z" transform="translate(-17.552 0)"/><path class="f" d="M1696.722,1531.4l-4.036-27.366a3.207,3.207,0,0,0-1.553-2.292c-.017-.011-.035-.02-.052-.031-.086-.049-.169-.1-.259-.141a3.491,3.491,0,0,0-1.674-.44h-28.613a3.5,3.5,0,0,0-2.092.7,3.208,3.208,0,0,0-1.407,2.2L1653,1531.4a3.227,3.227,0,1,0,6.386.942l3.464-23.49h1.725l-5.786,39.534h6.182v27.544a4.113,4.113,0,1,0,8.225,0v-27.544h3.329v27.544a4.113,4.113,0,1,0,8.225,0v-27.544h6.486l-5.785-39.534h1.421l3.464,23.49a3.227,3.227,0,1,0,6.385-.942Z" transform="translate(0 -31.935)"/></g></g><path class="g" d="M128.033,1346.1v385.236H710.68" transform="translate(0 -1.502)"/></g></svg>