<svg xmlns="http://www.w3.org/2000/svg" width="936.039" height="825.345" viewBox="0 0 936.039 825.345"><defs><style>.a{fill:#dadd00;}.b{fill:#efefef;}.c{fill:#ccc;}.d{fill:#e6e6e6;}.e{fill:#c3c4c5;}.f{fill:#d1d3d4;}.g{fill:#ebebeb;}.h{fill:#b7b7b7;}.i{fill:#4fc8ed;}.ab,.ah,.j{isolation:isolate;}.k{fill:#ff5252;}.l{fill:#ffb652;}.m{fill:#ffee52;}.n{fill:#a9ff52;}.o{fill:#fc52ff;}.p{fill:#9a52ff;}.q{fill:#f2f2f2;}.r{fill:#1c1f45;}.s{fill:#394873;}.t{fill:#303b69;}.u{fill:#272e5c;}.v{fill:#ffce63;}.w{fill:#e6ab4e;}.x{fill:#d9913f;}.y{fill:#405fa3;}.z{fill:#455885;}.aa{fill:#ffc2b0;}.ab{fill:#6fb1ff;}.ab,.ah{opacity:0.4;mix-blend-mode:multiply;}.ac{fill:#fff;}.ad,.ae{fill:#c5c200;}.ae{stroke:#a5a300;stroke-miterlimit:10;stroke-width:4px;}.af{fill:#9ebbde;}.ag{fill:#4b4b4b;}.ah{fill:#a8c4e5;}.ai{fill:#2c1f9c;}.aj{fill:#c6d2f2;}.ak{fill:#2f4595;}.al{fill:#6f9ed9;}</style></defs><g transform="translate(-927.307 -1841.081)"><path class="a" d="M68.4,96.811C-77.853,156.576,55.487,211.4,58.33,315.408c-8.237,94.21-68.947,218.528,68.693,230.117,173.455,1.4,198.148-33.953,286.807-156.04S584.143,298.592,523.2,85.2C495.274,24.783,394.539-67.932,68.4,96.811Z" transform="matrix(0.875, 0.485, -0.485, 0.875, 1389.224, 1925.376)"/><g transform="translate(726.118 1756.759)"><g transform="translate(325.954 84.322)"><g transform="translate(98.771 248.553)"><path class="b" d="M580.064,562.387c-.009-.1-.013-.207-.026-.307a7.716,7.716,0,0,0-.161-.874L530.8,363.477,440,310.712l49.082,197.729a7.745,7.745,0,0,1,.16.874c.013.1.017.2.027.3.019.207.037.412.042.625,0,.123,0,.251,0,.377,0,.2-.007.4-.02.6-.009.137-.023.275-.037.414-.02.191-.043.384-.072.58-.027.179-.059.36-.093.541-.038.2-.078.4-.124.6-.028.119-.057.238-.088.357q-.108.416-.241.837c-.017.051-.03.1-.048.153-.11.334-.234.669-.368,1-.029.072-.059.144-.089.216-.142.343-.292.686-.459,1.03s-.349.682-.535,1.014l-.087.156c-.181.315-.372.622-.569.923-.044.069-.091.137-.137.206q-.262.387-.536.754c-.042.057-.084.115-.128.172q-.338.442-.7.853c-.2.231-.413.449-.623.665-.068.069-.132.144-.2.212a14.381,14.381,0,0,1-1.138,1c-.1.076-.191.15-.288.222a11.927,11.927,0,0,1-1.2.811l-71.864,41.491,90.8,52.765,71.865-41.491a11.664,11.664,0,0,0,1.2-.811c.1-.072.191-.145.288-.222a14.567,14.567,0,0,0,1.138-1l.008-.008c.064-.063.125-.136.19-.2.211-.218.423-.437.626-.669l.029-.031q.316-.365.619-.754c.018-.022.033-.046.05-.068.043-.057.084-.114.127-.171.113-.152.228-.3.338-.458.068-.1.131-.2.2-.3l.14-.209c.036-.054.073-.107.108-.161.138-.217.272-.435.4-.659.02-.033.038-.068.057-.1.03-.051.058-.1.087-.156.076-.133.152-.266.223-.4q.162-.3.312-.613l.03-.06q.165-.345.315-.691c.041-.093.076-.185.114-.279.03-.071.059-.142.088-.213s.06-.143.088-.214q.142-.372.266-.74c.006-.018.01-.034.016-.051.017-.052.03-.1.047-.154.063-.2.127-.4.181-.591.023-.083.039-.164.061-.248.03-.119.059-.237.087-.354.023-.1.051-.194.071-.29s.034-.208.054-.312c.034-.183.067-.364.093-.544.011-.077.03-.156.04-.232.014-.117.019-.229.031-.344.014-.14.029-.28.038-.418.013-.2.017-.4.019-.6,0-.127.006-.255,0-.38C580.1,562.8,580.084,562.591,580.064,562.387Z" transform="translate(-409.666 -307.809)"/><path class="c" d="M572.852,545.037c.014-.117.019-.229.031-.344.014-.14.029-.28.038-.418.013-.2.017-.4.019-.6,0-.127.006-.255,0-.38,0-.213-.022-.419-.042-.623-.009-.1-.013-.207-.026-.307a7.727,7.727,0,0,0-.161-.874l-90.8-52.765a7.746,7.746,0,0,1,.16.874c.013.1.017.2.027.3.019.207.037.412.042.625,0,.123,0,.251,0,.377,0,.2-.007.4-.02.6-.009.137-.023.275-.037.414-.02.191-.043.384-.072.58-.027.179-.059.36-.093.541-.038.2-.078.4-.124.6-.028.119-.057.238-.088.357q-.108.417-.241.837c-.017.051-.03.1-.048.153-.11.334-.234.669-.368,1-.029.072-.059.144-.089.216-.142.343-.292.686-.459,1.03s-.349.682-.535,1.014l-.087.156c-.181.315-.372.622-.569.923-.044.069-.091.137-.137.205q-.262.387-.536.754c-.042.057-.084.115-.128.172q-.338.442-.7.853c-.2.231-.413.449-.623.665-.068.069-.132.144-.2.212a14.405,14.405,0,0,1-1.138,1c-.1.076-.191.15-.288.222a11.926,11.926,0,0,1-1.2.811L565.163,557a11.664,11.664,0,0,0,1.2-.811c.1-.072.191-.145.288-.222a14.591,14.591,0,0,0,1.138-1l.008-.008c.064-.063.125-.136.19-.2.211-.218.423-.437.626-.669l.029-.031q.317-.365.619-.754c.018-.022.033-.046.05-.068.043-.057.084-.114.127-.171.113-.152.228-.3.338-.458.068-.1.131-.2.2-.3l.14-.209c.036-.054.073-.107.108-.161.138-.217.272-.435.4-.659.02-.033.038-.068.057-.1.03-.051.058-.1.087-.156.076-.133.152-.266.223-.4q.162-.3.312-.613l.03-.06q.165-.345.315-.691c.041-.093.076-.185.114-.279.03-.071.059-.142.088-.213s.06-.143.088-.214q.142-.372.265-.74c.006-.018.01-.034.016-.051.017-.052.03-.1.047-.154.063-.2.127-.4.181-.591.023-.083.039-.164.061-.248.03-.119.059-.237.087-.354.023-.1.051-.194.071-.29s.034-.208.054-.312c.034-.183.067-.364.093-.544C572.823,545.192,572.842,545.113,572.852,545.037Z" transform="translate(-402.502 -288.099)"/><g transform="translate(0 257.626)"><path class="d" d="M500.473,596.805l-90.8-52.765-.011-4,90.8,52.765Z" transform="translate(-409.666 -540.044)"/></g><path class="c" d="M527.772,363.477l-90.8-52.765,49.082,197.729,90.8,52.765Z" transform="translate(-406.642 -307.809)"/><g transform="translate(30.333)"><path class="e" d="M527.772,363.767,436.976,311l3.373-2.9,90.8,52.765Z" transform="translate(-436.976 -308.098)"/></g><g transform="translate(90.796 52.766)"><path class="f" d="M525.118,355.6l49.09,197.724c.849,3.414.1,7.9-2.045,12.307a23.714,23.714,0,0,1-8.877,10.1l-71.865,41.491-.011-4,71.865-41.491a16.377,16.377,0,0,0,6.139-6.989c1.483-3.047,2-6.149,1.412-8.515L521.745,358.507Z" transform="translate(-491.411 -355.604)"/></g></g><path class="g" d="M762.154,341.356c0-.141-.011-.281-.02-.422s-.02-.283-.033-.424-.03-.285-.048-.428-.039-.292-.062-.439l0-.017v0q-.033-.212-.073-.423c-.028-.151-.059-.3-.092-.455s-.069-.305-.107-.458-.079-.309-.122-.464c-.032-.119-.068-.238-.1-.355l-.01-.032c-.008-.024-.013-.049-.021-.073-.047-.151-.094-.3-.145-.452s-.1-.3-.154-.445-.107-.287-.161-.429-.112-.283-.171-.424c-.043-.106-.089-.21-.134-.314l-.012-.028c-.012-.026-.022-.051-.033-.077-.062-.142-.127-.283-.192-.424s-.147-.307-.223-.459c-.087-.175-.178-.351-.27-.524s-.2-.359-.3-.536l-.06-.107c-.025-.041-.046-.083-.07-.123q-.308-.525-.645-1.029c-.173-.261-.353-.517-.538-.768l-.009-.012-.008-.011c-.127-.171-.255-.341-.387-.508q-.167-.212-.338-.417t-.335-.393c-.111-.127-.224-.252-.339-.374l-.054-.059-.026-.027c-.091-.1-.182-.193-.274-.287-.121-.123-.243-.243-.365-.362s-.253-.239-.382-.354-.255-.227-.384-.337c-.062-.052-.125-.1-.188-.153l-.041-.032c-.052-.042-.1-.087-.157-.129-.126-.1-.252-.2-.38-.289s-.25-.181-.375-.268-.243-.163-.367-.242-.242-.151-.364-.223l-.085-.049L335.755,85.519c-.093-.054-.186-.106-.278-.155-.12-.064-.239-.127-.358-.185s-.235-.113-.353-.167-.233-.1-.349-.148-.235-.091-.352-.132L334,84.71l-.027-.009c-.084-.029-.17-.058-.254-.083q-.182-.055-.36-.1c-.121-.03-.24-.056-.358-.079s-.257-.047-.382-.063c-.087-.011-.172-.018-.258-.027l-.04,0c-.03,0-.061-.008-.091-.01q-.208-.013-.41-.013c-.153,0-.3.008-.453.022a4.59,4.59,0,0,0-.5.072l-.013,0-.014,0a4.377,4.377,0,0,0-.583.16,4.247,4.247,0,0,0-.706.327l-6.488,3.771a4.317,4.317,0,0,1,1.286-.486l.019,0a5.194,5.194,0,0,1,1.468-.076l.04,0a7,7,0,0,1,1.614.352l.022.007a10.041,10.041,0,0,1,1.76.811L747,330.469a13.27,13.27,0,0,1,1.727,1.2l.043.036a16.671,16.671,0,0,1,1.593,1.492l.024.027a19.3,19.3,0,0,1,1.462,1.762l.009.012a21.06,21.06,0,0,1,1.253,1.92l.059.1a21.045,21.045,0,0,1,1.022,2.025l.009.021a19.441,19.441,0,0,1,.79,2.141l.009.032a16.517,16.517,0,0,1,.5,2.156v0a13.264,13.264,0,0,1,.172,2.121l-.032,324.71a9.768,9.768,0,0,1-.178,1.867l-.01.053a6.932,6.932,0,0,1-.5,1.535l-.008.019a5.126,5.126,0,0,1-.508.783A4.429,4.429,0,0,1,753.1,675.8l6.488-3.77a4.424,4.424,0,0,0,1.343-1.312c.049-.069.125-.1.171-.168a5.537,5.537,0,0,0,.329-.6l.009-.02.008-.018c.069-.148.132-.3.192-.456s.1-.3.151-.457.081-.291.115-.442c.013-.059.024-.122.037-.182l.01-.053c.013-.062.027-.124.038-.189.024-.136.044-.273.062-.413s.031-.276.043-.417.019-.269.026-.406.009-.277.009-.418v-.024l.032-324.709C762.16,341.618,762.159,341.487,762.154,341.356Z" transform="translate(-320.485 -84.322)"/><path class="h" d="M747.258,330.093c4.79,2.766,8.686,9.513,8.67,15.05l-.032,324.71c-.016,5.5-3.936,7.738-8.726,4.973L329.44,433.655c-4.819-2.782-8.715-9.53-8.7-15.034L320.768,93.9c.016-5.538,3.936-7.773,8.756-4.99Z" transform="translate(-320.741 -83.946)"/><path class="i" d="M744.439,343.544a9.184,9.184,0,0,0-3.444-5.973l-407.731-235.4a2.08,2.08,0,0,0-3.12,1.8l.007,313.117a9.158,9.158,0,0,0,3.473,5.957l407.7,235.38a2.081,2.081,0,0,0,3.12-1.8Z" transform="translate(-319.7 -82.377)"/></g><g transform="translate(390.3 320.616)"><g class="j" transform="translate(102.901 66.273)"><path class="k" d="M493.785,362.674l-.05,17.388c-4.977-2.873-9.651-4.084-13.719-3.833l-8.7-19.325C477.876,356.122,485.566,357.929,493.785,362.674Z" transform="translate(-471.317 -356.728)"/><g transform="translate(22.418 5.946)"><path class="l" d="M491.55,362.081c18.441,10.647,34.156,32.978,40.367,55.251l-14.831-4.173c-4.434-13.723-14.211-27.122-25.585-33.689Z" transform="translate(-491.5 -362.081)"/></g></g><g transform="translate(150.904 123.296)"><path class="m" d="M529.366,412.24a72.634,72.634,0,0,1,2.842,19.6,41.077,41.077,0,0,1-3.483,17.468l-13.333-16.212a28.04,28.04,0,0,0,1.684-9.993,48.929,48.929,0,0,0-2.541-15.031Z" transform="translate(-514.535 -408.067)"/></g><g transform="translate(108.605 145.222)"><path class="n" d="M519.609,430.906l13.333,16.212c-6.642,14.046-22.072,17.676-40.009,7.321a74.472,74.472,0,0,1-16.48-13.255l5.231-13.376a49.091,49.091,0,0,0,11.3,9.239C505.222,444.112,515.666,441.172,519.609,430.906Z" transform="translate(-476.453 -427.807)"/></g><g transform="translate(86.665 120.532)"><path class="o" d="M469.5,405.578a67.42,67.42,0,0,0,14.367,24.69l-5.231,13.376a103.636,103.636,0,0,1-21.94-35.855Z" transform="translate(-456.7 -405.578)"/></g><g transform="translate(81.872 66.449)"><path class="p" d="M473.413,356.886l8.7,19.325c-8.671.544-14.559,7.774-14.595,19.969a48.867,48.867,0,0,0,2.465,14.789l-12.8,2.211a77.115,77.115,0,0,1-4.793-25.738C452.436,369.373,460.854,358.381,473.413,356.886Z" transform="translate(-452.385 -356.886)"/></g><g transform="translate(0.226)"><path class="p" d="M396.115,306.981l-.056,19.742L378.877,316.8l.056-19.742Z" transform="translate(-378.877 -297.061)"/></g><g transform="translate(0.113 39.946)"><path class="k" d="M396.012,342.945l-.056,19.742-17.181-9.92.056-19.742Z" transform="translate(-378.775 -333.026)"/></g><g transform="translate(0 79.893)"><path class="l" d="M395.91,378.909l-.056,19.742-17.181-9.919.056-19.742Z" transform="translate(-378.674 -368.99)"/></g><g transform="translate(23.218 22.508)"><path class="q" d="M445.563,343.874l0,1.244L399.577,318.57l0-1.244Z" transform="translate(-399.577 -317.326)"/></g><g transform="translate(23.203 27.945)"><path class="q" d="M445.549,348.768l0,1.24L399.563,323.46l0-1.24Z" transform="translate(-399.563 -322.22)"/></g><g transform="translate(23.233 17.076)"><path class="q" d="M445.577,338.983l0,1.24-45.982-26.548,0-1.24Z" transform="translate(-399.591 -312.435)"/></g><g transform="translate(23.12 57.022)"><path class="q" d="M445.475,374.947l0,1.24-45.982-26.548,0-1.24Z" transform="translate(-399.489 -348.399)"/></g><g transform="translate(23.089 67.887)"><path class="q" d="M445.447,384.729l0,1.244-45.982-26.548,0-1.244Z" transform="translate(-399.461 -358.181)"/></g><g transform="translate(23.105 62.455)"><path class="q" d="M445.461,379.838l0,1.244-45.982-26.548,0-1.244Z" transform="translate(-399.475 -353.29)"/></g><g transform="translate(22.976 107.834)"><path class="q" d="M445.345,420.694l0,1.244-45.982-26.548,0-1.244Z" transform="translate(-399.359 -394.146)"/></g><g transform="translate(22.991 102.401)"><path class="q" d="M445.359,415.8l0,1.24-45.982-26.548,0-1.24Z" transform="translate(-399.373 -389.255)"/></g><g transform="translate(23.007 96.968)"><path class="q" d="M445.373,410.912l0,1.24L399.387,385.6l0-1.24Z" transform="translate(-399.387 -384.364)"/></g><g transform="translate(181.447 104.628)"><path class="m" d="M559.271,401.179l-.056,19.742L542.034,411l.056-19.742Z" transform="translate(-542.034 -391.259)"/></g><g transform="translate(181.334 144.574)"><path class="n" d="M559.169,437.143l-.056,19.742-17.181-9.919.056-19.742Z" transform="translate(-541.932 -427.224)"/></g><g transform="translate(181.221 184.521)"><path class="o" d="M559.067,473.108l-.056,19.742-17.181-9.92.056-19.742Z" transform="translate(-541.83 -463.188)"/></g><g transform="translate(204.454 121.704)"><path class="q" d="M608.733,433.181l0,1.24-45.982-26.548,0-1.24Z" transform="translate(-562.747 -406.633)"/></g><g transform="translate(204.439 127.136)"><path class="q" d="M608.719,438.072l0,1.244-45.982-26.548,0-1.244Z" transform="translate(-562.733 -411.524)"/></g><g transform="translate(204.423 132.573)"><path class="q" d="M608.705,442.967l0,1.24-45.982-26.548,0-1.24Z" transform="translate(-562.719 -416.419)"/></g><g transform="translate(204.31 172.515)"><path class="q" d="M608.6,478.928l0,1.244-45.982-26.548,0-1.244Z" transform="translate(-562.617 -452.38)"/></g><g transform="translate(204.325 167.083)"><path class="q" d="M608.617,474.036l0,1.244-45.982-26.548,0-1.244Z" transform="translate(-562.631 -447.488)"/></g><g transform="translate(204.341 161.65)"><path class="q" d="M608.631,469.145l0,1.24-45.982-26.548,0-1.24Z" transform="translate(-562.645 -442.597)"/></g><g transform="translate(204.228 201.596)"><path class="q" d="M608.529,505.11l0,1.24L562.543,479.8l0-1.24Z" transform="translate(-562.543 -478.562)"/></g><g transform="translate(204.212 207.029)"><path class="q" d="M608.515,510l0,1.24-45.982-26.548,0-1.24Z" transform="translate(-562.529 -483.453)"/></g><g transform="translate(204.197 212.462)"><path class="q" d="M608.5,514.892l0,1.244-45.982-26.548,0-1.244Z" transform="translate(-562.516 -488.344)"/></g></g><g transform="translate(273.662 192.023)"><path class="r" d="M407.868,265.6l-62.053-35.807-67.367,38.894L340.5,304.5Z" transform="translate(-273.132 -175.916)"/><g transform="translate(70.026 2.392)"><path class="r" d="M404.076,222.335v49.889l-67.368-38.895V183.44Z" transform="translate(-336.708 -183.44)"/></g><g transform="translate(2.658 2.39)"><path class="s" d="M276.055,222.333v49.889l67.368-38.895V183.439Z" transform="translate(-276.055 -183.439)"/><path class="t" d="M276.055,222.334l2.657,1.544,67.368-38.895-2.658-1.545Z" transform="translate(-276.055 -183.439)"/><g transform="translate(2.657 1.545)"><path class="u" d="M278.447,223.724v49.889l67.368-38.895V184.83Z" transform="translate(-278.447 -184.83)"/></g><path class="u" d="M276.055,268.345l2.657,1.545V220l-2.657-1.544Z" transform="translate(-276.055 -179.562)"/></g><g transform="translate(8.507)"><g transform="translate(54.246)"><g transform="translate(2.091)"><g class="j"><path class="v" d="M349.142,191.945l-.038-.037a7.359,7.359,0,0,0-.564-.491l-.023-.017a5.716,5.716,0,0,0-.6-.405l-15.736-9.085,1.075-.624,15.734,9.085a5.564,5.564,0,0,1,.6.405l.022.017a6.748,6.748,0,0,1,.565.491c.012.013.024.023.038.036l.024.023c.138.137.274.282.405.433.029.033.057.07.086.1l.079.1c.044.054.09.107.133.162.084.109.167.22.247.334.032.047.064.093.1.14l3.079,4.578c.15.223.31.434.475.636.027.032.053.066.08.1.165.2.338.385.514.56l.039.036a6.553,6.553,0,0,0,.564.491l.023.017a5.4,5.4,0,0,0,.6.405L393.51,220.7l-1.074.625-36.847-21.271a5.836,5.836,0,0,1-.6-.405l-.023-.018a6.739,6.739,0,0,1-.564-.491l-.038-.036-.024-.023q-.208-.2-.406-.433c-.029-.033-.056-.069-.084-.1s-.053-.064-.079-.1c-.044-.054-.09-.107-.133-.162-.084-.108-.167-.22-.247-.333l-.1-.141-3.078-4.578c-.15-.222-.311-.433-.475-.635l-.08-.1C349.491,192.306,349.32,192.119,349.142,191.945Z" transform="translate(-332.027 -181.287)"/><g transform="translate(60.269 39.418)"><path class="w" d="M386.3,266.687l1.075-.625.14-49.287-1.075.625Z" transform="translate(-386.303 -216.775)"/></g><g transform="translate(0 0.624)"><path class="x" d="M332.194,181.849l-.012,4.624-.14,49.286,60.269,34.794.14-49.286L355.6,200a7.288,7.288,0,0,1-2.3-2.243l-3.078-4.578a7.3,7.3,0,0,0-2.3-2.241Z" transform="translate(-332.042 -181.849)"/></g></g></g><g transform="translate(0.958 53.458)"><path class="x" d="M391.408,264.848,331.022,230l1.016-.587,60.385,34.845Z" transform="translate(-331.022 -229.416)"/><g transform="translate(60.385 34.845)"><path class="w" d="M385.388,261.374l1.016-.587v1.026l-1.016.587Z" transform="translate(-385.388 -260.788)"/></g><path class="y" d="M331.022,230l1.016-.587v1.026l-1.016.587Z" transform="translate(-331.022 -229.416)"/></g><g transform="translate(1.553 3.597)"><g class="j"><g transform="translate(60.269 34.794)"><path class="c" d="M385.819,265.763l1.075-.625.14-49.287-1.075.625Z" transform="translate(-385.819 -215.852)"/></g><g transform="translate(0.14)"><path class="d" d="M391.953,219.945l1.075-.625-60.269-34.794-1.075.625Z" transform="translate(-331.684 -184.526)"/></g><g transform="translate(0 0.625)"><path class="q" d="M331.7,185.088l-.14,49.286,60.269,34.794.14-49.287Z" transform="translate(-331.558 -185.088)"/></g></g></g><g transform="translate(0 5.834)"><g class="j"><g transform="translate(60.269 34.794)"><path class="w" d="M384.421,267.777l1.075-.625.14-49.286-1.075.625Z" transform="translate(-384.421 -217.866)"/></g><g transform="translate(0.14)"><path class="v" d="M390.554,221.959l1.075-.625L331.36,186.54l-1.075.625Z" transform="translate(-330.285 -186.54)"/></g><g transform="translate(0 0.625)"><path class="x" d="M330.3,187.1l-.14,49.286,60.269,34.794.14-49.287Z" transform="translate(-330.16 -187.102)"/></g></g></g></g><g transform="translate(48.218 3.474)"><g transform="translate(2.09)"><g class="j"><path class="v" d="M343.716,195.073l-.039-.036a6.77,6.77,0,0,0-.564-.492l-.022-.016a5.683,5.683,0,0,0-.6-.407l-15.734-9.085,1.074-.624,15.736,9.085a5.687,5.687,0,0,1,.6.407l.021.016a6.792,6.792,0,0,1,.565.492l.038.036.024.022c.139.137.274.282.407.433.029.033.056.07.084.1l.08.1c.043.054.09.107.133.163.083.108.165.219.245.333l.1.14,3.078,4.578c.15.223.311.434.475.636l.08.1c.167.2.338.385.515.559l.038.036a6.951,6.951,0,0,0,.564.492l.023.017a5.965,5.965,0,0,0,.6.405l36.847,21.271-1.075.624-36.846-21.271a5.72,5.72,0,0,1-.6-.405l-.023-.017a6.779,6.779,0,0,1-.564-.492l-.039-.036-.024-.022q-.207-.207-.405-.433c-.029-.033-.057-.07-.086-.1l-.079-.1c-.044-.054-.09-.107-.133-.163-.083-.108-.165-.219-.245-.333q-.05-.07-.1-.14l-3.079-4.578c-.15-.223-.31-.434-.475-.636-.027-.032-.052-.066-.079-.1C344.065,195.436,343.892,195.247,343.716,195.073Z" transform="translate(-326.6 -184.415)"/><g transform="translate(60.269 39.418)"><path class="w" d="M380.876,269.815l1.075-.625.14-49.286-1.075.625Z" transform="translate(-380.876 -219.904)"/></g><g transform="translate(0 0.624)"><path class="x" d="M326.768,184.977l-.013,4.624-.14,49.287,60.269,34.794.14-49.287-36.846-21.271a7.284,7.284,0,0,1-2.3-2.241L344.8,196.3a7.277,7.277,0,0,0-2.3-2.243Z" transform="translate(-326.615 -184.977)"/></g></g></g><g transform="translate(0.958 53.458)"><path class="x" d="M385.981,267.976,325.6,233.131l1.016-.587L387,267.389Z" transform="translate(-325.596 -232.545)"/><g transform="translate(60.385 34.845)"><path class="w" d="M379.962,264.5l1.016-.587v1.026l-1.016.587Z" transform="translate(-379.962 -263.916)"/></g><path class="y" d="M325.6,233.131l1.016-.587v1.026l-1.016.587Z" transform="translate(-325.596 -232.545)"/></g><g transform="translate(1.553 3.598)"><g class="j"><g transform="translate(60.269 34.794)"><path class="c" d="M380.393,268.891l1.075-.625.14-49.287-1.075.625Z" transform="translate(-380.393 -218.98)"/></g><g transform="translate(0.14)"><path class="d" d="M386.526,223.073l1.075-.625-60.269-34.794-1.075.625Z" transform="translate(-326.257 -187.654)"/></g><g transform="translate(0 0.625)"><path class="q" d="M326.271,188.216l-.14,49.286L386.4,272.3l.14-49.287Z" transform="translate(-326.132 -188.216)"/></g></g></g><g transform="translate(0 5.835)"><g class="j"><g transform="translate(60.269 34.794)"><path class="w" d="M378.994,270.905l1.075-.624.14-49.287-1.075.625Z" transform="translate(-378.994 -220.994)"/></g><g transform="translate(0.14)"><path class="v" d="M385.128,225.087l1.075-.625-60.269-34.794-1.075.625Z" transform="translate(-324.859 -189.668)"/></g><g transform="translate(0 0.625)"><path class="x" d="M324.873,190.23l-.14,49.287L385,274.311l.14-49.287Z" transform="translate(-324.733 -190.23)"/></g></g></g></g><g transform="translate(42.191 6.949)"><g transform="translate(2.091)"><g class="j"><path class="v" d="M338.289,198.2l-.038-.036a7.153,7.153,0,0,0-.564-.492l-.023-.016a5.562,5.562,0,0,0-.6-.407l-15.736-9.085,1.075-.624,15.734,9.085a5.576,5.576,0,0,1,.6.407l.022.016a6.965,6.965,0,0,1,.565.492l.038.036.024.022c.138.138.274.282.405.434.029.033.057.069.086.1s.052.063.079.1c.044.056.09.108.133.163.084.108.167.22.247.333.032.047.064.093.1.141l3.079,4.578c.15.222.31.433.475.635l.08.1c.165.2.338.385.514.559l.039.036a6.769,6.769,0,0,0,.564.492l.023.017a5.725,5.725,0,0,0,.6.405l36.846,21.271-1.074.624-36.847-21.271a5.605,5.605,0,0,1-.6-.405l-.023-.017a7.168,7.168,0,0,1-.564-.491l-.038-.037-.024-.022c-.139-.137-.274-.282-.407-.433-.029-.033-.056-.07-.084-.1l-.079-.1c-.044-.054-.09-.107-.133-.162-.084-.109-.167-.22-.247-.334-.032-.046-.064-.093-.1-.14l-3.078-4.578c-.15-.223-.311-.434-.475-.636-.027-.032-.053-.066-.08-.1C338.638,198.564,338.467,198.376,338.289,198.2Z" transform="translate(-321.174 -187.543)"/><g transform="translate(60.269 39.418)"><path class="w" d="M375.45,272.943l1.075-.624.14-49.287-1.075.625Z" transform="translate(-375.45 -223.032)"/></g><g transform="translate(0 0.624)"><path class="x" d="M321.341,188.1l-.012,4.624-.14,49.287,60.269,34.794.14-49.287-36.847-21.271a7.284,7.284,0,0,1-2.3-2.241l-3.078-4.578a7.289,7.289,0,0,0-2.3-2.243Z" transform="translate(-321.189 -188.105)"/></g></g></g><g transform="translate(0.958 53.459)"><path class="x" d="M380.555,271.1l-60.385-34.845,1.016-.587,60.385,34.845Z" transform="translate(-320.169 -235.673)"/><g transform="translate(60.385 34.845)"><path class="w" d="M374.535,267.631l1.016-.587v1.026l-1.016.587Z" transform="translate(-374.535 -267.044)"/></g><path class="y" d="M320.169,236.259l1.016-.587V236.7l-1.016.587Z" transform="translate(-320.169 -235.673)"/></g><g transform="translate(1.553 3.598)"><g class="j"><g transform="translate(60.269 34.794)"><path class="c" d="M374.966,272.019l1.075-.624.14-49.287-1.075.625Z" transform="translate(-374.966 -222.108)"/></g><g transform="translate(0.14)"><path class="d" d="M381.1,226.2l1.075-.625-60.269-34.794-1.075.625Z" transform="translate(-320.831 -190.782)"/></g><g transform="translate(0 0.625)"><path class="q" d="M320.845,191.345l-.14,49.286,60.269,34.794.14-49.287Z" transform="translate(-320.705 -191.345)"/></g></g></g><g transform="translate(0 5.835)"><g class="j"><g transform="translate(60.269 34.794)"><path class="w" d="M373.568,274.033l1.075-.624.14-49.287-1.075.624Z" transform="translate(-373.568 -224.122)"/></g><g transform="translate(0.14)"><path class="v" d="M379.7,228.215l1.075-.624L320.507,192.8l-1.075.624Z" transform="translate(-319.432 -192.796)"/></g><g transform="translate(0 0.624)"><path class="x" d="M319.446,193.359l-.14,49.287,60.269,34.794.14-49.287Z" transform="translate(-319.307 -193.359)"/></g></g></g></g><g transform="translate(36.164 10.423)"><g transform="translate(2.09)"><g class="j"><path class="v" d="M332.863,201.329l-.039-.036a6.553,6.553,0,0,0-.564-.491l-.022-.017a5.512,5.512,0,0,0-.6-.405L315.9,191.3l1.074-.625,15.736,9.085a5.679,5.679,0,0,1,.6.407l.021.016a6.787,6.787,0,0,1,.565.492l.038.036.024.023q.208.2.407.433c.029.033.057.069.084.1l.08.1c.043.054.09.107.133.162.083.109.165.22.245.333l.1.141,3.078,4.578c.15.223.311.433.475.636l.08.1c.167.2.338.385.515.559l.038.037a7.366,7.366,0,0,0,.564.491l.023.017a5.773,5.773,0,0,0,.6.405l36.847,21.271-1.075.624L339.31,209.442a5.39,5.39,0,0,1-.6-.405l-.023-.017a6.941,6.941,0,0,1-.564-.491l-.039-.036-.024-.023q-.207-.2-.405-.433c-.029-.033-.057-.07-.086-.1l-.079-.1c-.044-.054-.09-.107-.133-.162-.083-.109-.165-.22-.245-.333-.033-.047-.065-.093-.1-.141l-3.079-4.578c-.15-.223-.31-.434-.475-.636l-.079-.1C333.212,201.692,333.039,201.5,332.863,201.329Z" transform="translate(-315.747 -190.671)"/><g transform="translate(60.269 39.418)"><path class="w" d="M370.024,276.071l1.075-.624.14-49.287-1.075.625Z" transform="translate(-370.024 -226.16)"/></g><g transform="translate(0 0.625)"><path class="x" d="M315.915,191.234l-.013,4.623-.14,49.287,60.27,34.794.139-49.287L339.325,209.38a7.272,7.272,0,0,1-2.3-2.241l-3.079-4.578a7.273,7.273,0,0,0-2.3-2.241Z" transform="translate(-315.762 -191.234)"/></g></g></g><g transform="translate(0.958 53.459)"><path class="x" d="M375.128,274.232l-60.385-34.845,1.016-.587,60.385,34.845Z" transform="translate(-314.743 -238.801)"/><g transform="translate(60.385 34.845)"><path class="w" d="M369.109,270.759l1.016-.587V271.2l-1.016.587Z" transform="translate(-369.109 -270.172)"/></g><path class="y" d="M314.743,239.388l1.016-.587v1.026l-1.016.587Z" transform="translate(-314.743 -238.801)"/></g><g transform="translate(1.553 3.598)"><g class="j"><g transform="translate(60.269 34.794)"><path class="c" d="M369.54,275.148l1.075-.624.14-49.287-1.075.625Z" transform="translate(-369.54 -225.236)"/></g><g transform="translate(0.14)"><path class="d" d="M375.673,229.329l1.075-.625-60.269-34.794-1.075.624Z" transform="translate(-315.404 -193.911)"/></g><g transform="translate(0 0.624)"><path class="q" d="M315.418,194.473l-.14,49.287,60.269,34.794.14-49.287Z" transform="translate(-315.279 -194.473)"/></g></g></g><g transform="translate(0 5.835)"><g class="j"><g transform="translate(60.269 34.794)"><path class="w" d="M368.141,277.162l1.075-.624.14-49.286-1.075.624Z" transform="translate(-368.141 -227.251)"/></g><g transform="translate(0.14)"><path class="v" d="M374.275,231.343l1.075-.624-60.269-34.794-1.075.624Z" transform="translate(-314.006 -195.925)"/></g><g transform="translate(0 0.624)"><path class="x" d="M314.02,196.487l-.14,49.287,60.269,34.794.14-49.286Z" transform="translate(-313.88 -196.487)"/></g></g></g></g><g transform="translate(30.136 13.898)"><g transform="translate(2.091)"><g class="j"><path class="v" d="M327.436,204.458l-.038-.037a6.936,6.936,0,0,0-.564-.491l-.023-.017a5.55,5.55,0,0,0-.6-.405l-15.736-9.085,1.075-.624,15.734,9.085a5.561,5.561,0,0,1,.6.405l.022.017a6.741,6.741,0,0,1,.565.491l.038.036.024.023c.138.137.274.281.405.433.029.033.057.069.086.1l.079.1c.044.054.09.107.133.162.084.109.167.22.247.334.032.046.064.092.1.14l3.079,4.578c.15.223.31.434.475.636l.08.1c.165.2.338.385.514.56l.039.036a6.758,6.758,0,0,0,.564.491l.023.017a5.4,5.4,0,0,0,.6.405L371.8,233.217l-1.074.625L333.883,212.57a5.61,5.61,0,0,1-.6-.405l-.023-.017a6.731,6.731,0,0,1-.564-.491l-.038-.036-.024-.023q-.208-.2-.407-.433c-.029-.033-.056-.069-.084-.1s-.053-.064-.079-.1c-.044-.054-.09-.107-.133-.162q-.127-.163-.247-.333l-.1-.141-3.078-4.578c-.15-.223-.311-.433-.475-.636l-.08-.1C327.785,204.819,327.614,204.632,327.436,204.458Z" transform="translate(-310.321 -193.8)"/><g transform="translate(60.269 39.418)"><path class="w" d="M364.6,279.2l1.075-.624.14-49.286-1.075.624Z" transform="translate(-364.597 -229.288)"/></g><g transform="translate(0 0.624)"><path class="x" d="M310.488,194.362l-.012,4.624-.14,49.286L370.6,283.066l.14-49.286L333.9,212.508a7.271,7.271,0,0,1-2.3-2.241l-3.078-4.578a7.284,7.284,0,0,0-2.3-2.241Z" transform="translate(-310.336 -194.362)"/></g></g></g><g transform="translate(0.958 53.458)"><path class="x" d="M369.7,277.361l-60.385-34.845,1.016-.587,60.385,34.845Z" transform="translate(-309.316 -241.929)"/><g transform="translate(60.385 34.845)"><path class="w" d="M363.682,273.887l1.016-.587v1.026l-1.016.587Z" transform="translate(-363.682 -273.301)"/></g><path class="y" d="M309.316,242.516l1.016-.587v1.026l-1.016.587Z" transform="translate(-309.316 -241.929)"/></g><g transform="translate(1.553 3.597)"><g class="j"><g transform="translate(60.269 34.794)"><path class="c" d="M364.113,278.276l1.075-.624.14-49.286-1.075.624Z" transform="translate(-364.113 -228.365)"/></g><g transform="translate(0.14)"><path class="d" d="M370.247,232.458l1.075-.624-60.269-34.794-1.075.624Z" transform="translate(-309.978 -197.039)"/></g><g transform="translate(0 0.624)"><path class="q" d="M309.992,197.6l-.14,49.286,60.269,34.794.14-49.286Z" transform="translate(-309.852 -197.601)"/></g></g></g><g transform="translate(0 5.834)"><g class="j"><g transform="translate(60.269 34.794)"><path class="w" d="M362.715,280.29l1.075-.625.14-49.286-1.075.624Z" transform="translate(-362.715 -230.379)"/></g><g transform="translate(0.14)"><path class="v" d="M368.848,234.472l1.075-.624-60.269-34.794-1.075.624Z" transform="translate(-308.579 -199.053)"/></g><g transform="translate(0 0.624)"><path class="x" d="M308.593,199.615l-.14,49.287L368.723,283.7l.14-49.287Z" transform="translate(-308.454 -199.615)"/></g></g></g></g><g transform="translate(24.109 17.373)"><g transform="translate(2.09)"><g class="j"><path class="v" d="M322.01,207.586l-.039-.036a6.777,6.777,0,0,0-.564-.492l-.022-.017a5.846,5.846,0,0,0-.6-.405l-15.734-9.085,1.074-.624,15.736,9.085a5.67,5.67,0,0,1,.6.405l.021.017a6.79,6.79,0,0,1,.565.492l.038.034.024.023c.139.137.274.282.407.433.029.033.057.07.084.1l.08.1c.043.054.09.107.133.163.083.108.165.219.245.333l.1.14,3.078,4.578c.15.223.311.434.475.636.027.032.053.066.08.1.167.2.338.387.515.56l.038.036a6.91,6.91,0,0,0,.564.491l.023.017a5.789,5.789,0,0,0,.6.407l36.847,21.271-1.075.624L328.456,215.7a5.719,5.719,0,0,1-.6-.405l-.023-.017a6.959,6.959,0,0,1-.564-.492l-.039-.036-.024-.022q-.207-.207-.405-.434c-.029-.033-.057-.069-.084-.1s-.053-.063-.08-.1c-.044-.054-.09-.106-.133-.162-.083-.108-.165-.22-.245-.333-.033-.047-.066-.093-.1-.141l-3.079-4.577c-.15-.223-.31-.434-.475-.636l-.079-.1C322.359,207.949,322.187,207.76,322.01,207.586Z" transform="translate(-304.894 -196.928)"/><g transform="translate(60.269 39.418)"><path class="w" d="M359.171,282.328l1.075-.625.14-49.287-1.075.624Z" transform="translate(-359.171 -232.417)"/></g><g transform="translate(0 0.624)"><path class="x" d="M305.062,197.49l-.013,4.624-.14,49.286,60.27,34.794.139-49.286-36.846-21.271a7.277,7.277,0,0,1-2.3-2.243l-3.078-4.577a7.291,7.291,0,0,0-2.3-2.243Z" transform="translate(-304.909 -197.49)"/></g></g></g><g transform="translate(0.958 53.458)"><path class="x" d="M364.275,280.489,303.89,245.644l1.016-.587L365.291,279.9Z" transform="translate(-303.89 -245.057)"/><g transform="translate(60.385 34.845)"><path class="w" d="M358.256,277.015l1.016-.587v1.026l-1.016.587Z" transform="translate(-358.256 -276.429)"/></g><path class="y" d="M303.89,245.644l1.016-.587v1.026l-1.016.587Z" transform="translate(-303.89 -245.057)"/></g><g transform="translate(1.553 3.598)"><g class="j"><g transform="translate(60.269 34.794)"><path class="c" d="M358.687,281.4l1.075-.624.14-49.286-1.075.624Z" transform="translate(-358.687 -231.493)"/></g><g transform="translate(0.14)"><path class="d" d="M364.82,235.586l1.075-.624-60.269-34.794-1.075.624Z" transform="translate(-304.551 -200.167)"/></g><g transform="translate(0 0.624)"><path class="q" d="M304.565,200.729l-.14,49.287,60.269,34.794.14-49.286Z" transform="translate(-304.426 -200.729)"/></g></g></g><g transform="translate(0 5.835)"><g class="j"><g transform="translate(60.269 34.794)"><path class="w" d="M357.288,283.418l1.075-.625.14-49.287-1.075.624Z" transform="translate(-357.288 -233.507)"/></g><g transform="translate(0.14)"><path class="v" d="M363.422,237.6l1.075-.624-60.269-34.794-1.075.625Z" transform="translate(-303.153 -202.181)"/></g><g transform="translate(0 0.625)"><path class="x" d="M303.167,202.743l-.14,49.286L363.3,286.824l.14-49.287Z" transform="translate(-303.027 -202.743)"/></g></g></g></g><g transform="translate(18.082 20.847)"><g transform="translate(2.091)"><g class="j"><path class="v" d="M316.583,210.714l-.038-.036a6.966,6.966,0,0,0-.564-.492l-.022-.016a5.684,5.684,0,0,0-.6-.407L299.62,200.68l1.075-.624,15.734,9.085a5.576,5.576,0,0,1,.6.407l.022.016a6.963,6.963,0,0,1,.565.492l.038.036.024.022q.208.207.405.434c.029.032.057.069.086.1l.079.1c.044.054.09.107.133.163q.127.162.247.333l.1.14,3.078,4.578c.15.223.31.434.475.636.027.032.053.066.08.1.165.2.338.387.514.56l.039.036a6.962,6.962,0,0,0,.564.492l.023.017a5.718,5.718,0,0,0,.6.405l36.846,21.271-1.074.624L323.03,218.827a5.776,5.776,0,0,1-.6-.405l-.023-.017a7.139,7.139,0,0,1-.564-.492l-.038-.036-.024-.022c-.139-.137-.274-.282-.407-.433-.029-.033-.056-.07-.084-.1l-.079-.1c-.044-.054-.09-.107-.133-.163q-.127-.162-.247-.333l-.1-.14-3.078-4.578c-.15-.223-.311-.434-.475-.636l-.08-.1C316.932,211.077,316.761,210.888,316.583,210.714Z" transform="translate(-299.468 -200.056)"/><g transform="translate(60.269 39.418)"><path class="w" d="M353.744,285.456l1.075-.625.14-49.287-1.075.624Z" transform="translate(-353.744 -235.545)"/></g><g transform="translate(0 0.624)"><path class="x" d="M299.635,200.618l-.012,4.624-.14,49.287,60.269,34.794.14-49.287-36.847-21.271a7.284,7.284,0,0,1-2.3-2.241l-3.078-4.578a7.288,7.288,0,0,0-2.3-2.243Z" transform="translate(-299.483 -200.618)"/></g></g></g><g transform="translate(0.958 53.459)"><path class="x" d="M358.849,283.617l-60.385-34.845,1.016-.587,60.385,34.845Z" transform="translate(-298.464 -248.186)"/><g transform="translate(60.385 34.845)"><path class="w" d="M352.829,280.144l1.016-.587v1.026l-1.016.587Z" transform="translate(-352.829 -279.557)"/></g><path class="y" d="M298.464,248.772l1.016-.587v1.026l-1.016.587Z" transform="translate(-298.464 -248.186)"/></g><g transform="translate(1.553 3.598)"><g class="j"><g transform="translate(60.269 34.794)"><path class="c" d="M353.26,284.532l1.075-.625.14-49.286-1.075.624Z" transform="translate(-353.26 -234.621)"/></g><g transform="translate(0.14)"><path class="d" d="M359.394,238.714l1.075-.624L300.2,203.3l-1.075.624Z" transform="translate(-299.125 -203.295)"/></g><g transform="translate(0 0.624)"><path class="q" d="M299.139,203.857,299,253.144l60.269,34.794.14-49.287Z" transform="translate(-298.999 -203.857)"/></g></g></g><g transform="translate(0 5.835)"><g class="j"><g transform="translate(60.269 34.794)"><path class="w" d="M351.862,286.546l1.075-.625.14-49.287L352,237.26Z" transform="translate(-351.862 -236.635)"/></g><g transform="translate(0.14)"><path class="v" d="M358,240.728l1.075-.625L298.8,205.309l-1.075.625Z" transform="translate(-297.726 -205.309)"/></g><g transform="translate(0 0.625)"><path class="x" d="M297.74,205.872l-.14,49.286,60.269,34.794.14-49.287Z" transform="translate(-297.601 -205.872)"/></g></g></g></g><g transform="translate(12.055 24.321)"><g transform="translate(2.09)"><g class="j"><path class="v" d="M311.157,213.842l-.039-.036a6.56,6.56,0,0,0-.564-.491l-.022-.017a5.515,5.515,0,0,0-.6-.405l-15.734-9.085,1.075-.625L311,212.269a5.69,5.69,0,0,1,.6.407l.021.016a6.791,6.791,0,0,1,.565.492l.038.036.024.022q.208.207.407.434c.029.033.057.069.084.1s.053.063.08.1c.044.054.09.106.133.162.083.108.166.22.245.333l.1.141,3.078,4.577c.15.223.311.434.475.636l.08.1c.167.2.338.385.515.559l.038.036a7.159,7.159,0,0,0,.564.492l.023.017a5.778,5.778,0,0,0,.6.405L355.525,242.6l-1.075.624L317.6,221.955a5.392,5.392,0,0,1-.6-.405l-.023-.017a6.928,6.928,0,0,1-.564-.491l-.039-.037-.023-.022q-.208-.2-.407-.433c-.029-.033-.057-.07-.084-.1s-.053-.064-.08-.1c-.044-.054-.09-.107-.133-.162-.083-.109-.166-.22-.245-.334-.033-.046-.066-.093-.1-.14l-3.078-4.578c-.151-.223-.311-.434-.476-.636-.027-.032-.052-.066-.079-.1C311.506,214.2,311.334,214.017,311.157,213.842Z" transform="translate(-294.041 -203.184)"/><g transform="translate(60.269 39.418)"><path class="w" d="M348.318,288.584l1.075-.625.14-49.287-1.075.624Z" transform="translate(-348.318 -238.673)"/></g><g transform="translate(0 0.625)"><path class="x" d="M294.209,203.747l-.013,4.623-.14,49.287,60.27,34.794.139-49.287-36.846-21.271a7.273,7.273,0,0,1-2.3-2.241l-3.078-4.578a7.274,7.274,0,0,0-2.3-2.241Z" transform="translate(-294.056 -203.747)"/></g></g></g><g transform="translate(0.958 53.459)"><path class="x" d="M353.422,286.745,293.037,251.9l1.016-.587,60.385,34.845Z" transform="translate(-293.037 -251.314)"/><g transform="translate(60.385 34.845)"><path class="w" d="M347.4,283.272l1.016-.587v1.026l-1.016.587Z" transform="translate(-347.403 -282.685)"/></g><path class="y" d="M293.037,251.9l1.016-.587v1.026l-1.016.587Z" transform="translate(-293.037 -251.314)"/></g><g transform="translate(1.553 3.598)"><g class="j"><g transform="translate(60.269 34.794)"><path class="c" d="M347.834,287.66l1.075-.625.14-49.286-1.075.625Z" transform="translate(-347.834 -237.749)"/></g><g transform="translate(0.14)"><path class="d" d="M353.967,241.842l1.075-.625-60.269-34.794-1.075.625Z" transform="translate(-293.698 -206.423)"/></g><g transform="translate(0 0.625)"><path class="q" d="M293.712,206.986l-.14,49.287,60.269,34.794.14-49.287Z" transform="translate(-293.573 -206.986)"/></g></g></g><g transform="translate(0 5.835)"><g class="j"><g transform="translate(60.269 34.794)"><path class="w" d="M346.435,289.674l1.075-.625.14-49.287-1.075.625Z" transform="translate(-346.435 -239.763)"/></g><g transform="translate(0.14)"><path class="v" d="M352.569,243.856l1.075-.625-60.269-34.794-1.075.625Z" transform="translate(-292.3 -208.437)"/></g><g transform="translate(0 0.625)"><path class="x" d="M292.314,209l-.14,49.287,60.269,34.794.14-49.286Z" transform="translate(-292.174 -209)"/></g></g></g></g><g transform="translate(6.027 27.797)"><g transform="translate(2.091)"><g class="j"><path class="v" d="M305.73,216.97l-.038-.036a6.735,6.735,0,0,0-.564-.491l-.022-.017a5.507,5.507,0,0,0-.6-.405l-15.734-9.085,1.074-.624,15.734,9.085a5.4,5.4,0,0,1,.6.405l.022.016a6.966,6.966,0,0,1,.565.492l.038.036.024.023q.208.2.405.433c.029.033.057.069.086.1l.079.1c.044.054.09.107.133.162q.127.163.247.333l.1.141,3.078,4.578c.15.223.31.433.475.635l.08.1c.165.2.338.385.514.559l.039.037a6.95,6.95,0,0,0,.564.491l.023.017a5.391,5.391,0,0,0,.6.405L350.1,245.73l-1.074.625-36.847-21.272a5.613,5.613,0,0,1-.6-.405l-.023-.017a6.9,6.9,0,0,1-.564-.491l-.038-.036-.024-.023q-.208-.2-.407-.433c-.029-.033-.056-.069-.084-.1l-.079-.1c-.044-.054-.09-.107-.133-.162q-.127-.163-.247-.333l-.1-.141-3.078-4.578c-.15-.223-.311-.434-.475-.636l-.08-.1C306.079,217.332,305.908,217.145,305.73,216.97Z" transform="translate(-288.615 -206.313)"/><g transform="translate(60.269 39.417)"><path class="w" d="M342.891,291.712l1.075-.625.14-49.287-1.075.625Z" transform="translate(-342.891 -241.801)"/></g><g transform="translate(0 0.624)"><path class="x" d="M288.783,206.875l-.013,4.624-.14,49.286L348.9,295.579l.14-49.286-36.847-21.272a7.273,7.273,0,0,1-2.3-2.241l-3.078-4.578a7.284,7.284,0,0,0-2.3-2.241Z" transform="translate(-288.63 -206.875)"/></g></g></g><g transform="translate(0.958 53.458)"><path class="x" d="M348,289.873l-60.385-34.845,1.016-.587,60.385,34.845Z" transform="translate(-287.611 -254.442)"/><g transform="translate(60.385 34.845)"><path class="w" d="M341.976,286.4l1.016-.587v1.026l-1.016.587Z" transform="translate(-341.976 -285.813)"/></g><path class="y" d="M287.611,255.029l1.016-.587v1.026l-1.016.587Z" transform="translate(-287.611 -254.442)"/></g><g transform="translate(1.553 3.597)"><g class="j"><g transform="translate(60.269 34.794)"><path class="c" d="M342.407,290.789l1.075-.625.14-49.287-1.075.625Z" transform="translate(-342.407 -240.878)"/></g><g transform="translate(0.14)"><path class="d" d="M348.541,244.971l1.075-.625-60.269-34.794-1.075.625Z" transform="translate(-288.272 -209.552)"/></g><g transform="translate(0 0.625)"><path class="q" d="M288.286,210.114l-.14,49.286,60.269,34.794.14-49.287Z" transform="translate(-288.146 -210.114)"/></g></g></g><g transform="translate(0 5.834)"><g class="j"><g transform="translate(60.269 34.794)"><path class="w" d="M341.009,292.8l1.075-.625.14-49.286-1.075.625Z" transform="translate(-341.009 -242.892)"/></g><g transform="translate(0.14)"><path class="v" d="M347.142,246.985l1.075-.625-60.269-34.794-1.075.625Z" transform="translate(-286.873 -211.566)"/></g><g transform="translate(0 0.625)"><path class="x" d="M286.887,212.128l-.14,49.286,60.269,34.794.14-49.286Z" transform="translate(-286.748 -212.128)"/></g></g></g></g><g transform="translate(0 31.271)"><g transform="translate(2.09)"><g class="j"><path class="v" d="M300.3,220.1l-.039-.037a6.961,6.961,0,0,0-.564-.491l-.022-.017a5.725,5.725,0,0,0-.6-.405l-15.734-9.085,1.075-.624,15.734,9.085a5.676,5.676,0,0,1,.6.405l.022.017a6.729,6.729,0,0,1,.564.491l.038.036.024.023q.208.2.407.433c.029.033.057.07.084.1l.08.1c.044.054.09.107.133.162.083.109.166.22.245.334.032.046.064.093.1.14l3.078,4.578c.15.223.311.433.475.636l.08.1c.167.2.338.385.515.56l.038.036a6.908,6.908,0,0,0,.564.491l.023.017a5.6,5.6,0,0,0,.6.405l36.847,21.271-1.075.625-36.846-21.271a5.718,5.718,0,0,1-.6-.405l-.023-.018a6.724,6.724,0,0,1-.564-.491l-.039-.036-.023-.023q-.208-.2-.407-.433c-.029-.033-.057-.069-.084-.1s-.053-.064-.08-.1c-.044-.054-.09-.107-.133-.162-.083-.109-.165-.22-.245-.333-.033-.047-.066-.093-.1-.141l-3.078-4.578c-.151-.223-.311-.433-.476-.636l-.079-.1C300.653,220.46,300.481,220.273,300.3,220.1Z" transform="translate(-283.188 -209.441)"/><g transform="translate(60.269 39.418)"><path class="w" d="M337.465,294.84l1.075-.625.14-49.286-1.075.625Z" transform="translate(-337.465 -244.929)"/></g><g transform="translate(0 0.624)"><path class="x" d="M283.356,210l-.013,4.624-.14,49.286,60.27,34.794.139-49.286L306.766,228.15a7.277,7.277,0,0,1-2.3-2.243l-3.078-4.578a7.286,7.286,0,0,0-2.3-2.241Z" transform="translate(-283.203 -210.003)"/></g></g></g><g transform="translate(0.958 53.458)"><path class="x" d="M342.569,293l-60.385-34.845,1.016-.587,60.385,34.845Z" transform="translate(-282.184 -257.57)"/><g transform="translate(60.385 34.845)"><path class="w" d="M336.55,289.528l1.016-.587v1.026l-1.016.587Z" transform="translate(-336.55 -288.942)"/></g><path class="y" d="M282.184,258.157l1.016-.587V258.6l-1.016.587Z" transform="translate(-282.184 -257.57)"/></g><g transform="translate(1.553 3.597)"><g class="j"><g transform="translate(60.269 34.794)"><path class="c" d="M336.981,293.917l1.075-.625.14-49.287-1.075.625Z" transform="translate(-336.981 -244.006)"/></g><g transform="translate(0.14)"><path class="d" d="M343.114,248.1l1.075-.625L283.92,212.68l-1.075.625Z" transform="translate(-282.846 -212.68)"/></g><g transform="translate(0 0.625)"><path class="q" d="M282.859,213.242l-.14,49.287,60.269,34.794.14-49.287Z" transform="translate(-282.72 -213.242)"/></g></g></g><g transform="translate(0 5.834)"><g class="j"><g transform="translate(60.269 34.794)"><path class="w" d="M335.582,295.931l1.075-.624.14-49.287-1.075.625Z" transform="translate(-335.582 -246.02)"/></g><g transform="translate(0.14)"><path class="v" d="M341.716,250.113l1.075-.625-60.269-34.794-1.075.625Z" transform="translate(-281.447 -214.694)"/></g><g transform="translate(0 0.625)"><path class="x" d="M281.461,215.256l-.14,49.286,60.269,34.794.14-49.286Z" transform="translate(-281.321 -215.256)"/></g></g></g></g></g><g transform="translate(0 39.742)"><g transform="translate(67.368)"><path class="s" d="M334.315,255.962v49.889l67.368-38.895V217.068Z" transform="translate(-334.315 -217.068)"/><path class="t" d="M334.315,255.963l2.657,1.544,67.368-38.895-2.658-1.545Z" transform="translate(-334.315 -217.068)"/><g transform="translate(2.657 1.545)"><path class="u" d="M336.707,257.353v49.889l67.368-38.895V218.459Z" transform="translate(-336.707 -218.459)"/></g><path class="u" d="M334.315,301.974l2.657,1.545V253.63l-2.657-1.545Z" transform="translate(-334.315 -213.19)"/></g><g transform="translate(0 1.545)"><g transform="translate(2.657)"><path class="s" d="M343.423,257.353v49.889l-67.368-38.895V218.459Z" transform="translate(-276.055 -218.459)"/></g><path class="t" d="M343.687,257.354,341.03,258.9,273.662,220l2.658-1.545Z" transform="translate(-273.662 -218.459)"/><g transform="translate(0 1.545)"><path class="z" d="M341.03,258.744v49.889l-67.368-38.895V219.85Z" transform="translate(-273.662 -219.85)"/></g><path class="u" d="M336.972,303.365l-2.657,1.545V255.021l2.657-1.544Z" transform="translate(-266.947 -214.582)"/></g></g></g><g transform="translate(433.22 200.318)"><path class="r" d="M594.1,338.593l-110.86-63.97-57.373,33.121,110.859,63.97Z" transform="translate(-416.368 -179.248)"/><g transform="translate(62.124 3.394)"><path class="r" d="M593.6,261.3v89.128L473.246,280.938V191.811Z" transform="translate(-473.246 -191.811)"/></g><g transform="translate(4.748 3.391)"><path class="s" d="M421.59,224.929v89.128l57.375-33.122V191.808Z" transform="translate(-421.59 -191.808)"/><path class="t" d="M421.59,224.93l4.748,2.759,57.375-33.122-4.749-2.759Z" transform="translate(-421.59 -191.808)"/><g transform="translate(4.747 2.761)"><path class="u" d="M425.864,227.415v89.128l57.375-33.122V194.293Z" transform="translate(-425.864 -194.293)"/></g><path class="u" d="M421.59,310.755l4.747,2.761V224.388l-4.747-2.759Z" transform="translate(-421.59 -188.506)"/></g><g transform="translate(15.198 0)"><g transform="translate(32.304)"><g transform="translate(3.735)"><g class="j"><path class="v" d="M493.995,207.8c-.022-.022-.046-.042-.069-.064a12.155,12.155,0,0,0-1.007-.877c-.013-.011-.028-.02-.04-.03a9.945,9.945,0,0,0-1.077-.724l-28.11-16.23,1.919-1.116,28.111,16.23a10.111,10.111,0,0,1,1.077.725l.039.029a12.216,12.216,0,0,1,1.009.879c.023.022.046.041.068.063s.03.027.044.041q.372.367.725.774c.051.059.1.123.151.184s.094.114.142.172c.079.1.161.191.238.291q.225.29.44.6c.058.083.115.167.172.251l5.5,8.179c.269.4.555.775.85,1.136.048.059.094.117.142.173.3.353.6.69.921,1,.022.022.046.042.068.063a12.228,12.228,0,0,0,1.009.879c.013.01.028.019.041.03a10.024,10.024,0,0,0,1.075.724l65.828,38-1.92,1.115-65.827-38a9.913,9.913,0,0,1-1.075-.724l-.042-.03a12.372,12.372,0,0,1-1.007-.877l-.069-.064-.043-.04q-.372-.367-.725-.774c-.052-.06-.1-.124-.152-.185s-.093-.114-.141-.172c-.079-.1-.161-.19-.238-.29q-.225-.29-.44-.6c-.058-.083-.116-.168-.172-.252l-5.5-8.178c-.269-.4-.555-.775-.85-1.137-.048-.058-.094-.117-.142-.173C494.618,208.442,494.311,208.107,493.995,207.8Z" transform="translate(-463.418 -188.755)"/><g transform="translate(107.672 70.421)"><path class="w" d="M560.384,341.324l1.92-1.116.25-88.052-1.92,1.116Z" transform="translate(-560.384 -252.157)"/></g><g transform="translate(0 1.116)"><path class="x" d="M463.718,189.76l-.024,8.26-.249,88.051,107.672,62.161.249-88.052-65.827-38a13,13,0,0,1-4.105-4.005l-5.5-8.178a13,13,0,0,0-4.106-4.005Z" transform="translate(-463.445 -189.76)"/></g></g></g><g transform="translate(1.712 95.505)"><path class="x" d="M569.5,338.039l-107.88-62.251,1.815-1.048,107.88,62.251Z" transform="translate(-461.624 -274.74)"/><g transform="translate(107.88 62.251)"><path class="w" d="M558.749,331.834l1.815-1.048v1.833l-1.815,1.048Z" transform="translate(-558.749 -330.786)"/></g><path class="y" d="M461.624,275.788l1.815-1.048v1.833l-1.815,1.048Z" transform="translate(-461.624 -274.74)"/></g><g transform="translate(2.775 6.428)"><g class="j"><g transform="translate(107.672 62.161)"><path class="c" d="M559.52,339.674l1.92-1.116.25-88.052-1.92,1.116Z" transform="translate(-559.52 -250.507)"/></g><g transform="translate(0.25)"><path class="d" d="M570.477,257.819l1.92-1.116L464.725,194.542l-1.92,1.116Z" transform="translate(-462.805 -194.542)"/></g><g transform="translate(0 1.116)"><path class="q" d="M462.83,195.546l-.25,88.052,107.672,62.161.25-88.052Z" transform="translate(-462.581 -195.546)"/></g></g></g><g transform="translate(0 10.424)"><g class="j"><g transform="translate(107.672 62.161)"><path class="w" d="M557.021,343.272l1.92-1.116.25-88.052-1.92,1.116Z" transform="translate(-557.021 -254.105)"/></g><g transform="translate(0.25)"><path class="v" d="M567.979,261.417l1.92-1.116L462.227,198.14l-1.92,1.116Z" transform="translate(-460.307 -198.14)"/></g><g transform="translate(0 1.116)"><path class="x" d="M460.332,199.145l-.25,88.052,107.672,62.161.25-88.052Z" transform="translate(-460.082 -199.145)"/></g></g></g></g><g transform="translate(21.536 6.208)"><g transform="translate(3.735)"><g class="j"><path class="v" d="M484.3,213.385l-.069-.063a12.2,12.2,0,0,0-1.009-.879l-.04-.029a10.214,10.214,0,0,0-1.076-.725L454,195.459l1.919-1.115,28.111,16.23a10.119,10.119,0,0,1,1.077.725l.039.028a12.256,12.256,0,0,1,1.01.88c.022.021.046.041.068.063l.043.04q.372.368.725.775c.052.059.1.123.152.184s.094.114.141.172c.08.1.161.19.239.29q.225.292.439.6c.059.082.117.167.173.251l5.5,8.179c.268.4.554.774.85,1.136.047.058.094.117.142.173.3.353.6.689.92,1,.022.022.046.042.069.064a11.991,11.991,0,0,0,1.007.877l.041.03a10.03,10.03,0,0,0,1.076.724l65.827,38-1.919,1.116-65.828-38a10.014,10.014,0,0,1-1.075-.724c-.013-.011-.028-.02-.041-.03a12.411,12.411,0,0,1-1.009-.877c-.022-.022-.046-.042-.068-.064s-.03-.027-.043-.041c-.248-.244-.491-.5-.726-.774-.051-.059-.1-.123-.151-.184s-.094-.114-.142-.172c-.079-.1-.16-.19-.238-.29q-.225-.292-.44-.6c-.058-.082-.115-.167-.172-.251l-5.5-8.179c-.268-.4-.554-.775-.85-1.136-.048-.058-.094-.117-.142-.173C484.924,214.032,484.617,213.7,484.3,213.385Z" transform="translate(-453.723 -194.344)"/><g transform="translate(107.672 70.421)"><path class="w" d="M550.689,346.913l1.92-1.116.25-88.052-1.92,1.116Z" transform="translate(-550.689 -257.745)"/></g><g transform="translate(0 1.115)"><path class="x" d="M454.023,195.348l-.023,8.26-.25,88.052,107.672,62.16.25-88.051-65.828-38a13.03,13.03,0,0,1-4.105-4.005l-5.5-8.179a13.019,13.019,0,0,0-4.105-4.005Z" transform="translate(-453.75 -195.348)"/></g></g></g><g transform="translate(1.712 95.505)"><path class="x" d="M559.809,343.628l-107.88-62.251,1.815-1.048,107.88,62.251Z" transform="translate(-451.929 -280.329)"/><g transform="translate(107.88 62.251)"><path class="w" d="M549.055,337.422l1.815-1.048v1.833l-1.815,1.048Z" transform="translate(-549.055 -336.374)"/></g><path class="y" d="M451.929,281.377l1.815-1.048v1.833l-1.815,1.048Z" transform="translate(-451.929 -280.329)"/></g><g transform="translate(2.775 6.427)"><g class="j"><g transform="translate(107.672 62.161)"><path class="c" d="M549.825,345.263l1.92-1.116.25-88.052-1.92,1.116Z" transform="translate(-549.825 -256.095)"/></g><g transform="translate(0.25)"><path class="d" d="M560.783,263.407l1.92-1.116L455.031,200.131l-1.92,1.116Z" transform="translate(-453.111 -200.131)"/></g><g transform="translate(0 1.116)"><path class="q" d="M453.136,201.135l-.25,88.052,107.672,62.161.25-88.052Z" transform="translate(-452.886 -201.135)"/></g></g></g><g transform="translate(0 10.424)"><g class="j"><g transform="translate(107.672 62.161)"><path class="w" d="M547.326,348.861l1.92-1.116.25-88.052-1.92,1.116Z" transform="translate(-547.326 -259.693)"/></g><g transform="translate(0.25)"><path class="v" d="M558.284,267.005l1.92-1.116L452.532,203.729l-1.92,1.116Z" transform="translate(-450.612 -203.729)"/></g><g transform="translate(0 1.116)"><path class="x" d="M450.637,204.733l-.25,88.052,107.672,62.161.25-88.052Z" transform="translate(-450.387 -204.733)"/></g></g></g></g><g transform="translate(10.768 12.415)"><g transform="translate(3.735)"><g class="j"><path class="v" d="M474.606,218.974c-.022-.022-.046-.042-.069-.064a12.4,12.4,0,0,0-1.009-.878c-.012-.01-.027-.019-.04-.029a9.986,9.986,0,0,0-1.076-.725L444.3,201.048l1.92-1.116,28.111,16.23a10.079,10.079,0,0,1,1.077.726l.039.028a12.228,12.228,0,0,1,1.009.879c.023.022.046.041.068.063s.03.027.044.041c.247.244.49.5.725.774.051.06.1.124.151.184l.142.173c.079.1.16.19.238.29q.225.29.44.6c.058.083.115.167.172.251l5.5,8.179c.268.4.554.775.85,1.137l.142.173c.3.352.6.689.92,1,.023.022.047.042.069.064a12.415,12.415,0,0,0,1.009.877c.013.01.028.019.041.03a10.011,10.011,0,0,0,1.075.724l65.828,38-1.92,1.115-65.827-38a10.218,10.218,0,0,1-1.076-.725l-.041-.03a11.986,11.986,0,0,1-1.007-.877c-.023-.022-.047-.041-.069-.064s-.029-.026-.043-.04q-.372-.367-.725-.774c-.052-.06-.1-.124-.152-.184s-.094-.114-.141-.173c-.079-.1-.161-.19-.239-.29q-.225-.29-.439-.6c-.059-.083-.115-.167-.173-.251l-5.5-8.179c-.269-.4-.555-.775-.851-1.137-.047-.058-.093-.116-.142-.172C475.229,219.621,474.922,219.284,474.606,218.974Z" transform="translate(-444.029 -199.932)"/><g transform="translate(107.672 70.422)"><path class="w" d="M540.995,352.5l1.92-1.116.25-88.052-1.92,1.116Z" transform="translate(-540.995 -263.334)"/></g><g transform="translate(0 1.116)"><path class="x" d="M444.328,200.937l-.023,8.26-.249,88.051L551.728,359.41l.249-88.052-65.827-38a13.022,13.022,0,0,1-4.106-4.005l-5.5-8.179a13,13,0,0,0-4.106-4.005Z" transform="translate(-444.056 -200.937)"/></g></g></g><g transform="translate(1.712 95.506)"><path class="x" d="M550.114,349.216l-107.88-62.251,1.815-1.048,107.88,62.251Z" transform="translate(-442.234 -285.917)"/><g transform="translate(107.88 62.251)"><path class="w" d="M539.36,343.011l1.815-1.048V343.8l-1.815,1.048Z" transform="translate(-539.36 -341.963)"/></g><path class="y" d="M442.234,286.965l1.815-1.048v1.833l-1.815,1.048Z" transform="translate(-442.234 -285.917)"/></g><g transform="translate(2.775 6.428)"><g class="j"><g transform="translate(107.672 62.161)"><path class="c" d="M540.13,350.851l1.92-1.116.25-88.052-1.92,1.116Z" transform="translate(-540.13 -261.684)"/></g><g transform="translate(0.25)"><path class="d" d="M551.088,269l1.92-1.116L445.336,205.719l-1.92,1.116Z" transform="translate(-443.416 -205.719)"/></g><g transform="translate(0 1.116)"><path class="q" d="M443.441,206.724l-.25,88.052,107.672,62.161.25-88.052Z" transform="translate(-443.191 -206.724)"/></g></g></g><g transform="translate(0 10.425)"><g class="j"><g transform="translate(107.672 62.161)"><path class="w" d="M537.632,354.449l1.92-1.116.25-88.052-1.92,1.116Z" transform="translate(-537.632 -265.282)"/></g><g transform="translate(0.25)"><path class="v" d="M548.59,272.594l1.92-1.116L442.837,209.317l-1.92,1.116Z" transform="translate(-440.918 -209.317)"/></g><g transform="translate(0 1.116)"><path class="x" d="M440.942,210.322l-.25,88.052,107.672,62.161.25-88.052Z" transform="translate(-440.693 -210.322)"/></g></g></g></g><g transform="translate(0 18.622)"><g transform="translate(3.735)"><g class="j"><path class="v" d="M464.912,224.563c-.023-.022-.047-.042-.069-.064a12.228,12.228,0,0,0-1.009-.879l-.04-.029a10.032,10.032,0,0,0-1.076-.724l-28.111-16.231,1.919-1.115,28.111,16.23a10.126,10.126,0,0,1,1.077.725l.039.029a12.229,12.229,0,0,1,1.01.879c.022.022.046.041.068.063l.043.041q.372.367.725.774c.052.059.1.123.152.184s.094.114.141.172c.079.1.161.191.239.291q.225.29.439.6c.059.083.116.167.173.251l5.5,8.179c.269.4.555.775.85,1.136.048.058.094.117.143.173.3.353.6.69.92,1,.022.022.046.042.069.063a12.02,12.02,0,0,0,1.007.879l.041.029a10.044,10.044,0,0,0,1.076.725l65.827,38-1.919,1.115-65.828-38a9.92,9.92,0,0,1-1.075-.724c-.013-.01-.028-.019-.041-.03a12.415,12.415,0,0,1-1.009-.877c-.022-.022-.046-.042-.069-.064s-.029-.027-.043-.04q-.372-.367-.725-.774c-.051-.06-.1-.124-.151-.185s-.094-.114-.142-.172c-.079-.1-.16-.19-.238-.29q-.225-.29-.44-.6c-.058-.082-.115-.167-.172-.251l-5.5-8.179c-.269-.4-.555-.774-.85-1.136-.048-.058-.094-.117-.142-.173C465.535,225.209,465.228,224.873,464.912,224.563Z" transform="translate(-434.334 -205.521)"/><g transform="translate(107.672 70.421)"><path class="w" d="M531.3,358.09l1.92-1.116.25-88.052-1.92,1.116Z" transform="translate(-531.3 -268.923)"/></g><g transform="translate(0 1.116)"><path class="x" d="M434.634,206.526l-.023,8.259-.25,88.052L542.033,365l.25-88.052-65.828-38a13.007,13.007,0,0,1-4.105-4.005l-5.5-8.179a13.015,13.015,0,0,0-4.105-4Z" transform="translate(-434.361 -206.526)"/></g></g></g><g transform="translate(1.712 95.505)"><path class="x" d="M540.419,354.8,432.54,292.554l1.815-1.048,107.879,62.251Z" transform="translate(-432.54 -291.506)"/><g transform="translate(107.88 62.251)"><path class="w" d="M529.666,348.6l1.815-1.048v1.833l-1.815,1.048Z" transform="translate(-529.666 -347.552)"/></g><path class="y" d="M432.54,292.554l1.815-1.048v1.833l-1.815,1.048Z" transform="translate(-432.54 -291.506)"/></g><g transform="translate(2.775 6.428)"><g class="j"><g transform="translate(107.672 62.161)"><path class="c" d="M530.436,356.44l1.92-1.116.25-88.052-1.92,1.116Z" transform="translate(-530.436 -267.273)"/></g><g transform="translate(0.25)"><path class="d" d="M541.394,274.585l1.92-1.116L435.641,211.308l-1.92,1.116Z" transform="translate(-433.722 -211.308)"/></g><g transform="translate(0 1.116)"><path class="q" d="M433.746,212.312l-.25,88.052,107.672,62.161.25-88.052Z" transform="translate(-433.497 -212.312)"/></g></g></g><g transform="translate(0 10.424)"><g class="j"><g transform="translate(107.672 62.161)"><path class="w" d="M527.937,360.038l1.92-1.116.25-88.052-1.92,1.116Z" transform="translate(-527.937 -270.871)"/></g><g transform="translate(0.25)"><path class="v" d="M538.9,278.183l1.92-1.116L433.143,214.906l-1.92,1.116Z" transform="translate(-431.223 -214.906)"/></g><g transform="translate(0 1.116)"><path class="x" d="M431.248,215.911,431,303.962,538.67,366.123l.25-88.052Z" transform="translate(-430.998 -215.911)"/></g></g></g></g></g><g transform="translate(0 36.517)"><g transform="translate(120.355 33.604)"><path class="s" d="M525.673,285.008v89.128l57.375-33.122V251.886Z" transform="translate(-525.673 -251.886)"/><path class="t" d="M525.673,285.009l4.748,2.759,57.375-33.122-4.749-2.76Z" transform="translate(-525.673 -251.886)"/><g transform="translate(4.747 2.761)"><path class="u" d="M529.947,287.493v89.128L587.321,343.5V254.372Z" transform="translate(-529.947 -254.372)"/></g><path class="u" d="M525.673,370.834l4.747,2.761V284.467l-4.747-2.759Z" transform="translate(-525.673 -248.585)"/></g><g transform="translate(4.748)"><path class="s" d="M541.944,291.118v89.128L421.589,310.759V221.632Z" transform="translate(-421.589 -221.632)"/></g><path class="t" d="M542.417,291.119l-4.748,2.759L417.315,224.391l4.749-2.759Z" transform="translate(-417.315 -221.632)"/><g transform="translate(0 2.761)"><path class="z" d="M537.67,293.6v89.128L417.315,313.245V224.117Z" transform="translate(-417.315 -224.117)"/></g><path class="u" d="M530.42,373.319l-4.747,2.761V286.952l4.747-2.759Z" transform="translate(-405.317 -214.705)"/></g></g><g transform="translate(624.195 527.482)"><path class="r" d="M705.885,567.744l-62.053-35.807-49.794,28.75,62.053,35.807Z" transform="translate(-588.723 -477.923)"/><g transform="translate(52.453 2.528)"><path class="r" d="M703.845,524.478v49.889l-67.368-38.895V485.583Z" transform="translate(-636.477 -485.583)"/></g><g transform="translate(2.658 2.527)"><path class="s" d="M591.646,514.332v49.889l49.795-28.75V485.582Z" transform="translate(-591.646 -485.582)"/><path class="t" d="M591.646,514.332l2.657,1.544,49.795-28.75-2.658-1.545Z" transform="translate(-591.646 -485.582)"/><g transform="translate(2.657 1.545)"><path class="u" d="M594.038,515.723v49.889l49.795-28.75V486.973Z" transform="translate(-594.038 -486.973)"/></g><path class="u" d="M591.646,561.355,594.3,562.9V513.011l-2.657-1.545Z" transform="translate(-591.646 -482.716)"/></g><g transform="translate(8.356)"><g transform="translate(42.191)"><g transform="translate(2.09)"><g class="j"><path class="v" d="M653.744,493.965l-.039-.037a6.559,6.559,0,0,0-.564-.491l-.022-.017a5.5,5.5,0,0,0-.6-.405l-15.736-9.085,1.075-.624,15.734,9.085a5.506,5.506,0,0,1,.6.405l.022.016a6.955,6.955,0,0,1,.564.492l.038.036.024.023q.208.2.407.433c.029.033.057.069.084.1l.08.1c.044.054.09.107.133.162.083.109.165.22.245.333.033.047.064.093.1.141l3.078,4.578c.151.223.311.433.477.636l.079.1c.167.2.338.385.515.559l.039.037a6.964,6.964,0,0,0,.564.491l.022.017a5.611,5.611,0,0,0,.6.405l36.847,21.271-1.075.625L660.19,502.077a5.4,5.4,0,0,1-.6-.405l-.023-.017a6.726,6.726,0,0,1-.564-.491l-.039-.036-.023-.023q-.208-.2-.407-.433c-.029-.033-.057-.069-.084-.1l-.08-.1c-.044-.054-.09-.107-.133-.162-.083-.109-.165-.22-.245-.333-.033-.047-.066-.093-.1-.141l-3.078-4.578c-.151-.223-.311-.434-.477-.636l-.079-.1C654.093,494.326,653.922,494.139,653.744,493.965Z" transform="translate(-636.628 -483.307)"/><g transform="translate(60.269 39.417)"><path class="w" d="M690.9,568.706l1.075-.625.14-49.286-1.075.625Z" transform="translate(-690.905 -518.795)"/></g><g transform="translate(0 0.624)"><path class="x" d="M636.8,483.869l-.013,4.624-.14,49.286,60.27,34.794.139-49.286-36.846-21.272a7.261,7.261,0,0,1-2.3-2.241L654.83,495.2a7.3,7.3,0,0,0-2.3-2.241Z" transform="translate(-636.643 -483.869)"/></g></g></g><g transform="translate(0.958 53.458)"><path class="x" d="M696.009,566.867l-60.385-34.845,1.016-.587,60.385,34.845Z" transform="translate(-635.624 -531.436)"/><g transform="translate(60.385 34.845)"><path class="w" d="M689.99,563.394l1.016-.587v1.026l-1.016.587Z" transform="translate(-689.99 -562.807)"/></g><path class="y" d="M635.624,532.023l1.016-.587v1.026l-1.016.587Z" transform="translate(-635.624 -531.436)"/></g><g transform="translate(1.553 3.597)"><g class="j"><g transform="translate(60.269 34.794)"><path class="c" d="M690.421,567.783l1.075-.625.14-49.286-1.075.625Z" transform="translate(-690.421 -517.872)"/></g><g transform="translate(0.14)"><path class="d" d="M696.554,521.964l1.075-.625L637.36,486.546l-1.075.625Z" transform="translate(-636.286 -486.546)"/></g><g transform="translate(0 0.625)"><path class="q" d="M636.3,487.108l-.14,49.286,60.269,34.794.14-49.286Z" transform="translate(-636.16 -487.108)"/></g></g></g><g transform="translate(0 5.834)"><g class="j"><g transform="translate(60.269 34.794)"><path class="w" d="M689.022,569.8l1.075-.625.14-49.286-1.075.625Z" transform="translate(-689.022 -519.886)"/></g><g transform="translate(0.14)"><path class="v" d="M695.156,523.979l1.075-.625L635.962,488.56l-1.075.625Z" transform="translate(-634.887 -488.56)"/></g><g transform="translate(0 0.625)"><path class="x" d="M634.9,489.122l-.14,49.287L695.03,573.2l.14-49.287Z" transform="translate(-634.761 -489.122)"/></g></g></g></g><g transform="translate(36.164 3.474)"><g transform="translate(2.091)"><g class="j"><path class="v" d="M648.318,497.093l-.039-.037a6.924,6.924,0,0,0-.564-.491l-.022-.017a5.851,5.851,0,0,0-.6-.405l-15.734-9.085,1.074-.624,15.736,9.085a5.651,5.651,0,0,1,.6.405l.022.017a6.781,6.781,0,0,1,.565.491l.038.036.024.023q.208.2.405.433c.03.033.057.07.085.1l.079.1c.044.054.09.107.133.162.084.109.167.22.247.334.032.046.064.093.1.14l3.078,4.578c.15.223.31.434.475.636l.08.1c.166.2.338.385.514.56l.039.036a6.716,6.716,0,0,0,.564.491l.023.017a5.386,5.386,0,0,0,.6.405l36.846,21.271-1.074.625-36.847-21.271a5.8,5.8,0,0,1-.6-.406l-.022-.017a6.577,6.577,0,0,1-.564-.491l-.039-.036-.024-.023q-.208-.2-.406-.433c-.029-.033-.056-.069-.084-.1s-.052-.064-.079-.1c-.044-.054-.09-.107-.133-.162-.084-.108-.167-.22-.247-.333l-.1-.141-3.078-4.578c-.15-.223-.311-.433-.475-.636l-.08-.1C648.667,497.454,648.495,497.267,648.318,497.093Z" transform="translate(-631.202 -486.435)"/><g transform="translate(60.269 39.418)"><path class="w" d="M685.478,571.834l1.075-.625.14-49.286-1.075.625Z" transform="translate(-685.478 -521.923)"/></g><g transform="translate(0 0.624)"><path class="x" d="M631.37,487l-.013,4.624-.14,49.286L691.486,575.7l.14-49.286-36.847-21.271a7.3,7.3,0,0,1-2.3-2.243l-3.078-4.578a7.286,7.286,0,0,0-2.3-2.241Z" transform="translate(-631.217 -486.997)"/></g></g></g><g transform="translate(0.958 53.458)"><path class="x" d="M690.583,570,630.2,535.151l1.016-.587L691.6,569.409Z" transform="translate(-630.198 -534.564)"/><g transform="translate(60.385 34.845)"><path class="w" d="M684.563,566.522l1.016-.587v1.026l-1.016.587Z" transform="translate(-684.563 -565.936)"/></g><path class="y" d="M630.2,535.151l1.016-.587v1.026l-1.016.587Z" transform="translate(-630.198 -534.564)"/></g><g transform="translate(1.553 3.597)"><g class="j"><g transform="translate(60.269 34.794)"><path class="c" d="M684.994,570.911l1.075-.625.14-49.286-1.075.625Z" transform="translate(-684.994 -521)"/></g><g transform="translate(0.14)"><path class="d" d="M691.128,525.093l1.075-.625-60.269-34.794-1.075.625Z" transform="translate(-630.859 -489.674)"/></g><g transform="translate(0 0.625)"><path class="q" d="M630.873,490.236l-.14,49.286L691,574.317l.14-49.287Z" transform="translate(-630.733 -490.236)"/></g></g></g><g transform="translate(0 5.834)"><g class="j"><g transform="translate(60.269 34.794)"><path class="w" d="M683.6,572.925l1.075-.624.14-49.287-1.075.625Z" transform="translate(-683.596 -523.014)"/></g><g transform="translate(0.14)"><path class="v" d="M689.729,527.107l1.075-.625-60.269-34.794-1.075.624Z" transform="translate(-629.46 -491.688)"/></g><g transform="translate(0 0.624)"><path class="x" d="M629.474,492.25l-.14,49.286L689.6,576.331l.14-49.286Z" transform="translate(-629.335 -492.25)"/></g></g></g></g><g transform="translate(30.137 6.949)"><g transform="translate(2.09)"><g class="j"><path class="v" d="M642.891,500.221l-.039-.036a6.757,6.757,0,0,0-.564-.492l-.022-.015a5.675,5.675,0,0,0-.6-.407l-15.736-9.085,1.075-.624,15.734,9.085a5.523,5.523,0,0,1,.6.406l.022.016a6.978,6.978,0,0,1,.564.492l.038.034.025.023c.139.137.274.282.406.433.029.033.057.07.084.1l.08.1c.044.054.09.107.133.163.083.108.166.219.245.333.033.047.064.093.1.14l3.078,4.578c.151.223.311.434.477.636.026.032.052.066.079.1.167.2.338.385.515.56l.039.036a6.561,6.561,0,0,0,.564.491l.022.017a5.6,5.6,0,0,0,.6.405l36.847,21.273-1.075.624-36.846-21.271a5.708,5.708,0,0,1-.6-.405l-.023-.017a6.979,6.979,0,0,1-.564-.492l-.039-.036-.023-.022q-.208-.207-.407-.433c-.029-.034-.057-.07-.084-.1s-.053-.063-.08-.1c-.044-.053-.09-.105-.133-.162-.083-.108-.166-.219-.245-.333-.033-.047-.065-.093-.1-.141l-3.078-4.577c-.151-.223-.311-.434-.477-.636l-.079-.1C643.24,500.584,643.069,500.395,642.891,500.221Z" transform="translate(-625.775 -489.563)"/><g transform="translate(60.27 39.418)"><path class="w" d="M680.052,574.963l1.075-.624.14-49.287-1.075.625Z" transform="translate(-680.052 -525.052)"/></g><g transform="translate(0 0.624)"><path class="x" d="M625.943,490.125l-.013,4.624-.14,49.286,60.27,34.794.139-49.286-36.846-21.271a7.277,7.277,0,0,1-2.3-2.243l-3.078-4.577a7.3,7.3,0,0,0-2.3-2.243Z" transform="translate(-625.79 -490.125)"/></g></g></g><g transform="translate(0.958 53.459)"><path class="x" d="M685.156,573.124l-60.385-34.845,1.016-.587,60.385,34.845Z" transform="translate(-624.771 -537.693)"/><g transform="translate(60.385 34.845)"><path class="w" d="M679.137,569.65l1.016-.587v1.026l-1.016.587Z" transform="translate(-679.137 -569.064)"/></g><path class="y" d="M624.771,538.279l1.016-.587v1.026l-1.016.587Z" transform="translate(-624.771 -537.693)"/></g><g transform="translate(1.553 3.598)"><g class="j"><g transform="translate(60.269 34.794)"><path class="c" d="M679.568,574.039l1.075-.625.14-49.287-1.075.625Z" transform="translate(-679.568 -524.128)"/></g><g transform="translate(0.14)"><path class="d" d="M685.7,528.221l1.075-.625L626.507,492.8l-1.075.625Z" transform="translate(-625.433 -492.802)"/></g><g transform="translate(0 0.625)"><path class="q" d="M625.446,493.364l-.14,49.286,60.269,34.794.14-49.286Z" transform="translate(-625.307 -493.364)"/></g></g></g><g transform="translate(0 5.835)"><g class="j"><g transform="translate(60.269 34.794)"><path class="w" d="M678.169,576.053l1.075-.624.14-49.287-1.075.624Z" transform="translate(-678.169 -526.142)"/></g><g transform="translate(0.14)"><path class="v" d="M684.3,530.235l1.075-.624-60.269-34.794-1.075.624Z" transform="translate(-624.034 -494.816)"/></g><g transform="translate(0 0.624)"><path class="x" d="M624.048,495.378l-.14,49.287,60.269,34.794.14-49.287Z" transform="translate(-623.908 -495.378)"/></g></g></g></g><g transform="translate(24.109 10.423)"><g transform="translate(2.091)"><g class="j"><path class="v" d="M637.465,503.349l-.039-.036a6.978,6.978,0,0,0-.564-.492l-.022-.016a5.678,5.678,0,0,0-.6-.407L620.5,493.315l1.074-.624,15.736,9.085a5.812,5.812,0,0,1,.6.406l.021.016a6.979,6.979,0,0,1,.565.492l.038.036.024.022q.208.207.407.434c.029.032.055.069.084.1l.079.1c.044.053.09.106.133.162q.127.162.247.333l.1.141,3.078,4.577c.15.223.31.434.475.636l.08.1c.166.2.338.385.514.559l.039.036a6.949,6.949,0,0,0,.564.492l.023.017a5.731,5.731,0,0,0,.6.405l36.846,21.271-1.074.624L643.91,511.462a5.78,5.78,0,0,1-.6-.405l-.022-.017a6.963,6.963,0,0,1-.564-.491l-.039-.037-.024-.022c-.139-.137-.274-.282-.407-.433-.029-.033-.055-.07-.084-.1l-.079-.1c-.044-.054-.09-.107-.133-.163q-.127-.162-.247-.333l-.1-.14-3.078-4.578c-.15-.223-.311-.434-.475-.636-.027-.032-.053-.066-.08-.1C637.814,503.712,637.641,503.523,637.465,503.349Z" transform="translate(-620.349 -492.691)"/><g transform="translate(60.269 39.418)"><path class="w" d="M674.625,578.091l1.075-.624.14-49.287-1.075.625Z" transform="translate(-674.625 -528.18)"/></g><g transform="translate(0 0.624)"><path class="x" d="M620.517,493.253l-.013,4.624-.14,49.287,60.269,34.794.14-49.287L643.926,511.4a7.308,7.308,0,0,1-2.3-2.241l-3.078-4.578a7.288,7.288,0,0,0-2.3-2.243Z" transform="translate(-620.364 -493.253)"/></g></g></g><g transform="translate(0.958 53.459)"><path class="x" d="M679.73,576.252l-60.385-34.845,1.016-.587,60.385,34.845Z" transform="translate(-619.345 -540.821)"/><g transform="translate(60.385 34.845)"><path class="w" d="M673.71,572.779l1.016-.587v1.026l-1.016.587Z" transform="translate(-673.71 -572.192)"/></g><path class="y" d="M619.345,541.407l1.016-.587v1.026l-1.016.587Z" transform="translate(-619.345 -540.821)"/></g><g transform="translate(1.553 3.598)"><g class="j"><g transform="translate(60.269 34.794)"><path class="c" d="M674.141,577.167l1.075-.624.14-49.287-1.075.625Z" transform="translate(-674.141 -527.256)"/></g><g transform="translate(0.14)"><path class="d" d="M680.275,531.349l1.075-.625L621.081,495.93l-1.075.624Z" transform="translate(-620.006 -495.93)"/></g><g transform="translate(0 0.624)"><path class="q" d="M620.02,496.492l-.14,49.286,60.269,34.794.14-49.286Z" transform="translate(-619.88 -496.492)"/></g></g></g><g transform="translate(0 5.835)"><g class="j"><g transform="translate(60.269 34.794)"><path class="w" d="M672.743,579.181l1.075-.624.14-49.287-1.075.625Z" transform="translate(-672.743 -529.27)"/></g><g transform="translate(0.14)"><path class="v" d="M678.876,533.363l1.075-.625-60.269-34.794-1.075.624Z" transform="translate(-618.608 -497.944)"/></g><g transform="translate(0 0.624)"><path class="x" d="M618.622,498.507l-.14,49.286,60.269,34.794.14-49.286Z" transform="translate(-618.482 -498.507)"/></g></g></g></g><g transform="translate(18.082 13.897)"><g transform="translate(2.091)"><g class="j"><path class="v" d="M632.038,506.477l-.039-.036a6.574,6.574,0,0,0-.564-.491l-.022-.017a5.478,5.478,0,0,0-.6-.405l-15.736-9.085,1.075-.625,15.734,9.085a5.67,5.67,0,0,1,.6.407l.022.016a6.968,6.968,0,0,1,.564.492l.038.036.024.022q.208.207.407.434c.029.033.057.069.084.1s.053.064.08.1c.044.054.09.107.133.162.083.109.166.22.245.333.033.047.066.093.1.141l3.078,4.578c.151.223.311.433.477.635.026.033.052.065.079.1.167.2.338.385.515.559l.039.037a6.986,6.986,0,0,0,.564.491l.022.017a5.622,5.622,0,0,0,.6.405l36.847,21.271-1.075.624L638.484,514.59a5.379,5.379,0,0,1-.6-.405l-.023-.017a6.913,6.913,0,0,1-.564-.491l-.039-.037-.023-.022q-.208-.2-.406-.433c-.029-.033-.057-.07-.084-.1l-.08-.1c-.044-.054-.09-.107-.133-.162-.083-.109-.165-.22-.245-.334-.032-.046-.064-.093-.1-.14l-3.078-4.578c-.151-.223-.311-.434-.476-.636l-.079-.1C632.387,506.84,632.216,506.652,632.038,506.477Z" transform="translate(-614.923 -495.819)"/><g transform="translate(60.268 39.418)"><path class="w" d="M669.2,581.219l1.075-.624.14-49.287-1.075.625Z" transform="translate(-669.199 -531.308)"/></g><g transform="translate(0 0.625)"><path class="x" d="M615.09,496.382,615.077,501l-.139,49.287,60.269,34.794.139-49.287L638.5,514.528a7.274,7.274,0,0,1-2.3-2.241l-3.078-4.578a7.282,7.282,0,0,0-2.3-2.241Z" transform="translate(-614.938 -496.382)"/></g></g></g><g transform="translate(0.958 53.459)"><path class="x" d="M674.3,579.38l-60.385-34.845,1.016-.587,60.385,34.845Z" transform="translate(-613.918 -543.949)"/><g transform="translate(60.385 34.845)"><path class="w" d="M668.284,575.907l1.016-.587v1.026l-1.016.587Z" transform="translate(-668.284 -575.32)"/></g><path class="y" d="M613.918,544.536l1.016-.587v1.026l-1.016.587Z" transform="translate(-613.918 -543.949)"/></g><g transform="translate(1.553 3.598)"><g class="j"><g transform="translate(60.269 34.794)"><path class="c" d="M668.715,580.3l1.075-.625.14-49.286-1.075.624Z" transform="translate(-668.715 -530.385)"/></g><g transform="translate(0.14)"><path class="d" d="M674.849,534.477l1.075-.624-60.269-34.794-1.075.624Z" transform="translate(-614.58 -499.058)"/></g><g transform="translate(0 0.624)"><path class="q" d="M614.594,499.621l-.14,49.287L674.723,583.7l.14-49.286Z" transform="translate(-614.454 -499.621)"/></g></g></g><g transform="translate(0 5.835)"><g class="j"><g transform="translate(60.269 34.794)"><path class="w" d="M667.316,582.31l1.075-.625.14-49.286-1.075.624Z" transform="translate(-667.316 -532.398)"/></g><g transform="translate(0.14)"><path class="v" d="M673.45,536.491l1.075-.624-60.269-34.794-1.075.624Z" transform="translate(-613.181 -501.072)"/></g><g transform="translate(0 0.624)"><path class="x" d="M613.2,501.635l-.14,49.287,60.269,34.794.14-49.287Z" transform="translate(-613.055 -501.635)"/></g></g></g></g><g transform="translate(12.055 17.373)"><g transform="translate(2.091)"><g class="j"><path class="v" d="M626.612,509.606l-.039-.037a6.727,6.727,0,0,0-.564-.491l-.022-.017a5.51,5.51,0,0,0-.6-.405l-15.734-9.085,1.074-.624,15.736,9.085a5.613,5.613,0,0,1,.6.405l.021.016a6.964,6.964,0,0,1,.565.492l.038.036.024.023q.208.2.407.433c.029.033.055.069.084.1l.079.1c.044.054.09.107.133.162.084.109.167.22.247.334q.048.068.1.14l3.078,4.579c.15.223.31.433.475.636l.08.1c.165.2.338.385.514.559l.039.037a7.19,7.19,0,0,0,.564.491l.023.017a5.383,5.383,0,0,0,.6.405l36.846,21.271-1.074.624-36.847-21.271a5.607,5.607,0,0,1-.6-.405l-.022-.017a6.564,6.564,0,0,1-.564-.491l-.039-.036-.024-.023q-.208-.2-.405-.433c-.03-.033-.057-.069-.086-.1l-.079-.1c-.044-.054-.09-.107-.133-.162q-.127-.163-.247-.333l-.1-.141-3.078-4.578c-.15-.223-.311-.433-.475-.636l-.08-.1C626.961,509.967,626.789,509.78,626.612,509.606Z" transform="translate(-609.496 -498.948)"/><g transform="translate(60.269 39.418)"><path class="w" d="M663.772,584.347l1.075-.625.14-49.287-1.075.624Z" transform="translate(-663.772 -534.436)"/></g><g transform="translate(0 0.624)"><path class="x" d="M609.664,499.51l-.013,4.624-.14,49.286,60.269,34.794.14-49.287-36.847-21.271a7.282,7.282,0,0,1-2.3-2.241l-3.078-4.578a7.284,7.284,0,0,0-2.3-2.241Z" transform="translate(-609.511 -499.51)"/></g></g></g><g transform="translate(0.958 53.458)"><path class="x" d="M668.877,582.508l-60.385-34.845,1.016-.587,60.385,34.845Z" transform="translate(-608.492 -547.077)"/><g transform="translate(60.385 34.845)"><path class="w" d="M662.857,579.035l1.016-.587v1.026l-1.016.587Z" transform="translate(-662.857 -578.448)"/></g><path class="y" d="M608.492,547.664l1.016-.587V548.1l-1.016.587Z" transform="translate(-608.492 -547.077)"/></g><g transform="translate(1.553 3.597)"><g class="j"><g transform="translate(60.269 34.794)"><path class="c" d="M663.289,583.424l1.074-.624.14-49.286-1.075.624Z" transform="translate(-663.289 -533.513)"/></g><g transform="translate(0.14)"><path class="d" d="M669.422,537.606l1.075-.625-60.269-34.794-1.075.624Z" transform="translate(-609.153 -502.187)"/></g><g transform="translate(0 0.624)"><path class="q" d="M609.167,502.749l-.14,49.287L669.3,586.83l.14-49.286Z" transform="translate(-609.027 -502.749)"/></g></g></g><g transform="translate(0 5.834)"><g class="j"><g transform="translate(60.269 34.794)"><path class="w" d="M661.89,585.438l1.075-.625.14-49.286-1.075.625Z" transform="translate(-661.89 -535.527)"/></g><g transform="translate(0.14)"><path class="v" d="M668.023,539.62,669.1,539,608.829,504.2l-1.075.625Z" transform="translate(-607.755 -504.201)"/></g><g transform="translate(0 0.625)"><path class="x" d="M607.768,504.763l-.14,49.286L667.9,588.844l.14-49.287Z" transform="translate(-607.629 -504.763)"/></g></g></g></g><g transform="translate(6.027 20.847)"><g transform="translate(2.091)"><g class="j"><path class="v" d="M621.185,512.734l-.039-.037a6.939,6.939,0,0,0-.564-.491l-.022-.017a5.85,5.85,0,0,0-.6-.405L604.222,502.7l1.075-.624,15.734,9.085a5.68,5.68,0,0,1,.6.405l.022.017a6.541,6.541,0,0,1,.564.491l.038.036.024.023q.208.2.406.433c.029.033.057.07.084.1s.053.064.08.1c.044.054.09.107.133.162.083.109.165.22.245.334q.05.07.1.14l3.078,4.578c.151.223.311.434.477.636l.079.1c.167.2.338.385.515.56l.039.036a6.576,6.576,0,0,0,.564.491l.022.017a5.6,5.6,0,0,0,.6.406l36.847,21.272-1.075.624-36.846-21.271a5.722,5.722,0,0,1-.6-.405l-.023-.018a6.745,6.745,0,0,1-.564-.491l-.039-.036-.023-.022q-.208-.207-.406-.434c-.029-.033-.057-.069-.084-.1s-.053-.064-.08-.1c-.044-.054-.09-.107-.133-.162-.083-.108-.166-.22-.245-.333l-.1-.141-3.078-4.578c-.151-.222-.311-.433-.477-.635-.026-.033-.052-.066-.079-.1C621.534,513.1,621.363,512.908,621.185,512.734Z" transform="translate(-604.07 -502.076)"/><g transform="translate(60.268 39.418)"><path class="w" d="M658.346,587.476l1.075-.625.14-49.286-1.075.624Z" transform="translate(-658.346 -537.565)"/></g><g transform="translate(0 0.624)"><path class="x" d="M604.237,502.638l-.013,4.624-.139,49.286,60.269,34.794.139-49.286-36.846-21.271a7.289,7.289,0,0,1-2.3-2.243l-3.078-4.578a7.308,7.308,0,0,0-2.3-2.242Z" transform="translate(-604.085 -502.638)"/></g></g></g><g transform="translate(0.958 53.458)"><path class="x" d="M663.45,585.637l-60.385-34.845,1.016-.587,60.385,34.845Z" transform="translate(-603.065 -550.205)"/><g transform="translate(60.385 34.845)"><path class="w" d="M657.431,582.163l1.016-.587V582.6l-1.016.587Z" transform="translate(-657.431 -581.577)"/></g><path class="y" d="M603.065,550.792l1.016-.587v1.026l-1.016.587Z" transform="translate(-603.065 -550.205)"/></g><g transform="translate(1.553 3.598)"><g class="j"><g transform="translate(60.269 34.794)"><path class="c" d="M657.862,586.552l1.075-.625.14-49.286-1.074.624Z" transform="translate(-657.862 -536.641)"/></g><g transform="translate(0.14)"><path class="d" d="M664,540.734l1.075-.624L604.8,505.315l-1.075.624Z" transform="translate(-603.727 -505.315)"/></g><g transform="translate(0 0.624)"><path class="q" d="M603.74,505.877l-.14,49.287,60.269,34.794.14-49.287Z" transform="translate(-603.601 -505.877)"/></g></g></g><g transform="translate(0 5.834)"><g class="j"><g transform="translate(60.269 34.794)"><path class="w" d="M656.463,588.566l1.075-.625.14-49.286-1.075.625Z" transform="translate(-656.463 -538.655)"/></g><g transform="translate(0.14)"><path class="v" d="M662.6,542.748l1.075-.625L603.4,507.329l-1.075.625Z" transform="translate(-602.328 -507.329)"/></g><g transform="translate(0 0.625)"><path class="x" d="M602.342,507.891l-.14,49.286,60.269,34.794.14-49.286Z" transform="translate(-602.202 -507.891)"/></g></g></g></g><g transform="translate(0 24.321)"><g transform="translate(2.091)"><g class="j"><path class="v" d="M615.759,515.862l-.039-.036a7,7,0,0,0-.564-.492l-.022-.016a5.7,5.7,0,0,0-.6-.406L598.8,505.828l1.074-.624,15.736,9.085a5.812,5.812,0,0,1,.6.407l.021.016a6.974,6.974,0,0,1,.565.492l.038.036.024.022c.139.137.274.282.406.433.029.033.056.07.084.1l.079.1c.044.054.09.107.133.163q.127.162.247.333l.1.14,3.078,4.578c.15.223.31.434.475.636.027.032.053.066.08.1.166.2.338.387.514.56l.039.036a7,7,0,0,0,.564.492l.023.016a5.587,5.587,0,0,0,.6.406l36.846,21.271-1.074.624L622.2,523.975a5.987,5.987,0,0,1-.6-.405l-.022-.017a6.761,6.761,0,0,1-.564-.492l-.039-.036-.024-.022q-.208-.207-.405-.434c-.03-.032-.057-.069-.086-.1l-.079-.1c-.044-.054-.09-.107-.133-.163q-.127-.162-.247-.333l-.1-.141-3.078-4.577c-.15-.223-.31-.434-.475-.636-.027-.032-.053-.066-.08-.1C616.108,516.225,615.935,516.036,615.759,515.862Z" transform="translate(-598.643 -505.204)"/><g transform="translate(60.269 39.418)"><path class="w" d="M652.919,590.6l1.075-.625.14-49.287-1.075.624Z" transform="translate(-652.919 -540.693)"/></g><g transform="translate(0 0.624)"><path class="x" d="M598.811,505.766l-.013,4.624-.14,49.286,60.269,34.8.14-49.287L622.22,523.913a7.3,7.3,0,0,1-2.3-2.243l-3.078-4.577a7.291,7.291,0,0,0-2.3-2.243Z" transform="translate(-598.658 -505.766)"/></g></g></g><g transform="translate(0.958 53.458)"><path class="x" d="M658.024,588.765,597.639,553.92l1.016-.587,60.385,34.845Z" transform="translate(-597.639 -553.334)"/><g transform="translate(60.385 34.845)"><path class="w" d="M652,585.291l1.016-.587v1.026l-1.016.587Z" transform="translate(-652.004 -584.705)"/></g><path class="y" d="M597.639,553.92l1.016-.587v1.026l-1.016.587Z" transform="translate(-597.639 -553.334)"/></g><g transform="translate(1.553 3.598)"><g class="j"><g transform="translate(60.269 34.794)"><path class="c" d="M652.435,589.68l1.075-.625.14-49.287-1.075.625Z" transform="translate(-652.435 -539.769)"/></g><g transform="translate(0.14)"><path class="d" d="M658.569,543.862l1.075-.625-60.269-34.794-1.075.625Z" transform="translate(-598.3 -508.443)"/></g><g transform="translate(0 0.625)"><path class="q" d="M598.314,509.005l-.14,49.286,60.269,34.794.14-49.286Z" transform="translate(-598.174 -509.005)"/></g></g></g><g transform="translate(0 5.835)"><g class="j"><g transform="translate(60.269 34.794)"><path class="w" d="M651.037,591.694l1.075-.625.14-49.286-1.075.625Z" transform="translate(-651.037 -541.783)"/></g><g transform="translate(0.14)"><path class="v" d="M657.17,545.876l1.075-.625-60.269-34.794-1.075.625Z" transform="translate(-596.902 -510.457)"/></g><g transform="translate(0 0.625)"><path class="x" d="M596.916,511.019l-.14,49.286L657.045,595.1l.14-49.286Z" transform="translate(-596.776 -511.019)"/></g></g></g></g></g><g transform="translate(0 31.279)"><g transform="translate(67.368 8.599)"><path class="s" d="M649.905,547.96v49.889L699.7,569.1V519.21Z" transform="translate(-649.905 -519.21)"/><path class="t" d="M649.905,547.961l2.657,1.544,49.795-28.75L699.7,519.21Z" transform="translate(-649.905 -519.21)"/><g transform="translate(2.657 1.545)"><path class="u" d="M652.3,549.352V599.24l49.795-28.75V520.6Z" transform="translate(-652.298 -520.602)"/></g><path class="u" d="M649.905,594.983l2.657,1.545V546.64l-2.657-1.545Z" transform="translate(-649.905 -516.344)"/></g><g transform="translate(2.657)"><path class="s" d="M659.013,550.363v49.889l-67.368-38.895V511.468Z" transform="translate(-591.645 -511.468)"/></g><path class="t" d="M659.278,550.364l-2.657,1.544-67.368-38.9,2.658-1.545Z" transform="translate(-589.253 -511.468)"/><g transform="translate(0 1.545)"><path class="z" d="M656.621,551.754v49.889l-67.368-38.895V512.859Z" transform="translate(-589.253 -512.859)"/></g><path class="u" d="M652.563,596.374l-2.657,1.545V548.031l2.657-1.544Z" transform="translate(-582.537 -507.591)"/></g></g></g><g transform="translate(-221.286 1656.569)"><path class="aa" d="M1241.4,691.723s-4.965,15.488,9.705,25.444c0,0,6.474,1.379,6.1-6.542s-.817-19.122-.817-19.122Z" transform="translate(-2.464 -4.689)"/><g transform="translate(1148.593 516.431)"><ellipse class="ab" cx="38.875" cy="59.434" rx="38.875" ry="59.434" transform="translate(0 26.503) rotate(-19.93)"/><path class="a" d="M1286.679,678.952l-7.721,16.62-36.2-51.539,7.721-16.62Z" transform="translate(-1151.115 -519.403)"/><g transform="translate(104.407 134.276)"><path class="a" d="M1275.61,654.612c7.707-1.305,11.747,3.579,9.023,10.907s-11.18,14.328-18.887,15.633-11.747-3.579-9.023-10.908S1267.9,655.916,1275.61,654.612Z" transform="translate(-1255.873 -654.401)"/><path class="a" d="M1301.472,739.835l-43.919-60.61,27.156-21.352,44.242,60.952Z" transform="translate(-1255.918 -654.494)"/><path class="a" d="M1321.208,717.492c7.707-1.305,11.747,3.578,9.023,10.907s-11.18,14.328-18.887,15.633-11.747-3.579-9.023-10.907S1313.5,718.8,1321.208,717.492Z" transform="translate(-1257.094 -656.085)"/><path class="a" d="M1331.254,780.5l-43.919-60.61,27.156-21.352,44.242,60.953Z" transform="translate(-1256.715 -655.583)"/><path class="a" d="M1350.99,758.153c7.707-1.3,11.747,3.578,9.023,10.908s-11.18,14.327-18.887,15.632-11.747-3.579-9.023-10.907S1343.282,759.458,1350.99,758.153Z" transform="translate(-1257.891 -657.174)"/></g><path class="ac" d="M1205.521,556.091l-12.355,35.8c-.635,1.839-2.677,1.852-4.563.03h0c-1.885-1.823-2.9-4.79-2.265-6.63l12.355-35.8c.635-1.839,2.677-1.853,4.562-.03h0C1205.141,551.284,1206.156,554.252,1205.521,556.091Z" transform="translate(-1149.599 -517.279)"/><path class="ac" d="M1218.229,571.972l-12.355,35.8c-.635,1.838-2.677,1.852-4.563.03h0c-1.885-1.823-2.9-4.791-2.265-6.63l12.355-35.8c.634-1.838,2.677-1.852,4.562-.029h0C1217.849,567.166,1218.864,570.134,1218.229,571.972Z" transform="translate(-1149.939 -517.704)"/><path class="ad" d="M1218.392,528.432c-27.327-12.117-50.356,3.683-51.439,35.291s20.194,67.056,47.521,79.172,50.355-3.683,51.437-35.291S1245.719,540.549,1218.392,528.432Zm40.068,75.868c-.919,26.848-20.48,40.269-43.691,29.976s-41.283-40.4-40.364-67.249,20.479-40.269,43.691-29.976S1259.38,577.451,1258.461,604.3Z" transform="translate(-1149.083 -516.643)"/><path class="ae" d="M1267.163,589.2c-.092-.682-.19-1.365-.3-2.049-.02-.122-.045-.243-.065-.365-.056-.325-.117-.65-.175-.975-.071-.394-.135-.79-.212-1.184-.043-.22-.094-.439-.139-.658-.071-.351-.146-.7-.222-1.055-.059-.271-.11-.541-.172-.812-.074-.325-.159-.649-.237-.974-.084-.351-.167-.7-.256-1.053-.044-.173-.082-.346-.126-.52-.12-.461-.253-.92-.38-1.379-.083-.3-.161-.6-.246-.894-.024-.084-.045-.168-.069-.252q-.359-1.233-.754-2.461l-.01-.029c-.024-.074-.052-.148-.075-.223-.236-.723-.477-1.445-.731-2.165-.04-.113-.084-.226-.125-.339-.1-.273-.2-.543-.3-.815-.142-.386-.279-.774-.427-1.159-.093-.246-.2-.49-.292-.736q-.175-.448-.355-.894c-.088-.218-.171-.438-.261-.655-.179-.434-.369-.865-.555-1.3-.1-.231-.195-.461-.295-.691-.036-.082-.069-.164-.105-.245q-.5-1.133-1.031-2.254c-.016-.032-.032-.063-.048-.1-.1-.215-.21-.426-.313-.64-.278-.574-.555-1.149-.844-1.719-.046-.09-.1-.176-.141-.266-.239-.468-.49-.93-.737-1.395-.2-.372-.387-.747-.59-1.116-.037-.067-.079-.131-.116-.2q-.991-1.8-2.057-3.542c-.06-.1-.113-.2-.173-.3-.181-.295-.373-.581-.557-.874-.3-.477-.6-.954-.907-1.425-.273-.418-.551-.828-.829-1.241-.312-.464-.627-.926-.947-1.383-.105-.151-.205-.306-.311-.455-.255-.359-.519-.71-.778-1.066-.178-.243-.353-.489-.533-.73q-.847-1.137-1.723-2.244l-.016-.019h0l-.016-.019q-1-1.26-2.042-2.475c-.031-.036-.06-.074-.09-.109-.506-.59-1.022-1.167-1.541-1.74-.1-.116-.2-.235-.31-.35l-.018-.021q-.924-1.012-1.876-1.988c-.031-.032-.063-.062-.1-.094-.194-.2-.392-.389-.588-.585-.4-.4-.8-.81-1.209-1.2-.077-.074-.157-.144-.234-.217-.276-.265-.557-.52-.836-.779-.308-.287-.613-.58-.926-.861-.115-.1-.234-.2-.35-.3-.3-.27-.611-.533-.918-.8-.265-.228-.525-.463-.791-.687-.15-.127-.306-.244-.456-.369-.331-.272-.665-.54-1-.807-.233-.185-.46-.378-.694-.56-.183-.142-.371-.274-.555-.415q-.5-.382-1.01-.755c-.206-.151-.408-.311-.614-.458-.223-.16-.451-.307-.674-.465q-.5-.347-1-.687c-.172-.116-.342-.239-.514-.354-.281-.185-.566-.357-.849-.537-.312-.2-.622-.4-.935-.593-.126-.078-.249-.161-.376-.238-.381-.231-.767-.445-1.15-.667-.264-.153-.525-.31-.789-.458-.068-.038-.135-.08-.2-.118q-1.042-.577-2.1-1.108l-.019-.009c-.052-.026-.1-.049-.156-.075-.635-.317-1.275-.627-1.918-.919-.161-.074-.323-.146-.485-.218q-.79-.35-1.575-.67c-.2-.081-.4-.15-.595-.228q-.406-.159-.809-.31c-.209-.078-.42-.165-.628-.24-.335-.121-.666-.224-1-.336-.24-.08-.479-.164-.717-.24-.1-.031-.2-.068-.295-.1q-1-.311-1.984-.571l-.011,0q-1.009-.266-2-.48c-.087-.018-.172-.031-.258-.049-.241-.051-.48-.091-.719-.136-.341-.065-.682-.138-1.02-.195-.168-.027-.335-.044-.5-.069-.295-.045-.588-.085-.881-.123-.226-.029-.455-.069-.68-.094s-.468-.038-.7-.06c-.295-.027-.589-.055-.882-.075-.154-.011-.311-.03-.465-.04-.276-.016-.546-.013-.819-.022-.34-.013-.68-.026-1.017-.028-.119,0-.24-.011-.358-.011-.28,0-.554.021-.832.029-.362.009-.724.016-1.082.037-.106.006-.214,0-.319.011-.246.017-.484.054-.727.075-.428.038-.856.077-1.279.131-.118.015-.24.02-.359.036-.468.065-.932.142-1.394.227-.059.011-.118.025-.176.036-.35.066-.7.134-1.046.212-.22.05-.435.11-.653.164-.164.041-.329.08-.492.124-.6.159-1.189.328-1.77.521-.019.006-.036.014-.055.02-.159.052-.311.116-.468.171-.485.17-.966.346-1.439.54-.231.094-.456.2-.683.3-.3.132-.608.257-.906.4-.075.037-.146.082-.221.118-.458.225-.9.469-1.349.716-.217.121-.439.232-.653.358-.651.384-1.292.789-1.914,1.223l-10.185,7.1c.622-.434,1.262-.839,1.914-1.223.213-.125.435-.236.651-.357.446-.247.892-.492,1.351-.717.37-.181.746-.349,1.125-.516.229-.1.453-.207.685-.3.472-.194.955-.369,1.438-.539.157-.055.311-.12.469-.172.6-.2,1.208-.377,1.823-.54.165-.044.33-.084.5-.125.56-.139,1.124-.268,1.7-.375.059-.012.118-.025.178-.036.576-.107,1.163-.189,1.753-.264.422-.055.851-.094,1.28-.131.348-.03.693-.065,1.043-.086s.722-.027,1.084-.037c.4-.01.791-.021,1.191-.018.335,0,.674.017,1.013.028.427.016.857.033,1.288.063.292.021.585.048.878.075q.689.064,1.386.155c.294.037.588.077.883.122.5.077,1.01.167,1.519.263.24.047.48.088.722.138.749.156,1.5.328,2.261.528h.006l.006,0c.754.2,1.515.426,2.279.671.238.075.477.16.715.239.54.182,1.083.373,1.628.576q.4.15.807.309c.721.283,1.443.575,2.17.9.811.359,1.614.743,2.413,1.142.048.024.1.046.145.07.779.392,1.552.807,2.319,1.236.264.147.523.3.784.456.513.3,1.025.6,1.532.909.312.192.621.391.931.59q.686.438,1.365.894c.334.224.665.455,1,.685q.648.454,1.288.925.508.372,1.011.755c.418.319.834.645,1.249.974.333.267.667.533,1,.806.419.346.833.7,1.247,1.055.308.266.617.53.922.8.427.38.849.769,1.269,1.16.28.26.564.517.841.781.487.465.965.941,1.443,1.42.194.2.394.385.588.584q1.009,1.032,1.99,2.1c.1.111.2.227.3.339q.831.917,1.64,1.86,1.029,1.2,2.023,2.452l.036.043,0,.006c.589.741,1.164,1.495,1.732,2.256.18.242.356.489.534.733q.551.753,1.089,1.519c.32.456.633.919.946,1.382.278.414.558.826.831,1.244.306.47.605.945.9,1.42.245.391.491.782.732,1.177q1.063,1.747,2.056,3.542c.241.435.472.876.707,1.316.247.464.5.926.737,1.394.335.654.659,1.313.979,1.975.106.218.216.433.32.651q.612,1.289,1.183,2.594c.1.229.2.46.295.69q.419.972.816,1.952c.121.3.238.6.355.9q.371.943.719,1.895c.1.272.2.542.3.814q.448,1.254.86,2.518c.022.069.048.138.07.207.294.912.569,1.827.834,2.744.086.3.163.6.246.9.174.631.344,1.261.505,1.894.089.353.173.706.257,1.06q.213.889.407,1.779.115.528.224,1.058c.125.615.241,1.231.351,1.846.058.323.12.645.174.968q.2,1.209.367,2.417c.016.118.036.235.052.353q.183,1.384.312,2.766c.024.262.043.524.065.786.056.661.1,1.322.142,1.981q.028.477.048.955.042.94.057,1.875c.006.3.014.606.015.908,0,.891,0,1.78-.033,2.665-.031.93-.086,1.842-.155,2.745-.02.256-.048.506-.071.76-.055.62-.116,1.236-.189,1.842-.042.351-.092.7-.139,1.043-.072.515-.147,1.027-.232,1.532-.061.373-.129.741-.2,1.107q-.131.7-.279,1.385-.133.617-.278,1.223t-.313,1.228q-.191.714-.4,1.411c-.11.364-.221.726-.338,1.083-.183.561-.38,1.108-.58,1.652-.126.341-.247.686-.38,1.02-.067.167-.136.334-.205.5q-.352.851-.733,1.671c-.049.106-.1.216-.147.321q-.486,1.025-1.019,2l-.008.015q-.533.971-1.111,1.889c-.078.124-.16.241-.238.364q-.441.683-.9,1.338c-.125.175-.251.347-.378.52-.293.4-.594.785-.9,1.166-.118.145-.233.293-.351.436-.421.5-.852,1-1.3,1.469-.062.066-.128.128-.192.194q-.581.609-1.189,1.179c-.147.138-.3.273-.446.408q-.52.47-1.056.913c-.149.122-.295.246-.445.365-.5.4-1,.781-1.524,1.143l10.185-7.1c.52-.362,1.026-.747,1.524-1.143.151-.119.3-.243.445-.366q.537-.442,1.056-.912c.15-.135.3-.27.447-.408q.607-.571,1.189-1.179c.063-.066.128-.128.192-.195.445-.472.875-.964,1.3-1.469.119-.142.234-.29.35-.435q.46-.571.9-1.166c.127-.172.254-.344.378-.52q.466-.654.9-1.338c.079-.122.161-.24.238-.365.023-.037.049-.071.072-.108q.539-.867,1.04-1.781l.008-.014q.5-.912.959-1.868c.021-.043.039-.088.059-.131.051-.107.1-.217.148-.324q.381-.819.732-1.669c.068-.167.138-.332.2-.5.051-.124.1-.244.153-.37.082-.211.149-.436.228-.649.2-.543.4-1.092.581-1.652.049-.149.106-.288.154-.439.066-.209.12-.431.183-.643q.21-.7.4-1.412c.052-.195.114-.38.164-.577.053-.212.1-.435.148-.65q.146-.606.279-1.224c.046-.211.1-.415.144-.629.049-.247.088-.505.134-.756.069-.367.136-.735.2-1.107.032-.19.071-.374.1-.565.049-.317.085-.646.13-.967.048-.347.1-.693.14-1.044.018-.141.04-.277.057-.419.052-.467.089-.947.132-1.422.022-.254.052-.5.071-.761,0-.062.013-.123.017-.186q.088-1.191.132-2.414l.005-.143q.038-1.118.04-2.242c0-.14-.007-.282-.007-.423,0-.3-.01-.6-.015-.905-.007-.354-.006-.708-.018-1.064-.009-.272-.028-.544-.04-.816-.015-.317-.029-.635-.048-.953-.012-.209-.017-.418-.031-.627-.03-.453-.074-.905-.112-1.359-.022-.261-.04-.521-.064-.781-.009-.087-.013-.174-.022-.262q-.12-1.225-.281-2.452c0-.018-.006-.036-.008-.054C1267.2,589.433,1267.179,589.315,1267.163,589.2Z" transform="translate(-1149.283 -516.479)"/><path class="a" d="M1210.416,527.775c-13.3-5.9-26.208-5.651-36.337.693-10.933,6.849-17.267,19.744-17.833,36.311-1.106,32.283,20.731,68.627,48.676,81.018,8.147,3.613,16.144,4.921,23.446,3.935a32.256,32.256,0,0,0,12.891-4.627c10.934-6.849,17.267-19.745,17.834-36.312C1260.2,576.511,1238.362,540.166,1210.416,527.775Zm37.336,77.581c-.439,12.839-5.22,22.753-13.461,27.915-7.559,4.737-17.324,4.859-27.5.349-22.51-9.982-40.1-39.323-39.207-65.4.44-12.839,5.22-22.753,13.462-27.915a23.786,23.786,0,0,1,9.517-3.405c5.553-.75,11.689.268,17.979,3.056C1231.056,549.935,1248.644,579.275,1247.752,605.356Z" transform="translate(-1148.797 -516.62)"/></g><path class="af" d="M1263.233,671.584l-9.8,27.764c-1.39,2.154-21.425-7.984-19.714-11.294.3-.584,10.967-34.12,22.438-39.533C1265.475,644.123,1268.38,658.934,1263.233,671.584Z" transform="translate(-2.277 -3.516)"/><path class="aa" d="M1282.95,653.675l-.789-.05a4.869,4.869,0,0,1-4.539-5.15l.948-15.023a4.868,4.868,0,0,1,5.15-4.539l.788.05a4.868,4.868,0,0,1,4.539,5.15l1.213,14.57C1290.092,651.347,1285.615,653.844,1282.95,653.675Z" transform="translate(-3.455 -3.012)"/><ellipse class="aa" cx="8.58" cy="15.136" rx="8.58" ry="15.136" transform="translate(1275.511 607.796) rotate(-2.271)"/><path class="ag" d="M1275.423,624.771c2.2-3.478,7.616-3.651,15.539-1.237,7.139-.093,7.52-8.3,7.52-8.3.8-4.418-2.21-6.161-6.628-6.966l-11.506-2.094c-6.513-1.221-12.308,4.489-13.112,8.908l-.242.735C1266.188,620.235,1271.005,623.967,1275.423,624.771Z" transform="translate(-3.169 -2.399)"/><path class="ah" d="M1261.923,867.684c11.78,6.272,31.819,6.472,44.759.446s13.881-16,2.1-22.269-31.82-6.473-44.759-.446S1250.143,861.411,1261.923,867.684Z" transform="translate(-2.814 -8.693)"/><path class="ai" d="M1315.981,855.641,1303.356,866.2c-3.2,2.131-5.309.667-7.984.1a2.606,2.606,0,0,1-2.035-2.573l.011-2.651c-.116-3.823,3.4-6.07,5.836-7.236l12.909-7.115C1314.534,845.554,1322.523,849.682,1315.981,855.641Z" transform="translate(-3.877 -8.84)"/><path class="ai" d="M1270.175,838.789l3.537,16.071c1.185,8.42-12.278,9.819-12.986.7l-.26-17.437C1260.559,835.416,1267.909,830.236,1270.175,838.789Z" transform="translate(-2.996 -8.507)"/><path class="aj" d="M1304.043,857.693c.032,3.906-9.472,3.984-9.5.078l-.1-12.7,9.5-.079Z" transform="translate(-3.906 -8.799)"/><path class="aj" d="M1271.93,849.7c0,3.908-9.5,3.908-9.5,0v-12.7h9.5Z" transform="translate(-3.049 -8.586)"/><path class="ak" d="M1272.9,842.866c-3.724,2.672-9.883,2.611-11.939-.5-2.436-46.479-10.07-77.551-9.594-117.292l29.523-8.756C1275.629,764.03,1275.07,805.945,1272.9,842.866Z" transform="translate(-2.752 -5.353)"/><path class="ak" d="M1304.532,847.394c-3.009,4.2-9.807,4.229-11.813,1.193l-19.892-125.323h34.3Z" transform="translate(-3.327 -5.539)"/><path class="ac" d="M1250.149,719.923c2.46-13.486,3.286-28.761,1.062-47.379,0-25.778,3.557-25.819,20.838-26.863l4.023-.254a28.643,28.643,0,0,1,14.316,2.815c15.261,7.419,22.656,9.153,19.561,27.465l-3.433,45.471C1306.517,744.586,1248.9,747.442,1250.149,719.923Z" transform="translate(-2.719 -3.453)"/><path class="al" d="M1298.313,684.6l8.45,35.09,1.012,3.416,1.242-16.913Z" transform="translate(-4.01 -4.504)"/><path class="ag" d="M1271.715,637.846c3.135,6.528,10.914,7.761,14.478,2.547s8.415-15.558,5.281-22.085-21.533-6.173-25.1-.959S1268.581,631.318,1271.715,637.846Z" transform="translate(-3.124 -2.598)"/><path class="aa" d="M1312.309,706.094s3.289,15.929,20.958,17.388c0,0,6.315-1.982,2.1-8.7s-10.112-16.252-10.112-16.252Z" transform="translate(-4.384 -4.877)"/><path class="af" d="M1296.682,678.069l9.8,27.764c1.39,2.155,21.426-7.984,19.714-11.294-.3-.584-10.967-34.12-22.438-39.533C1294.439,650.608,1291.534,665.419,1296.682,678.069Z" transform="translate(-3.898 -3.69)"/></g></g></svg>