<svg id="Livello_1" data-name="Livello 1" xmlns="http://www.w3.org/2000/svg" viewBox="0 0 116.33 116.33"><defs><style>.cls-1{font-size:20.26px;fill:#f23645;font-family:TitilliumWeb-Bold, Titillium Web, Arial;font-weight:700;}.cls-2,.cls-3{fill:none;stroke-miterlimit:10;stroke-width:2px;}.cls-2{stroke:#0098cb;}.cls-3{stroke:#f23645;}</style></defs><title>ico4</title><text class="cls-1" transform="matrix(0.9, -0.43, 0.43, 0.9, 36.09, 30.28)">G</text><text class="cls-1" transform="translate(46.35 25.18) rotate(-8.18)">D</text><text class="cls-1" transform="matrix(0.99, 0.16, -0.16, 0.99, 58.24, 23.4)">P</text><text class="cls-1" transform="translate(69.18 24.97) rotate(25.75)">R</text><path class="cls-2" d="M60.25,62.67c0-3-5.91-5.34-13.2-5.34s-13.21,2.39-13.21,5.34v8.91c0,3,5.91,5.34,13.21,5.34s13.2-2.39,13.2-5.34Z"/><path class="cls-2" d="M33.84,62.67c0,3,5.91,5.34,13.21,5.34s13.2-2.39,13.2-5.34"/><path class="cls-2" d="M33.84,75.14v5.35c0,3,5.91,5.34,13.21,5.34s13.2-2.39,13.2-5.34V75.14"/><path class="cls-2" d="M33.84,84.05v5.34c0,3,5.91,5.35,13.21,5.35s13.2-2.4,13.2-5.35V84.05"/><path class="cls-2" d="M82.48,72.66c0-2-4.07-3.68-9.09-3.68s-9.09,1.64-9.09,3.68v6.13c0,2,4.07,3.68,9.09,3.68s9.09-1.65,9.09-3.68Z"/><path class="cls-2" d="M64.3,72.66c0,2,4.07,3.68,9.09,3.68s9.09-1.65,9.09-3.68"/><path class="cls-2" d="M64.3,81.24v3.68c0,2,4.07,3.68,9.09,3.68s9.09-1.64,9.09-3.68V81.24"/><path class="cls-2" d="M64.3,87.38v3.68c0,2,4.07,3.68,9.09,3.68s9.09-1.65,9.09-3.68V87.38"/><path class="cls-3" d="M90,80a36.41,36.41,0,1,0-63.57,0"/></svg>