<svg id="Livello_1" data-name="Livello 1" xmlns="http://www.w3.org/2000/svg" viewBox="0 0 116.33 116.33"><defs><style>.cls-1,.cls-2{fill:none;stroke-miterlimit:10;stroke-width:2px;}.cls-1{stroke:#f23645;}.cls-2{stroke:#0098cb;}</style></defs><title>ico3</title><circle class="cls-1" cx="58.16" cy="57.16" r="22.02" transform="translate(-16.91 89.02) rotate(-67.5)"/><path class="cls-2" d="M64.17,19.13a6,6,0,1,1-6-6A6,6,0,0,1,64.17,19.13Z"/><circle class="cls-2" cx="58.16" cy="97.2" r="6"/><path class="cls-2" d="M94.19,29.14a6,6,0,1,1-6-6A6,6,0,0,1,94.19,29.14Z"/><path class="cls-2" d="M100.2,57.16a6,6,0,1,1-6-6A6,6,0,0,1,100.2,57.16Z"/><path class="cls-2" d="M94.19,85.19a6,6,0,1,1-6-6A6,6,0,0,1,94.19,85.19Z"/><line class="cls-1" x1="58.16" y1="25.14" x2="58.16" y2="35.14"/><line class="cls-1" x1="58.16" y1="79.18" x2="58.16" y2="91.19"/><line class="cls-1" x1="84.18" y1="33.14" x2="74.18" y2="43.15"/><line class="cls-1" x1="84.18" y1="81.18" x2="74.18" y2="71.17"/><line class="cls-1" x1="80.18" y1="57.16" x2="88.19" y2="57.16"/><path class="cls-2" d="M22.13,29.14a6,6,0,1,0,6-6A6,6,0,0,0,22.13,29.14Z"/><path class="cls-2" d="M16.13,57.16a6,6,0,1,0,6-6A6,6,0,0,0,16.13,57.16Z"/><path class="cls-2" d="M22.13,85.19a6,6,0,1,0,6-6A6,6,0,0,0,22.13,85.19Z"/><line class="cls-1" x1="32.14" y1="33.14" x2="42.15" y2="43.15"/><line class="cls-1" x1="32.14" y1="81.18" x2="42.15" y2="71.17"/><line class="cls-1" x1="36.15" y1="57.16" x2="28.14" y2="57.16"/><path class="cls-2" d="M68.17,69.17V65.26c0-2.47-5.5-6.1-10-6.1s-10,3.63-10,6.1v3.91"/><path class="cls-2" d="M58.16,45.15a6,6,0,0,0-6,5.61v2.8c0,3.09,2.9,5.6,6,5.6s6-2.51,6-5.6v-2.8A6,6,0,0,0,58.16,45.15Z"/></svg>